<svg width="64" height="64" viewBox="0 0 64 64" fill="none" xmlns="http://www.w3.org/2000/svg">
<g clip-path="url(#clip0_763_239)">
<path d="M64.0001 37.3493C63.9969 36.2309 63.7577 35.1258 63.2982 34.1061C62.8387 33.0865 62.1692 32.1752 61.3334 31.432V24C61.3264 17.637 58.7955 11.5366 54.2962 7.03723C49.7968 2.53789 43.6964 0.00705828 37.3334 0L26.6667 0C20.3037 0.00705828 14.2033 2.53789 9.70397 7.03723C5.20463 11.5366 2.6738 17.637 2.66674 24V31.432C1.831 32.1752 1.16149 33.0865 0.70198 34.1061C0.242467 35.1258 0.00328773 36.2309 7.40514e-05 37.3493V37.8053C-0.00479365 38.9367 0.230371 40.0563 0.690044 41.0901C1.14972 42.1239 1.82344 43.0484 2.66674 43.8027V53.3333C2.66674 56.1623 3.79055 58.8754 5.79094 60.8758C7.79132 62.8762 10.5044 64 13.3334 64H50.6667C53.4957 64 56.2088 62.8762 58.2092 60.8758C60.2096 58.8754 61.3334 56.1623 61.3334 53.3333V43.2693C62.1695 42.5258 62.8392 41.6142 63.2987 40.594C63.7582 39.5739 63.9972 38.4682 64.0001 37.3493ZM8.00007 24C8.00572 19.051 9.9742 14.3064 13.4737 10.8069C16.9731 7.30745 21.7178 5.33898 26.6667 5.33333H37.3334C42.2824 5.33898 47.027 7.30745 50.5265 10.8069C54.026 14.3064 55.9944 19.051 56.0001 24V29.3493H8.00007V24ZM56.0001 40.016H45.3334C38.2646 40.0203 31.4351 42.5771 26.1014 47.216C25.5208 47.7262 24.7743 48.0076 24.0014 48.0076C23.2285 48.0076 22.482 47.7262 21.9014 47.216C17.7931 43.6418 12.771 41.2817 7.39741 40.4C6.80395 40.2777 6.27225 39.951 5.89504 39.4768C5.51784 39.0026 5.31907 38.4111 5.33341 37.8053V37.3493C5.33341 36.6421 5.61436 35.9638 6.11446 35.4637C6.61455 34.9636 7.29283 34.6827 8.00007 34.6827H56.0001C56.7073 34.6827 57.3856 34.9636 57.8857 35.4637C58.3858 35.9638 58.6667 36.6421 58.6667 37.3493C58.6667 38.0566 58.3858 38.7349 57.8857 39.235C57.3856 39.7351 56.7073 40.016 56.0001 40.016ZM56.0001 53.3333C56.0001 54.7478 55.4382 56.1044 54.438 57.1046C53.4378 58.1048 52.0812 58.6667 50.6667 58.6667H13.3334C11.9189 58.6667 10.5624 58.1048 9.56217 57.1046C8.56198 56.1044 8.00007 54.7478 8.00007 53.3333V46.008C11.8429 46.8667 15.4148 48.6591 18.4001 51.2267C19.947 52.5901 21.9381 53.3423 24.0001 53.3423C26.062 53.3423 28.0532 52.5901 29.6001 51.2267C33.967 47.4404 39.5536 45.3573 45.3334 45.36H56.0001V53.3333ZM29.3334 13.3333C29.3334 14.0406 29.0525 14.7189 28.5524 15.219C28.0523 15.719 27.374 16 26.6667 16C25.9595 16 25.2812 15.719 24.7811 15.219C24.281 14.7189 24.0001 14.0406 24.0001 13.3333C24.0001 12.6261 24.281 11.9478 24.7811 11.4477C25.2812 10.9476 25.9595 10.6667 26.6667 10.6667C27.374 10.6667 28.0523 10.9476 28.5524 11.4477C29.0525 11.9478 29.3334 12.6261 29.3334 13.3333ZM21.3334 21.3333C21.3334 22.0406 21.0525 22.7189 20.5524 23.219C20.0523 23.719 19.374 24 18.6667 24C17.9595 24 17.2812 23.719 16.7811 23.219C16.281 22.7189 16.0001 22.0406 16.0001 21.3333C16.0001 20.6261 16.281 19.9478 16.7811 19.4477C17.2812 18.9476 17.9595 18.6667 18.6667 18.6667C19.374 18.6667 20.0523 18.9476 20.5524 19.4477C21.0525 19.9478 21.3334 20.6261 21.3334 21.3333Z" fill="#4F48EC"/>
</g>
<defs>
<clipPath id="clip0_763_239">
<rect width="64" height="64" fill="white"/>
</clipPath>
</defs>
</svg>
