<svg width="64" height="64" viewBox="0 0 64 64" fill="none" xmlns="http://www.w3.org/2000/svg">
<g clip-path="url(#clip0_836_18817)">
<path d="M56 64.0016H50.6667V50.5536C50.6646 48.463 49.8331 46.4585 48.3548 44.9802C46.8764 43.5019 44.872 42.6704 42.7813 42.6683H21.2187C19.128 42.6704 17.1236 43.5019 15.6452 44.9802C14.1669 46.4585 13.3355 48.463 13.3333 50.5536V64.0016H8V50.5536C8.00423 47.0491 9.39827 43.6894 11.8763 41.2113C14.3544 38.7332 17.7142 37.3392 21.2187 37.335H42.7813C46.2858 37.3392 49.6456 38.7332 52.1237 41.2113C54.6017 43.6894 55.9958 47.0491 56 50.5536V64.0016Z" fill="#4F48EC"/>
<path d="M31.9998 31.9998C28.8353 31.9998 25.7418 31.0614 23.1106 29.3033C20.4795 27.5452 18.4287 25.0463 17.2177 22.1227C16.0067 19.1991 15.6898 15.982 16.3072 12.8783C16.9246 9.77462 18.4484 6.9237 20.6861 4.68605C22.9237 2.44841 25.7746 0.924562 28.8783 0.307199C31.982 -0.310165 35.1991 0.00668844 38.1227 1.21769C41.0463 2.42869 43.5452 4.47945 45.3033 7.11064C47.0614 9.74183 47.9998 12.8353 47.9998 15.9998C47.9955 20.2419 46.3085 24.3091 43.3088 27.3088C40.3091 30.3085 36.2419 31.9955 31.9998 31.9998ZM31.9998 5.3331C29.8901 5.3331 27.8278 5.95869 26.0737 7.13075C24.3196 8.30282 22.9524 9.96873 22.145 11.9178C21.3377 13.8669 21.1265 16.0116 21.5381 18.0807C21.9496 20.1499 22.9655 22.0505 24.4573 23.5422C25.9491 25.034 27.8497 26.0499 29.9188 26.4615C31.9879 26.8731 34.1326 26.6618 36.0817 25.8545C38.0308 25.0471 39.6967 23.68 40.8688 21.9258C42.0408 20.1717 42.6664 18.1094 42.6664 15.9998C42.6664 13.1708 41.5426 10.4577 39.5422 8.45729C37.5419 6.4569 34.8287 5.3331 31.9998 5.3331Z" fill="#4F48EC"/>
</g>
<defs>
<clipPath id="clip0_836_18817">
<rect width="64" height="64" fill="white"/>
</clipPath>
</defs>
</svg>
