<svg width="42" height="42" viewBox="0 0 42 42" fill="none" xmlns="http://www.w3.org/2000/svg">
<path fill-rule="evenodd" clip-rule="evenodd" d="M5.25 21C5.25 28.7875 10.9375 35.2625 18.375 36.575L18.4628 36.5048C18.4335 36.4991 18.4043 36.4934 18.375 36.4875V25.375H14.4375V21H18.375V17.5C18.375 13.5625 20.9125 11.375 24.5 11.375C25.6375 11.375 26.8625 11.55 28 11.725V15.75H25.9875C24.0625 15.75 23.625 16.7125 23.625 17.9375V21H27.825L27.125 25.375H23.625V36.4875C23.5957 36.4934 23.5665 36.4991 23.5372 36.5048L23.625 36.575C31.0625 35.2625 36.75 28.7875 36.75 21C36.75 12.3375 29.6625 5.25 21 5.25C12.3375 5.25 5.25 12.3375 5.25 21Z" fill="#FA4A0C"/>
</svg>
