<svg width="42" height="42" viewBox="0 0 42 42" fill="none" xmlns="http://www.w3.org/2000/svg">
<path d="M21.0006 5.72705C16.853 5.72705 16.3324 5.74519 14.7034 5.81932C13.0775 5.89378 11.9677 6.15119 10.9967 6.52887C9.99221 6.91896 9.14014 7.44078 8.29126 8.29001C7.44174 9.13891 6.91994 9.991 6.52859 10.9952C6.14996 11.9666 5.89224 13.0767 5.81906 14.702C5.7462 16.3311 5.72711 16.852 5.72711 20.9998C5.72711 25.1476 5.74557 25.6665 5.81938 27.2956C5.89415 28.9215 6.15155 30.0314 6.52891 31.0025C6.9193 32.007 7.44111 32.859 8.29031 33.708C9.13887 34.5575 9.99094 35.0806 10.9948 35.4707C11.9665 35.8484 13.0766 36.1058 14.7021 36.1802C16.3312 36.2544 16.8514 36.2725 20.9987 36.2725C25.1467 36.2725 25.6657 36.2544 27.2947 36.1802C28.9206 36.1058 30.0316 35.8484 31.0033 35.4707C32.0075 35.0806 32.8583 34.5575 33.7069 33.708C34.5564 32.859 35.0782 32.007 35.4695 31.0028C35.845 30.0314 36.1027 28.9212 36.1791 27.296C36.2522 25.6669 36.2713 25.1476 36.2713 20.9998C36.2713 16.852 36.2522 16.3314 36.1791 14.7023C36.1027 13.0764 35.845 11.9666 35.4695 10.9955C35.0782 9.991 34.5564 9.13891 33.7069 8.29001C32.8573 7.44046 32.0078 6.91864 31.0024 6.52887C30.0288 6.15119 28.9184 5.89378 27.2925 5.81932C25.6635 5.74519 25.1448 5.72705 20.9959 5.72705H21.0006ZM19.6306 8.47932C20.0372 8.47869 20.4909 8.47932 21.0006 8.47932C25.0783 8.47932 25.5616 8.49396 27.1719 8.56714C28.661 8.63523 29.4691 8.88405 30.0075 9.0931C30.7202 9.36991 31.2283 9.70082 31.7625 10.2354C32.297 10.7699 32.6279 11.279 32.9054 11.9917C33.1144 12.5295 33.3635 13.3376 33.4313 14.8267C33.5045 16.4367 33.5204 16.9204 33.5204 20.9963C33.5204 25.0722 33.5045 25.5558 33.4313 27.1658C33.3632 28.6549 33.1144 29.4631 32.9054 30.0008C32.6286 30.7135 32.297 31.221 31.7625 31.7553C31.228 32.2898 30.7205 32.6207 30.0075 32.8975C29.4698 33.1075 28.661 33.3557 27.1719 33.4238C25.562 33.497 25.0783 33.5129 21.0006 33.5129C16.9226 33.5129 16.4393 33.497 14.8294 33.4238C13.3403 33.3551 12.5322 33.1063 11.9935 32.8972C11.2808 32.6204 10.7717 32.2895 10.2372 31.755C9.70267 31.2204 9.37177 30.7126 9.09433 29.9995C8.88529 29.4618 8.63616 28.6536 8.56839 27.1645C8.49521 25.5545 8.48057 25.0709 8.48057 20.9925C8.48057 16.914 8.49521 16.4329 8.56839 14.8229C8.63648 13.3338 8.88529 12.5256 9.09433 11.9873C9.37114 11.2745 9.70267 10.7655 10.2372 10.2309C10.7717 9.69637 11.2808 9.36546 11.9935 9.088C12.5319 8.878 13.3403 8.62982 14.8294 8.56141C16.2382 8.49778 16.7842 8.47869 19.6306 8.47551V8.47932ZM29.1529 11.0152C28.1411 11.0152 27.3202 11.8352 27.3202 12.8473C27.3202 13.8591 28.1411 14.68 29.1529 14.68C30.1646 14.68 30.9855 13.8591 30.9855 12.8473C30.9855 11.8355 30.1646 11.0146 29.1529 11.0146V11.0152ZM21.0006 13.1566C16.6694 13.1566 13.1577 16.6684 13.1577 20.9998C13.1577 25.3312 16.6694 28.8414 21.0006 28.8414C25.3319 28.8414 28.8423 25.3312 28.8423 20.9998C28.8423 16.6684 25.3316 13.1566 21.0003 13.1566H21.0006ZM21.0006 15.9089C23.812 15.9089 26.0914 18.188 26.0914 20.9998C26.0914 23.8112 23.812 26.0907 21.0006 26.0907C18.189 26.0907 15.9099 23.8112 15.9099 20.9998C15.9099 18.188 18.189 15.9089 21.0006 15.9089Z" fill="#FA4A0C"/>
</svg>
