<svg width="42" height="42" viewBox="0 0 42 42" fill="none" xmlns="http://www.w3.org/2000/svg">
<path d="M11.4654 14.735C13.1836 14.735 14.5765 13.3421 14.5765 11.6238C14.5765 9.9056 13.1836 8.5127 11.4654 8.5127C9.74716 8.5127 8.35425 9.9056 8.35425 11.6238C8.35425 13.3421 9.74716 14.735 11.4654 14.735Z" fill="#FA4A0C"/>
<path d="M17.4258 17.0342H22.582V19.3963C22.582 19.3963 23.9812 16.5979 27.7882 16.5979C31.1842 16.5979 33.9975 18.2709 33.9975 23.3702V34.1232H28.6542V24.6732C28.6542 21.6651 27.0482 21.3342 25.8245 21.3342C23.2848 21.3342 22.85 23.5249 22.85 25.0656V34.1232H17.4258V17.0342Z" fill="#FA4A0C"/>
<path d="M8.75333 17.0342H14.1775V34.1231H8.75333V17.0342Z" fill="#FA4A0C"/>
</svg>
