<svg width="64" height="64" viewBox="0 0 64 64" fill="none" xmlns="http://www.w3.org/2000/svg">
<g clip-path="url(#clip0_947_68603)">
<path d="M52.773 32.2132C50.7196 24.5652 47.645 16.1785 46.1063 12.1225C47.413 11.5912 48.7484 11.1336 50.1063 10.7519C50.4767 10.6554 50.8644 10.6459 51.2391 10.724C51.6138 10.8022 51.9654 10.966 52.2663 11.2025C52.5988 11.4558 52.8681 11.7826 53.0532 12.1573C53.2383 12.5321 53.334 12.9446 53.333 13.3625H58.6663C58.6702 12.1271 58.3878 10.9075 57.8414 9.79946C57.295 8.6914 56.4994 7.72494 55.517 6.97585C54.5698 6.23805 53.4646 5.72982 52.288 5.49108C51.1114 5.25233 49.8954 5.28956 48.7356 5.59985C46.2901 6.31516 43.8961 7.19631 41.5703 8.23718L39.2423 9.28518L40.189 11.6585C40.2157 11.7252 41.5383 15.0425 43.1783 19.6345L32.053 28.2852L22.437 18.6665H26.6663V13.3332H10.6664V18.6665H14.8957L27.8103 31.5839L22.5117 35.7065C20.1286 33.4612 16.9972 32.18 13.7237 32.1109C10.4502 32.0419 7.26755 33.19 4.79197 35.3329C2.31638 37.4758 0.723996 40.461 0.323131 43.7106C-0.0777343 46.9602 0.741441 50.243 2.62204 52.9232C4.50264 55.6035 7.31088 57.4906 10.503 58.2192C13.6951 58.9478 17.0441 58.466 19.9013 56.8671C22.7586 55.2682 24.921 52.6659 25.9697 49.5642C27.0185 46.4625 26.879 43.082 25.5783 40.0772L45.013 24.9598C45.813 27.4105 46.613 29.9759 47.3223 32.4772C44.1302 33.3092 41.3599 35.295 39.5467 38.0508C37.7336 40.8066 37.0064 44.1367 37.5057 47.3974C38.0049 50.6582 39.6952 53.6181 42.2499 55.7051C44.8045 57.7921 48.0421 58.858 51.3369 58.6968C54.6317 58.5356 57.7498 57.1588 60.0885 54.8324C62.4273 52.506 63.8206 49.3952 63.9992 46.1013C64.1777 42.8074 63.1289 39.5642 61.0555 36.9985C58.982 34.4329 56.031 32.727 52.773 32.2105V32.2132ZM13.333 53.3332C11.7508 53.3332 10.2041 52.864 8.88846 51.9849C7.57287 51.1059 6.54749 49.8565 5.94199 48.3946C5.33649 46.9328 5.17806 45.3243 5.48674 43.7725C5.79543 42.2206 6.55735 40.7951 7.67617 39.6763C8.79499 38.5575 10.2205 37.7956 11.7723 37.4869C13.3241 37.1782 14.9327 37.3366 16.3945 37.9421C17.8563 38.5476 19.1057 39.573 19.9848 40.8886C20.8638 42.2042 21.333 43.7509 21.333 45.3332C21.333 47.4549 20.4902 49.4897 18.9899 50.99C17.4896 52.4903 15.4547 53.3332 13.333 53.3332ZM50.6663 53.3332C49.0841 53.3332 47.5373 52.864 46.2218 51.9849C44.9062 51.1059 43.8808 49.8565 43.2753 48.3946C42.6698 46.9328 42.5114 45.3243 42.82 43.7725C43.1287 42.2206 43.8906 40.7951 45.0095 39.6763C46.1283 38.5575 47.5537 37.7956 49.1056 37.4869C50.6574 37.1782 52.266 37.3366 53.7278 37.9421C55.1896 38.5476 56.439 39.573 57.3181 40.8886C58.1971 42.2042 58.6663 43.7509 58.6663 45.3332C58.6663 47.4549 57.8234 49.4897 56.3232 50.99C54.8229 52.4903 52.788 53.3332 50.6663 53.3332Z" fill="#4F48EC"/>
</g>
<defs>
<clipPath id="clip0_947_68603">
<rect width="64" height="64" fill="white"/>
</clipPath>
</defs>
</svg>
