<svg width="24" height="24" viewBox="0 0 24 24" fill="none" xmlns="http://www.w3.org/2000/svg">
<g clip-path="url(#clip0_883_69757)">
<path d="M12 9.00701C11.011 9.00682 10.0441 9.29997 9.22168 9.84936C8.39926 10.3988 7.75825 11.1797 7.37974 12.0935C7.00122 13.0072 6.90221 14.0127 7.09521 14.9827C7.28821 15.9527 7.76457 16.8437 8.46402 17.543L12 21.2L15.543 17.531C16.2388 16.8307 16.7117 15.9401 16.9021 14.9715C17.0925 14.0028 16.9919 12.9995 16.613 12.0879C16.2341 11.1764 15.5939 10.3973 14.773 9.84907C13.952 9.3008 12.9872 9.0078 12 9.00701ZM12 15.994C11.6045 15.994 11.2178 15.8767 10.8889 15.6569C10.56 15.4372 10.3036 15.1248 10.1523 14.7594C10.0009 14.3939 9.96128 13.9918 10.0384 13.6038C10.1156 13.2159 10.3061 12.8595 10.5858 12.5798C10.8655 12.3001 11.2219 12.1096 11.6098 12.0324C11.9978 11.9553 12.3999 11.9949 12.7654 12.1462C13.1308 12.2976 13.4432 12.554 13.663 12.8829C13.8827 13.2118 14 13.5984 14 13.994C14 14.5244 13.7893 15.0331 13.4142 15.4082C13.0392 15.7833 12.5305 15.994 12 15.994ZM22.849 7.68101L13.849 0.637007C13.321 0.223419 12.6697 -0.00131989 11.999 -0.00131989C11.3283 -0.00131989 10.677 0.223419 10.149 0.637007L1.14902 7.67901C0.789824 7.95949 0.499548 8.31842 0.300397 8.72833C0.101247 9.13824 -0.00150027 9.58828 1.65529e-05 10.044V24H24V10.044C24.0012 9.58841 23.8981 9.13859 23.6986 8.729C23.4991 8.31941 23.2085 7.96093 22.849 7.68101ZM16.949 18.957L12.105 23.9L7.05802 18.965C6.0772 17.9873 5.40845 16.7405 5.1364 15.3826C4.86435 14.0247 5.00121 12.6165 5.52968 11.3364C6.05815 10.0563 6.95446 8.96168 8.10521 8.19111C9.25596 7.42055 10.6094 7.00864 11.9944 7.00752C13.3793 7.0064 14.7334 7.41612 15.8854 8.18482C17.0374 8.95353 17.9355 10.0467 18.466 11.3259C18.9966 12.6052 19.1357 14.0131 18.8658 15.3715C18.596 16.7299 17.9293 17.9777 16.95 18.957H16.949Z" fill="#100E34"/>
</g>
<defs>
<clipPath id="clip0_883_69757">
<rect width="24" height="24" fill="white"/>
</clipPath>
</defs>
</svg>
