<svg width="145" height="49" viewBox="0 0 145 49" fill="none" xmlns="http://www.w3.org/2000/svg">
<g clip-path="url(#clip0_733_83)">
<path d="M133.453 3.71797e-05H11.5534C11.1091 3.71797e-05 10.6701 3.71798e-05 10.2269 0.00248718C9.85593 0.00493718 9.48792 0.0120544 9.11339 0.0180447C8.29973 0.0277244 7.48799 0.100091 6.68521 0.234514C5.88356 0.371865 5.10703 0.630809 4.38187 1.00259C3.65759 1.37752 2.9958 1.86469 2.42051 2.44645C1.84219 3.02657 1.36012 3.69711 0.992827 4.43228C0.624524 5.166 0.369141 5.95224 0.235499 6.76385C0.100586 7.57444 0.0279889 8.39437 0.0183576 9.2163C0.00711283 9.59189 0.00592534 9.96872 0 10.3444V38.6593C0.00592534 39.0397 0.00711283 39.4082 0.0183576 39.7887C0.0279918 40.6105 0.100589 41.4304 0.235499 42.241C0.368772 43.0531 0.62417 43.8398 0.992827 44.5737C1.35995 45.3065 1.84209 45.9744 2.42051 46.5513C2.99362 47.1356 3.65584 47.6231 4.38187 47.9952C5.10702 48.3679 5.88347 48.6284 6.68521 48.7679C7.48812 48.9012 8.29978 48.9736 9.11339 48.9845C9.48792 48.9928 9.85593 48.9976 10.2269 48.9976C10.6701 49 11.1091 49 11.5534 49H133.453C133.889 49 134.331 49 134.767 48.9976C135.136 48.9976 135.514 48.9928 135.884 48.9845C136.696 48.9742 137.506 48.9018 138.307 48.7679C139.111 48.6274 139.891 48.367 140.619 47.9952C141.345 47.6229 142.006 47.1354 142.579 46.5513C143.156 45.9721 143.639 45.3048 144.011 44.5737C144.377 43.8392 144.63 43.0526 144.761 42.241C144.896 41.4303 144.971 40.6106 144.986 39.7887C144.991 39.4082 144.991 39.0397 144.991 38.6593C145 38.2143 145 37.7717 145 37.3194V11.6818C145 11.2332 145 10.7882 144.991 10.3444C144.991 9.96872 144.991 9.59189 144.986 9.21625C144.971 8.39425 144.896 7.5745 144.761 6.7638C144.629 5.95266 144.376 5.16648 144.011 4.43223C143.263 2.95865 142.077 1.75917 140.619 1.00248C139.891 0.631607 139.111 0.372732 138.307 0.234404C137.506 0.0993881 136.696 0.0269967 135.884 0.0178732C135.514 0.0118952 135.136 0.00471668 134.767 0.00232793C134.331 -0.00012207 133.889 -0.00012207 133.453 -0.00012207V3.71797e-05Z" fill="#A6A6A6"/>
<path d="M10.2328 47.9281C9.86364 47.9281 9.50337 47.9234 9.13708 47.915C8.37827 47.905 7.62124 47.8383 6.87219 47.7152C6.17374 47.5936 5.49713 47.3674 4.86468 47.0441C4.23802 46.7234 3.66647 46.3029 3.1719 45.7987C2.67017 45.3005 2.25246 44.7226 1.93532 44.088C1.61468 43.4493 1.39279 42.7646 1.27735 42.0579C1.1527 41.2986 1.08525 40.5308 1.0756 39.7611C1.06792 39.5027 1.05786 38.6425 1.05786 38.6425V10.3443C1.05786 10.3443 1.06857 9.49736 1.07566 9.24853C1.0849 8.48006 1.15195 7.71342 1.27624 6.95524C1.39188 6.24661 1.61395 5.55999 1.93476 4.91917C2.25074 4.28501 2.66613 3.7067 3.16483 3.20668C3.66298 2.70191 4.23636 2.27926 4.86409 1.95416C5.49508 1.63184 6.17042 1.40722 6.86745 1.28783C7.61896 1.16357 8.37862 1.09639 9.14006 1.08686L10.2334 1.0719H134.761L135.867 1.08746C136.622 1.09652 137.374 1.1631 138.119 1.28663C138.823 1.40752 139.505 1.6337 140.144 1.95775C141.401 2.61293 142.424 3.6495 143.07 4.92216C143.386 5.55856 143.604 6.23957 143.718 6.94209C143.844 7.70649 143.915 8.47915 143.929 9.25392C143.933 9.60084 143.933 9.97348 143.933 10.3443C143.942 10.8037 143.942 11.241 143.942 11.6818V37.3194C143.942 37.7644 143.942 38.1987 143.933 38.6365C143.933 39.0349 143.933 39.3998 143.928 39.7754C143.914 40.5363 143.845 41.2952 143.721 42.0459C143.608 42.7577 143.387 43.4477 143.066 44.0917C142.747 44.7194 142.332 45.2923 141.836 45.7892C141.341 46.2961 140.768 46.719 140.14 47.0417C139.504 47.3676 138.822 47.5946 138.119 47.7152C137.37 47.8389 136.613 47.9057 135.854 47.915C135.499 47.9234 135.127 47.9281 134.767 47.9281L133.453 47.9306L10.2328 47.9281Z" fill="#100E34"/>
<path d="M30.0131 24.8683C30.0261 23.8459 30.2948 22.8434 30.794 21.9541C31.2933 21.0648 32.0069 20.3176 32.8686 19.7821C32.3212 18.9917 31.5991 18.3413 30.7596 17.8825C29.92 17.4237 28.9863 17.1691 28.0324 17.1389C25.9976 16.923 24.025 18.3698 22.9881 18.3698C21.9311 18.3698 20.3347 17.1603 18.6156 17.1961C17.5036 17.2324 16.4199 17.5593 15.4701 18.1449C14.5202 18.7306 13.7366 19.5549 13.1956 20.5377C10.8522 24.6396 12.6002 30.6678 14.845 33.9834C15.9682 35.607 17.2808 37.4205 18.9984 37.3562C20.6791 37.2858 21.3068 36.2727 23.3356 36.2727C25.3456 36.2727 25.9345 37.3562 27.6869 37.3153C29.4904 37.2857 30.6267 35.6846 31.7105 34.0457C32.5175 32.8888 33.1384 31.6102 33.5504 30.2573C32.5026 29.8093 31.6084 29.0594 30.9794 28.1011C30.3504 27.1428 30.0143 26.0185 30.0131 24.8683Z" fill="white"/>
<path d="M26.7031 14.9584C27.6864 13.765 28.1709 12.2311 28.0536 10.6824C26.5513 10.8419 25.1635 11.5678 24.1669 12.7154C23.6796 13.276 23.3064 13.9283 23.0686 14.6348C22.8308 15.3414 22.7331 16.0884 22.781 16.8331C23.5325 16.8409 24.2759 16.6763 24.9552 16.3515C25.6346 16.0268 26.2322 15.5505 26.7031 14.9584Z" fill="white"/>
<path d="M51.2587 33.2462H45.5231L44.1457 37.3578H41.7164L47.149 22.1458H49.673L55.1057 37.3578H52.6349L51.2587 33.2462ZM46.1172 31.3488H50.6635L48.4223 24.6759H48.3596L46.1172 31.3488Z" fill="white"/>
<path d="M66.8384 31.813C66.8384 35.2595 65.0137 37.4739 62.2601 37.4739C61.5625 37.5107 60.8688 37.3483 60.2584 37.0051C59.6479 36.662 59.1454 36.1519 58.8083 35.5335H58.7562V41.0268H56.5043V26.267H58.6841V28.1117H58.7255C59.078 27.4962 59.589 26.9888 60.2042 26.6435C60.8193 26.2983 61.5155 26.128 62.2186 26.151C65.003 26.151 66.8384 28.3761 66.8384 31.813ZM64.5238 31.813C64.5238 29.5676 63.3759 28.0914 61.6246 28.0914C59.9041 28.0914 58.7468 29.5987 58.7468 31.813C58.7468 34.0477 59.9041 35.5442 61.6246 35.5442C63.3759 35.5442 64.5238 34.0788 64.5238 31.813Z" fill="white"/>
<path d="M78.913 31.813C78.913 35.2595 77.0883 37.4738 74.3347 37.4738C73.6372 37.5107 72.9435 37.3483 72.333 37.0051C71.7225 36.662 71.22 36.1519 70.883 35.5334H70.8308V41.0268H68.579V26.267H70.7587V28.1117H70.8001C71.1526 27.4962 71.6637 26.9888 72.2788 26.6435C72.8939 26.2983 73.5901 26.128 74.2933 26.151C77.0777 26.151 78.913 28.3761 78.913 31.813ZM76.5984 31.813C76.5984 29.5676 75.4506 28.0913 73.6993 28.0913C71.9787 28.0913 70.8214 29.5987 70.8214 31.813C70.8214 34.0477 71.9787 35.5442 73.6993 35.5442C75.4506 35.5442 76.5984 34.0788 76.5984 31.813H76.5984Z" fill="white"/>
<path d="M86.8934 33.1193C87.0602 34.6278 88.5098 35.6183 90.4907 35.6183C92.3887 35.6183 93.7543 34.6278 93.7543 33.2676C93.7543 32.0869 92.9307 31.3799 90.9806 30.8954L89.0304 30.4204C86.2674 29.7457 84.9846 28.4394 84.9846 26.3196C84.9846 23.6949 87.2472 21.8921 90.4599 21.8921C93.6395 21.8921 95.8192 23.6949 95.8925 26.3196H93.6193C93.4833 24.8015 92.242 23.8851 90.4279 23.8851C88.6139 23.8851 87.3726 24.8122 87.3726 26.1617C87.3726 27.2371 88.1654 27.87 90.1049 28.3544L91.7627 28.7659C94.85 29.504 96.1327 30.7578 96.1327 32.9828C96.1327 35.8288 93.8903 37.6113 90.3238 37.6113C86.9868 37.6113 84.7337 35.8707 84.5882 33.1192L86.8934 33.1193Z" fill="white"/>
<path d="M100.993 23.6423V26.267H103.079V28.0698H100.993V34.184C100.993 35.1339 101.41 35.5765 102.327 35.5765C102.575 35.5721 102.822 35.5546 103.068 35.5238V37.3159C102.656 37.3938 102.237 37.429 101.817 37.4212C99.5964 37.4212 98.7302 36.5778 98.7302 34.4268V28.0698H97.1351V26.267H98.7302V23.6423H100.993Z" fill="white"/>
<path d="M104.287 31.813C104.287 28.3234 106.32 26.1306 109.49 26.1306C112.671 26.1306 114.694 28.3234 114.694 31.813C114.694 35.3121 112.682 37.4954 109.49 37.4954C106.3 37.4954 104.287 35.3121 104.287 31.813ZM112.4 31.813C112.4 29.4192 111.315 28.0064 109.49 28.0064C107.665 28.0064 106.582 29.43 106.582 31.813C106.582 34.2163 107.665 35.6184 109.49 35.6184C111.315 35.6184 112.4 34.2163 112.4 31.813H112.4Z" fill="white"/>
<path d="M116.551 26.267H118.699V28.1548H118.751C118.896 27.5652 119.238 27.0442 119.718 26.6792C120.199 26.3143 120.789 26.1278 121.39 26.151C121.649 26.1501 121.908 26.1786 122.161 26.2359V28.3653C121.834 28.2641 121.492 28.2176 121.149 28.2277C120.822 28.2143 120.496 28.2726 120.193 28.3987C119.891 28.5247 119.618 28.7155 119.396 28.9579C119.173 29.2003 119.004 29.4886 118.902 29.8031C118.8 30.1175 118.766 30.4505 118.803 30.7794V37.3578H116.551L116.551 26.267Z" fill="white"/>
<path d="M132.544 34.1003C132.241 36.1136 130.301 37.4954 127.82 37.4954C124.628 37.4954 122.648 35.3337 122.648 31.8656C122.648 28.3868 124.639 26.1306 127.725 26.1306C130.76 26.1306 132.669 28.2385 132.669 31.6012V32.3812H124.921V32.5188C124.885 32.927 124.936 33.3382 125.069 33.7251C125.203 34.112 125.416 34.4657 125.695 34.7628C125.974 35.06 126.313 35.2936 126.688 35.4484C127.063 35.6031 127.467 35.6753 127.872 35.6602C128.404 35.7106 128.938 35.5861 129.395 35.305C129.851 35.0239 130.206 34.6014 130.405 34.1003L132.544 34.1003ZM124.931 30.7902H130.416C130.436 30.4232 130.381 30.0559 130.254 29.7114C130.128 29.3669 129.932 29.0527 129.679 28.7884C129.426 28.524 129.122 28.3154 128.786 28.1755C128.45 28.0355 128.089 27.9674 127.725 27.9753C127.359 27.9731 126.995 28.0443 126.656 28.1849C126.316 28.3254 126.008 28.5325 125.748 28.7942C125.488 29.0559 125.283 29.367 125.142 29.7096C125.002 30.0522 124.93 30.4194 124.931 30.7902V30.7902Z" fill="white"/>
<path d="M45.835 10.6954C46.3071 10.6612 46.7808 10.7333 47.222 10.9065C47.6632 11.0798 48.0609 11.3499 48.3864 11.6973C48.7118 12.0448 48.9569 12.4609 49.104 12.9157C49.2511 13.3705 49.2966 13.8527 49.237 14.3274C49.237 16.6625 47.9886 18.0048 45.835 18.0048H43.2234V10.6954H45.835ZM44.3464 16.9711H45.7095C46.0469 16.9915 46.3845 16.9356 46.6978 16.8074C47.0111 16.6793 47.2921 16.4821 47.5205 16.2303C47.7489 15.9785 47.9189 15.6783 48.0181 15.3517C48.1173 15.0251 48.1432 14.6803 48.0939 14.3423C48.1396 14.0056 48.1111 13.6629 48.0104 13.3386C47.9097 13.0144 47.7393 12.7168 47.5114 12.4669C47.2835 12.2171 47.0038 12.0214 46.6923 11.8937C46.3808 11.766 46.0452 11.7095 45.7095 11.7284H44.3464V16.9711Z" fill="white"/>
<path d="M50.5056 15.2443C50.4713 14.8818 50.5123 14.516 50.626 14.1705C50.7397 13.8249 50.9236 13.5073 51.1659 13.2378C51.4082 12.9683 51.7035 12.753 52.0329 12.6056C52.3623 12.4583 52.7185 12.3822 53.0787 12.3822C53.4389 12.3822 53.7952 12.4583 54.1246 12.6056C54.454 12.753 54.7493 12.9683 54.9916 13.2378C55.2338 13.5073 55.4177 13.8249 55.5314 14.1705C55.6452 14.516 55.6862 14.8818 55.6519 15.2443C55.6868 15.6071 55.6463 15.9734 55.5329 16.3195C55.4195 16.6656 55.2357 16.9839 54.9934 17.2539C54.751 17.5239 54.4555 17.7396 54.1257 17.8873C53.796 18.0349 53.4394 18.1112 53.0787 18.1112C52.7181 18.1112 52.3614 18.0349 52.0317 17.8873C51.702 17.7396 51.4064 17.5239 51.1641 17.2539C50.9218 16.9839 50.738 16.6656 50.6246 16.3195C50.5112 15.9734 50.4706 15.6071 50.5056 15.2443ZM54.5443 15.2443C54.5443 14.0486 54.0129 13.3494 53.0805 13.3494C52.1445 13.3494 51.6179 14.0486 51.6179 15.2443C51.6179 16.4495 52.1445 17.1434 53.0805 17.1434C54.013 17.1434 54.5443 16.4447 54.5443 15.2443H54.5443Z" fill="white"/>
<path d="M62.4927 18.0047H61.3756L60.2479 13.9421H60.1627L59.0397 18.0047H57.9333L56.4293 12.4886H57.5215L58.499 16.6977H58.5794L59.7012 12.4886H60.7343L61.8561 16.6977H61.9413L62.9139 12.4886H63.9908L62.4927 18.0047Z" fill="white"/>
<path d="M65.2557 12.4886H66.2923V13.3649H66.3728C66.5093 13.0502 66.7395 12.7863 67.0314 12.6102C67.3233 12.434 67.6622 12.3543 68.0011 12.3821C68.2665 12.362 68.5331 12.4024 68.781 12.5005C69.029 12.5987 69.2519 12.7519 69.4332 12.9489C69.6146 13.146 69.7498 13.3817 69.8288 13.6388C69.9078 13.8958 69.9286 14.1675 69.8896 14.4338V18.0046H68.8128V14.7071C68.8128 13.8207 68.4318 13.3799 67.6354 13.3799C67.4552 13.3714 67.2752 13.4024 67.1079 13.4708C66.9406 13.5392 66.79 13.6433 66.6662 13.7761C66.5425 13.9089 66.4486 14.0671 66.391 14.24C66.3334 14.4129 66.3135 14.5963 66.3326 14.7777V18.0047H65.2557L65.2557 12.4886Z" fill="white"/>
<path d="M71.6055 10.3353H72.6823V18.0047H71.6055V10.3353Z" fill="white"/>
<path d="M74.1792 15.2444C74.1449 14.8818 74.186 14.5161 74.2997 14.1705C74.4134 13.825 74.5974 13.5073 74.8397 13.2378C75.082 12.9683 75.3773 12.753 75.7067 12.6057C76.0362 12.4583 76.3924 12.3822 76.7526 12.3822C77.1129 12.3822 77.4691 12.4583 77.7986 12.6057C78.128 12.753 78.4233 12.9683 78.6656 13.2378C78.9079 13.5073 79.0918 13.825 79.2056 14.1705C79.3193 14.5161 79.3604 14.8818 79.3261 15.2444C79.361 15.6073 79.3204 15.9735 79.207 16.3196C79.0935 16.6657 78.9097 16.984 78.6674 17.254C78.425 17.524 78.1294 17.7397 77.7997 17.8874C77.4699 18.035 77.1133 18.1113 76.7526 18.1113C76.392 18.1113 76.0353 18.035 75.7056 17.8874C75.3758 17.7397 75.0803 17.524 74.8379 17.254C74.5956 16.984 74.4117 16.6657 74.2983 16.3196C74.1849 15.9735 74.1443 15.6073 74.1792 15.2444ZM78.2179 15.2444C78.2179 14.0487 77.6866 13.3495 76.7541 13.3495C75.8181 13.3495 75.2916 14.0487 75.2916 15.2444C75.2916 16.4496 75.8181 17.1435 76.7541 17.1435C77.6866 17.1435 78.2179 16.4448 78.2179 15.2444H78.2179Z" fill="white"/>
<path d="M80.4597 16.4448C80.4597 15.4519 81.191 14.8795 82.4891 14.7981L83.9671 14.712V14.2358C83.9671 13.6533 83.5861 13.3243 82.85 13.3243C82.2489 13.3243 81.8324 13.5474 81.7129 13.9374H80.6703C80.7804 12.9899 81.662 12.3822 82.8997 12.3822C84.2677 12.3822 85.0392 13.0707 85.0392 14.2358V18.0048H84.0026V17.2296H83.9174C83.7445 17.5076 83.5016 17.7343 83.2137 17.8865C82.9258 18.0386 82.603 18.1108 82.2785 18.0956C82.0494 18.1197 81.8179 18.095 81.5989 18.0231C81.3799 17.9512 81.1782 17.8337 81.0068 17.6782C80.8354 17.5226 80.6982 17.3325 80.604 17.1201C80.5098 16.9076 80.4606 16.6776 80.4597 16.4448ZM83.9671 15.9734V15.5123L82.6347 15.5984C81.8833 15.6493 81.5425 15.9077 81.5425 16.3939C81.5425 16.8904 81.9684 17.1793 82.5542 17.1793C82.7259 17.1969 82.8993 17.1793 83.0641 17.1278C83.2289 17.0762 83.3817 16.9917 83.5135 16.8792C83.6453 16.7667 83.7534 16.6285 83.8314 16.4729C83.9093 16.3173 83.9554 16.1475 83.9671 15.9734Z" fill="white"/>
<path d="M86.4544 15.2443C86.4544 13.5013 87.3407 12.3971 88.7193 12.3971C89.0603 12.3813 89.3987 12.4638 89.695 12.6352C89.9913 12.8066 90.2332 13.0597 90.3925 13.3649H90.473V10.3353H91.5498V18.0047H90.518V17.1332H90.4328C90.2612 17.4364 90.0108 17.6863 89.7088 17.856C89.4068 18.0256 89.0646 18.1085 88.7193 18.0956C87.3313 18.0957 86.4544 16.9915 86.4544 15.2443ZM87.5668 15.2443C87.5668 16.4143 88.1123 17.1183 89.0246 17.1183C89.9322 17.1183 90.4931 16.4041 90.4931 15.2491C90.4931 14.0995 89.9263 13.3751 89.0246 13.3751C88.1182 13.3751 87.5667 14.0839 87.5667 15.2443H87.5668Z" fill="white"/>
<path d="M96.005 15.2443C95.9707 14.8818 96.0117 14.516 96.1255 14.1705C96.2392 13.8249 96.4231 13.5073 96.6653 13.2378C96.9076 12.9683 97.2029 12.753 97.5323 12.6056C97.8617 12.4583 98.218 12.3822 98.5782 12.3822C98.9384 12.3822 99.2946 12.4583 99.624 12.6056C99.9534 12.753 100.249 12.9683 100.491 13.2378C100.733 13.5073 100.917 13.8249 101.031 14.1705C101.145 14.516 101.186 14.8818 101.151 15.2443C101.186 15.6071 101.146 15.9734 101.032 16.3195C100.919 16.6656 100.735 16.9839 100.493 17.2539C100.25 17.5239 99.9549 17.7396 99.6252 17.8873C99.2955 18.0349 98.9388 18.1112 98.5782 18.1112C98.2175 18.1112 97.8609 18.0349 97.5311 17.8873C97.2014 17.7396 96.9059 17.5239 96.6635 17.2539C96.4212 16.9839 96.2374 16.6656 96.124 16.3195C96.0106 15.9734 95.9701 15.6071 96.005 15.2443ZM100.044 15.2443C100.044 14.0486 99.5124 13.3494 98.5799 13.3494C97.6439 13.3494 97.1174 14.0486 97.1174 15.2443C97.1174 16.4495 97.644 17.1434 98.5799 17.1434C99.5124 17.1434 100.044 16.4447 100.044 15.2443Z" fill="white"/>
<path d="M102.596 12.4886H103.633V13.3649H103.713C103.85 13.0502 104.08 12.7863 104.372 12.6102C104.664 12.434 105.003 12.3543 105.341 12.3821C105.607 12.362 105.874 12.4024 106.121 12.5005C106.369 12.5987 106.592 12.7519 106.774 12.9489C106.955 13.146 107.09 13.3817 107.169 13.6388C107.248 13.8958 107.269 14.1675 107.23 14.4338V18.0046H106.153V14.7071C106.153 13.8207 105.772 13.3799 104.976 13.3799C104.796 13.3714 104.616 13.4024 104.448 13.4708C104.281 13.5392 104.13 13.6433 104.007 13.7761C103.883 13.9089 103.789 14.0671 103.731 14.24C103.674 14.4129 103.654 14.5963 103.673 14.7777V18.0047H102.596V12.4886Z" fill="white"/>
<path d="M113.315 11.1154V12.5138H114.497V13.4308H113.315V16.2672C113.315 16.845 113.55 17.098 114.086 17.098C114.224 17.0976 114.361 17.0892 114.497 17.0729V17.9797C114.304 18.0146 114.108 18.0332 113.911 18.0353C112.714 18.0353 112.237 17.6094 112.237 16.5459V13.4307H111.371V12.5138H112.237V11.1154H113.315Z" fill="white"/>
<path d="M115.968 10.3353H117.035V13.3751H117.12C117.263 13.0574 117.5 12.7921 117.798 12.6153C118.095 12.4385 118.44 12.3587 118.784 12.387C119.048 12.3724 119.312 12.417 119.557 12.5175C119.802 12.618 120.023 12.772 120.202 12.9684C120.381 13.1648 120.516 13.3988 120.596 13.6538C120.675 13.9088 120.698 14.1784 120.663 14.4434V18.0047H119.585V14.7119C119.585 13.8309 119.179 13.3847 118.418 13.3847C118.233 13.3693 118.047 13.395 117.873 13.46C117.699 13.525 117.541 13.6277 117.41 13.7609C117.279 13.8941 117.179 14.0546 117.115 14.2312C117.052 14.4078 117.028 14.5961 117.045 14.7831V18.0047H115.968L115.968 10.3353Z" fill="white"/>
<path d="M126.942 16.5153C126.796 17.0195 126.479 17.4556 126.046 17.7473C125.614 18.039 125.094 18.1678 124.578 18.1112C124.218 18.1208 123.861 18.0512 123.531 17.9072C123.201 17.7632 122.905 17.5483 122.665 17.2774C122.426 17.0066 122.247 16.6861 122.142 16.3385C122.037 15.9908 122.008 15.6242 122.057 15.264C122.009 14.9028 122.039 14.5354 122.144 14.1867C122.248 13.8379 122.426 13.516 122.665 13.2428C122.903 12.9695 123.197 12.7513 123.526 12.6028C123.855 12.4543 124.212 12.3791 124.573 12.3822C126.091 12.3822 127.007 13.4308 127.007 15.1629V15.5428H123.154V15.6038C123.137 15.8062 123.162 16.01 123.228 16.202C123.294 16.394 123.398 16.57 123.535 16.7188C123.672 16.8676 123.838 16.9859 124.022 17.066C124.207 17.1461 124.406 17.1863 124.607 17.184C124.865 17.2153 125.126 17.1684 125.357 17.0493C125.588 16.9303 125.779 16.7444 125.905 16.5153L126.942 16.5153ZM123.154 14.7377H125.91C125.924 14.5525 125.899 14.3666 125.837 14.1917C125.775 14.0169 125.678 13.8571 125.551 13.7225C125.425 13.5879 125.272 13.4816 125.103 13.4103C124.933 13.3391 124.751 13.3044 124.567 13.3087C124.381 13.3063 124.196 13.3417 124.023 13.4127C123.851 13.4837 123.694 13.5888 123.562 13.722C123.431 13.8552 123.327 14.0137 123.257 14.1881C123.187 14.3625 123.152 14.5494 123.154 14.7377H123.154Z" fill="white"/>
</g>
<defs>
<clipPath id="clip0_733_83">
<rect width="145" height="49" fill="white"/>
</clipPath>
</defs>
</svg>
