<svg width="48" height="48" viewBox="0 0 48 48" fill="none" xmlns="http://www.w3.org/2000/svg">
<g clip-path="url(#clip0_820_1114)">
<path d="M39.58 24.1599C38.04 18.4239 35.734 12.1339 34.58 9.09189C35.56 8.6934 36.5615 8.35019 37.58 8.06389C37.8578 7.99153 38.1486 7.98439 38.4296 8.04303C38.7106 8.10166 38.9743 8.22448 39.2 8.40189C39.4493 8.59182 39.6513 8.83692 39.7901 9.11798C39.9289 9.39904 40.0008 9.70843 40 10.0219H44C44.0029 9.0953 43.7911 8.18064 43.3813 7.34959C42.9715 6.51855 42.3748 5.79371 41.638 5.23189C40.9276 4.67854 40.0987 4.29737 39.2162 4.11831C38.3338 3.93925 37.4218 3.96717 36.552 4.19989C34.7178 4.73637 32.9223 5.39723 31.178 6.17789L29.432 6.96389L30.142 8.74389C30.162 8.79389 31.154 11.2819 32.384 14.7259L24.04 21.2139L16.828 13.9999H20V9.99989H8.00001V13.9999H11.172L20.858 23.6879L16.884 26.7799C15.0967 25.0959 12.7481 24.135 10.293 24.0832C7.8379 24.0314 5.4509 24.8925 3.59422 26.4997C1.73753 28.1068 0.543241 30.3458 0.242592 32.783C-0.0580566 35.2202 0.556325 37.6822 1.96678 39.6924C3.37723 41.7026 5.48341 43.118 7.8775 43.6644C10.2716 44.2108 12.7833 43.8495 14.9262 42.6503C17.0692 41.4511 18.691 39.4995 19.4775 37.1732C20.2641 34.8469 20.1595 32.3115 19.184 30.0579L33.76 18.7199C34.36 20.5579 34.96 22.4819 35.492 24.3579C33.0979 24.9819 31.0202 26.4713 29.6603 28.5381C28.3005 30.6049 27.755 33.1025 28.1295 35.5481C28.5039 37.9936 29.7717 40.2136 31.6877 41.7788C33.6036 43.3441 36.0318 44.1435 38.5029 44.0226C40.974 43.9017 43.3126 42.8691 45.0667 41.1243C46.8207 39.3795 47.8657 37.0464 47.9996 34.576C48.1336 32.1055 47.347 29.6731 45.7918 27.7489C44.2367 25.8247 42.0235 24.5453 39.58 24.1579V24.1599ZM10 39.9999C8.81332 39.9999 7.65328 39.648 6.66659 38.9887C5.6799 38.3294 4.91086 37.3923 4.45674 36.296C4.00261 35.1996 3.88379 33.9932 4.1153 32.8293C4.34681 31.6655 4.91826 30.5964 5.75737 29.7572C6.59649 28.9181 7.66558 28.3467 8.82947 28.1152C9.99335 27.8837 11.1997 28.0025 12.2961 28.4566C13.3925 28.9107 14.3295 29.6798 14.9888 30.6665C15.6481 31.6532 16 32.8132 16 33.9999C16 35.5912 15.3679 37.1173 14.2426 38.2425C13.1174 39.3677 11.5913 39.9999 10 39.9999ZM38 39.9999C36.8133 39.9999 35.6533 39.648 34.6666 38.9887C33.6799 38.3294 32.9108 37.3923 32.4567 36.296C32.0026 35.1996 31.8838 33.9932 32.1153 32.8293C32.3468 31.6655 32.9182 30.5964 33.7573 29.7572C34.5965 28.9181 35.6655 28.3467 36.8294 28.1152C37.9933 27.8837 39.1997 28.0025 40.2961 28.4566C41.3924 28.9107 42.3295 29.6798 42.9888 30.6665C43.6481 31.6532 44 32.8132 44 33.9999C44 35.5912 43.3678 37.1173 42.2426 38.2425C41.1174 39.3677 39.5913 39.9999 38 39.9999Z" fill="#100E34"/>
</g>
<defs>
<clipPath id="clip0_820_1114">
<rect width="48" height="48" fill="white"/>
</clipPath>
</defs>
</svg>
