<svg width="48" height="48" viewBox="0 0 48 48" fill="none" xmlns="http://www.w3.org/2000/svg">
<g clip-path="url(#clip0_836_18829)">
<path d="M42 48.0012H38V37.9152C37.9984 36.3472 37.3748 34.8439 36.2661 33.7351C35.1573 32.6264 33.654 32.0028 32.086 32.0012H15.914C14.346 32.0028 12.8427 32.6264 11.7339 33.7351C10.6252 34.8439 10.0016 36.3472 10 37.9152V48.0012H6V37.9152C6.00318 35.2868 7.0487 32.767 8.90725 30.9085C10.7658 29.0499 13.2856 28.0044 15.914 28.0012H32.086C34.7144 28.0044 37.2342 29.0499 39.0928 30.9085C40.9513 32.767 41.9968 35.2868 42 37.9152V48.0012Z" fill="#100E34"/>
<path d="M24 23.9999C21.6266 23.9999 19.3066 23.2961 17.3332 21.9775C15.3598 20.6589 13.8217 18.7848 12.9135 16.5921C12.0052 14.3994 11.7676 11.9866 12.2306 9.6588C12.6936 7.33103 13.8365 5.19283 15.5147 3.5146C17.193 1.83637 19.3312 0.693483 21.6589 0.23046C23.9867 -0.232563 26.3995 0.00507736 28.5922 0.913329C30.7849 1.82158 32.6591 3.35965 33.9776 5.33304C35.2962 7.30643 36 9.62651 36 11.9999C35.9968 15.1815 34.7315 18.2319 32.4818 20.4817C30.232 22.7314 27.1816 23.9967 24 23.9999ZM24 3.99988C22.4178 3.99988 20.871 4.46908 19.5554 5.34813C18.2399 6.22718 17.2145 7.47661 16.609 8.93842C16.0035 10.4002 15.845 12.0088 16.1537 13.5606C16.4624 15.1125 17.2243 16.5379 18.3432 17.6567C19.462 18.7756 20.8874 19.5375 22.4393 19.8462C23.9911 20.1548 25.5997 19.9964 27.0615 19.3909C28.5233 18.7854 29.7727 17.76 30.6518 16.4444C31.5308 15.1289 32 13.5821 32 11.9999C32 9.87815 31.1572 7.84332 29.6569 6.34303C28.1566 4.84274 26.1217 3.99988 24 3.99988Z" fill="#100E34"/>
</g>
<defs>
<clipPath id="clip0_836_18829">
<rect width="48" height="48" fill="white"/>
</clipPath>
</defs>
</svg>
