<svg width="42" height="42" viewBox="0 0 42 42" fill="none" xmlns="http://www.w3.org/2000/svg">
<path fill-rule="evenodd" clip-rule="evenodd" d="M32.6576 15.8829C32.6677 16.1453 32.6711 16.4075 32.6711 16.6698C32.6711 24.6231 27.0764 33.8047 16.8455 33.8047C13.7027 33.8047 10.7804 32.8031 8.31824 31.098C8.75347 31.1457 9.1955 31.1815 9.6443 31.1815C12.2501 31.1815 14.6501 30.2155 16.5538 28.5938C14.1199 28.558 12.0647 26.8052 11.3559 24.4204C11.6961 24.492 12.0466 24.5278 12.4049 24.5278C12.9103 24.5278 13.4009 24.4564 13.8712 24.3133C11.3242 23.7648 9.40577 21.3324 9.40577 18.411C9.40577 18.3752 9.40577 18.3632 9.40577 18.3394C10.1564 18.7805 11.0156 19.0547 11.9279 19.0904C10.4334 18.0053 9.45096 16.1572 9.45096 14.0705C9.45096 12.9735 9.72454 11.936 10.2061 11.0417C12.9487 14.6905 17.049 17.0872 21.6715 17.3376C21.5766 16.8965 21.5279 16.4315 21.5279 15.9665C21.5279 12.6397 24.0184 9.94482 27.091 9.94482C28.6907 9.94482 30.1354 10.6723 31.1495 11.8408C32.419 11.5785 33.6083 11.0777 34.6845 10.3862C34.2674 11.7932 33.3867 12.9734 32.2359 13.7127C33.3618 13.5696 34.4358 13.2479 35.4318 12.7709C34.6845 13.9753 33.744 15.0363 32.6576 15.8829Z" fill="#FA4A0C"/>
</svg>
