<svg width="800" height="800" viewBox="0 0 800 800" fill="none" xmlns="http://www.w3.org/2000/svg">
<g clip-path="url(#clip0_857_1689)">
<path d="M131.444 240.873C128.323 243.151 123.966 242.503 121.721 239.426C119.475 236.35 120.185 232.002 123.306 229.725C126.426 227.447 130.783 228.095 133.029 231.172C135.274 234.248 134.564 238.596 131.444 240.873Z" fill="#281830"/>
<path d="M308.394 502.054C305.179 503.184 301.664 501.528 300.55 498.358C299.435 495.189 301.141 491.697 304.356 490.567C307.571 489.437 311.086 491.092 312.2 494.262C313.315 497.432 311.609 500.923 308.394 502.054Z" fill="#281830"/>
<path d="M393.639 264.224C388.908 265.492 384.052 262.734 382.802 258.069C381.552 253.405 384.379 248.588 389.11 247.321C393.841 246.053 398.697 248.811 399.947 253.475C401.197 258.14 398.371 262.957 393.639 264.224Z" fill="#281830"/>
<path d="M430.627 457.053C426.71 459.993 421.176 459.245 418.277 455.382C415.378 451.52 416.205 445.997 420.123 443.057C424.04 440.116 429.574 440.865 432.473 444.728C435.372 448.59 434.545 454.113 430.627 457.053Z" fill="#281830"/>
<path d="M690.459 472.158C686.939 475.564 681.354 475.511 677.997 472.041C674.639 468.57 674.77 462.987 678.291 459.581C681.811 456.175 687.395 456.228 690.753 459.698C694.111 463.169 693.979 468.752 690.459 472.158Z" fill="#281830"/>
<path d="M212.548 630.754C207.694 631.41 203.227 628.058 202.58 623.273C201.932 618.487 205.347 614.069 210.201 613.412C215.055 612.755 219.522 616.107 220.169 620.893C220.817 625.678 217.402 630.097 212.548 630.754Z" fill="#281830"/>
<path d="M297.104 382.963C292.983 385.61 287.517 384.461 284.907 380.398C282.298 376.335 283.524 370.886 287.646 368.239C291.767 365.592 297.232 366.742 299.842 370.805C302.452 374.868 301.225 380.316 297.104 382.963Z" fill="#281830"/>
<path d="M65.5887 481.783C60.7104 481.343 57.1019 477.081 57.5359 472.271C57.9699 467.461 62.2831 463.914 67.1614 464.354C72.0397 464.794 75.6481 469.057 75.2141 473.866C74.7801 478.676 70.4669 482.223 65.5887 481.783Z" fill="#281830"/>
<path d="M60.1746 535.533C58.4655 530.943 60.7522 525.848 65.2778 524.163C69.8034 522.478 74.8655 524.836 76.5747 529.427C78.2838 534.017 75.9971 539.112 71.4715 540.797C66.9459 542.482 61.8838 540.123 60.1746 535.533Z" fill="#281830"/>
<path d="M162.015 619.57C158.651 616.009 158.769 610.426 162.279 607.109C165.789 603.793 171.371 603.99 174.735 607.55C178.099 611.11 177.98 616.694 174.47 620.011C170.96 623.327 165.379 623.13 162.015 619.57Z" fill="#281830"/>
<path d="M728.097 243.752C723.215 244.156 718.928 240.577 718.53 235.764C718.132 230.952 721.771 226.716 726.653 226.312C731.534 225.908 735.821 229.487 736.22 234.3C736.618 239.113 732.978 243.348 728.097 243.752Z" fill="#281830"/>
<path d="M732.104 -4.3529C727.983 -1.70568 722.517 -2.85524 719.907 -6.91833C717.298 -10.9814 718.524 -16.4297 722.646 -19.0769C726.767 -21.7241 732.232 -20.5746 734.842 -16.5115C737.452 -12.4484 736.225 -7.00013 732.104 -4.3529Z" fill="#281830"/>
<path d="M381.163 -4.27835C380.09 -1.31777 376.848 0.226489 373.929 -0.832115C371.01 -1.89072 369.512 -5.15399 370.586 -8.11457C371.66 -11.0752 374.901 -12.6194 377.82 -11.5608C380.739 -10.5022 382.237 -7.23894 381.163 -4.27835Z" fill="#281830"/>
<path d="M382.866 49.3128C381.349 50.2878 379.336 49.8644 378.375 48.3679C377.413 46.8714 377.865 44.8648 379.383 43.8898C380.901 42.9148 382.914 43.3382 383.875 44.8346C384.836 46.3311 384.384 48.3378 382.866 49.3128Z" fill="#281830"/>
<path d="M256.847 137.939C256.809 139.742 255.334 141.176 253.555 141.138C251.777 141.1 250.365 139.605 250.403 137.802C250.441 135.998 251.916 134.564 253.695 134.602C255.473 134.64 256.885 136.135 256.847 137.939Z" fill="#281830"/>
<path d="M74.4243 274.108C72.6767 274.556 70.8995 273.521 70.4581 271.798C70.0168 270.075 71.0774 268.312 72.825 267.865C74.5726 267.417 76.3499 268.452 76.7912 270.175C77.2325 271.898 76.1719 273.661 74.4243 274.108Z" fill="#281830"/>
<path d="M412.366 392.813C410.849 393.788 408.836 393.364 407.875 391.868C406.913 390.371 407.365 388.365 408.883 387.39C410.401 386.415 412.414 386.838 413.375 388.335C414.336 389.831 413.884 391.838 412.366 392.813Z" fill="#281830"/>
<path d="M505.711 222.948C505.192 224.676 503.388 225.664 501.685 225.152C499.981 224.64 499.02 222.822 499.539 221.094C500.058 219.366 501.862 218.379 503.565 218.891C505.269 219.402 506.23 221.221 505.711 222.948Z" fill="#281830"/>
<path d="M635.57 151.128C636.303 152.776 635.578 154.701 633.953 155.424C632.328 156.146 630.413 155.394 629.68 153.746C628.947 152.098 629.672 150.173 631.297 149.45C632.922 148.727 634.837 149.479 635.57 151.128Z" fill="#281830"/>
<path d="M720.222 187.361C719.698 190.214 716.989 192.112 714.176 191.595C711.363 191.079 709.504 188.343 710.028 185.49C710.552 182.636 713.261 180.739 716.074 181.255C718.887 181.772 720.746 184.508 720.222 187.361Z" fill="#281830"/>
<path d="M488.298 484.754C483.444 485.411 478.977 482.058 478.33 477.273C477.682 472.487 481.097 468.069 485.951 467.412C490.805 466.755 495.272 470.107 495.919 474.893C496.567 479.678 493.152 484.097 488.298 484.754Z" fill="#281830"/>
<path d="M525.391 118.036C521.114 120.424 515.73 118.94 513.376 114.724C511.022 110.507 512.582 105.145 516.859 102.757C521.136 100.369 526.519 101.854 528.874 106.07C531.228 110.286 529.667 115.648 525.391 118.036Z" fill="#281830"/>
<path d="M399.621 411.399L392.979 399.238L386.337 387.078L400.189 387.406L414.042 387.734L406.831 399.566L399.621 411.399Z" fill="#7C588F"/>
<path d="M202.145 43.8133L193.67 32.8507L185.196 21.888L198.927 20.03L212.658 18.1721L207.402 30.9927L202.145 43.8133Z" fill="#7C588F"/>
<path d="M251.992 71.4563L240.211 78.7499L228.429 86.0435L228.003 72.1936L227.578 58.3438L239.785 64.9L251.992 71.4563Z" fill="#7C588F"/>
<path d="M392.86 341.429L379.093 339.858L365.326 338.287L373.57 327.15L381.814 316.013L387.337 328.721L392.86 341.429Z" fill="#7C588F"/>
<path d="M85.9768 454.126L76.2836 444.225L66.5903 434.323L80.0119 430.88L93.4335 427.436L89.7052 440.781L85.9768 454.126Z" fill="#7C588F"/>
<path d="M166.847 196.276L173.13 208.626L179.413 220.976L165.576 220.242L151.739 219.508L159.293 207.892L166.847 196.276Z" fill="#7C588F"/>
<path d="M325.032 19.3987L318.842 7.00152L312.653 -5.39565L326.484 -4.55735L340.315 -3.71905L332.673 7.83982L325.032 19.3987Z" fill="#7C588F"/>
<path d="M702.176 274.91L696.661 262.199L691.145 249.487L704.911 251.066L718.677 252.645L710.427 263.778L702.176 274.91Z" fill="#7C588F"/>
<path d="M543.135 619.875L551.721 609L560.308 598.125L565.433 610.999L570.558 623.873L556.846 621.874L543.135 619.875Z" fill="#7C588F"/>
<path d="M187.908 271.095L174.659 267.04L161.409 262.985L171.545 253.538L181.682 244.091L184.795 257.593L187.908 271.095Z" fill="#7C588F"/>
<path d="M694.854 155.169L690.421 142.041L685.987 128.913L699.573 131.638L713.159 134.362L704.007 144.766L694.854 155.169Z" fill="#7C588F"/>
<path d="M280.293 545.619L289.717 548.484C289.717 548.484 280.237 529.061 290.005 518.477C303.947 503.369 299.96 487.17 299.96 487.17L290.025 484.094C290.025 484.094 290.735 496.51 279.192 512.826C267.165 529.829 280.293 545.619 280.293 545.619Z" fill="#CD94EB"/>
<path d="M616.89 365.13L624.433 358.796C624.433 358.796 602.984 356.142 599.445 342.181C594.392 322.254 578.642 316.755 578.642 316.755L570.643 323.402C570.643 323.402 581.434 329.582 588.809 348.158C596.494 367.516 616.89 365.13 616.89 365.13Z" fill="#CD94EB"/>
<path d="M428.293 309.619L437.717 312.484C437.717 312.484 428.237 293.061 438.005 282.477C451.947 267.369 447.96 251.17 447.96 251.17L438.025 248.094C438.025 248.094 438.735 260.51 427.192 276.826C415.165 293.829 428.293 309.619 428.293 309.619Z" fill="#CD94EB"/>
<path d="M781.119 139.636L784.951 130.562C784.951 130.562 764.646 137.966 755.137 127.149C741.565 111.709 725.039 113.985 725.039 113.985L720.944 123.545C720.944 123.545 733.366 124.134 748.39 137.313C764.048 151.048 781.119 139.636 781.119 139.636Z" fill="#CD94EB"/>
<path d="M195.139 669.347L204.661 666.828C204.661 666.828 186.385 655.292 189.128 641.153C193.042 620.972 181.134 609.289 181.134 609.289L171.066 611.897C171.066 611.897 178.198 622.085 176.959 642.032C175.669 662.82 195.139 669.347 195.139 669.347Z" fill="#CD94EB"/>
<path d="M393.864 480.71L403.842 473.496C403.842 473.496 377.342 468.245 374.193 450.519C369.699 425.218 350.561 416.937 350.561 416.937L339.987 424.499C339.987 424.499 352.881 433.182 360.393 457.008C368.221 481.837 393.864 480.71 393.864 480.71Z" fill="#CD94EB"/>
<path d="M691.415 27.239C691.415 27.239 698.299 30.3817 697.216 38.3743C696.267 45.3808 699.196 46.413 699.196 46.413C699.196 46.413 707.323 39.5706 715.112 37.2264C721.021 35.4479 727.513 38.2267 727.513 38.2267C727.513 38.2267 723.914 36.2247 723.241 26.2077C723.035 23.1224 724.418 17.9814 724.418 17.9814C724.418 17.9814 714.909 17.7577 707.73 19.4537C700.55 21.1498 691.415 27.239 691.415 27.239Z" fill="#9A2ED1"/>
<path d="M419.632 466.709C419.632 466.709 418.951 474.245 411.052 475.875C404.127 477.303 404.125 480.41 404.125 480.41C404.125 480.41 413.276 485.807 418.071 492.377C421.709 497.361 421.241 504.407 421.241 504.407C421.241 504.407 421.936 500.348 431.163 496.391C434.005 495.172 439.314 494.772 439.314 494.772C439.314 494.772 436.37 485.727 432.389 479.517C428.407 473.307 419.632 466.709 419.632 466.709Z" fill="#9A2ED1"/>
<path d="M271.69 323.541C271.69 323.541 278.115 327.539 276.019 335.327C274.181 342.155 276.955 343.553 276.955 343.553C276.955 343.553 285.89 337.806 293.915 336.478C300.003 335.47 306.086 339.056 306.086 339.056C306.086 339.056 302.772 336.61 303.387 326.589C303.576 323.503 305.606 318.581 305.606 318.581C305.606 318.581 296.204 317.143 288.867 317.907C281.529 318.671 271.69 323.541 271.69 323.541Z" fill="#9A2ED1"/>
<path d="M118.069 239.324C118.069 239.324 118.307 231.761 126.097 229.671C132.926 227.838 132.746 224.737 132.746 224.737C132.746 224.737 123.294 219.886 118.122 213.609C114.198 208.847 114.251 201.785 114.251 201.785C114.251 201.785 113.796 205.879 104.817 210.37C102.052 211.754 96.7755 212.464 96.7755 212.464C96.7755 212.464 100.244 221.321 104.584 227.287C108.923 233.253 118.069 239.324 118.069 239.324Z" fill="#9A2ED1"/>
<path d="M242.444 273.04C242.444 273.04 242.682 265.477 250.472 263.386C257.301 261.554 257.121 258.453 257.121 258.453C257.121 258.453 247.669 253.602 242.497 247.324C238.573 242.562 238.626 235.501 238.626 235.501C238.626 235.501 238.171 239.594 229.192 244.086C226.427 245.469 221.151 246.18 221.151 246.18C221.151 246.18 224.619 255.036 228.959 261.002C233.298 266.968 242.444 273.04 242.444 273.04Z" fill="#9A2ED1"/>
<path d="M449.737 145.602C449.737 145.602 442.985 142.185 444.388 134.243C445.618 127.28 442.732 126.131 442.732 126.131C442.732 126.131 434.337 132.642 426.46 134.671C420.485 136.211 414.11 133.174 414.11 133.174C414.11 133.174 417.626 135.319 417.895 145.355C417.978 148.446 416.389 153.527 416.389 153.527C416.389 153.527 425.881 154.132 433.123 152.726C440.365 151.319 449.737 145.602 449.737 145.602Z" fill="#9A2ED1"/>
<path d="M484.069 339.324C484.069 339.324 484.307 331.761 492.097 329.671C498.926 327.838 498.746 324.737 498.746 324.737C498.746 324.737 489.294 319.886 484.122 313.609C480.198 308.847 480.251 301.785 480.251 301.785C480.251 301.785 479.796 305.879 470.817 310.37C468.052 311.754 462.776 312.464 462.776 312.464C462.776 312.464 466.244 321.321 470.584 327.287C474.923 333.253 484.069 339.324 484.069 339.324Z" fill="#9A2ED1"/>
<path d="M606.702 142.984C606.702 142.984 601.181 148.159 594.198 144.123C588.076 140.585 586.009 142.904 586.009 142.904C586.009 142.904 589.255 153.02 588.467 161.116C587.869 167.257 582.834 172.208 582.834 172.208C582.834 172.208 586.053 169.639 595.575 172.819C598.508 173.799 602.739 177.03 602.739 177.03C602.739 177.03 606.555 168.318 607.712 161.032C608.868 153.746 606.702 142.984 606.702 142.984Z" fill="#9A2ED1"/>
<path d="M653.236 446.343C653.236 446.343 655.045 438.996 663.1 438.575C670.161 438.206 670.631 435.135 670.631 435.135C670.631 435.135 662.397 428.421 658.647 421.203C655.801 415.728 657.325 408.833 657.325 408.833C657.325 408.833 656.027 412.742 646.309 415.263C643.316 416.04 638.008 415.636 638.008 415.636C638.008 415.636 639.555 425.02 642.555 431.76C645.556 438.499 653.236 446.343 653.236 446.343Z" fill="#9A2ED1"/>
<path d="M738.069 202.45C738.069 202.45 738.307 194.886 746.097 192.796C752.926 190.964 752.746 187.863 752.746 187.863C752.746 187.863 743.294 183.012 738.122 176.734C734.198 171.972 734.251 164.911 734.251 164.911C734.251 164.911 733.796 169.004 724.817 173.496C722.052 174.879 716.776 175.59 716.776 175.59C716.776 175.59 720.244 184.446 724.584 190.412C728.923 196.378 738.069 202.45 738.069 202.45Z" fill="#9A2ED1"/>
<path d="M167.458 208.993C167.458 208.993 161.09 204.906 163.296 197.148C165.229 190.347 162.476 188.91 162.476 188.91C162.476 188.91 153.46 194.53 145.418 195.746C139.317 196.668 133.284 192.997 133.284 192.997C133.284 192.997 136.563 195.489 135.808 205.5C135.575 208.583 133.476 213.476 133.476 213.476C133.476 213.476 142.857 215.046 150.205 214.386C157.552 213.725 167.458 208.993 167.458 208.993Z" fill="#9A2ED1"/>
<path d="M136.069 693.324C136.069 693.324 136.307 685.761 144.097 683.671C150.926 681.838 150.746 678.737 150.746 678.737C150.746 678.737 141.294 673.886 136.122 667.609C132.198 662.847 132.251 655.785 132.251 655.785C132.251 655.785 131.796 659.879 122.817 664.37C120.052 665.754 114.776 666.464 114.776 666.464C114.776 666.464 118.244 675.321 122.584 681.287C126.923 687.253 136.069 693.324 136.069 693.324Z" fill="#9A2ED1"/>
<path d="M470.069 701.324C470.069 701.324 470.307 693.761 478.097 691.671C484.926 689.838 484.746 686.737 484.746 686.737C484.746 686.737 475.294 681.886 470.122 675.609C466.198 670.847 466.251 663.785 466.251 663.785C466.251 663.785 465.796 667.879 456.817 672.37C454.052 673.754 448.776 674.464 448.776 674.464C448.776 674.464 452.244 683.321 456.584 689.287C460.923 695.253 470.069 701.324 470.069 701.324Z" fill="#9A2ED1"/>
<path d="M207.325 319.607C207.325 319.607 214.703 321.283 215.269 329.329C215.765 336.382 218.843 336.797 218.843 336.797C218.843 336.797 225.408 328.444 232.558 324.565C237.981 321.621 244.902 323.021 244.902 323.021C244.902 323.021 240.971 321.794 238.275 312.123C237.445 309.144 237.754 303.829 237.754 303.829C237.754 303.829 228.399 305.544 221.714 308.665C215.03 311.786 207.325 319.607 207.325 319.607Z" fill="#9A2ED1"/>
<path d="M237.512 37.0896C237.512 37.0896 240.313 30.0602 248.349 30.7497C255.394 31.3543 256.281 28.3775 256.281 28.3775C256.281 28.3775 249.048 20.5959 246.325 12.9313C244.258 7.11711 246.715 0.496651 246.715 0.496651C246.715 0.496651 244.892 4.18978 234.92 5.35243C231.849 5.7105 226.646 4.58071 226.646 4.58071C226.646 4.58071 226.889 14.089 228.935 21.1766C230.982 28.2642 237.512 37.0896 237.512 37.0896Z" fill="#9A2ED1"/>
<path d="M717.093 401.286C717.093 401.286 724.472 402.963 725.037 411.009C725.533 418.062 728.611 418.477 728.611 418.477C728.611 418.477 735.176 410.124 742.326 406.244C747.749 403.301 754.67 404.701 754.67 404.701C754.67 404.701 750.739 403.473 748.043 393.802C747.213 390.824 747.522 385.509 747.522 385.509C747.522 385.509 738.167 387.224 731.482 390.345C724.798 393.466 717.093 401.286 717.093 401.286Z" fill="#9A2ED1"/>
<path d="M489.734 232.902C489.734 232.902 484.479 227.457 488.413 220.416C491.862 214.244 489.513 212.211 489.513 212.211C489.513 212.211 479.445 215.602 471.339 214.932C465.19 214.424 460.166 209.461 460.166 209.461C460.166 209.461 462.782 212.642 459.74 222.209C458.803 225.156 455.633 229.434 455.633 229.434C455.633 229.434 464.4 233.123 471.702 234.174C479.004 235.224 489.734 232.902 489.734 232.902Z" fill="#9A2ED1"/>
<path d="M582.573 641.818C582.573 641.818 580.472 634.548 587.241 630.162C593.174 626.317 592.048 623.422 592.048 623.422C592.048 623.422 581.563 621.715 574.709 617.334C569.51 614.011 567.388 607.276 567.388 607.276C567.388 607.276 568.215 611.31 561.054 618.347C558.848 620.514 554.047 622.814 554.047 622.814C554.047 622.814 560.073 630.173 566.037 634.515C572.002 638.856 582.573 641.818 582.573 641.818Z" fill="#9A2ED1"/>
<path d="M440.933 403.397C440.933 403.397 446.819 398.642 453.487 403.18C459.332 407.159 461.564 404.998 461.564 404.998C461.564 404.998 459.071 394.671 460.453 386.655C461.5 380.574 466.886 376.007 466.886 376.007C466.886 376.007 463.487 378.333 454.224 374.461C451.371 373.268 447.39 369.734 447.39 369.734C447.39 369.734 442.943 378.142 441.254 385.323C439.565 392.504 440.933 403.397 440.933 403.397Z" fill="#9A2ED1"/>
</g>
<defs>
<clipPath id="clip0_857_1689">
<rect width="800" height="800" fill="white"/>
</clipPath>
</defs>
</svg>
