<svg width="537" height="367" viewBox="0 0 537 367" fill="none" xmlns="http://www.w3.org/2000/svg">
<path fill-rule="evenodd" clip-rule="evenodd" d="M22.1958 275.349C23.2167 278.374 22.1201 281.399 21.6664 284.386C21.2883 286.919 21.5908 289.15 22.9898 291.343C23.7461 292.516 24.8048 293.726 25.1073 295.125C25.4854 296.864 24.1998 298.074 23.6326 299.586C23.0654 301.099 23.4436 303.254 25.3342 303.519C25.2586 303.216 25.1829 302.876 25.0695 302.574C24.1998 303.519 23.9351 304.918 24.7292 306.015C25.3342 306.846 26.6198 306.922 26.9601 308.019C27.3004 309.115 26.7332 310.514 26.5442 311.573C25.8257 315.997 28.5104 319.854 31.6866 322.614C35.3922 325.866 39.4759 328.513 42.8034 332.181C46.2821 336 49.1559 340.386 51.3112 345.075C51.6137 345.717 52.5968 345.15 52.2943 344.507C48.6643 336.68 43.1815 330.025 36.2997 324.807C32.4807 321.933 27.7163 318.53 27.5273 313.237C27.4895 311.535 28.3213 309.834 28.0945 308.132C28.0188 307.603 27.8676 307.073 27.4895 306.657C26.6576 305.674 24.1998 305.069 25.8257 303.33C26.0904 303.065 26.0148 302.46 25.5611 302.385C22.9898 302.006 25.3342 298.755 25.7501 297.734C26.0904 296.977 26.2795 296.221 26.2039 295.389C26.0148 293.234 24.2754 291.608 23.3301 289.755C20.9102 285.067 24.8804 279.848 23.2167 274.971C23.0654 274.366 21.9689 274.668 22.1958 275.349Z" fill="#E8E8E8"/>
<path fill-rule="evenodd" clip-rule="evenodd" d="M22.9898 276.445C49.0424 287.978 55.4327 318.568 59.9702 343.751C60.0836 344.469 61.1802 344.167 61.0667 343.448C57.3233 322.538 52.9749 300.002 37.056 284.612C33.1235 280.793 28.586 277.655 23.557 275.462C22.9142 275.159 22.3092 276.143 22.9898 276.445Z" fill="#E8E8E8"/>
<path fill-rule="evenodd" clip-rule="evenodd" d="M24.8804 279.092C38.7953 296.75 48.7021 317.433 53.769 339.327C53.9202 340.045 55.0168 339.743 54.8655 339.024C49.7609 316.904 39.7406 296.107 25.7123 278.26C25.2207 277.693 24.4267 278.525 24.8804 279.092Z" fill="#E8E8E8"/>
<path fill-rule="evenodd" clip-rule="evenodd" d="M27.9432 298.036C36.1485 301.779 42.7278 308.359 46.509 316.564C46.8115 317.244 47.7946 316.639 47.4921 315.997C43.6731 307.64 36.9047 300.872 28.5482 297.053C27.8298 296.75 27.2626 297.733 27.9432 298.036Z" fill="#E8E8E8"/>
<path fill-rule="evenodd" clip-rule="evenodd" d="M56.189 318.757C53.6934 307.981 62.2389 299.284 67.5326 290.965C70.1039 286.919 72.2592 282.571 73.8851 278.071C74.6791 275.878 75.2463 273.609 75.927 271.378C76.5698 269.261 77.4394 266.879 79.746 266.236C79.5191 266.16 79.33 266.047 79.1032 265.971C79.9729 267.673 80.4266 269.526 80.2375 271.454C80.1241 272.664 79.2166 273.987 79.33 275.122C79.4057 275.802 80.0107 276.861 80.2375 277.542C80.5022 278.411 80.6913 279.281 80.8047 280.151C80.956 281.21 81.0316 282.268 81.0316 283.327C81.0316 284.121 80.5022 286.276 80.7669 286.881C80.4644 286.239 79.6325 286.73 79.746 287.335C80.8047 293.763 82.3172 300.305 82.6953 306.771C83.0735 313.274 80.4644 318.795 77.1748 324.24C71.3517 333.882 65.1505 344.167 66.3226 355.926C66.3983 356.645 67.5326 356.645 67.457 355.926C66.1714 343.032 73.8851 332.672 79.8216 322.009C82.6197 316.98 84.2456 311.837 83.7919 306.052C83.3003 299.7 81.8635 293.347 80.8425 287.033C80.5022 287.184 80.1619 287.335 79.8216 287.486C79.8594 287.562 79.8972 287.638 79.935 287.713C80.0107 287.902 80.2375 287.978 80.4266 287.978C81.8257 288.016 81.9769 286.428 82.0903 285.369C82.3928 282.76 82.166 280.113 81.4853 277.617C81.2207 276.672 80.5779 275.613 80.6913 274.63C80.8047 273.723 81.2963 272.777 81.4097 271.794C81.6744 269.563 81.1828 267.408 80.1619 265.442C80.0485 265.215 79.746 265.102 79.5191 265.177C75.6245 266.312 75.0195 270.925 74.0363 274.252C72.3348 279.962 69.8392 285.407 66.6251 290.436C61.1046 299.095 52.559 307.905 55.168 319.097C55.2815 319.778 56.378 319.475 56.189 318.757Z" fill="#E8E8E8"/>
<path fill-rule="evenodd" clip-rule="evenodd" d="M77.2125 275.462C76.5697 286.881 71.9566 297.431 68.2132 308.056C64.432 318.833 62.0498 329.95 61.218 341.331C61.1802 342.049 62.3145 342.049 62.3523 341.331C63.222 329.571 65.8311 318.152 69.7635 307.073C73.4313 296.75 77.7041 286.503 78.3469 275.462C78.3847 274.744 77.2503 274.744 77.2125 275.462Z" fill="#E8E8E8"/>
<path fill-rule="evenodd" clip-rule="evenodd" d="M61.1802 301.439C61.7096 306.619 63.1086 311.61 65.4152 316.299C65.7555 316.942 66.7008 316.375 66.3983 315.732C64.2052 311.232 62.8061 306.43 62.3146 301.477C62.2389 300.721 61.1046 300.721 61.1802 301.439Z" fill="#E8E8E8"/>
<path fill-rule="evenodd" clip-rule="evenodd" d="M70.066 306.846C73.9985 304.464 77.326 301.363 79.9728 297.62C80.3888 297.015 79.4057 296.448 78.9897 297.053C76.4563 300.645 73.2423 303.594 69.461 305.863C68.856 306.241 69.4232 307.224 70.066 306.846Z" fill="#E8E8E8"/>
<path fill-rule="evenodd" clip-rule="evenodd" d="M49.8743 342.049C52.2943 346.549 53.8068 351.389 54.374 356.456C54.4496 357.174 55.584 357.174 55.5083 356.456C54.9034 351.2 53.3531 346.171 50.8574 341.482C50.5171 340.839 49.534 341.406 49.8743 342.049Z" fill="#E8E8E8"/>
<path fill-rule="evenodd" clip-rule="evenodd" d="M59.3652 341.331C60.3105 345.982 60.8398 350.708 60.9155 355.473C60.9155 356.191 62.0498 356.191 62.0498 355.473C61.9742 350.595 61.4448 345.793 60.4617 341.028C60.3105 340.31 59.2139 340.613 59.3652 341.331Z" fill="#E8E8E8"/>
<path fill-rule="evenodd" clip-rule="evenodd" d="M439.227 309.342C438.773 310.854 438.055 312.48 437.828 314.068C437.714 314.711 437.676 315.316 438.092 315.846C438.622 316.488 439.529 316.564 440.285 316.678C441.987 316.98 443.689 317.245 445.39 317.472C451.516 318.303 457.717 318.644 463.88 318.757C470.271 318.871 476.661 318.682 483.089 318.455C484.753 318.379 486.643 318.568 488.231 318.266C488.685 318.19 489.177 318.19 489.479 317.774C490.16 316.904 489.214 316.148 488.345 316.602C488.156 316.715 488.004 317.018 488.08 317.245C488.118 317.283 488.118 317.358 488.156 317.396C488.42 318.077 489.517 317.774 489.252 317.093C489.214 317.056 489.214 316.98 489.177 316.942C489.101 317.169 488.988 317.358 488.912 317.585C488.685 317.434 488.458 317.283 488.231 317.131C487.853 317.131 487.513 317.169 487.135 317.169C486.53 317.207 485.925 317.207 485.282 317.245C484.185 317.283 483.051 317.32 481.954 317.358C479.724 317.434 477.53 317.509 475.3 317.547C470.611 317.661 465.96 317.698 461.271 317.547C456.734 317.434 452.196 317.131 447.697 316.602C445.314 316.337 442.932 315.997 440.55 315.581C439 315.316 438.811 314.636 439.227 313.161C439.567 311.989 439.945 310.779 440.285 309.607C440.512 308.926 439.416 308.624 439.227 309.342Z" fill="#E8E8E8"/>
<path fill-rule="evenodd" clip-rule="evenodd" d="M440.285 309.947C440.89 308.094 445.05 308.548 446.524 308.51C448.604 308.434 450.722 308.358 452.801 308.321C457.225 308.245 461.649 308.245 466.111 308.396C470.422 308.51 474.732 308.737 479.005 309.077C481.047 309.228 483.278 309.19 485.244 309.644C487.286 310.136 487.286 311.119 487.589 312.745C487.815 313.917 488.042 315.089 488.269 316.261C488.42 316.98 489.517 316.677 489.366 315.959C489.101 314.56 488.799 313.123 488.534 311.724C488.383 310.892 488.269 309.947 487.626 309.304C486.416 308.094 483.807 308.396 482.257 308.245C476.736 307.753 471.216 307.413 465.657 307.262C460.25 307.111 454.805 307.111 449.398 307.3C447.016 307.375 444.558 307.338 442.176 307.64C440.815 307.829 439.567 308.283 439.113 309.682C438.962 310.363 440.059 310.627 440.285 309.947Z" fill="#E8E8E8"/>
<path fill-rule="evenodd" clip-rule="evenodd" d="M441.382 316.224C443.046 325.374 444.218 334.6 444.936 343.864C444.974 344.205 445.163 344.394 445.503 344.431C456.62 345.452 467.775 345.717 478.892 345.226C479.61 345.188 479.61 344.053 478.892 344.091C467.737 344.583 456.582 344.318 445.503 343.297C445.693 343.486 445.882 343.675 446.071 343.864C445.352 334.487 444.18 325.185 442.479 315.921C442.327 315.203 441.231 315.505 441.382 316.224Z" fill="#E8E8E8"/>
<path fill-rule="evenodd" clip-rule="evenodd" d="M485.055 318.492C483.543 327.114 481.69 335.697 479.459 344.167C479.27 344.885 480.366 345.188 480.555 344.469C482.748 335.999 484.639 327.416 486.152 318.795C486.265 318.076 485.168 317.774 485.055 318.492Z" fill="#E8E8E8"/>
<path fill-rule="evenodd" clip-rule="evenodd" d="M415.896 248.199C418.392 254.968 420.207 261.925 421.379 268.996C421.417 269.185 421.606 269.336 421.757 269.374C422.967 269.715 424.177 270.055 425.349 270.395C425.236 270.168 425.085 269.941 424.971 269.715C424.291 272.815 423.988 276.18 426.9 278.147C427.845 278.789 428.828 279.168 429.055 280.415C429.206 281.323 429.131 282.23 429.32 283.138C429.698 285.066 430.492 286.919 431.626 288.507C434.16 292.024 438.13 293.536 441.684 295.767C445.617 298.263 448.68 301.855 450.721 306.014C451.024 306.657 452.007 306.09 451.705 305.447C450.041 302.044 447.697 298.981 444.747 296.599C441.495 293.952 437.298 292.591 434.235 289.755C432.609 288.28 431.437 286.314 430.757 284.234C430.416 283.176 430.227 282.079 430.189 280.983C430.152 280.378 430.265 279.886 430 279.357C429.358 277.92 427.505 277.504 426.522 276.369C425.047 274.668 425.614 272.021 426.03 270.017C426.106 269.715 425.954 269.412 425.652 269.336C424.896 269.11 423.383 268.996 422.778 268.542C422.022 267.975 422.06 266.463 421.909 265.555C421.53 263.551 421.077 261.585 420.585 259.581C419.602 255.611 418.392 251.754 416.993 247.935C416.766 247.216 415.67 247.519 415.896 248.199Z" fill="#E8E8E8"/>
<path fill-rule="evenodd" clip-rule="evenodd" d="M417.106 248.237C430.114 252.056 441.268 260.942 447.923 272.739C448.264 273.382 449.247 272.815 448.907 272.172C442.138 260.11 430.719 251.035 417.409 247.141C416.691 246.914 416.388 248.01 417.106 248.237Z" fill="#E8E8E8"/>
<path fill-rule="evenodd" clip-rule="evenodd" d="M446.562 271.113C453.557 281.512 458.246 293.271 460.364 305.636C460.477 306.354 461.574 306.052 461.46 305.333C459.343 292.893 454.578 281.02 447.545 270.546C447.129 269.941 446.146 270.508 446.562 271.113Z" fill="#E8E8E8"/>
<path fill-rule="evenodd" clip-rule="evenodd" d="M419.602 251.414C434.16 266.16 446.26 283.138 455.524 301.666C455.864 302.309 456.847 301.742 456.507 301.099C447.243 282.495 435.029 265.442 420.434 250.62C419.867 250.128 419.073 250.922 419.602 251.414Z" fill="#E8E8E8"/>
<path fill-rule="evenodd" clip-rule="evenodd" d="M422.287 264.648C431.929 270.471 440.399 278.033 447.243 286.995C447.697 287.562 448.68 286.995 448.226 286.428C441.268 277.277 432.685 269.563 422.854 263.665C422.249 263.287 421.682 264.27 422.287 264.648Z" fill="#E8E8E8"/>
<path fill-rule="evenodd" clip-rule="evenodd" d="M431.891 254.665C434.349 259.997 435.899 265.669 436.58 271.53C436.655 272.248 437.79 272.248 437.714 271.53C437.034 265.48 435.408 259.657 432.874 254.098C432.534 253.418 431.589 253.985 431.891 254.665Z" fill="#E8E8E8"/>
<path fill-rule="evenodd" clip-rule="evenodd" d="M458.284 290.662C457.225 265.479 481.16 249.371 492.05 229.142C491.71 229.028 491.332 228.953 490.992 228.839C490.992 232.015 490.954 235.192 490.954 238.368C490.954 239.843 490.954 241.317 490.916 242.754C490.916 244.267 491.483 249.409 488.458 248.464C488.004 248.313 487.551 248.88 487.815 249.296C489.403 251.716 489.782 254.703 488.761 257.463C488.269 258.786 487.74 259.278 487.588 260.715C487.437 262.303 487.286 263.929 487.135 265.517C486.832 268.731 486.492 271.907 486.189 275.121C485.887 278.146 485.925 281.474 485.055 284.385C484.223 287.259 481.841 288.885 479.345 290.284C477.152 291.57 474.959 292.817 472.955 294.368C469.174 297.355 466.262 301.552 466.376 306.505C466.376 307.224 467.51 307.224 467.51 306.505C467.359 299.926 472.653 295.502 477.833 292.439C479.913 291.192 482.181 290.133 483.921 288.393C485.622 286.692 486.265 284.612 486.568 282.268C487.399 275.689 487.853 269.071 488.496 262.492C488.647 260.942 488.912 259.77 489.555 258.371C489.971 257.425 490.235 256.404 490.387 255.383C490.651 253.001 490.084 250.695 488.761 248.691C488.534 248.955 488.345 249.258 488.118 249.522C491.823 250.732 491.975 245.779 491.975 243.473C492.013 238.595 492.013 233.717 492.05 228.801C492.05 228.234 491.256 228.007 490.992 228.499C479.988 248.917 455.977 265.101 457.074 290.587C457.15 291.381 458.284 291.381 458.284 290.662Z" fill="#E8E8E8"/>
<path fill-rule="evenodd" clip-rule="evenodd" d="M488.836 239.351C483.089 249.031 477.341 258.711 472.35 268.807C469.93 273.685 467.737 278.638 465.771 283.705C463.842 288.772 462.33 294.028 462.632 299.473C462.67 300.191 463.805 300.191 463.767 299.473C463.426 293.877 465.09 288.507 467.094 283.327C469.098 278.147 471.405 273.042 473.9 268.089C478.74 258.446 484.261 249.145 489.744 239.881C490.198 239.276 489.214 238.708 488.836 239.351Z" fill="#E8E8E8"/>
<path fill-rule="evenodd" clip-rule="evenodd" d="M466.64 267.37C465.733 271.341 465.544 275.349 466.111 279.357C466.225 280.075 467.321 279.773 467.208 279.054C466.678 275.235 466.867 271.416 467.737 267.673C467.888 266.954 466.792 266.652 466.64 267.37Z" fill="#E8E8E8"/>
<path fill-rule="evenodd" clip-rule="evenodd" d="M477.795 247.972C477.228 251.224 477.303 254.476 478.022 257.69C478.173 258.408 479.27 258.106 479.118 257.388C478.438 254.363 478.362 251.338 478.892 248.275C479.005 247.556 477.946 247.254 477.795 247.972Z" fill="#E8E8E8"/>
<path fill-rule="evenodd" clip-rule="evenodd" d="M487.853 274.895C494.017 267.635 499.31 259.732 503.659 251.262C503.318 251.224 502.978 251.186 502.638 251.111C504.68 258.182 504.264 265.48 502.713 272.588C501.957 276.029 500.974 279.432 499.915 282.797C499.424 284.348 498.894 285.898 498.365 287.486C497.798 289.188 497.268 291.608 495.189 291.986C494.924 292.024 494.773 292.288 494.773 292.515C494.697 294.444 494.584 296.523 493.714 298.3C492.617 300.569 490.424 301.174 488.156 301.817C484.753 302.762 481.274 303.745 478.892 306.506C478.4 307.035 479.232 307.867 479.686 307.3C481.349 305.371 483.543 304.388 485.925 303.632C487.929 302.989 490.198 302.725 492.05 301.666C495.302 299.851 495.718 295.843 495.869 292.515C495.718 292.704 495.605 292.893 495.453 293.045C498.403 292.553 499.083 288.772 499.877 286.427C501.239 282.419 502.524 278.373 503.47 274.252C505.285 266.538 505.927 258.484 503.696 250.771C503.583 250.317 502.902 250.203 502.676 250.619C498.403 259.014 493.185 266.841 487.059 274.025C486.568 274.668 487.362 275.462 487.853 274.895Z" fill="#E8E8E8"/>
<path fill-rule="evenodd" clip-rule="evenodd" d="M500.407 262.908C497.495 272.172 492.617 280.793 486.152 288.015C480.896 293.838 472.842 298.905 471.972 307.413C471.896 308.131 473.031 308.131 473.106 307.413C473.56 302.762 476.585 299.17 479.761 295.994C482.9 292.855 486.152 289.906 488.95 286.465C494.584 279.583 498.819 271.68 501.466 263.211C501.73 262.53 500.634 262.227 500.407 262.908Z" fill="#E8E8E8"/>
<path fill-rule="evenodd" clip-rule="evenodd" d="M372.412 74.4901C370.106 93.6231 363.073 112 352.069 127.843C351.654 128.448 352.637 129.015 353.053 128.41C364.169 112.416 371.202 93.8121 373.547 74.4901C373.622 73.7339 372.488 73.7717 372.412 74.4901Z" fill="#E8E8E8"/>
<path fill-rule="evenodd" clip-rule="evenodd" d="M372.602 74.7928C389.239 76.9103 406.065 76.9859 422.703 75.0575C423.421 74.9818 423.421 73.8475 422.703 73.9231C406.065 75.8515 389.239 75.7759 372.602 73.6584C371.883 73.5828 371.883 74.7171 372.602 74.7928Z" fill="#E8E8E8"/>
<path fill-rule="evenodd" clip-rule="evenodd" d="M422.741 75.7377C427.013 95.7026 424.366 116.802 415.367 135.141C415.027 135.783 416.01 136.351 416.35 135.708C425.501 117.104 428.186 95.7404 423.837 75.4352C423.686 74.7168 422.589 75.0193 422.741 75.7377Z" fill="#E8E8E8"/>
<path fill-rule="evenodd" clip-rule="evenodd" d="M352.788 128.864C372.791 136.275 394.419 135.935 415.443 135.519C416.161 135.519 416.161 134.385 415.443 134.385C394.533 134.801 373.017 135.141 353.09 127.767C352.41 127.503 352.107 128.599 352.788 128.864Z" fill="#E8E8E8"/>
<path fill-rule="evenodd" clip-rule="evenodd" d="M425.841 98.8789C435.37 95.0221 445.428 92.5265 455.675 91.5433C455.486 91.3543 455.297 91.1652 455.108 90.9762C455.41 105.572 461.347 119.713 471.518 130.187C472.01 130.717 472.842 129.923 472.312 129.393C462.33 119.146 456.545 105.307 456.242 90.9762C456.242 90.6737 455.978 90.3712 455.675 90.409C445.314 91.4299 435.181 93.8877 425.539 97.7824C424.858 98.0849 425.161 99.1814 425.841 98.8789Z" fill="#E8E8E8"/>
<path fill-rule="evenodd" clip-rule="evenodd" d="M405.158 136.313C406.67 141.493 408.296 146.674 410.225 151.703C411.775 155.749 413.779 159.681 417.144 162.517C417.712 162.971 418.506 162.177 417.938 161.723C414.422 158.736 412.456 154.576 410.905 150.304C409.204 145.615 407.691 140.851 406.254 136.048C406.028 135.33 404.969 135.633 405.158 136.313Z" fill="#E8E8E8"/>
<path fill-rule="evenodd" clip-rule="evenodd" d="M418.392 162.593C435.483 150.757 453.671 140.548 472.615 132.003C473.295 131.7 472.69 130.717 472.048 131.02C453.066 139.527 434.916 149.774 417.825 161.61C417.22 162.026 417.787 163.009 418.392 162.593Z" fill="#E8E8E8"/>
<path fill-rule="evenodd" clip-rule="evenodd" d="M376.005 79.7083C389.995 81.4477 404.061 82.6955 418.127 83.4139C418.846 83.4517 418.846 82.3173 418.127 82.2795C404.023 81.5611 389.995 80.3133 376.005 78.5739C375.286 78.4983 375.286 79.6327 376.005 79.7083Z" fill="#E8E8E8"/>
<path fill-rule="evenodd" clip-rule="evenodd" d="M375.702 85.3045C377.631 86.4767 380.24 86.2876 382.395 86.4389C385.495 86.6657 388.596 86.8926 391.697 87.1195C392.415 87.1573 392.415 86.0229 391.697 85.9851C389.088 85.796 386.479 85.607 383.87 85.4179C381.525 85.2289 378.311 85.5692 376.269 84.3214C375.664 83.9433 375.097 84.9264 375.702 85.3045Z" fill="#E8E8E8"/>
<path fill-rule="evenodd" clip-rule="evenodd" d="M373.736 90.9385C380.769 91.4301 387.802 91.9216 394.797 92.4132C401.528 92.8669 408.523 93.9257 415.254 93.2451C415.972 93.1694 415.972 92.0351 415.254 92.1107C408.523 92.7913 401.528 91.7704 394.797 91.2788C387.764 90.7873 380.731 90.2957 373.736 89.8041C373.017 89.7663 373.017 90.9007 373.736 90.9385Z" fill="#E8E8E8"/>
<path fill-rule="evenodd" clip-rule="evenodd" d="M372.488 100.467C378.614 102.509 385.08 102.622 391.508 102.547C398.578 102.509 405.612 102.433 412.682 102.358C413.401 102.358 413.401 101.223 412.682 101.223C405.838 101.261 399.032 101.337 392.188 101.375C385.647 101.413 379.067 101.413 372.791 99.3328C372.072 99.1438 371.77 100.24 372.488 100.467Z" fill="#E8E8E8"/>
<path fill-rule="evenodd" clip-rule="evenodd" d="M364.699 117.596C364.699 118.806 364.585 120.092 364.699 121.339C364.774 121.944 365.039 122.549 365.757 122.587C366.627 122.625 367.308 121.642 367.837 121.112C368.707 120.205 369.501 119.26 370.295 118.314C370.749 117.747 369.955 116.953 369.501 117.52C368.556 118.73 367.535 119.865 366.438 120.923C366.325 121.037 366.211 121.15 366.06 121.264C365.833 121.491 365.757 121.453 365.833 121.112C365.72 120.848 365.833 120.318 365.833 120.054C365.833 119.222 365.833 118.428 365.833 117.596C365.833 116.878 364.699 116.878 364.699 117.596Z" fill="#E8E8E8"/>
<path fill-rule="evenodd" clip-rule="evenodd" d="M373.849 108.899C386.025 111.508 398.503 112.415 410.905 111.621C411.624 111.584 411.624 110.449 410.905 110.487C398.578 111.281 386.214 110.374 374.152 107.802C373.433 107.651 373.131 108.748 373.849 108.899Z" fill="#E8E8E8"/>
<path fill-rule="evenodd" clip-rule="evenodd" d="M418.657 148.829C433.895 143.27 448.453 136.01 462.027 127.125C462.632 126.709 462.065 125.726 461.46 126.142C447.961 134.99 433.517 142.25 418.354 147.732C417.674 147.997 417.976 149.094 418.657 148.829Z" fill="#E8E8E8"/>
<path fill-rule="evenodd" clip-rule="evenodd" d="M415.14 141.758C426.484 138.468 437.563 134.46 448.415 129.809C449.096 129.507 448.491 128.561 447.848 128.826C437.109 133.477 426.068 137.409 414.838 140.661C414.157 140.888 414.422 141.985 415.14 141.758Z" fill="#E8E8E8"/>
<path fill-rule="evenodd" clip-rule="evenodd" d="M420.056 132.683C426.522 129.999 432.988 127.276 439.454 124.591C445.125 122.209 450.948 120.054 455.977 116.424C456.545 116.008 456.015 115.025 455.41 115.441C450.268 119.146 444.256 121.377 438.47 123.797C432.231 126.406 425.992 129.015 419.753 131.624C419.111 131.889 419.413 132.986 420.056 132.683Z" fill="#E8E8E8"/>
<path fill-rule="evenodd" clip-rule="evenodd" d="M425.312 121.112C428.11 119.94 430.946 118.806 433.744 117.634C434.425 117.369 434.122 116.272 433.441 116.537C430.643 117.709 427.807 118.844 425.009 120.016C424.329 120.28 424.631 121.377 425.312 121.112Z" fill="#E8E8E8"/>
<path fill-rule="evenodd" clip-rule="evenodd" d="M426.862 106.441C430.606 106.555 434.387 104.74 437.828 103.379C441.42 101.942 444.936 100.354 448.377 98.6142C449.02 98.2739 448.453 97.2908 447.81 97.6311C444.445 99.3327 441.042 100.883 437.525 102.282C434.235 103.605 430.492 105.42 426.862 105.307C426.106 105.269 426.106 106.404 426.862 106.441Z" fill="#E8E8E8"/>
<path fill-rule="evenodd" clip-rule="evenodd" d="M379.899 135.254C375.626 148.451 368.48 160.589 359.065 170.798C358.724 171.176 358.951 171.743 359.481 171.781C376.95 172.348 393.134 179.684 408.674 187.095C409.317 187.397 409.922 186.414 409.242 186.112C393.512 178.625 377.177 171.252 359.481 170.647C359.632 170.987 359.745 171.289 359.897 171.63C369.463 161.307 376.685 148.98 381.034 135.595C381.223 134.876 380.126 134.574 379.899 135.254Z" fill="#E8E8E8"/>
<path fill-rule="evenodd" clip-rule="evenodd" d="M409.96 186.717C415.065 176.81 420.585 167.13 426.484 157.639C426.862 157.034 425.879 156.429 425.501 157.072C419.602 166.525 414.082 176.243 408.977 186.149C408.637 186.792 409.62 187.397 409.96 186.717Z" fill="#E8E8E8"/>
<path fill-rule="evenodd" clip-rule="evenodd" d="M408.296 173.634C409.015 173.634 409.015 172.5 408.296 172.5C407.54 172.5 407.54 173.634 408.296 173.634Z" fill="#E8E8E8"/>
<path fill-rule="evenodd" clip-rule="evenodd" d="M369.085 165.504C374.984 165.088 379.975 168.642 385.382 170.42C388.331 171.365 391.394 171.856 394.344 172.84C397.331 173.785 400.091 175.222 402.7 176.999C403.305 177.415 403.872 176.432 403.267 176.016C400.885 174.39 398.314 173.029 395.591 172.083C392.377 170.949 388.936 170.42 385.685 169.361C380.164 167.546 375.135 163.954 369.085 164.407C368.329 164.407 368.329 165.542 369.085 165.504Z" fill="#E8E8E8"/>
<path fill-rule="evenodd" clip-rule="evenodd" d="M375.059 160.664C383.907 162.933 392.377 166.449 400.204 171.138C400.847 171.516 401.414 170.533 400.772 170.155C392.869 165.391 384.323 161.836 375.362 159.567C374.643 159.416 374.341 160.475 375.059 160.664Z" fill="#E8E8E8"/>
<path fill-rule="evenodd" clip-rule="evenodd" d="M377.933 154.047C381.865 154.879 385.495 156.467 388.823 158.736C389.428 159.152 389.995 158.168 389.39 157.752C385.987 155.446 382.244 153.82 378.236 152.95C377.517 152.799 377.215 153.896 377.933 154.047Z" fill="#E8E8E8"/>
<path fill-rule="evenodd" clip-rule="evenodd" d="M380.277 147.997C386.668 150.379 392.982 152.912 399.259 155.597C399.94 155.9 400.507 154.917 399.826 154.614C393.474 151.892 387.046 149.283 380.58 146.9C379.861 146.673 379.597 147.77 380.277 147.997Z" fill="#E8E8E8"/>
<path fill-rule="evenodd" clip-rule="evenodd" d="M58.6846 89.5012C58.0796 98.5005 57.9283 107.575 55.0546 116.234C52.3699 124.288 47.8703 131.662 41.9716 137.75C41.48 138.279 42.2741 139.073 42.7656 138.544C48.6643 132.456 53.2018 125.12 55.9621 117.104C59.0249 108.218 59.1761 98.803 59.8189 89.5012C59.8567 88.7828 58.7224 88.7828 58.6846 89.5012Z" fill="#E8E8E8"/>
<path fill-rule="evenodd" clip-rule="evenodd" d="M59.4786 89.8419C74.301 89.6528 89.1612 89.6906 103.984 89.9931C107.765 90.0688 111.546 90.1822 115.289 90.2956C117.218 90.3713 120.167 89.8041 121.188 91.8459C121.907 93.2828 121.869 95.5893 122.096 97.1775C123.079 104.135 123.268 111.206 122.738 118.201C122.133 126.142 120.545 133.969 118.088 141.531C117.861 142.212 118.957 142.514 119.184 141.834C123.797 127.654 125.272 112.529 123.306 97.7446C123.117 96.1943 122.852 94.644 122.587 93.1316C122.398 92.035 122.285 90.636 121.302 89.9175C120.356 89.1991 119.033 89.3125 117.936 89.2747C115.781 89.1991 113.663 89.1235 111.508 89.0856C103.341 88.8588 95.1733 88.7075 87.0059 88.6697C77.8175 88.5941 68.6291 88.6319 59.4786 88.7453C58.7602 88.7453 58.7602 89.8797 59.4786 89.8419Z" fill="#E8E8E8"/>
<path fill-rule="evenodd" clip-rule="evenodd" d="M42.2362 139.149C61.4448 144.518 81.75 145.085 101.261 140.888C101.98 140.737 101.677 139.64 100.959 139.792C81.6744 143.989 61.5583 143.384 42.5387 138.052C41.8203 137.863 41.5178 138.922 42.2362 139.149Z" fill="#E8E8E8"/>
<path fill-rule="evenodd" clip-rule="evenodd" d="M119.184 92.5642C118.314 109.088 113.777 125.234 105.912 139.754C105.572 140.397 106.555 140.964 106.895 140.321C114.836 125.612 119.449 109.277 120.318 92.5642C120.356 91.8458 119.222 91.8458 119.184 92.5642Z" fill="#E8E8E8"/>
<path fill-rule="evenodd" clip-rule="evenodd" d="M119.184 95.7025C120.243 100.732 119.789 105.798 118.919 110.79C118.163 115.138 117.293 119.486 116.31 123.835C114.382 132.343 111.773 140.737 106.782 147.959C106.366 148.564 107.349 149.131 107.765 148.526C112.945 141.039 115.592 132.305 117.558 123.495C119.562 114.495 122.247 104.626 120.281 95.4001C120.129 94.6816 119.033 94.9841 119.184 95.7025Z" fill="#E8E8E8"/>
<path fill-rule="evenodd" clip-rule="evenodd" d="M120.016 99.3328C121.339 116.5 118.541 133.78 111.849 149.661C111.584 150.341 112.68 150.644 112.945 149.963C119.638 134.007 122.474 116.613 121.15 99.3328C121.113 98.6143 119.978 98.6143 120.016 99.3328Z" fill="#E8E8E8"/>
<path fill-rule="evenodd" clip-rule="evenodd" d="M49.4583 148.526C68.4023 151.778 87.7621 151.665 106.668 148.224C107.387 148.11 107.084 147.014 106.366 147.127C87.6865 150.53 68.4779 150.644 49.7608 147.43C49.0424 147.316 48.7399 148.413 49.4583 148.526Z" fill="#E8E8E8"/>
<path fill-rule="evenodd" clip-rule="evenodd" d="M51.954 142.098C51.0843 143.535 49.9499 144.745 48.5887 145.728C47.9837 146.144 48.5509 147.127 49.1558 146.712C50.6683 145.615 51.954 144.292 52.8993 142.703C53.3152 142.061 52.3321 141.493 51.954 142.098Z" fill="#E8E8E8"/>
<path fill-rule="evenodd" clip-rule="evenodd" d="M54.6009 150.379C54.1093 151.324 53.5421 152.232 52.8615 153.064C52.4078 153.631 53.2018 154.425 53.6556 153.858C54.4118 152.95 55.0546 152.005 55.5462 150.946C55.8865 150.303 54.9412 149.698 54.6009 150.379Z" fill="#E8E8E8"/>
<path fill-rule="evenodd" clip-rule="evenodd" d="M53.5043 154.614C72.5238 156.845 91.8459 155.635 110.449 151.022C111.168 150.833 110.865 149.737 110.147 149.926C91.6568 154.501 72.4482 155.673 53.5043 153.442C52.7858 153.404 52.7858 154.539 53.5043 154.614Z" fill="#E8E8E8"/>
<path fill-rule="evenodd" clip-rule="evenodd" d="M62.7683 104.702C79.1032 102.471 95.5893 103.53 111.962 104.664C112.68 104.702 112.68 103.568 111.962 103.53C95.4758 102.396 78.9141 101.337 62.4658 103.606C61.7474 103.681 62.0499 104.778 62.7683 104.702Z" fill="#E8E8E8"/>
<path fill-rule="evenodd" clip-rule="evenodd" d="M58.0796 121.642C73.3935 121.869 88.6696 122.587 103.908 123.797C104.626 123.873 104.626 122.739 103.908 122.663C88.6696 121.415 73.3935 120.697 58.0796 120.508C57.3233 120.508 57.3233 121.642 58.0796 121.642Z" fill="#E8E8E8"/>
<path fill-rule="evenodd" clip-rule="evenodd" d="M53.5043 130.414C70.4441 131.208 87.384 132.04 104.324 132.834C105.042 132.872 105.042 131.738 104.324 131.7C87.384 130.906 70.4441 130.074 53.5043 129.28C52.7858 129.242 52.7858 130.376 53.5043 130.414Z" fill="#E8E8E8"/>
<path fill-rule="evenodd" clip-rule="evenodd" d="M67.4948 114.987C64.2807 122.625 61.2179 130.301 58.382 138.09C58.1173 138.771 59.2139 139.073 59.4786 138.393C62.3145 130.717 65.3017 123.116 68.4779 115.592C68.7426 114.911 67.7595 114.306 67.4948 114.987Z" fill="#E8E8E8"/>
<path fill-rule="evenodd" clip-rule="evenodd" d="M80.3131 116.31C76.5697 123.873 73.4691 131.662 70.7844 139.602C70.5576 140.283 71.6541 140.586 71.881 139.905C74.5279 132.04 77.5906 124.326 81.2962 116.877C81.6365 116.234 80.6534 115.667 80.3131 116.31Z" fill="#E8E8E8"/>
<path fill-rule="evenodd" clip-rule="evenodd" d="M94.6818 117.218C90.3712 124.213 87.1572 131.813 85.1531 139.792C84.964 140.51 86.0606 140.812 86.2497 140.094C88.2159 132.191 91.3921 124.704 95.6649 117.785C96.043 117.18 95.0599 116.613 94.6818 117.218Z" fill="#E8E8E8"/>
<path fill-rule="evenodd" clip-rule="evenodd" d="M106.025 117.747C102.471 124.629 99.4461 131.776 96.9505 139.149C96.7236 139.83 97.8202 140.132 98.0471 139.452C100.505 132.192 103.492 125.159 107.009 118.352C107.311 117.672 106.366 117.105 106.025 117.747Z" fill="#E8E8E8"/>
<path fill-rule="evenodd" clip-rule="evenodd" d="M56.4914 124.402C58.1552 125.159 59.5542 126.18 60.802 127.503C61.2936 128.032 62.0877 127.238 61.5961 126.709C60.3105 125.31 58.798 124.213 57.0586 123.419C56.378 123.155 55.8108 124.1 56.4914 124.402Z" fill="#E8E8E8"/>
<path fill-rule="evenodd" clip-rule="evenodd" d="M61.6339 122.474C59.2139 123.911 57.0964 125.726 55.3193 127.881C54.8655 128.448 55.6596 129.242 56.1133 128.675C57.8527 126.557 59.8567 124.818 62.2011 123.457C62.8439 123.079 62.2767 122.096 61.6339 122.474Z" fill="#E8E8E8"/>
<path fill-rule="evenodd" clip-rule="evenodd" d="M76.7966 134.347C78.9141 135.595 80.7291 137.145 82.3172 138.998C82.7709 139.565 83.6028 138.733 83.1113 138.204C81.4853 136.275 79.5569 134.649 77.3638 133.364C76.7588 132.986 76.1916 133.969 76.7966 134.347Z" fill="#E8E8E8"/>
<path fill-rule="evenodd" clip-rule="evenodd" d="M83.2247 132.759C80.8047 134.574 78.5738 136.616 76.5319 138.847C76.0404 139.376 76.8344 140.208 77.326 139.641C79.2922 137.448 81.4475 135.481 83.7919 133.704C84.3591 133.326 83.7919 132.343 83.2247 132.759Z" fill="#E8E8E8"/>
<path fill-rule="evenodd" clip-rule="evenodd" d="M66.247 122.701C68.2133 124.516 70.1795 126.293 72.1457 128.108C72.6751 128.599 73.4692 127.805 72.9398 127.314C70.9736 125.499 69.0073 123.721 67.0411 121.907C66.5117 121.377 65.7177 122.171 66.247 122.701Z" fill="#E8E8E8"/>
<path fill-rule="evenodd" clip-rule="evenodd" d="M72.7129 121.793C69.9526 123.381 67.5326 125.423 65.5664 127.919C65.1126 128.486 65.9067 129.28 66.3604 128.713C68.2889 126.293 70.5954 124.326 73.2801 122.776C73.9229 122.398 73.3179 121.415 72.7129 121.793Z" fill="#E8E8E8"/>
<path fill-rule="evenodd" clip-rule="evenodd" d="M80.54 130.263C77.8175 128.788 77.4394 125.121 80.0484 123.23C82.0147 121.831 86.0228 120.659 87.5353 123.23C88.8587 125.537 87.2706 128.335 85.38 129.734C82.4306 131.889 80.3509 129.507 78.9897 127.049C78.6494 126.406 77.6663 126.973 78.0066 127.616C79.7459 130.755 82.5441 133.212 86.0228 130.679C88.594 128.826 90.3712 124.894 88.1781 122.096C85.9093 119.222 80.7291 120.734 78.536 123.003C76.0782 125.574 76.9857 129.545 79.9728 131.171C80.6156 131.587 81.1828 130.603 80.54 130.263Z" fill="#E8E8E8"/>
<path fill-rule="evenodd" clip-rule="evenodd" d="M64.5076 92.4886C63.7892 95.0977 63.5623 97.7445 63.9405 100.467C64.0161 101.185 65.1883 101.185 65.0748 100.467C64.7345 97.858 64.8858 95.3245 65.6042 92.7911C65.7932 92.1105 64.6967 91.808 64.5076 92.4886Z" fill="#E8E8E8"/>
<path fill-rule="evenodd" clip-rule="evenodd" d="M65.2261 93.1691C79.4435 91.581 93.7743 91.2028 108.067 92.0725C107.878 91.8835 107.689 91.6944 107.5 91.5053C107.689 93.7363 107.651 95.9294 107.273 98.1225C107.16 98.8409 108.256 99.1434 108.37 98.425C108.748 96.1184 108.861 93.8497 108.634 91.5053C108.597 91.2028 108.408 90.976 108.067 90.9382C93.7743 90.0685 79.4435 90.4466 65.2261 92.0347C64.5076 92.1103 64.5076 93.2447 65.2261 93.1691Z" fill="#E8E8E8"/>
<path fill-rule="evenodd" clip-rule="evenodd" d="M66.3226 100.089C79.935 99.7862 93.5474 99.4837 107.16 99.1812C107.878 99.1812 107.878 98.0469 107.16 98.0469C93.5474 98.3494 79.935 98.6519 66.3226 98.9544C65.6042 98.9922 65.6042 100.127 66.3226 100.089Z" fill="#E8E8E8"/>
<path fill-rule="evenodd" clip-rule="evenodd" d="M294.406 323.484C315.656 323.484 336.869 323.484 358.119 323.484C360.312 323.484 360.312 320.081 358.119 320.081C336.869 320.081 315.656 320.081 294.406 320.081C292.213 320.081 292.213 323.484 294.406 323.484Z" fill="#161616"/>
<path fill-rule="evenodd" clip-rule="evenodd" d="M365.833 323.484C370.408 323.484 374.946 323.484 379.521 323.484C381.714 323.484 381.714 320.081 379.521 320.081C374.946 320.081 370.408 320.081 365.833 320.081C363.64 320.081 363.64 323.484 365.833 323.484Z" fill="#161616"/>
<path fill-rule="evenodd" clip-rule="evenodd" d="M393.247 321.101C396.007 321.101 398.805 321.101 401.566 321.101C403.759 321.101 403.759 317.698 401.566 317.698C398.805 317.698 396.007 317.698 393.247 317.698C391.054 317.698 391.054 321.101 393.247 321.101Z" fill="#161616"/>
<path fill-rule="evenodd" clip-rule="evenodd" d="M366.438 352.07C391.848 352.07 417.258 352.07 442.667 352.07C444.861 352.07 444.861 348.667 442.667 348.667C417.258 348.667 391.848 348.667 366.438 348.667C364.245 348.667 364.245 352.07 366.438 352.07Z" fill="#161616"/>
<path fill-rule="evenodd" clip-rule="evenodd" d="M447.432 352.07C453.784 352.07 460.137 352.07 466.489 352.07C468.682 352.07 468.682 348.667 466.489 348.667C460.137 348.667 453.784 348.667 447.432 348.667C445.239 348.667 445.239 352.07 447.432 352.07Z" fill="#161616"/>
<path fill-rule="evenodd" clip-rule="evenodd" d="M478.4 351.502C487.74 351.502 497.041 351.502 506.381 351.502C508.574 351.502 508.574 348.099 506.381 348.099C497.041 348.099 487.74 348.099 478.4 348.099C476.207 348.099 476.207 351.502 478.4 351.502Z" fill="#161616"/>
<path fill-rule="evenodd" clip-rule="evenodd" d="M517.687 349.687C519.653 349.687 521.657 349.687 523.623 349.687C525.817 349.687 525.817 346.284 523.623 346.284C521.657 346.284 519.653 346.284 517.687 346.284C515.494 346.284 515.494 349.687 517.687 349.687Z" fill="#161616"/>
<path fill-rule="evenodd" clip-rule="evenodd" d="M0.567183 359.329C31.1951 358.573 61.823 358.006 92.4508 357.666C101.223 357.552 110.034 357.477 118.806 357.401C119.524 357.401 119.524 356.267 118.806 356.267C88.1781 356.493 57.5502 356.947 26.9223 357.59C18.1499 357.779 9.33961 357.968 0.567183 358.195C-0.189061 358.233 -0.189061 359.367 0.567183 359.329Z" fill="#161616"/>
<path fill-rule="evenodd" clip-rule="evenodd" d="M83.2625 365.644C106.479 364.661 129.734 364.812 152.913 366.098C153.631 366.136 153.631 365.001 152.913 364.963C129.734 363.678 106.479 363.527 83.2625 364.51C82.5063 364.547 82.5063 365.682 83.2625 365.644Z" fill="#161616"/>
<path fill-rule="evenodd" clip-rule="evenodd" d="M450.343 318.417C448.869 321.896 446.94 325.11 444.558 328.059C444.104 328.626 444.898 329.42 445.352 328.853C447.886 325.752 449.89 322.387 451.44 318.719C451.705 318.039 450.608 317.736 450.343 318.417Z" fill="#E8E8E8"/>
<path fill-rule="evenodd" clip-rule="evenodd" d="M457.49 317.585C454.503 324.202 450.23 330.139 444.898 335.092C444.369 335.584 445.163 336.378 445.693 335.886C451.1 330.895 455.41 324.883 458.473 318.152C458.776 317.509 457.792 316.942 457.49 317.585Z" fill="#E8E8E8"/>
<path fill-rule="evenodd" clip-rule="evenodd" d="M464.901 317.963C460.175 327.567 453.406 335.961 444.974 342.578C444.407 343.032 445.201 343.826 445.768 343.372C454.238 336.68 461.082 328.172 465.847 318.492C466.187 317.887 465.204 317.32 464.901 317.963Z" fill="#E8E8E8"/>
<path fill-rule="evenodd" clip-rule="evenodd" d="M471.821 318.266C466.678 327.605 460.288 336.113 452.726 343.638C452.196 344.167 453.028 344.961 453.52 344.432C461.12 336.869 467.624 328.248 472.766 318.833C473.182 318.19 472.199 317.623 471.821 318.266Z" fill="#E8E8E8"/>
<path fill-rule="evenodd" clip-rule="evenodd" d="M477.984 318.001C473.069 327.529 466.981 336.377 459.759 344.318C459.267 344.847 460.061 345.679 460.553 345.112C467.813 337.096 474.014 328.21 478.967 318.568C479.308 317.925 478.324 317.358 477.984 318.001Z" fill="#E8E8E8"/>
<path fill-rule="evenodd" clip-rule="evenodd" d="M482.975 318.038C478.476 327.643 472.615 336.566 465.544 344.469C465.052 344.999 465.846 345.83 466.338 345.263C473.485 337.247 479.421 328.286 483.958 318.568C484.299 317.963 483.316 317.358 482.975 318.038Z" fill="#E8E8E8"/>
<path fill-rule="evenodd" clip-rule="evenodd" d="M483.58 325.374C480.064 332.407 475.753 338.986 470.724 345.036C470.27 345.604 471.064 346.398 471.518 345.83C476.623 339.705 481.009 333.05 484.563 325.941C484.904 325.298 483.921 324.731 483.58 325.374Z" fill="#E8E8E8"/>
<path fill-rule="evenodd" clip-rule="evenodd" d="M153.177 0.567183C153.177 6.99526 153.177 13.4233 153.177 19.8136C153.177 20.532 154.312 20.532 154.312 19.8136C154.312 13.3855 154.312 6.95745 154.312 0.567183C154.312 -0.189061 153.177 -0.189061 153.177 0.567183Z" fill="#E8E8E8"/>
<path fill-rule="evenodd" clip-rule="evenodd" d="M132.532 20.8726C151.476 20.8726 170.382 20.8726 189.326 20.8726C190.044 20.8726 190.044 19.7383 189.326 19.7383C170.382 19.7383 151.476 19.7383 132.532 19.7383C131.776 19.7383 131.776 20.8726 132.532 20.8726Z" fill="#E8E8E8"/>
<path fill-rule="evenodd" clip-rule="evenodd" d="M172.461 22.2712C172.461 28.2078 172.461 34.1065 172.461 40.043C172.461 40.7614 173.596 40.7614 173.596 40.043C173.596 34.1065 173.596 28.2078 173.596 22.2712C173.596 21.5528 172.461 21.5528 172.461 22.2712Z" fill="#E8E8E8"/>
<path fill-rule="evenodd" clip-rule="evenodd" d="M142.892 42.1226C161.345 42.1226 179.759 42.1226 198.212 42.1226C198.93 42.1226 198.93 40.9883 198.212 40.9883C179.759 40.9883 161.345 40.9883 142.892 40.9883C142.174 40.9883 142.174 42.1226 142.892 42.1226Z" fill="#E8E8E8"/>
<path fill-rule="evenodd" clip-rule="evenodd" d="M141.834 42.5384C141.834 47.0003 141.834 51.4243 141.834 55.8862C141.834 56.6046 142.968 56.6046 142.968 55.8862C142.968 51.4243 142.968 47.0003 142.968 42.5384C142.968 41.82 141.834 41.7822 141.834 42.5384Z" fill="#E8E8E8"/>
<path fill-rule="evenodd" clip-rule="evenodd" d="M416.199 199.989C427.656 199.989 439.075 199.989 450.533 199.989C451.251 199.989 451.251 198.854 450.533 198.854C439.075 198.854 427.656 198.854 416.199 198.854C415.443 198.854 415.443 199.989 416.199 199.989Z" fill="#E8E8E8"/>
<path fill-rule="evenodd" clip-rule="evenodd" d="M434.349 200.443C434.349 204.942 434.349 209.442 434.349 213.979C434.349 214.698 435.483 214.698 435.483 213.979C435.483 209.48 435.483 204.98 435.483 200.443C435.483 199.724 434.349 199.724 434.349 200.443Z" fill="#E8E8E8"/>
<path fill-rule="evenodd" clip-rule="evenodd" d="M413.59 214.546C426.786 214.546 439.945 214.546 453.141 214.546C453.86 214.546 453.86 213.412 453.141 213.412C439.945 213.412 426.786 213.412 413.59 213.412C412.871 213.412 412.871 214.546 413.59 214.546Z" fill="#E8E8E8"/>
<path fill-rule="evenodd" clip-rule="evenodd" d="M423.951 214.509C423.951 218.328 423.951 222.147 423.951 225.966C423.951 226.684 425.085 226.684 425.085 225.966C425.085 222.147 425.085 218.328 425.085 214.509C425.085 213.752 423.951 213.752 423.951 214.509Z" fill="#E8E8E8"/>
<path fill-rule="evenodd" clip-rule="evenodd" d="M448.907 215C448.907 218.819 448.907 222.638 448.907 226.457C448.907 227.176 450.041 227.176 450.041 226.457C450.041 222.638 450.041 218.819 450.041 215C450.041 214.282 448.907 214.282 448.907 215Z" fill="#E8E8E8"/>
<path fill-rule="evenodd" clip-rule="evenodd" d="M79.6325 323.938C96.7992 323.938 113.966 323.938 131.133 323.938C131.851 323.938 131.851 322.803 131.133 322.803C113.966 322.803 96.7992 322.803 79.6325 322.803C78.8762 322.803 78.8762 323.938 79.6325 323.938Z" fill="#E8E8E8"/>
<path fill-rule="evenodd" clip-rule="evenodd" d="M0.567183 324.656C11.3815 324.656 22.1958 324.656 33.0101 324.656C33.7285 324.656 33.7285 323.521 33.0101 323.521C22.1958 323.521 11.3815 323.521 0.567183 323.521C-0.189061 323.521 -0.189061 324.656 0.567183 324.656Z" fill="#E8E8E8"/>
<path fill-rule="evenodd" clip-rule="evenodd" d="M68.8182 234.89C85.985 234.89 103.152 234.89 120.318 234.89C121.037 234.89 121.037 233.755 120.318 233.755C103.152 233.755 85.985 233.755 68.8182 233.755C68.062 233.755 68.062 234.89 68.8182 234.89Z" fill="#E8E8E8"/>
<path fill-rule="evenodd" clip-rule="evenodd" d="M97.5933 235.343C97.5933 239.275 97.5933 243.246 97.5933 247.178C97.5933 247.897 98.7277 247.897 98.7277 247.178C98.7277 243.246 98.7277 239.275 98.7277 235.343C98.7277 234.625 97.5933 234.625 97.5933 235.343Z" fill="#E8E8E8"/>
<path fill-rule="evenodd" clip-rule="evenodd" d="M87.8756 247.746C101.261 247.746 114.647 247.746 128.032 247.746C128.751 247.746 128.751 246.611 128.032 246.611C114.647 246.611 101.261 246.611 87.8756 246.611C87.1193 246.611 87.1193 247.746 87.8756 247.746Z" fill="#E8E8E8"/>
<path fill-rule="evenodd" clip-rule="evenodd" d="M118.201 248.199C118.201 252.472 118.201 256.783 118.201 261.056C118.201 261.774 119.335 261.774 119.335 261.056C119.335 256.783 119.335 252.472 119.335 248.199C119.335 247.481 118.201 247.481 118.201 248.199Z" fill="#E8E8E8"/>
<path fill-rule="evenodd" clip-rule="evenodd" d="M396.007 327.983C410.565 327.983 425.085 327.983 439.643 327.983C440.361 327.983 440.361 326.849 439.643 326.849C425.085 326.849 410.565 326.849 396.007 326.849C395.251 326.849 395.251 327.983 396.007 327.983Z" fill="#E8E8E8"/>
<path fill-rule="evenodd" clip-rule="evenodd" d="M489.403 323.862C504.869 323.862 520.296 323.862 535.761 323.862C536.48 323.862 536.48 322.728 535.761 322.728C520.296 322.728 504.869 322.728 489.403 322.728C488.685 322.728 488.685 323.862 489.403 323.862Z" fill="#E8E8E8"/>
<path fill-rule="evenodd" clip-rule="evenodd" d="M340.877 216.286C340.877 223.546 340.877 230.844 340.877 238.104C340.877 238.822 342.011 238.822 342.011 238.104C342.011 230.844 342.011 223.546 342.011 216.286C342.011 215.53 340.877 215.53 340.877 216.286Z" fill="#E8E8E8"/>
<path fill-rule="evenodd" clip-rule="evenodd" d="M342.125 227.062C348.931 227.062 355.775 227.062 362.581 227.062C363.3 227.062 363.3 225.928 362.581 225.928C355.775 225.928 348.931 225.928 342.125 225.928C341.406 225.928 341.406 227.062 342.125 227.062Z" fill="#E8E8E8"/>
<path fill-rule="evenodd" clip-rule="evenodd" d="M361.333 219.009C361.333 225.815 361.333 232.659 361.333 239.465C361.333 240.183 362.468 240.183 362.468 239.465C362.468 232.659 362.468 225.815 362.468 219.009C362.468 218.252 361.333 218.252 361.333 219.009Z" fill="#E8E8E8"/>
<path fill-rule="evenodd" clip-rule="evenodd" d="M348.288 241.393C358.951 241.393 369.652 241.393 380.315 241.393C381.034 241.393 381.034 240.259 380.315 240.259C369.652 240.259 358.951 240.259 348.288 240.259C347.532 240.259 347.532 241.393 348.288 241.393Z" fill="#E8E8E8"/>
<path fill-rule="evenodd" clip-rule="evenodd" d="M370.219 242.868C370.219 248.086 370.219 253.304 370.219 258.56C370.219 259.278 371.354 259.278 371.354 258.56C371.354 253.342 371.354 248.124 371.354 242.868C371.354 242.112 370.219 242.112 370.219 242.868Z" fill="#E8E8E8"/>
<path fill-rule="evenodd" clip-rule="evenodd" d="M283.932 29.342C283.932 41.1773 283.932 53.0125 283.932 64.8477C283.932 65.5661 285.066 65.5661 285.066 64.8477C285.066 53.0125 285.066 41.1773 285.066 29.342C285.066 28.6236 283.932 28.6236 283.932 29.342Z" fill="#E8E8E8"/>
<path fill-rule="evenodd" clip-rule="evenodd" d="M285.104 29.2667C303.708 29.2667 322.311 29.2667 340.877 29.2667C341.595 29.2667 341.595 28.1323 340.877 28.1323C322.273 28.1323 303.67 28.1323 285.104 28.1323C284.386 28.1323 284.386 29.2667 285.104 29.2667Z" fill="#E8E8E8"/>
<path fill-rule="evenodd" clip-rule="evenodd" d="M340.385 29.1531C340.385 40.8749 340.385 52.5966 340.385 64.2806C340.385 64.9991 341.52 64.9991 341.52 64.2806C341.52 52.5588 341.52 40.8371 341.52 29.1531C341.52 28.4346 340.385 28.4346 340.385 29.1531Z" fill="#E8E8E8"/>
<path fill-rule="evenodd" clip-rule="evenodd" d="M284.991 65.7931C303.783 65.7931 322.614 65.7931 341.406 65.7931C342.125 65.7931 342.125 64.6587 341.406 64.6587C322.614 64.6587 303.783 64.6587 284.991 64.6587C284.272 64.6587 284.272 65.7931 284.991 65.7931Z" fill="#E8E8E8"/>
<path fill-rule="evenodd" clip-rule="evenodd" d="M309.228 28.0947C309.039 27.0737 309.001 26.0528 309.19 25.0319C309.38 24.1244 309.833 22.3094 310.892 23.4438C311.421 24.0109 311.459 25.2587 311.61 25.9772C311.8 26.9225 311.989 27.9056 312.178 28.8509C312.329 29.5693 313.425 29.2668 313.274 28.5484C312.934 26.8847 312.783 25.0319 312.14 23.4438C311.8 22.6119 311.157 21.6288 310.136 21.6666C309.001 21.7044 308.548 22.9144 308.283 23.8597C307.829 25.3344 307.829 26.8469 308.132 28.3215C308.245 29.1156 309.342 28.8131 309.228 28.0947Z" fill="#E8E8E8"/>
<path fill-rule="evenodd" clip-rule="evenodd" d="M287.222 33.4261C287.222 42.6144 287.222 51.8028 287.222 60.9912C287.222 61.7096 288.356 61.7096 288.356 60.9912C288.356 51.8028 288.356 42.6144 288.356 33.4261C288.356 32.6698 287.222 32.6698 287.222 33.4261Z" fill="#E8E8E8"/>
<path fill-rule="evenodd" clip-rule="evenodd" d="M288.091 33.3507C304.426 33.3507 320.761 33.3507 337.058 33.3507C337.776 33.3507 337.776 32.2163 337.058 32.2163C320.723 32.2163 304.388 32.2163 288.091 32.2163C287.373 32.2163 287.373 33.3507 288.091 33.3507Z" fill="#E8E8E8"/>
<path fill-rule="evenodd" clip-rule="evenodd" d="M337.134 32.4807C337.134 42.2741 337.134 52.0674 337.134 61.8608C337.134 62.5792 338.268 62.5792 338.268 61.8608C338.268 52.0674 338.268 42.2741 338.268 32.4807C338.268 31.7623 337.134 31.7623 337.134 32.4807Z" fill="#E8E8E8"/>
<path fill-rule="evenodd" clip-rule="evenodd" d="M288.696 61.8228C304.918 61.8228 321.139 61.8228 337.36 61.8228C338.079 61.8228 338.079 60.6885 337.36 60.6885C321.139 60.6885 304.918 60.6885 288.696 60.6885C287.978 60.6885 287.978 61.8228 288.696 61.8228Z" fill="#E8E8E8"/>
<path fill-rule="evenodd" clip-rule="evenodd" d="M288.053 51.9539C295.465 49.9499 302.876 48.2105 310.476 50.3658C316.753 52.1808 322.5 55.5461 329.004 56.6426C329.722 56.7561 330.025 55.6595 329.307 55.5461C322.387 54.3739 316.337 50.6305 309.569 48.9667C302.195 47.1518 294.897 48.9289 287.789 50.8574C287.032 51.0464 287.335 52.143 288.053 51.9539Z" fill="#E8E8E8"/>
<path fill-rule="evenodd" clip-rule="evenodd" d="M314.068 51.8783C321.064 51.0843 328.021 48.324 335.092 49.7987C335.81 49.9499 336.113 48.8534 335.394 48.7021C328.172 47.1896 321.177 49.9121 314.068 50.7062C313.35 50.8196 313.35 51.9918 314.068 51.8783Z" fill="#E8E8E8"/>
<path fill-rule="evenodd" clip-rule="evenodd" d="M315.278 43.8241C314.408 42.9922 314.333 41.5175 315.24 40.6856C316.223 39.7403 318.001 40.005 318.757 41.1016C319.551 42.1981 319.362 43.8619 318.341 44.7315C317.093 45.7903 315.429 44.9584 314.56 43.8619C314.144 43.2947 313.123 43.8619 313.577 44.4291C314.787 46.055 317.018 47.1137 318.833 45.7903C320.534 44.5425 320.799 41.9334 319.513 40.3075C318.379 38.8707 316.034 38.5682 314.598 39.7403C313.085 40.9503 313.047 43.3703 314.446 44.6937C315.013 45.1097 315.808 44.3156 315.278 43.8241Z" fill="#E8E8E8"/>
<path fill-rule="evenodd" clip-rule="evenodd" d="M360.312 296.107C361.522 293.612 363.527 290.549 366.778 289.641C371.77 288.242 375.324 293.234 382.773 296.864C396.234 303.443 407.956 298.527 409.052 302.195C409.922 305.107 402.927 309.833 398.389 312.102C389.277 316.639 372.072 320.307 364.132 310.589C362.959 309.153 359.707 304.653 360.312 296.107Z" fill="#161616" stroke="#161616" stroke-width="3"/>
<path fill-rule="evenodd" clip-rule="evenodd" d="M350.028 301.023C348.402 299.472 347.683 297.506 347.381 296.069C350.217 286.579 356.115 279.356 362.997 278.562C367.421 278.071 371.77 280.264 375.173 282.003C380.731 284.801 380.845 286.654 386.214 289.982C395.251 295.616 401.679 294.595 402.208 297.582C402.7 300.38 397.633 304.237 392.68 305.976C382.735 309.455 379.597 302.233 364.132 302.913C358.649 303.178 353.544 304.35 350.028 301.023Z" fill="#161616" stroke="#161616" stroke-width="3"/>
<path fill-rule="evenodd" clip-rule="evenodd" d="M281.814 239.313C282.571 244.002 283.743 251.602 284.953 260.98C289.566 296.221 287.713 301.363 293.234 308.699C305.976 325.639 334.373 322.765 336.604 322.5C352.788 320.647 363.754 312.14 368.14 308.321C365.644 303.972 363.149 299.662 360.653 295.313C348.175 295.427 335.697 295.578 323.181 295.691C325.866 286.011 329.004 269.752 326.319 249.976C324.278 234.852 319.589 222.903 315.656 214.887C305.371 215.643 293.498 217.345 280.567 220.785C274.328 222.449 268.542 224.34 263.211 226.306C262.946 233.453 262.606 243.624 262.417 255.875C261.774 302.233 264.421 311.762 271.076 316.602C274.328 318.946 279.999 319.135 291.192 319.362C310.665 319.778 327.151 314.673 346.398 308.699C350.746 307.338 354.263 306.165 356.418 305.447C355.321 296.788 354.187 288.167 353.09 279.508C345.415 281.587 337.398 283.554 329.08 285.444C321.101 287.221 313.35 288.81 305.825 290.171" fill="#5222D0"/>
<path fill-rule="evenodd" clip-rule="evenodd" d="M277.693 245.288C281.625 246.762 282.306 251.716 282.684 255.346C283.214 260.223 283.516 265.101 283.819 270.017C284.424 279.583 285.066 289.188 287.449 298.489C287.638 299.208 288.734 298.905 288.545 298.187C285.823 287.562 285.407 276.596 284.688 265.744C284.386 261.093 284.272 256.291 283.289 251.716C282.609 248.54 281.21 245.439 277.995 244.229C277.315 243.964 277.012 245.061 277.693 245.288Z" fill="#281472"/>
<path fill-rule="evenodd" clip-rule="evenodd" d="M295.654 310.703C298.565 313.236 301.401 316.186 304.653 318.341C307.791 320.421 311.573 321.177 315.24 321.857C315.959 322.009 316.261 320.912 315.543 320.761C311.989 320.08 308.321 319.4 305.22 317.358C302.082 315.278 299.321 312.404 296.448 309.909C295.918 309.417 295.086 310.249 295.654 310.703Z" fill="#281472"/>
<path fill-rule="evenodd" clip-rule="evenodd" d="M323.824 291.797C327.945 291.873 331.954 292.629 335.81 294.028C336.491 294.293 336.793 293.196 336.113 292.931C332.143 291.494 328.021 290.738 323.824 290.663C323.068 290.625 323.068 291.759 323.824 291.797Z" fill="#281472"/>
<path opacity="0.58" fill-rule="evenodd" clip-rule="evenodd" d="M262.946 252.207C263.173 248.691 265.593 245.552 268.845 244.116C272.248 242.641 276.483 243.624 279.092 245.704C283.629 249.258 283.251 255.951 283.44 264.043C283.781 278.827 284.197 296.561 292.893 308.396C294.897 311.119 298.527 315.165 305.107 318.643C301.704 320.269 295.616 322.614 287.94 322.198C284.612 322.009 275.651 321.442 269.223 314.9C266.085 311.724 263.362 306.884 262.53 283.554C262.265 275.575 262.19 264.874 262.946 252.207Z" fill="#474747"/>
<path opacity="0.59" fill-rule="evenodd" clip-rule="evenodd" d="M324.807 286.692C334.222 284.272 343.637 281.852 353.053 279.432C353.62 284.65 354.149 289.906 354.716 295.124C350.444 293.952 345.604 292.855 340.348 291.986C334.26 291.003 328.664 290.511 323.673 290.322C324.051 289.112 324.429 287.902 324.807 286.692Z" fill="#474747"/>
<path fill-rule="evenodd" clip-rule="evenodd" d="M265.555 132.645C265.442 129.998 265.744 127.087 267.483 126.103C273.722 122.625 296.523 145.047 307.716 169.89C312.102 179.646 317.471 195.943 316.299 218.29C298.981 221.466 281.701 224.68 264.383 227.856C261.434 222.903 256.442 215.378 248.766 207.438C241.091 199.497 238.179 198.892 234.889 193.107C227.856 180.704 231.638 166.6 232.583 163.046C233.831 158.433 236.553 148.526 246.006 140.85C253.606 134.649 261.774 133.099 265.555 132.645Z" fill="white" stroke="#161616" stroke-width="3"/>
<path opacity="0.36" fill-rule="evenodd" clip-rule="evenodd" d="M264.912 138.695C269.412 141.796 285.104 153.328 291.456 175.373C298.376 199.497 289.188 219.197 286.919 223.697C296.826 222.033 306.77 220.407 316.677 218.744C317.282 209.139 317.055 192.199 309.568 173.029C300.191 149.056 284.461 134.725 276.672 128.486C272.739 131.889 268.845 135.292 264.912 138.695Z" fill="#828181"/>
<path opacity="0.4" fill-rule="evenodd" clip-rule="evenodd" d="M304.615 164.709C305.258 168.377 306.014 173.747 306.317 180.326C306.846 191.934 307.262 200.215 303.178 208.685C301.59 212.013 298.073 217.911 290.435 223.281C299.094 221.692 307.716 220.142 316.375 218.554C316.791 210.651 316.45 199.61 313.236 187.019C310.854 177.982 307.64 170.457 304.615 164.709Z" fill="#828181"/>
<path fill-rule="evenodd" clip-rule="evenodd" d="M192.086 129.506C194.733 133.363 197.115 136.54 199.043 138.96C203.77 144.972 205.585 146.522 208.118 147.051C210.274 147.505 212.316 147.127 213.526 146.862C216.891 146.182 218.252 144.82 220.483 143.762C223.432 142.4 224.604 143.081 234.171 143.195C241.091 143.27 240.334 142.892 246.536 143.005C251.981 143.119 256.48 143.459 259.656 143.762C258.749 143.043 257.841 142.363 256.972 141.644C255.724 141.304 252.094 140.17 249.258 136.615C246.914 133.666 246.347 130.641 246.157 129.28C246.952 129.053 248.351 128.486 249.258 127.162C251.149 124.364 249.182 120.545 248.502 119.259C247.67 117.671 246.157 114.798 244.078 115.024C242.527 115.176 241.053 116.991 240.599 119.448C237.045 120.583 231.675 121.642 226.117 119.827C215.643 116.386 213.488 105.496 207.778 105.344C204.072 105.307 198.817 109.617 192.086 129.506Z" fill="white"/>
<path fill-rule="evenodd" clip-rule="evenodd" d="M191.065 127.767C194.052 134.611 198.59 140.661 204.299 145.464C204.867 145.917 205.661 145.123 205.093 144.669C199.422 139.905 194.998 133.969 192.01 127.2C191.746 126.557 190.763 127.125 191.065 127.767Z" fill="#161616"/>
<path fill-rule="evenodd" clip-rule="evenodd" d="M209.215 135.935C209.555 137.863 209.971 139.754 210.463 141.644C210.916 143.27 211.257 145.237 212.089 146.711C213.261 148.791 217.004 146.22 218.214 145.274C218.781 144.821 217.987 144.027 217.42 144.48C216.588 145.123 214.925 146.409 213.79 146.257C212.542 146.106 212.24 143.648 211.937 142.703C211.257 140.397 210.727 138.052 210.311 135.67C210.16 134.914 209.064 135.216 209.215 135.935Z" fill="#161616"/>
<path fill-rule="evenodd" clip-rule="evenodd" d="M204.035 136.162C202.598 134.952 200.745 133.401 201.426 131.284C201.123 131.36 200.783 131.435 200.48 131.549C201.955 132.986 203.089 134.687 203.808 136.615C203.921 136.389 204.072 136.162 204.186 135.935C203.959 135.746 203.694 135.557 203.467 135.405C203.278 134.687 202.182 134.99 202.371 135.708C202.636 136.729 203.467 137.183 204.488 137.031C204.791 136.994 204.98 136.578 204.866 136.351C204.072 134.233 202.862 132.381 201.237 130.792C200.934 130.49 200.405 130.641 200.291 131.057C199.497 133.591 201.388 135.557 203.203 137.031C203.77 137.41 204.602 136.615 204.035 136.162Z" fill="#161616"/>
<path fill-rule="evenodd" clip-rule="evenodd" d="M200.48 131.964C201.388 133.363 202.295 134.762 203.203 136.161C203.581 136.766 204.564 136.199 204.186 135.594C203.278 134.195 202.371 132.796 201.463 131.397C201.085 130.754 200.102 131.321 200.48 131.964Z" fill="#161616"/>
<path fill-rule="evenodd" clip-rule="evenodd" d="M217.571 130.377C216.891 129.582 216.172 128.675 215.832 127.654C215.719 127.352 215.681 127.011 215.681 126.709C215.756 126.217 215.87 126.179 216.097 126.557C216.475 126.709 216.815 127.427 217.042 127.767C217.571 128.562 218.063 129.431 218.328 130.301C218.479 130.792 218.668 130.868 218.139 130.641C217.647 130.414 217.193 129.885 216.853 129.507C216.361 128.94 215.567 129.772 216.059 130.301C216.664 130.982 218.63 132.986 219.424 131.435C220.143 130.036 218.365 127.578 217.571 126.557C216.891 125.688 215.265 123.948 214.622 125.877C213.979 127.805 215.605 129.809 216.74 131.133C217.231 131.738 218.025 130.944 217.571 130.377Z" fill="#161616"/>
<path fill-rule="evenodd" clip-rule="evenodd" d="M215.076 126.746C215.945 128.145 216.815 129.544 217.685 130.943C218.063 131.548 219.046 130.981 218.668 130.376C217.874 129.091 217.193 127.805 216.55 126.444C216.248 126.671 215.945 126.897 215.643 127.124C216.513 127.956 217.155 128.939 217.571 130.074C217.836 130.754 218.933 130.452 218.668 129.771C218.176 128.448 217.458 127.313 216.437 126.33C215.945 125.877 215.265 126.444 215.53 127.011C216.172 128.372 216.853 129.696 217.647 130.943C217.987 130.754 218.29 130.565 218.63 130.376C217.76 128.977 216.891 127.578 216.021 126.179C215.681 125.574 214.698 126.141 215.076 126.746Z" fill="#161616"/>
<path fill-rule="evenodd" clip-rule="evenodd" d="M245.363 132.758C246.536 135.859 246.422 139.111 244.91 142.06C244.569 142.703 245.552 143.27 245.893 142.627C247.519 139.413 247.746 135.821 246.46 132.456C246.195 131.813 245.099 132.078 245.363 132.758Z" fill="#161616"/>
<path fill-rule="evenodd" clip-rule="evenodd" d="M186.528 105.08C185.923 105.912 180.44 113.588 183.351 123.23C186.225 132.758 194.808 136.162 195.792 136.54C195.376 134.195 194.695 128.41 197.493 121.982C200.821 114.23 206.946 110.6 208.912 109.542C210.16 111.357 214.887 117.785 223.886 120.318C231.94 122.549 238.595 120.318 240.788 119.486C241.204 118.806 242.792 116.461 244.796 116.537C247.67 116.65 250.506 121.869 248.804 125.423C247.746 127.654 245.25 128.41 244.569 128.599C244.985 130.225 245.855 132.683 247.746 135.141C250.922 139.338 255.081 140.964 257.463 141.909C259.808 142.816 278.978 150.114 290.398 138.09C296.561 131.624 299.51 120.545 295.465 112.945C292.175 106.819 286.39 106.781 270.773 99.8618C252.056 91.5431 254.627 89.0097 243.548 85.4932C237.763 83.6404 216.475 76.872 199.837 88.4425C192.237 93.6984 188.38 100.807 186.528 105.08Z" fill="#FFBF18"/>
<path fill-rule="evenodd" clip-rule="evenodd" d="M178.285 169.285C178.133 167.092 178.058 160.777 182.179 154.992C188.494 146.144 199.384 145.955 201.237 145.917C204.526 145.841 208.875 146.409 218.933 151.929C225.474 155.521 234.436 161.155 244.002 169.966C246.422 170.117 250.43 170.646 254.552 173.028C258.938 175.524 267.068 182.103 265.328 189.174C264.345 193.182 260.299 197.077 256.442 196.888C250.241 196.585 246.233 185.922 244.947 186.565C243.926 187.057 247.027 193.409 245.666 194.279C244.418 195.073 239.502 191.254 237.234 186.074C235.381 181.914 235.683 177.982 236.062 175.751C226.987 171.478 212.013 166.109 193.485 167.054C187.813 167.394 182.746 168.226 178.285 169.285Z" fill="white" stroke="#161616" stroke-width="3"/>
<path opacity="0.34" fill-rule="evenodd" clip-rule="evenodd" d="M178.36 168.529C179.721 161.193 182.935 157.828 184.788 156.353C196.397 146.976 218.403 158.281 224.945 161.609C232.658 165.541 238.444 170.344 241.242 172.801C246.838 177.755 245.439 178.057 253.077 185.317C258.333 190.308 262.076 193.144 261.32 195.186C260.677 196.85 257.501 197.001 257.199 197.001C249.825 197.266 244.758 185.847 244.531 185.317C246.346 191.934 246.006 193.938 245.174 194.354C243.586 195.186 238.897 190.8 236.931 185.62C235.381 181.536 235.835 177.717 236.288 175.562C230.654 173.028 223.508 170.495 215.076 168.831C199.913 165.882 186.981 167.016 178.36 168.529Z" fill="#828181"/>
<path fill-rule="evenodd" clip-rule="evenodd" d="M147.203 172.385C145.993 178.851 144.48 192.501 150.644 207.399C162.214 235.418 190.914 243.661 194.771 244.682C194.884 249.106 195.035 253.568 195.149 257.992C188.116 261.32 177.717 267.143 167.357 277.012C159.681 284.347 146.295 297.43 141.115 318.87C137.939 331.991 138.884 343.826 140.737 352.749C186.414 353.506 232.054 354.262 277.731 355.018C279.205 346.397 280.831 329.23 273.534 310.135C260.488 275.991 229.293 262.719 223.319 260.299C223.205 254.324 223.054 248.388 222.941 242.413C228.802 241.128 242.376 237.347 253.758 225.285C272.739 205.206 269.866 178.927 269.374 175.07C228.613 174.162 187.889 173.293 147.203 172.385Z" fill="white" stroke="#161616" stroke-width="3"/>
<path fill-rule="evenodd" clip-rule="evenodd" d="M154.501 214.395C158.244 216.437 162.252 217.987 166.525 218.592C169.626 219.008 172.575 218.743 175.675 218.403C179.608 217.949 183.503 217.609 187.397 216.928C191.368 216.248 195.149 215.075 199.081 214.206C200.14 213.979 201.123 213.865 202.182 214.092C204.262 214.508 205.471 215.794 207.06 217.004C209.253 218.668 212.089 218.554 214.357 217.193C215.567 216.437 216.664 215.491 217.874 214.773C219.651 213.714 221.617 213.185 223.697 213.033C225.928 212.882 228.197 213.033 230.39 213.449C232.999 213.941 235.305 215 237.801 215.794C242.717 217.382 244.229 212.126 248.048 210.349C252.623 208.194 258.938 208.42 263.74 209.441C264.459 209.593 264.761 208.496 264.043 208.345C259.883 207.437 255.8 207.475 251.602 208.194C249.825 208.496 248.124 208.912 246.573 209.857C244.796 210.954 243.775 212.618 242.263 213.979C240.07 215.945 237.536 214.433 235.23 213.563C233.15 212.807 230.957 212.315 228.726 212.05C225.02 211.597 221.088 211.748 217.723 213.563C214.962 215.075 212.58 218.1 209.101 216.815C207.589 216.248 206.644 214.848 205.282 214.054C204.186 213.374 202.862 212.958 201.577 212.844C199.119 212.655 196.586 213.714 194.203 214.319C189.704 215.453 185.091 216.21 180.44 216.701C176.81 217.079 173.066 217.76 169.399 217.647C164.332 217.495 159.492 215.794 155.106 213.374C154.425 213.033 153.858 214.017 154.501 214.395Z" fill="#161616"/>
<path fill-rule="evenodd" clip-rule="evenodd" d="M195.338 253.455C195.943 254.892 196.548 256.404 197.569 257.614C198.212 258.408 199.195 259.013 199.611 260.034C200.027 261.093 200.027 262.492 200.178 263.626C200.669 267.521 201.199 271.416 202.825 275.045C203.127 275.726 204.11 275.121 203.808 274.478C202.031 270.584 201.69 266.349 201.123 262.152C200.934 260.79 200.858 259.391 199.875 258.332C198.363 256.669 197.342 255.308 196.434 253.152C196.17 252.472 195.073 252.774 195.338 253.455Z" fill="#161616"/>
<path fill-rule="evenodd" clip-rule="evenodd" d="M220.067 256.745C218.403 255.459 217.118 257.841 216.513 259.127C215.908 260.337 215.454 261.585 215.151 262.87C214.811 264.345 214.887 266.047 214.206 267.408C213.563 268.807 212.505 269.979 211.9 271.416C211.332 272.702 210.916 274.063 210.538 275.424C209.669 278.827 209.177 282.344 208.572 285.785C208.459 286.503 209.555 286.806 209.669 286.087C210.576 280.907 211.03 275.122 213.639 270.471C214.244 269.412 215.038 268.504 215.454 267.37C215.756 266.576 215.794 265.744 215.908 264.95C216.021 264.118 218.139 256.669 219.273 257.539C219.802 257.993 220.634 257.199 220.067 256.745Z" fill="#161616"/>
<path fill-rule="evenodd" clip-rule="evenodd" d="M207.929 301.287C207.589 300.682 207.249 299.964 207.4 299.283C207.627 298.225 208.799 298.073 209.177 299.094C209.631 300.304 208.912 301.703 208.081 302.497C208.307 302.46 208.534 302.422 208.761 302.422C208.307 302.081 207.854 301.741 207.438 301.439C206.833 300.985 206.303 302.006 206.871 302.422C207.324 302.762 207.778 303.102 208.194 303.405C208.383 303.556 208.723 303.481 208.875 303.329C210.236 302.006 211.484 298.452 209.101 297.393C208.156 296.977 207.097 297.468 206.568 298.338C205.887 299.472 206.341 300.834 206.946 301.892C207.286 302.497 208.27 301.93 207.929 301.287Z" fill="#161616"/>
<path fill-rule="evenodd" clip-rule="evenodd" d="M204.942 314.295C204.677 313.766 204.262 313.047 204.375 312.404C204.451 312.026 204.942 311.497 205.32 311.837C205.698 312.14 205.736 313.047 205.623 313.463C205.509 313.841 204.867 314.484 204.526 313.992C204.11 313.425 203.127 313.992 203.543 314.56C204.148 315.429 205.396 315.505 206.19 314.749C207.06 313.917 206.984 312.253 206.341 311.308C205.698 310.362 204.451 310.514 203.77 311.308C202.787 312.367 203.392 313.841 203.959 314.938C204.299 315.505 205.282 314.938 204.942 314.295Z" fill="#161616"/>
<path fill-rule="evenodd" clip-rule="evenodd" d="M210.425 318.794C209.933 318.416 210.425 317.168 211.106 317.547C211.408 317.698 211.597 318.152 211.521 318.492C211.408 318.983 210.765 318.908 210.501 318.643C209.971 318.114 209.177 318.946 209.706 319.437C210.501 320.193 211.975 320.193 212.505 319.135C212.921 318.265 212.542 317.168 211.786 316.639C210.954 316.072 209.896 316.412 209.404 317.282C208.912 318.152 209.064 319.21 209.896 319.777C210.425 320.193 210.992 319.21 210.425 318.794Z" fill="#161616"/>
<path fill-rule="evenodd" clip-rule="evenodd" d="M173.255 353.392C176.394 350.859 179.532 348.326 182.671 345.792C184.183 344.582 185.62 343.297 187.246 342.238C188.872 341.179 190.649 340.688 192.464 340.007C198.136 337.814 203.127 328.399 209.631 334.297C211.748 336.188 213.488 337.852 216.248 338.759C219.386 339.78 222.487 340.385 225.474 341.86C231.222 344.696 235.91 349.271 239.049 354.829C239.389 355.472 240.372 354.905 240.032 354.262C237.612 349.914 234.284 346.208 230.201 343.334C228.234 341.935 226.079 340.763 223.848 339.856C221.277 338.797 218.592 338.381 215.983 337.436C211.295 335.734 208.875 329.76 203.165 331.499C200.858 332.218 199.006 333.768 197.228 335.356C196.17 336.301 195.111 337.247 193.901 338.003C192.351 338.986 190.573 339.326 188.91 340.045C186.263 341.179 184.07 343.183 181.839 344.96C178.7 347.494 175.562 350.027 172.424 352.561C171.894 353.052 172.688 353.846 173.255 353.392Z" fill="#161616"/>
<path fill-rule="evenodd" clip-rule="evenodd" d="M222.26 250.922C221.844 253.984 221.39 257.009 220.975 260.072C220.596 262.832 220.559 266.084 219.311 268.656C219.575 268.58 219.84 268.504 220.105 268.466C219.046 267.748 219.765 264.194 219.765 263.135C219.802 261.282 219.84 259.467 219.878 257.614C219.878 256.896 218.744 256.896 218.744 257.614C218.668 260.299 218.63 262.984 218.555 265.706C218.517 267.067 218.252 268.58 219.5 269.45C219.727 269.601 220.143 269.525 220.294 269.261C221.504 266.765 221.617 263.853 221.995 261.131C222.449 257.841 222.941 254.552 223.395 251.262C223.432 250.506 222.336 250.203 222.26 250.922Z" fill="#161616"/>
<path fill-rule="evenodd" clip-rule="evenodd" d="M194.808 246.119C194.203 249.333 194.657 252.434 196.094 255.345C196.434 255.988 197.38 255.421 197.077 254.778C195.792 252.131 195.376 249.296 195.905 246.422C196.018 245.703 194.922 245.401 194.808 246.119Z" fill="#161616"/>
<path fill-rule="evenodd" clip-rule="evenodd" d="M174.012 230.087C180.894 235.116 189.401 237.045 196.586 241.469C197.191 241.847 197.796 240.864 197.153 240.486C189.931 236.062 181.423 234.133 174.579 229.104C173.974 228.65 173.407 229.634 174.012 230.087Z" fill="#161616"/>
<path fill-rule="evenodd" clip-rule="evenodd" d="M196.056 235.948C199.459 238.028 201.842 241.204 202.863 245.099C203.052 245.817 204.148 245.515 203.959 244.796C202.9 240.637 200.329 237.196 196.661 234.965C196.019 234.587 195.451 235.57 196.056 235.948Z" fill="#161616"/>
<path fill-rule="evenodd" clip-rule="evenodd" d="M215.681 250.241C217.496 245.25 219.878 240.221 224.302 237.045C224.907 236.629 224.34 235.645 223.735 236.061C219.046 239.465 216.513 244.607 214.584 249.939C214.357 250.657 215.454 250.922 215.681 250.241Z" fill="#161616"/>
<path fill-rule="evenodd" clip-rule="evenodd" d="M181.574 350.746C185.431 346.511 190.384 343.599 195.943 342.238C196.661 342.087 196.359 340.99 195.64 341.141C189.893 342.502 184.75 345.565 180.78 349.914C180.289 350.519 181.083 351.313 181.574 350.746Z" fill="#161616"/>
<path fill-rule="evenodd" clip-rule="evenodd" d="M190.271 347.191C192.993 345.981 195.716 344.771 198.438 343.561C199.119 343.259 198.514 342.276 197.871 342.578C195.149 343.788 192.426 344.998 189.704 346.208C189.061 346.511 189.628 347.494 190.271 347.191Z" fill="#161616"/>
<path fill-rule="evenodd" clip-rule="evenodd" d="M212.845 333.088C216.172 336.15 221.542 335.092 224.605 338.419C225.096 338.948 225.89 338.154 225.399 337.625C222.26 334.222 216.966 335.318 213.639 332.294C213.11 331.764 212.316 332.596 212.845 333.088Z" fill="#161616"/>
<path fill-rule="evenodd" clip-rule="evenodd" d="M140.775 356.758C176.507 356.758 212.24 356.758 248.01 356.758C258.068 356.758 268.164 356.758 278.222 356.758C282.608 356.758 282.608 349.952 278.222 349.952C242.49 349.952 206.757 349.952 170.987 349.952C160.929 349.952 150.833 349.952 140.775 349.952C136.389 349.952 136.389 356.758 140.775 356.758Z" fill="#161616"/>
<path fill-rule="evenodd" clip-rule="evenodd" d="M146.144 174.73C178.36 174.73 210.576 174.73 242.792 174.73C251.867 174.73 260.904 174.73 269.979 174.73C274.365 174.73 274.365 167.924 269.979 167.924C237.763 167.924 205.547 167.924 173.331 167.924C164.256 167.924 155.219 167.924 146.144 167.924C141.758 167.924 141.758 174.73 146.144 174.73Z" fill="#161616"/>
<path fill-rule="evenodd" clip-rule="evenodd" d="M136.918 167.924C134.271 167.924 131.624 167.924 128.977 167.924C124.591 167.924 124.591 174.73 128.977 174.73C131.624 174.73 134.271 174.73 136.918 174.73C141.304 174.73 141.304 167.924 136.918 167.924Z" fill="#161616"/>
<path fill-rule="evenodd" clip-rule="evenodd" d="M114.117 173.974C115.138 173.974 116.159 173.974 117.18 173.974C118.957 173.974 120.659 172.423 120.583 170.571C120.507 168.718 119.071 167.167 117.18 167.167C116.159 167.167 115.138 167.167 114.117 167.167C112.34 167.167 110.638 168.718 110.714 170.571C110.79 172.386 112.189 173.974 114.117 173.974Z" fill="#161616"/>
<path fill-rule="evenodd" clip-rule="evenodd" d="M286.125 356.266C291.494 356.266 296.901 356.266 302.271 356.266C306.657 356.266 306.657 349.46 302.271 349.46C296.901 349.46 291.494 349.46 286.125 349.46C281.739 349.46 281.739 356.266 286.125 356.266Z" fill="#161616"/>
<path fill-rule="evenodd" clip-rule="evenodd" d="M313.841 357.023C314.787 357.023 315.732 357.023 316.677 357.023C318.454 357.023 320.156 355.472 320.08 353.619C320.005 351.767 318.568 350.216 316.677 350.216C315.732 350.216 314.787 350.216 313.841 350.216C312.064 350.216 310.363 351.767 310.438 353.619C310.514 355.472 311.913 357.023 313.841 357.023Z" fill="#161616"/>
<path fill-rule="evenodd" clip-rule="evenodd" d="M194.771 244.947C194.506 247.556 194.279 250.203 194.808 252.774C195.376 255.497 197.077 257.425 198.325 259.845C199.762 262.568 200.178 265.857 200.858 268.807C201.577 271.945 202.295 275.084 203.014 278.222C203.354 279.659 205.509 279.054 205.207 277.617C204.526 274.592 203.808 271.567 203.127 268.542C202.484 265.744 202.031 262.795 200.972 260.148C200.027 257.766 198.098 255.837 197.304 253.379C196.434 250.657 196.775 247.708 197.039 244.947C197.191 243.51 194.922 243.51 194.771 244.947Z" fill="#161616"/>
<path fill-rule="evenodd" clip-rule="evenodd" d="M189.628 243.813C191.708 244.796 193.825 245.098 196.094 244.72C197.531 244.493 196.926 242.3 195.489 242.527C193.863 242.792 192.237 242.565 190.763 241.847C189.439 241.204 188.305 243.17 189.628 243.813Z" fill="#161616"/>
<path fill-rule="evenodd" clip-rule="evenodd" d="M217.647 256.858C215.832 258.144 214.925 259.997 214.509 262.114C214.206 263.551 214.13 265.026 213.715 266.463C213.299 267.899 212.618 269.223 211.937 270.584C209.404 275.689 206.871 281.096 207.589 286.919C207.778 288.356 210.047 288.356 209.858 286.919C209.177 281.436 211.521 276.483 213.904 271.718C214.925 269.677 215.87 267.673 216.248 265.442C216.664 263.135 216.702 260.299 218.781 258.824C219.991 257.955 218.857 255.989 217.647 256.858Z" fill="#161616"/>
<path fill-rule="evenodd" clip-rule="evenodd" d="M195.565 307.527C197.039 307.527 197.039 305.258 195.565 305.258C194.128 305.258 194.128 307.527 195.565 307.527Z" fill="#161616"/>
<path fill-rule="evenodd" clip-rule="evenodd" d="M191.481 326.243C192.956 326.243 192.956 323.975 191.481 323.975C190.006 323.975 190.006 326.243 191.481 326.243Z" fill="#161616"/>
<path fill-rule="evenodd" clip-rule="evenodd" d="M203.165 282.873C203.278 283.629 203.392 284.423 203.505 285.179C203.581 285.784 204.375 286.125 204.904 285.973C205.547 285.784 205.774 285.179 205.698 284.574C205.585 283.818 205.472 283.024 205.358 282.268C205.282 281.663 204.488 281.323 203.959 281.474C203.316 281.663 203.089 282.268 203.165 282.873Z" fill="#161616"/>
<path fill-rule="evenodd" clip-rule="evenodd" d="M209.064 292.553C209.064 292.628 209.064 292.742 209.064 292.817C209.064 293.422 209.593 293.99 210.198 293.952C210.803 293.914 211.332 293.46 211.332 292.817C211.332 292.742 211.332 292.628 211.332 292.553C211.332 291.948 210.803 291.38 210.198 291.418C209.593 291.456 209.064 291.91 209.064 292.553Z" fill="#161616"/>
<path fill-rule="evenodd" clip-rule="evenodd" d="M240.259 216.512C243.889 215.151 246.762 212.504 250.241 210.878C254.514 208.912 259.014 211.294 263.249 209.668C264.61 209.139 264.005 206.946 262.644 207.475C260.337 208.345 257.993 207.853 255.573 207.702C253.569 207.551 251.678 207.816 249.825 208.572C246.195 210.047 243.284 212.92 239.616 214.319C238.33 214.849 238.898 217.042 240.259 216.512Z" fill="#161616"/>
<path fill-rule="evenodd" clip-rule="evenodd" d="M247.178 283.478C243.737 284.952 246.649 288.582 248.237 290.17C251.489 293.422 254.4 297.014 256.934 300.833C261.887 308.282 265.328 316.639 267.181 325.373C267.332 326.092 268.429 325.789 268.278 325.071C266.689 317.66 263.967 310.513 260.186 303.934C258.371 300.758 256.291 297.733 253.985 294.897C252.812 293.46 251.602 292.061 250.317 290.7C249.182 289.527 244.645 285.784 247.746 284.461C248.426 284.158 247.821 283.175 247.178 283.478Z" fill="#161616"/>
<path fill-rule="evenodd" clip-rule="evenodd" d="M251.376 286.389C262.833 295.918 267.484 310.476 271.681 324.239C271.908 324.92 273.004 324.655 272.777 323.937C268.504 309.984 263.778 295.237 252.17 285.557C251.602 285.104 250.808 285.898 251.376 286.389Z" fill="#161616"/>
<path fill-rule="evenodd" clip-rule="evenodd" d="M267.673 329.155C268.391 330.176 269.261 331.386 270.622 331.499C271.681 331.575 272.815 330.97 272.966 329.836C273.08 329.117 271.983 328.815 271.87 329.533C271.756 330.251 271 330.516 270.357 330.289C269.601 330.025 269.072 329.231 268.656 328.588C268.24 327.983 267.257 328.55 267.673 329.155Z" fill="#161616"/>
<path fill-rule="evenodd" clip-rule="evenodd" d="M269.904 345.112C271.605 345.868 273.723 345.338 274.63 343.637C275.5 342.011 274.819 339.78 273.231 338.873C271.605 337.965 269.374 338.608 268.429 340.196C267.484 341.86 268.164 343.977 269.677 344.998C270.282 345.414 270.849 344.431 270.244 344.015C269.223 343.334 268.769 341.86 269.412 340.763C270.017 339.704 271.567 339.251 272.664 339.856C273.76 340.423 274.214 341.973 273.647 343.07C273.08 344.204 271.567 344.62 270.471 344.128C269.828 343.826 269.223 344.809 269.904 345.112Z" fill="#161616"/>
<path fill-rule="evenodd" clip-rule="evenodd" d="M154.085 180.515C154.463 198.022 161.761 215 174.239 227.251C174.768 227.78 175.562 226.948 175.033 226.457C162.744 214.395 155.559 197.719 155.219 180.515C155.181 179.796 154.047 179.796 154.085 180.515Z" fill="#161616"/>
<path fill-rule="evenodd" clip-rule="evenodd" d="M155.295 180.024C154.312 179.041 152.913 179.078 151.854 179.948C150.455 181.12 150.606 183.238 150.757 184.901C151.135 189.855 152.119 194.733 153.593 199.459C156.543 208.837 161.496 217.533 168.037 224.831C168.529 225.361 169.323 224.566 168.831 224.037C163.5 218.101 159.265 211.294 156.353 203.883C154.954 200.404 153.896 196.775 153.102 193.107C152.686 191.103 152.345 189.099 152.119 187.095C152.005 186.149 151.892 185.242 151.854 184.296C151.816 183.881 151.778 183.465 151.816 183.086C151.854 182.179 152.837 179.154 154.501 180.856C155.03 181.347 155.824 180.515 155.295 180.024Z" fill="#161616"/>
<path opacity="0.25" fill-rule="evenodd" clip-rule="evenodd" d="M270.168 175.335C270.206 176.545 237.612 178.511 172.424 181.309C171.289 186.452 170.533 193.485 172.424 201.274C178.474 226.419 205.774 236.099 208.496 237.007C208.837 246.687 209.215 256.404 209.555 266.084C206.644 267.181 202.825 268.845 198.628 271.378C195.943 273.004 189.553 277.163 183.616 283.932C180.251 287.789 169.436 300.191 168.567 318.984C168.037 330.138 171.251 339.138 173.823 344.545C204.526 346.284 235.268 348.061 265.971 349.801C224.151 350.141 182.368 350.519 140.548 350.859C139.225 342.427 137.977 326.281 144.745 308.132C145.993 304.842 156.353 278.298 183.994 263.286C188.38 260.904 192.199 259.354 194.846 258.371C194.733 253.682 194.619 249.031 194.506 244.342C190.687 243.359 185.015 241.544 178.738 238.028C175.071 235.986 150.719 221.844 146.144 194.241C145.426 189.855 144.821 182.935 146.484 174.276C228.915 173.634 270.13 173.974 270.168 175.335Z" fill="#474747"/>
<path opacity="0.3" fill-rule="evenodd" clip-rule="evenodd" d="M215.189 174.39C195.565 177.15 175.94 179.91 156.316 182.633C156.845 189.174 158.887 202.673 168.151 216.361C179.608 233.263 195.149 240.221 201.161 242.565C201.501 249.749 201.879 256.934 202.22 264.118C189.401 266.614 180.969 271.832 176.356 275.235C173.293 277.504 145.615 297.771 148.715 326.924C149.245 331.953 151.06 340.574 158.017 350.103C152.043 350.179 146.106 350.254 140.132 350.292C138.922 341.028 137.825 321.933 147.732 302.233C155.295 287.259 166.109 278.071 172.386 272.853C180.818 265.857 188.872 261.32 194.771 258.484C194.96 253.833 195.187 249.182 195.376 244.531C187.851 242.943 172.84 238.595 161.269 225.209C160.437 224.264 157.563 220.861 154.69 215.756C146.295 200.858 145.728 185.28 146.522 175.108C169.474 174.843 192.351 174.617 215.189 174.39Z" fill="#474747"/>
<path fill-rule="evenodd" clip-rule="evenodd" d="M193.901 158.168C182.066 166.789 172.953 177.415 173.823 178.473C174.239 179.003 176.545 178.322 185.091 172.839C183.616 173.709 180.137 175.94 178.322 180.288C177.793 181.574 176.054 185.166 177.642 187.51C179.343 189.968 183.843 189.741 186.754 188.758C192.388 186.868 195.073 181.007 195.376 181.234C195.829 181.536 189.553 190.498 190.46 191.216C191.405 192.01 201.237 183.654 208.761 171.932C211.068 168.34 212.656 165.201 213.715 162.895C220.407 163.046 228.688 163.613 238.066 165.163C255.006 167.924 261.471 171.554 273.004 169.663C280.075 168.529 291.532 164.899 291.948 159.529C292.477 152.874 275.916 146.749 272.324 145.425C245.023 135.33 219.424 144.669 215.265 146.257C204.904 150.228 197.758 155.37 193.901 158.168Z" fill="white" stroke="#161616" stroke-width="3"/>
<path fill-rule="evenodd" clip-rule="evenodd" d="M176.696 186.905C176.885 187.283 176.999 187.359 177.339 187.586C177.528 187.737 177.869 187.662 178.02 187.51C181.763 183.048 185.015 177.868 190.347 175.108C190.989 174.768 190.422 173.784 189.779 174.125C184.334 176.923 181.045 182.141 177.226 186.716C177.453 186.678 177.68 186.641 177.906 186.641C177.831 186.527 177.755 186.452 177.68 186.338C177.339 185.695 176.356 186.262 176.696 186.905Z" fill="#161616"/>
<path fill-rule="evenodd" clip-rule="evenodd" d="M180.251 189.817C182.557 190.346 184.675 187.208 186.036 185.733C188.267 183.313 190.384 180.893 193.296 179.23C193.939 178.851 193.372 177.906 192.729 178.246C190.536 179.494 188.759 181.158 187.057 182.973C186.187 183.918 185.355 184.864 184.448 185.809C183.616 186.716 181.877 189.023 180.553 188.72C179.835 188.569 179.532 189.666 180.251 189.817Z" fill="#161616"/>
<path opacity="0.33" fill-rule="evenodd" clip-rule="evenodd" d="M176.848 182.708C185.923 176.318 188.116 174.843 188.154 174.919C188.229 174.995 184.599 177.188 181.461 181.385C179.873 183.54 178.852 185.582 178.209 187.094C178.322 187.321 178.663 187.926 179.343 188.304C180.213 188.796 181.007 188.683 181.272 188.645C181.499 188.531 181.839 188.342 182.217 188.078C183.54 187.208 184.335 186.187 184.637 185.847C184.788 185.658 187.17 182.67 188.267 181.498C189.25 180.44 190.914 179.078 193.636 178.095C191.405 181.498 189.137 184.939 186.906 188.342C189.212 187.208 190.725 185.922 191.67 184.939C192.615 183.994 192.918 183.427 194.619 181.309C196.208 179.343 197.38 178.095 197.833 177.566C201.804 173.028 207.74 162.214 211.521 158.584C219.613 150.757 232.659 157.147 258.409 157.336C271.416 157.45 282.193 155.824 289.604 154.349C290.247 154.803 291.457 155.824 291.91 157.488C291.91 157.488 292.477 159.567 291.041 162.176C289.452 165.126 281.512 170.419 264.61 169.966C250.808 169.587 246.611 165.806 228.121 163.727C221.92 163.046 216.815 162.857 213.563 162.781C210.501 170.041 206.984 175.373 204.224 178.965C198.136 186.943 191.254 192.502 190.233 191.745C190.158 191.708 189.969 191.519 189.855 191.178C189.59 190.422 190.158 189.552 190.46 189.099C191.027 188.191 191.746 186.981 192.653 185.242C192.048 185.998 191.065 187.019 189.628 187.889C185.734 190.271 179.381 191.027 177.226 187.926C176.923 187.548 175.94 185.96 176.848 182.708Z" fill="#828181"/>
<path opacity="0.51" fill-rule="evenodd" clip-rule="evenodd" d="M218.857 162.743C218.895 162.403 227.554 162.63 237.12 163.122C261.963 164.407 268.467 166.222 278.071 162.743C284.121 160.55 288.432 157.336 290.776 155.37C291.494 156.769 292.251 158.849 291.683 160.929C290.284 165.995 282.155 167.659 276.899 168.718C273.987 169.323 269.034 170.041 261.207 169.361C254.249 168.793 251.489 167.659 244.116 166.109C229.369 163.046 218.819 163.084 218.857 162.743Z" fill="#828181"/>
</svg>
