<svg width="162" height="48" viewBox="0 0 162 48" fill="none" xmlns="http://www.w3.org/2000/svg">
<g clip-path="url(#clip0_733_82)">
<path fill-rule="evenodd" clip-rule="evenodd" d="M155.998 48H6.00221C2.69414 48 0 45.2948 0 42V6C0 2.69327 2.69414 0 6.00221 0H155.998C159.303 0 162 2.69327 162 6V42C162 45.2948 159.303 48 155.998 48Z" fill="#100E34"/>
<path fill-rule="evenodd" clip-rule="evenodd" d="M155.998 0.960598C158.772 0.960598 161.043 3.22594 161.043 6V42C161.043 44.7741 158.787 47.0394 155.998 47.0394H6.00221C3.2276 47.0394 0.956658 44.7741 0.956658 42V6C0.956658 3.22594 3.2127 0.960598 6.00221 0.960598H155.998ZM155.998 0H6.00221C2.69414 0 0 2.70524 0 6V42C0 45.3067 2.69414 48 6.00221 48H155.998C159.303 48 162 45.3067 162 42V6C162 2.70524 159.303 0 155.998 0Z" fill="#A6A6A6"/>
<path d="M85.342 15.8783C84.2602 15.8783 83.3482 15.4982 82.627 14.7501C81.9117 14.0229 81.5124 13.0204 81.5303 11.997C81.5303 10.9047 81.8998 9.98 82.627 9.24683C83.3452 8.4987 84.2572 8.11865 85.339 8.11865C86.4089 8.11865 87.3208 8.4987 88.054 9.24683C88.7812 10.0039 89.1507 10.9286 89.1507 11.997C89.1388 13.0922 88.7692 14.0169 88.054 14.7471C87.3357 15.5012 86.4238 15.8783 85.342 15.8783ZM53.1526 15.8783C52.0946 15.8783 51.1767 15.5042 50.4257 14.765C49.6806 14.0289 49.3021 13.0982 49.3021 11.9999C49.3021 10.9017 49.6806 9.97102 50.4257 9.23486C51.1618 8.49571 52.0797 8.12165 53.1526 8.12165C53.6771 8.12165 54.1867 8.22638 54.6755 8.43885C55.1553 8.64534 55.5457 8.92663 55.8348 9.27077L55.9063 9.35756L55.0987 10.1536L55.0152 10.0548C54.5592 9.51017 53.9483 9.24384 53.1407 9.24384C52.4194 9.24384 51.7906 9.5012 51.2721 10.0099C50.7505 10.5216 50.4853 11.192 50.4853 12.0029C50.4853 12.8139 50.7505 13.4842 51.2721 13.996C51.7906 14.5047 52.4194 14.762 53.1407 14.762C53.9095 14.762 54.5563 14.5047 55.0599 13.996C55.3579 13.6967 55.5427 13.2778 55.6083 12.7481H53.0185V11.6289H56.7199L56.7348 11.7306C56.7616 11.9192 56.7884 12.1137 56.7884 12.2932C56.7884 13.3256 56.4785 14.1605 55.8646 14.777C55.1672 15.5072 54.2553 15.8783 53.1526 15.8783ZM95.9516 15.7197H94.8101L91.3143 10.1027L91.3441 11.1142V15.7167H90.2027V8.28025H91.5051L91.5408 8.33711L94.828 13.6279L94.7982 12.6194V8.28025H95.9516V15.7197ZM76.7649 15.7197H75.6086V9.39945H73.6029V8.28025H78.7676V9.39945H76.7619V15.7197H76.7649ZM72.6611 15.7197H71.5078V8.28025H72.6611V15.7197ZM66.1791 15.7197H65.0258V9.39945H63.0201V8.28025H68.1848V9.39945H66.1791V15.7197ZM62.2899 15.7077H57.8673V8.28025H62.2899V9.39945H59.0236V11.4403H61.9711V12.5476H59.0236V14.5885H62.2899V15.7077ZM83.4734 13.981C83.9889 14.4987 84.6148 14.7591 85.342 14.7591C86.09 14.7591 86.701 14.5047 87.2106 13.981C87.7172 13.4723 87.9735 12.8049 87.9735 11.9999C87.9735 11.195 87.7172 10.5246 87.2136 10.0189C86.698 9.5012 86.0691 9.24085 85.345 9.24085C84.5969 9.24085 83.986 9.49521 83.4793 10.0189C82.9727 10.5276 82.7164 11.195 82.7164 11.9999C82.7164 12.8049 82.9697 13.4753 83.4734 13.981Z" fill="white"/>
<path fill-rule="evenodd" clip-rule="evenodd" d="M81.4231 26.1068C78.6068 26.1068 76.3239 28.2524 76.3239 31.212C76.3239 34.1447 78.6217 36.3173 81.4231 36.3173C84.2394 36.3173 86.5223 34.1567 86.5223 31.212C86.5223 28.2524 84.2394 26.1068 81.4231 26.1068ZM81.4231 34.2943C79.8823 34.2943 78.5561 33.0135 78.5561 31.2001C78.5561 29.3597 79.8853 28.1058 81.4231 28.1058C82.9639 28.1058 84.2901 29.3597 84.2901 31.2001C84.2931 33.0255 82.9639 34.2943 81.4231 34.2943ZM70.2978 26.1068C67.4815 26.1068 65.1986 28.2524 65.1986 31.212C65.1986 34.1447 67.4964 36.3173 70.2978 36.3173C73.1142 36.3173 75.397 34.1567 75.397 31.212C75.397 28.2524 73.1112 26.1068 70.2978 26.1068ZM70.2978 34.2943C68.757 34.2943 67.4308 33.0135 67.4308 31.2001C67.4308 29.3597 68.76 28.1058 70.2978 28.1058C71.8386 28.1058 73.1648 29.3597 73.1648 31.2001C73.1648 33.0255 71.8386 34.2943 70.2978 34.2943ZM57.0596 27.6659V29.8265H62.2243C62.0664 31.0385 61.667 31.9332 61.0561 32.5467C60.2991 33.3068 59.1309 34.1327 57.0715 34.1327C53.8975 34.1327 51.415 31.5592 51.415 28.3721C51.415 25.1851 53.8975 22.6115 57.0715 22.6115C58.7851 22.6115 60.0339 23.2908 60.9607 24.1587L62.4866 22.6265C61.1991 21.3876 59.4855 20.439 57.0834 20.439C52.7293 20.439 49.0755 24.0001 49.0755 28.3602C49.0755 32.7322 52.7263 36.2814 57.0834 36.2814C59.4348 36.2814 61.1991 35.5093 62.5939 34.0549C64.0155 32.6275 64.4655 30.6135 64.4655 28.9886C64.4655 28.4829 64.4268 28.028 64.3463 27.642H57.0566C57.0596 27.639 57.0596 27.6659 57.0596 27.6659ZM111.208 29.3477C110.781 28.2016 109.494 26.0948 106.854 26.0948C104.237 26.0948 102.061 28.1627 102.061 31.2001C102.061 34.0669 104.213 36.3053 107.107 36.3053C109.431 36.3053 110.784 34.8779 111.342 34.04L109.616 32.8789C109.044 33.7317 108.248 34.2913 107.119 34.2913C105.977 34.2913 105.179 33.7706 104.648 32.7442L111.446 29.9163C111.446 29.9193 111.208 29.3477 111.208 29.3477ZM104.276 31.0534C104.222 29.0814 105.802 28.0789 106.931 28.0789C107.822 28.0789 108.564 28.5188 108.818 29.1592L104.276 31.0534ZM98.7532 36.0001H100.985V21.0016H98.7532V36.0001ZM95.0875 27.241H95.007C94.5034 26.6395 93.5467 26.0948 92.3248 26.0948C89.7886 26.0948 87.4521 28.3362 87.4521 31.215C87.4521 34.0819 89.7767 36.2963 92.3248 36.2963C93.5318 36.2963 94.5034 35.7487 95.007 35.1352H95.0875V35.8684C95.0875 37.8165 94.0504 38.8669 92.3785 38.8669C91.0105 38.8669 90.1612 37.8794 89.8155 37.0534L87.8753 37.8674C88.4326 39.214 89.9198 40.8809 92.3755 40.8809C94.9922 40.8809 97.2095 39.3337 97.2095 35.5602V26.4001H95.0994V27.241C95.1024 27.241 95.0875 27.241 95.0875 27.241ZM92.5245 34.2943C90.9837 34.2943 89.6963 33.0016 89.6963 31.215C89.6963 29.4135 90.9837 28.1088 92.5245 28.1088C94.0504 28.1088 95.2336 29.4285 95.2336 31.215C95.2485 33.0016 94.0534 34.2943 92.5245 34.2943ZM121.659 21.0016H116.322V36.0001H118.554V30.3203H121.662C124.133 30.3203 126.562 28.5218 126.562 25.6669C126.562 22.812 124.142 21.0016 121.659 21.0016ZM121.725 28.2255H118.551V23.0784H121.725C123.397 23.0784 124.342 24.4639 124.342 25.6519C124.342 26.828 123.385 28.2255 121.725 28.2255ZM135.509 26.0799C133.887 26.0799 132.215 26.8011 131.524 28.3721L133.503 29.1981C133.929 28.3721 134.71 28.0908 135.535 28.0908C136.692 28.0908 137.86 28.7851 137.887 30.024V30.1826C137.487 29.9552 136.611 29.608 135.562 29.608C133.425 29.608 131.259 30.7811 131.259 32.9806C131.259 34.9946 133.011 36.2873 134.963 36.2873C136.462 36.2873 137.288 35.608 137.803 34.821H137.884V35.9821H140.036V30.2365C140.036 27.5612 138.057 26.0799 135.509 26.0799ZM135.228 34.2943C134.498 34.2943 133.476 33.9352 133.476 33.0135C133.476 31.8524 134.752 31.4125 135.839 31.4125C136.823 31.4125 137.288 31.625 137.872 31.9183C137.711 33.2649 136.578 34.2824 135.228 34.2943ZM147.886 26.4001L145.323 32.9058H145.242L142.587 26.4001H140.185L144.169 35.4943L141.898 40.5487H144.223L150.353 26.4001H147.886ZM127.793 36.0001H130.025V21.0016H127.793V36.0001Z" fill="white"/>
<path fill-rule="evenodd" clip-rule="evenodd" d="M12.4694 9.04039C12.1237 9.41446 11.924 9.98603 11.924 10.7342V37.2688C11.924 38.017 12.1237 38.5885 12.4813 38.9476L12.5737 39.0284L27.3795 24.1616V23.8294L12.5618 8.95959L12.4694 9.04039Z" fill="url(#paint0_linear_733_82)"/>
<path fill-rule="evenodd" clip-rule="evenodd" d="M32.3057 29.1321L27.3674 24.1735V23.8264L32.3057 18.8678L32.413 18.9336L38.2543 22.2673C39.9262 23.2129 39.9262 24.775 38.2543 25.7326L32.413 29.0663L32.3057 29.1321Z" fill="url(#paint1_linear_733_82)"/>
<path fill-rule="evenodd" clip-rule="evenodd" d="M32.4131 29.0663L27.3675 24L12.4693 38.9596C13.0147 39.5461 13.9296 39.612 14.9518 39.0404L32.4131 29.0663Z" fill="url(#paint2_linear_733_82)"/>
<path fill-rule="evenodd" clip-rule="evenodd" d="M32.4131 18.9337L14.9518 8.97458C13.9296 8.38805 13.0117 8.46884 12.4693 9.05538L27.3675 24L32.4131 18.9337Z" fill="url(#paint3_linear_733_82)"/>
<path opacity="0.2" fill-rule="evenodd" clip-rule="evenodd" d="M32.3058 28.9586L14.9637 38.8519C13.9951 39.4115 13.1308 39.3725 12.5735 38.8638L12.4811 38.9566L12.5735 39.0374C13.1308 39.5431 13.9951 39.585 14.9637 39.0254L32.425 29.0663L32.3058 28.9586Z" fill="black"/>
<path opacity="0.12" fill-rule="evenodd" clip-rule="evenodd" d="M38.2544 25.5591L32.2909 28.9586L32.3982 29.0663L38.2395 25.7327C39.0769 25.2539 39.4882 24.6254 39.4882 24C39.4375 24.5746 39.0113 25.1192 38.2544 25.5591Z" fill="black"/>
<path opacity="0.25" fill-rule="evenodd" clip-rule="evenodd" d="M14.9519 9.14812L38.2544 22.4409C39.0114 22.8688 39.4376 23.4284 39.5032 24C39.5032 23.3746 39.0919 22.7461 38.2544 22.2673L14.9519 8.97456C13.28 8.01396 11.924 8.81595 11.924 10.7342V10.9077C11.924 8.98653 13.28 8.1995 14.9519 9.14812Z" fill="white"/>
</g>
<defs>
<linearGradient id="paint0_linear_733_82" x1="26.0515" y1="10.4479" x2="2.3222" y2="16.7446" gradientUnits="userSpaceOnUse">
<stop stop-color="#00A0FF"/>
<stop offset="0.00657" stop-color="#00A1FF"/>
<stop offset="0.2601" stop-color="#00BEFF"/>
<stop offset="0.5122" stop-color="#00D2FF"/>
<stop offset="0.7604" stop-color="#00DFFF"/>
<stop offset="1" stop-color="#00E3FF"/>
</linearGradient>
<linearGradient id="paint1_linear_733_82" x1="40.4347" y1="24" x2="11.5174" y2="24" gradientUnits="userSpaceOnUse">
<stop stop-color="#FFE000"/>
<stop offset="0.4087" stop-color="#FFBD00"/>
<stop offset="0.7754" stop-color="#FFA500"/>
<stop offset="1" stop-color="#FF9C00"/>
</linearGradient>
<linearGradient id="paint2_linear_733_82" x1="29.6695" y1="26.7568" x2="10.5142" y2="58.8646" gradientUnits="userSpaceOnUse">
<stop stop-color="#FF3A44"/>
<stop offset="1" stop-color="#C31162"/>
</linearGradient>
<linearGradient id="paint3_linear_733_82" x1="8.71776" y1="0.214566" x2="17.2638" y2="14.5544" gradientUnits="userSpaceOnUse">
<stop stop-color="#32A071"/>
<stop offset="0.0685" stop-color="#2DA771"/>
<stop offset="0.4762" stop-color="#15CF74"/>
<stop offset="0.8009" stop-color="#06E775"/>
<stop offset="1" stop-color="#00F076"/>
</linearGradient>
<clipPath id="clip0_733_82">
<rect width="162" height="48" fill="white"/>
</clipPath>
</defs>
</svg>
