<svg width="102" height="27" viewBox="0 0 102 27" fill="none" xmlns="http://www.w3.org/2000/svg">
<path d="M7.42283 1.80494C8.77324 1.80494 10.0437 2.05295 11.2342 2.54896C12.4247 3.04498 13.4419 3.7247 14.2859 4.58814C15.1388 5.44238 15.8096 6.47116 16.2982 7.67445C16.7869 8.87775 17.0312 10.1637 17.0312 11.5323C17.0312 12.901 16.7869 14.1869 16.2982 15.3902C15.8096 16.5935 15.1388 17.6269 14.2859 18.4903C13.4419 19.3538 12.4247 20.0335 11.2342 20.5295C10.0437 21.0255 8.77324 21.2735 7.42283 21.2735H0V1.80494H7.42283ZM7.31622 17.1538C8.8532 17.1538 10.1325 16.6165 11.1542 15.5418C12.1759 14.4671 12.6868 13.1306 12.6868 11.5323C12.6868 9.93407 12.1759 8.60218 11.1542 7.53667C10.1325 6.46197 8.8532 5.92462 7.31622 5.92462H4.23781V17.1538H7.31622Z" fill="white"/>
<path d="M29.7713 6.88909H33.7559V21.2735H29.7713V19.8406C28.6519 21.0255 27.2481 21.618 25.5601 21.618C23.65 21.618 22.0508 20.8969 20.7626 19.4548C19.4833 18.0127 18.8436 16.2215 18.8436 14.0813C18.8436 11.9411 19.4833 10.1499 20.7626 8.70781C22.0508 7.2657 23.65 6.54464 25.5601 6.54464C27.2481 6.54464 28.6519 7.1371 29.7713 8.32203V6.88909ZM26.3597 17.6361C27.337 17.6361 28.1499 17.2962 28.7984 16.6165C29.447 15.9368 29.7713 15.0917 29.7713 14.0813C29.7713 13.0709 29.447 12.2258 28.7984 11.5461C28.1499 10.8664 27.337 10.5265 26.3597 10.5265C25.3913 10.5265 24.5828 10.8664 23.9343 11.5461C23.2946 12.2258 22.9748 13.0709 22.9748 14.0813C22.9748 15.0917 23.2946 15.9368 23.9343 16.6165C24.5828 17.2962 25.3913 17.6361 26.3597 17.6361Z" fill="white"/>
<path d="M38.8999 5.04282C38.2069 5.04282 37.625 4.80399 37.1541 4.32635C36.6833 3.83952 36.4478 3.23328 36.4478 2.50763C36.4478 1.79116 36.6833 1.19411 37.1541 0.716466C37.625 0.238822 38.2069 0 38.8999 0C39.6106 0 40.2014 0.238822 40.6723 0.716466C41.1521 1.19411 41.3919 1.79116 41.3919 2.50763C41.3919 3.23328 41.1521 3.83952 40.6723 4.32635C40.2014 4.80399 39.6106 5.04282 38.8999 5.04282ZM36.9143 21.2735V6.88909H40.8989V21.2735H36.9143Z" fill="white"/>
<path d="M44.0572 21.2735V0.950695H48.0418V21.2735H44.0572Z" fill="white"/>
<path d="M60.6087 6.88909H65.0597L58.4365 23.5883C58.0455 24.6262 57.4414 25.4483 56.6241 26.0546C55.8156 26.67 54.9272 26.9777 53.9588 26.9777C53.3013 26.9777 52.6217 26.8445 51.9198 26.5781C51.218 26.3117 50.6227 25.9535 50.1341 25.5034L51.6666 22.2931C52.1197 22.7616 52.6617 22.9958 53.2925 22.9958C53.9588 22.9958 54.4607 22.6376 54.7983 21.9211L55.2115 21.0255L49.641 6.88909H54.1987L57.4236 16.024L60.6087 6.88909Z" fill="white"/>
<g filter="url(#filter0_d_1713_68628)">
<path d="M75.0895 13.2306H81.3616V14.2818C81.3616 15.6062 81.079 16.802 80.5138 17.8693C79.9546 18.9365 79.1767 19.7723 78.18 20.3767C77.1832 20.9746 76.0649 21.2735 74.8251 21.2735C73.877 21.2735 72.9836 21.0935 72.1449 20.7335C71.3062 20.367 70.589 19.872 69.9934 19.2483C69.3978 18.6247 68.9268 17.8789 68.5803 17.011C68.24 16.1366 68.0698 15.2044 68.0698 14.2143C68.0698 13.2242 68.243 12.2952 68.5895 11.4272C68.9359 10.5529 69.4099 9.80386 70.0116 9.18022C70.6133 8.55659 71.3365 8.06476 72.1813 7.70473C73.0261 7.34469 73.9256 7.16467 74.8798 7.16467C75.9859 7.16467 77.007 7.39934 77.9429 7.86867C78.885 8.33157 79.6507 8.96806 80.2403 9.77814L78.0523 11.6105C77.6877 11.1347 77.2349 10.7618 76.694 10.4918C76.1531 10.2218 75.5666 10.0867 74.9345 10.0867C73.8223 10.0867 72.8924 10.4821 72.1449 11.2729C71.4034 12.0573 71.0327 13.0377 71.0327 14.2143C71.0327 15.3908 71.4034 16.3745 72.1449 17.1653C72.8863 17.9496 73.8101 18.3418 74.9163 18.3418C75.7246 18.3418 76.4326 18.1232 77.0404 17.686C77.6482 17.2489 78.0554 16.6734 78.262 15.9598H75.0895V13.2306Z" fill="#4F48EC"/>
<path d="M92.8702 20.7335C92.0315 21.0935 91.135 21.2735 90.1808 21.2735C89.2266 21.2735 88.3272 21.0935 87.4824 20.7335C86.6376 20.367 85.9143 19.872 85.3127 19.2483C84.711 18.6247 84.2369 17.8789 83.8905 17.011C83.5441 16.1366 83.3709 15.2044 83.3709 14.2143C83.3709 13.2242 83.5441 12.2952 83.8905 11.4272C84.2369 10.5529 84.711 9.80386 85.3127 9.18022C85.9143 8.55659 86.6376 8.06476 87.4824 7.70473C88.3272 7.34469 89.2266 7.16467 90.1808 7.16467C91.4511 7.16467 92.6058 7.47327 93.6451 8.09048C94.6904 8.70125 95.5109 9.54669 96.1065 10.6268C96.7021 11.7005 96.9999 12.8963 96.9999 14.2143C96.9999 15.2044 96.8237 16.1366 96.4712 17.011C96.1248 17.8789 95.6477 18.6247 95.0399 19.2483C94.4382 19.872 93.715 20.367 92.8702 20.7335ZM87.4368 17.1556C88.1722 17.9336 89.0869 18.3225 90.1808 18.3225C91.2748 18.3225 92.1895 17.9336 92.9249 17.1556C93.6603 16.3713 94.028 15.3908 94.028 14.2143C94.028 13.0377 93.6603 12.0605 92.9249 11.2826C92.1895 10.4982 91.2748 10.106 90.1808 10.106C89.0869 10.106 88.1722 10.4982 87.4368 11.2826C86.7014 12.0605 86.3337 13.0377 86.3337 14.2143C86.3337 15.3908 86.7014 16.3713 87.4368 17.1556Z" fill="#4F48EC"/>
</g>
<defs>
<filter id="filter0_d_1713_68628" x="63.0698" y="2.16467" width="38.9301" height="24.1089" filterUnits="userSpaceOnUse" color-interpolation-filters="sRGB">
<feFlood flood-opacity="0" result="BackgroundImageFix"/>
<feColorMatrix in="SourceAlpha" type="matrix" values="0 0 0 0 0 0 0 0 0 0 0 0 0 0 0 0 0 0 127 0" result="hardAlpha"/>
<feOffset/>
<feGaussianBlur stdDeviation="2.5"/>
<feColorMatrix type="matrix" values="0 0 0 0 0.309804 0 0 0 0 0.282353 0 0 0 0 0.92549 0 0 0 0.75 0"/>
<feBlend mode="normal" in2="BackgroundImageFix" result="effect1_dropShadow_1713_68628"/>
<feBlend mode="normal" in="SourceGraphic" in2="effect1_dropShadow_1713_68628" result="shape"/>
</filter>
</defs>
</svg>
