<svg width="92" height="24" viewBox="0 0 92 24" fill="none" xmlns="http://www.w3.org/2000/svg">
<path d="M6.60353 1.60572C7.80489 1.60572 8.93511 1.82635 9.99421 2.26762C11.0533 2.70889 11.9583 3.31359 12.7091 4.08172C13.4679 4.84168 14.0646 5.7569 14.4993 6.82737C14.934 7.89785 15.1514 9.04188 15.1514 10.2594C15.1514 11.477 14.934 12.621 14.4993 13.6915C14.0646 14.762 13.4679 15.6813 12.7091 16.4494C11.9583 17.2176 11.0533 17.8223 9.99421 18.2635C8.93511 18.7048 7.80489 18.9254 6.60353 18.9254H0V1.60572H6.60353ZM6.50868 15.2605C7.87602 15.2605 9.01415 14.7824 9.92307 13.8264C10.832 12.8703 11.2865 11.6813 11.2865 10.2594C11.2865 8.83759 10.832 7.65271 9.92307 6.7048C9.01415 5.74872 7.87602 5.27068 6.50868 5.27068H3.77006V15.2605H6.50868Z" fill="#100E34"/>
<path d="M26.4852 6.1287H30.03V18.9254H26.4852V17.6507C25.4894 18.7048 24.2406 19.2319 22.7389 19.2319C21.0396 19.2319 19.6169 18.5904 18.4709 17.3075C17.3328 16.0245 16.7637 14.4311 16.7637 12.5271C16.7637 10.6231 17.3328 9.02962 18.4709 7.74668C19.6169 6.46374 21.0396 5.82227 22.7389 5.82227C24.2406 5.82227 25.4894 6.34934 26.4852 7.40347V6.1287ZM23.4502 15.6895C24.3196 15.6895 25.0428 15.3871 25.6198 14.7824C26.1968 14.1777 26.4852 13.4259 26.4852 12.5271C26.4852 11.6282 26.1968 10.8764 25.6198 10.2717C25.0428 9.66701 24.3196 9.36466 23.4502 9.36466C22.5887 9.36466 21.8695 9.66701 21.2925 10.2717C20.7235 10.8764 20.4389 11.6282 20.4389 12.5271C20.4389 13.4259 20.7235 14.1777 21.2925 14.7824C21.8695 15.3871 22.5887 15.6895 23.4502 15.6895Z" fill="#100E34"/>
<path d="M34.6063 4.48621C33.9898 4.48621 33.4721 4.27375 33.0532 3.84883C32.6343 3.41573 32.4249 2.8764 32.4249 2.23085C32.4249 1.59346 32.6343 1.06231 33.0532 0.637385C33.4721 0.212462 33.9898 0 34.6063 0C35.2386 0 35.7642 0.212462 36.1831 0.637385C36.6099 1.06231 36.8233 1.59346 36.8233 2.23085C36.8233 2.8764 36.6099 3.41573 36.1831 3.84883C35.7642 4.27375 35.2386 4.48621 34.6063 4.48621ZM32.8398 18.9254V6.1287H36.3846V18.9254H32.8398Z" fill="#100E34"/>
<path d="M39.1944 18.9254V0.845761H42.7392V18.9254H39.1944Z" fill="#100E34"/>
<path d="M53.9189 6.1287H57.8787L51.9865 20.9847C51.6387 21.9081 51.1013 22.6394 50.3741 23.1788C49.6549 23.7263 48.8645 24 48.003 24C47.4181 24 46.8135 23.8815 46.1891 23.6445C45.5647 23.4076 45.0352 23.0889 44.6005 22.6885L45.9639 19.8325C46.367 20.2492 46.8491 20.4576 47.4102 20.4576C48.003 20.4576 48.4496 20.1389 48.7499 19.5015L49.1174 18.7048L44.1618 6.1287H48.2164L51.0854 14.2554L53.9189 6.1287Z" fill="#100E34"/>
<g filter="url(#filter0_d_221_299)">
<path d="M66.8015 11.7702H72.3813V12.7054C72.3813 13.8836 72.1299 14.9474 71.6271 15.8969C71.1296 16.8463 70.4376 17.5899 69.5509 18.1275C68.6641 18.6594 67.6693 18.9254 66.5663 18.9254C65.7228 18.9254 64.928 18.7652 64.1819 18.445C63.4358 18.1189 62.7978 17.6785 62.2679 17.1237C61.738 16.5689 61.319 15.9055 61.0108 15.1333C60.708 14.3555 60.5566 13.5261 60.5566 12.6453C60.5566 11.7645 60.7107 10.938 61.0189 10.1659C61.3271 9.38802 61.7488 8.72169 62.2841 8.16689C62.8194 7.6121 63.4628 7.17455 64.2143 6.85425C64.9659 6.53396 65.7661 6.37381 66.615 6.37381C67.599 6.37381 68.5073 6.58257 69.34 7.0001C70.178 7.41191 70.8593 7.97815 71.3838 8.69881L69.4373 10.3289C69.1129 9.90564 68.7101 9.57391 68.2289 9.33368C67.7477 9.09346 67.2259 8.97335 66.6636 8.97335C65.6742 8.97335 64.8469 9.3251 64.1819 10.0286C63.5223 10.7264 63.1925 11.5986 63.1925 12.6453C63.1925 13.692 63.5223 14.5671 64.1819 15.2706C64.8415 15.9684 65.6634 16.3173 66.6474 16.3173C67.3665 16.3173 67.9964 16.1228 68.5371 15.7339C69.0778 15.3449 69.44 14.833 69.6238 14.1982H66.8015V11.7702Z" fill="#4F48EC"/>
<path d="M82.6196 18.445C81.8735 18.7652 81.076 18.9254 80.2271 18.9254C79.3783 18.9254 78.578 18.7652 77.8265 18.445C77.075 18.1189 76.4316 17.6785 75.8963 17.1237C75.361 16.5689 74.9393 15.9055 74.6311 15.1333C74.3229 14.3555 74.1688 13.5261 74.1688 12.6453C74.1688 11.7645 74.3229 10.938 74.6311 10.1659C74.9393 9.38802 75.361 8.72169 75.8963 8.16689C76.4316 7.6121 77.075 7.17455 77.8265 6.85425C78.578 6.53396 79.3783 6.37381 80.2271 6.37381C81.3571 6.37381 82.3844 6.64835 83.309 7.19743C84.239 7.74079 84.9689 8.49291 85.4988 9.4538C86.0286 10.409 86.2936 11.4728 86.2936 12.6453C86.2936 13.5261 86.1368 14.3555 85.8232 15.1333C85.515 15.9055 85.0905 16.5689 84.5499 17.1237C84.0146 17.6785 83.3712 18.1189 82.6196 18.445ZM77.786 15.262C78.4402 15.9541 79.2539 16.3001 80.2271 16.3001C81.2003 16.3001 82.0141 15.9541 82.6683 15.262C83.3225 14.5642 83.6496 13.692 83.6496 12.6453C83.6496 11.5986 83.3225 10.7293 82.6683 10.0372C82.0141 9.3394 81.2003 8.99051 80.2271 8.99051C79.2539 8.99051 78.4402 9.3394 77.786 10.0372C77.1317 10.7293 76.8046 11.5986 76.8046 12.6453C76.8046 13.692 77.1317 14.5642 77.786 15.262Z" fill="#4F48EC"/>
</g>
<defs>
<filter id="filter0_d_221_299" x="55.5566" y="1.37381" width="35.7369" height="22.5516" filterUnits="userSpaceOnUse" color-interpolation-filters="sRGB">
<feFlood flood-opacity="0" result="BackgroundImageFix"/>
<feColorMatrix in="SourceAlpha" type="matrix" values="0 0 0 0 0 0 0 0 0 0 0 0 0 0 0 0 0 0 127 0" result="hardAlpha"/>
<feOffset/>
<feGaussianBlur stdDeviation="2.5"/>
<feColorMatrix type="matrix" values="0 0 0 0 0.309804 0 0 0 0 0.282353 0 0 0 0 0.92549 0 0 0 0.75 0"/>
<feBlend mode="normal" in2="BackgroundImageFix" result="effect1_dropShadow_221_299"/>
<feBlend mode="normal" in="SourceGraphic" in2="effect1_dropShadow_221_299" result="shape"/>
</filter>
</defs>
</svg>
