<svg width="24" height="24" viewBox="0 0 24 24" fill="none" xmlns="http://www.w3.org/2000/svg">
<g clip-path="url(#clip0_903_2)">
<path d="M13.861 24H10.139C7.79811 24.0103 5.54697 23.1002 3.87096 21.466C2.12429 19.7055 0.849371 17.5333 0.163963 15.15C-0.0130242 14.5524 -0.0483131 13.9218 0.060896 13.3082C0.170105 12.6945 0.420807 12.1148 0.793113 11.615C1.16542 11.1151 1.64908 10.709 2.20574 10.4286C2.76239 10.1483 3.37671 10.0015 3.99996 9.99999H20C20.6233 10.0014 21.2378 10.1481 21.7946 10.4284C22.3514 10.7086 22.8352 11.1148 23.2077 11.6146C23.5802 12.1144 23.8311 12.6942 23.9405 13.3078C24.0499 13.9215 24.0148 14.5522 23.838 15.15C23.153 17.5337 21.8776 19.7061 20.13 21.466C18.454 23.1008 16.2022 24.011 13.861 24V24ZM3.99996 12C3.68921 11.9985 3.38247 12.0701 3.10452 12.2091C2.82657 12.3481 2.58522 12.5505 2.39996 12.8C2.20985 13.0525 2.08167 13.3461 2.02575 13.6572C1.96982 13.9682 1.98771 14.2881 2.07796 14.591C2.676 16.6479 3.77559 18.5241 5.27796 20.051C6.57962 21.3136 8.3256 22.0136 10.139 22H13.861C15.673 22.0125 17.4173 21.3117 18.717 20.049C20.2198 18.5224 21.3195 16.6461 21.917 14.589C22.0072 14.2861 22.0251 13.9662 21.9692 13.6552C21.9133 13.3441 21.7851 13.0505 21.595 12.798C21.4102 12.5494 21.1696 12.3476 20.8925 12.209C20.6155 12.0704 20.3097 11.9988 20 12H3.99996ZM16 5.99999C16.0017 5.42009 15.8883 4.8456 15.6664 4.30985C15.4444 3.7741 15.1183 3.28774 14.707 2.87899C14.4817 2.65481 14.3032 2.38812 14.1818 2.09441C14.0605 1.80069 13.9987 1.48579 14 1.16799V0.999992C14 0.734776 13.8946 0.480422 13.7071 0.292886C13.5195 0.105349 13.2652 -7.62939e-06 13 -7.62939e-06C12.7347 -7.62939e-06 12.4804 0.105349 12.2929 0.292886C12.1053 0.480422 12 0.734776 12 0.999992V1.16799C11.9983 1.74803 12.1117 2.32264 12.3337 2.85855C12.5556 3.39445 12.8817 3.88099 13.293 4.28999C13.5181 4.51406 13.6965 4.78058 13.8179 5.07412C13.9393 5.36765 14.0011 5.68236 14 5.99999C14 6.26521 14.1053 6.51956 14.2929 6.7071C14.4804 6.89464 14.7347 6.99999 15 6.99999C15.2652 6.99999 15.5195 6.89464 15.7071 6.7071C15.8946 6.51956 16 6.26521 16 5.99999ZM12 6.99999V6.69199C12.0015 6.11221 11.8882 5.53786 11.6664 5.00216C11.4446 4.46646 11.1189 3.98003 10.708 3.57099C10.483 3.34737 10.3046 3.08137 10.1831 2.78837C10.0616 2.49537 9.99932 2.18119 9.99996 1.86399V0.999992C9.99996 0.734776 9.89461 0.480422 9.70707 0.292886C9.51953 0.105349 9.26518 -7.62939e-06 8.99996 -7.62939e-06C8.73475 -7.62939e-06 8.48039 0.105349 8.29286 0.292886C8.10532 0.480422 7.99996 0.734776 7.99996 0.999992V1.86399C7.99847 2.44386 8.11198 3.01826 8.33392 3.55397C8.55586 4.08969 8.88183 4.57607 9.29296 4.98499C9.51774 5.2087 9.69596 5.47474 9.81731 5.76773C9.93866 6.06073 10.0007 6.37486 9.99996 6.69199V6.99999C9.99996 7.26521 10.1053 7.51956 10.2929 7.7071C10.4804 7.89464 10.7347 7.99999 11 7.99999C11.2652 7.99999 11.5195 7.89464 11.7071 7.7071C11.8946 7.51956 12 7.26521 12 6.99999Z" fill="#05092E"/>
</g>
<defs>
<clipPath id="clip0_903_2">
<rect width="24" height="24" fill="white"/>
</clipPath>
</defs>
</svg>
