<svg width="309" height="333" viewBox="0 0 309 333" fill="none" xmlns="http://www.w3.org/2000/svg">
<path d="M266.685 224.454C208.424 309.37 110.025 292.235 63.4442 247.77C63.4442 247.77 12.0359 196.294 53.8952 148.153C71.5901 127.801 74.605 106.345 79.2922 87.251C85.6974 61.1756 95.2237 39.4966 149.522 31.0448C186.045 25.3598 220.658 40.4479 245.922 66.0079C285.718 106.273 302.321 172.515 266.685 224.454Z" fill="#F6F2FF"/>
<path d="M266.685 224.454C208.424 309.37 110.025 292.235 63.4445 247.77C63.4445 247.77 21.5359 205.807 44.2062 162.225C46.6447 157.537 49.8302 152.83 53.8955 148.157C71.5904 127.808 74.6052 106.353 79.2925 87.2585C79.3077 87.7626 80.7336 133.004 130.39 119.527C168.976 109.055 200.923 70.5255 245.922 66.0078C268.323 88.6684 283.375 119.561 285.901 151.5C287.857 176.309 282.264 201.748 266.685 224.454Z" fill="#EDE4FF"/>
<path d="M266.684 224.454C208.423 309.37 110.024 292.235 63.4435 247.77C63.4435 247.77 43.9056 228.21 38.7291 201.926C36.321 189.715 37.015 176.052 44.2052 162.222C64.6153 174.592 110.46 197.01 144.932 174.149C183.325 148.691 243.964 110.336 285.899 151.496C286.233 155.714 286.347 159.952 286.233 164.189C285.664 184.882 279.612 205.61 266.684 224.454Z" fill="#E4DBFA"/>
<path d="M266.683 224.454C208.422 309.369 110.024 292.235 63.4429 247.77C63.4429 247.77 43.905 228.21 38.7285 201.926C38.7285 201.926 58.2778 231.791 113.198 240.035C173.279 249.062 229.121 173.046 286.229 164.196C285.664 184.882 279.611 205.61 266.683 224.454Z" fill="#BEB2DA"/>
<path d="M124.227 29.9229C85.5075 38.1131 78.541 75.9717 78.541 75.9717" stroke="#E4DBFA" stroke-width="5" stroke-miterlimit="10" stroke-linecap="round"/>
<path d="M130.566 29.343C130.566 29.343 144.078 26.6938 149.403 26.7279" stroke="#E4DBFA" stroke-width="5" stroke-miterlimit="10" stroke-linecap="round"/>
<path d="M50.534 239.944C50.534 239.944 25.3608 224.541 32.4789 169.233" stroke="#E4DBFA" stroke-width="5" stroke-miterlimit="10" stroke-linecap="round"/>
<path d="M116.223 120.061C115.199 119.936 113.056 120.084 110.834 119.803C109.707 119.659 104.398 119.345 103.731 118.583C103.063 117.821 102.953 115.381 103.685 115.343C104.417 115.301 114.046 116.267 114.516 116.339C114.994 116.411 116.223 120.061 116.223 120.061Z" fill="#070208"/>
<path d="M113.696 113.36C113.461 112.503 110.23 112.166 108.884 112.515C108.569 112.594 108.235 112.757 107.905 112.992C107.09 112.761 105.918 112.738 105.186 112.928C104.959 112.988 104.716 113.098 104.473 113.25C103.776 113.11 102.903 113.11 102.331 113.261C102.232 113.288 102.126 113.326 102.024 113.375C101.409 113.299 100.727 113.322 100.253 113.443C99.2173 113.712 97.8862 115.103 97.6739 117.207C97.4615 119.31 99.4638 120.11 100.454 120.436C100.947 120.599 101.314 120.25 101.557 119.86C101.914 120.038 102.263 120.163 102.532 120.25C102.957 120.39 103.286 120.152 103.525 119.837C104.162 120.315 104.906 120.591 105.41 120.758C105.922 120.929 106.313 120.603 106.586 120.208C107.386 120.959 108.455 121.364 109.146 121.592C110.427 122.013 111.053 119.788 111.053 119.788C109.612 119.803 110.257 117.093 110.431 116.096C110.477 115.831 111.083 114.959 112.714 115.422C113.966 115.778 113.696 113.36 113.696 113.36Z" fill="#FED194"/>
<path d="M106.549 120.254C106.14 120.155 105.859 119.825 105.647 119.481C105.461 119.124 105.34 118.734 105.302 118.347C105.268 117.965 105.287 117.582 105.355 117.222C105.419 116.862 105.503 116.57 105.601 116.251C105.806 115.63 106.087 115.039 106.443 114.485C106.815 113.936 107.236 113.405 107.85 112.969L107.956 113.015L107.296 114.804C107.08 115.402 106.876 116.001 106.682 116.608C106.481 117.21 106.273 117.809 106.208 118.431C106.178 118.741 106.185 119.052 106.246 119.355C106.303 119.655 106.417 119.958 106.618 120.174L106.549 120.254Z" fill="#F59D4E"/>
<path d="M103.474 119.856C102.909 119.412 102.628 118.795 102.461 118.181C102.302 117.559 102.291 116.915 102.389 116.297C102.499 115.679 102.716 115.084 103.049 114.557C103.205 114.288 103.428 114.053 103.633 113.818C103.872 113.598 104.115 113.39 104.426 113.227L104.528 113.276C104.301 113.796 104.085 114.315 103.91 114.849C103.732 115.384 103.603 115.933 103.512 116.486C103.417 117.04 103.364 117.601 103.372 118.162C103.387 118.719 103.436 119.287 103.58 119.822L103.474 119.856Z" fill="#F59D4E"/>
<path d="M101.512 119.894C100.829 119.633 100.37 119.083 100.071 118.469C99.7786 117.851 99.6572 117.139 99.7293 116.453C99.8127 115.77 100.04 115.111 100.431 114.569C100.605 114.289 100.871 114.065 101.098 113.841C101.368 113.64 101.648 113.459 101.978 113.333L102.069 113.398C101.925 113.648 101.77 113.891 101.633 114.141C101.515 114.402 101.364 114.645 101.269 114.914C101.045 115.441 100.924 116.002 100.859 116.563C100.799 117.127 100.833 117.7 100.958 118.253C101.087 118.803 101.295 119.344 101.603 119.818L101.512 119.894Z" fill="#F59D4E"/>
<path d="M276.67 200.099C273.022 200.02 269.598 198.041 267.721 196.404L271.467 192.11C271.661 192.277 276.507 196.358 279.716 193.16C283.868 189.017 294.035 163.98 294.581 157.192L283.853 156.957L283.978 151.265L296.428 151.538C297.976 151.572 299.257 152.489 299.86 153.99C301.074 157.018 299.318 164.499 294.638 176.226C291.551 183.965 286.841 194.1 283.739 197.192C281.54 199.39 279.056 200.148 276.67 200.099Z" fill="#070208"/>
<path opacity="0.85" d="M213.226 51.1386L210.994 152.502L306.328 154.598L308.56 53.2352L213.226 51.1386Z" fill="#FFBF18"/>
<path d="M274.931 52.4941L272.699 153.857L306.33 154.597L308.562 53.2337L274.931 52.4941Z" fill="#FFBF18"/>
<path d="M294.686 144.245L302.922 144.594" stroke="#070208" stroke-width="5" stroke-miterlimit="10" stroke-linecap="round"/>
<path d="M294.838 141.54L303.075 141.888" stroke="#070208" stroke-width="5" stroke-miterlimit="10" stroke-linecap="round"/>
<path d="M294.91 138.538L303.147 138.89" stroke="#070208" stroke-width="5" stroke-miterlimit="10" stroke-linecap="round"/>
<path d="M206.931 146.157L206.793 152.409L306.332 154.598L306.47 148.346L206.931 146.157Z" fill="#4F97EC"/>
<path d="M271.921 147.582L271.783 153.834L308.861 154.65L308.998 148.398L271.921 147.582Z" fill="#4F48EC"/>
<path opacity="0.4" d="M212.948 63.4597L212.861 67.374L308.196 69.4705L308.282 65.5562L212.948 63.4597Z" fill="#FFBF18"/>
<path d="M284.259 80.7558L284.16 85.231L297.897 85.533L297.995 81.0579L284.259 80.7558Z" fill="#070208"/>
<path fill-rule="evenodd" clip-rule="evenodd" d="M288.199 52.5039V74.8499L294.661 76.4493V52.6669L288.199 52.5039Z" fill="white"/>
<path d="M188.675 59.3521C188.675 59.3521 209.772 50.2257 209.681 52.1359C209.681 52.1359 202.479 63.9608 199.597 66.1401C196.715 68.3194 193.916 67.5197 193.916 67.5197C193.916 67.5197 186.65 65.4048 187.173 63.3923C187.697 61.3798 188.675 59.3521 188.675 59.3521Z" fill="#BBC3C4"/>
<path d="M207.663 66.1287C203.947 70.779 189.65 78.685 189.885 66.2158C189.995 60.3602 189.327 57.5101 188.588 56.1306C187.757 54.5729 186.832 54.895 186.832 54.895C186.832 54.895 193.419 39.9547 197.72 36.3428C199.601 34.7624 201.046 35.3536 201.311 40.3148C201.364 41.2926 201.44 42.2098 201.542 43.0701C203.116 56.5892 210.238 56.3997 210.238 56.3997C210.238 56.3997 210.268 56.5437 210.306 56.8014C210.477 58.0862 210.754 62.2553 207.663 66.1287Z" fill="#FED194"/>
<path d="M204.102 35.1379C203.571 38.1131 202.665 40.751 201.535 43.0667C200.204 45.7955 198.565 48.0771 196.859 49.9494C194.401 52.6441 191.811 54.4784 189.835 55.5359C189.471 55.7292 189.054 55.93 188.588 56.1271C183.222 58.3708 171.454 60.0081 166.175 43.783C162.724 33.1785 165.015 24.6623 167.389 19.5571C168.963 16.1726 170.574 14.289 170.574 14.289C170.574 14.289 177.074 12.6327 187.507 11.5147C197.936 10.3966 206.15 23.6086 204.102 35.1379Z" fill="#FED194"/>
<path d="M210.299 56.7978C208.569 57.5824 204.804 55.9943 203.31 55.9716C199.984 55.9185 190.431 59.1476 189.138 57.5482C187.936 56.0588 197.727 52.2839 197.591 50.404C197.322 46.7505 197.701 42.7709 197.701 42.7709C197.701 42.7709 200.776 46.4131 197.716 36.3354C197.435 35.4107 197.102 34.3646 196.707 33.1935C192.046 19.2765 185.668 21.4975 178.591 25.0601C171.511 28.6265 166.27 26.6178 166.27 26.6178C166.27 26.6178 166.202 24.1846 167.385 19.5532C168.959 16.1687 170.571 14.285 170.571 14.285C170.571 14.285 177.071 12.6288 187.503 11.5107C197.936 10.3927 206.15 23.6047 204.102 35.1378C203.571 38.113 202.665 40.7508 201.535 43.0665C203.109 56.5856 210.23 56.3961 210.23 56.3961C210.23 56.3961 210.261 56.5401 210.299 56.7978Z" fill="#F59D4E"/>
<path d="M199.437 47.6295C199.437 47.6295 192.774 57.4191 181.674 57.5442C181.674 57.5442 195.004 60.364 205.042 48.5353C215.08 36.7104 199.437 47.6295 199.437 47.6295Z" fill="black"/>
<path d="M188.572 83.4417C188.572 83.4417 182.011 69.3618 185.807 67.0082C189.603 64.6546 193.911 67.5198 193.911 67.5198C193.911 67.5198 209.695 62.9983 210.779 72.2801C211.864 81.5619 188.572 83.4417 188.572 83.4417Z" fill="#BBC3C4"/>
<path d="M192.233 67.3607C192.233 67.3607 188.403 71.0901 191.623 75.5662C194.842 80.0422 200.887 72.1627 200.459 67.0727C200.03 61.9827 203.185 70.5974 203.185 70.5974C203.185 70.5974 202.336 75.0697 199.457 77.3626C196.579 79.6556 194.22 81.2664 192.567 80.0498C190.913 78.837 185.157 69.4149 185.851 68.0354C186.549 66.6634 192.233 67.3607 192.233 67.3607Z" fill="#858B8C"/>
<path d="M196.713 82.1798C196.687 86.7885 194.021 119.682 174.354 120.448C166.439 120.759 158.009 118.572 150.811 115.631C146.477 113.861 133.132 120.74 130.075 118.799C125.596 115.957 115.676 115.115 115.975 113.914C116.817 110.529 158.385 96.7259 158.385 96.7259C166.087 83.2941 178.245 69.54 178.245 69.54C178.245 69.54 181.138 72.0111 185.056 75.5131C191.829 81.5696 201.662 90.7074 204.871 95.4639C205.546 96.472 196.717 81.6378 196.713 82.1798Z" fill="white"/>
<path opacity="0.76" d="M195.769 85.0335C195.742 89.6422 194.021 119.682 174.354 120.448C161.673 120.944 147.66 115.035 139.529 109.87C143.587 107.054 147.266 105.45 148.422 106.163C153.056 109.005 170.653 111.003 175.659 102.543C180.278 94.7398 177.615 73.6104 177.615 73.6104C177.615 73.6104 180.592 74.2395 185.052 75.5129C193.255 82.8505 195.788 81.9143 195.769 85.0335Z" fill="#D2D7DB"/>
<path d="M181.088 87.0386C181.088 87.0386 187.561 89.2406 194.956 91.8709C194.804 93.3907 194.577 95.1151 194.243 96.9457C193.098 103.298 190.678 110.935 185.627 115.744C182.786 118.454 179.108 120.266 174.352 120.451C166.438 120.762 158.008 118.575 150.81 115.634C149.483 110.7 151.098 109.934 158.451 112.364C164.792 114.456 170.784 113.326 174.815 111.935C179.146 110.442 182.149 106.466 182.438 101.899C182.87 95.1417 181.088 87.0386 181.088 87.0386Z" fill="#AEB6B7"/>
<path d="M194.245 96.9454C193.1 103.297 190.68 110.934 185.629 115.744C185.667 115.623 185.762 115.482 185.913 115.323C189.061 111.999 183.422 93.3486 183.422 93.3486C183.422 93.3486 189.038 94.4819 194.245 96.9454Z" fill="#858B8C"/>
<path d="M204.73 95.4183C201.605 94.2548 198.192 93.023 194.953 91.8709C195.207 89.3619 195.264 87.4138 195.268 86.4701C195.272 85.9849 203.444 94.3192 204.73 95.4183Z" fill="#AEB6B7"/>
<path d="M204.732 95.4185C204.778 95.4336 204.823 95.4526 204.869 95.4677C204.945 95.5738 204.888 95.5473 204.732 95.4185Z" fill="#AEB6B7"/>
<path d="M158.385 96.7298C158.385 96.7298 164.27 96.3546 172.924 100.509C172.924 100.509 174.286 100.793 169.887 97.8972C165.488 95.0016 160.459 93.2695 160.459 93.2695L158.385 96.7298Z" fill="#AEB6B7"/>
<path d="M112.172 113.561C114.455 113.414 122.112 113.758 122.514 112.455C122.916 111.151 122.548 107.141 123.735 103.336C124.922 99.5345 127.292 94.5316 133.546 94.3497C139.799 94.1678 145.226 97.6091 147.369 99.3677C149.511 101.126 157.445 109.544 160.054 110.344C162.663 111.147 182.497 116.969 182.311 117.507C182.125 118.049 181.075 125.038 180.058 125.015C179.042 124.992 160.152 123.143 158.518 123.491C156.887 123.84 153.516 125.31 152.697 131.428C151.878 137.545 137.907 130.241 137.907 130.241C137.907 130.241 138.749 126.504 138.184 125.636C137.619 124.769 134.376 122.582 128.164 121.805C122.791 121.134 118.76 121.001 118.062 121.134C117.364 121.267 112.809 116.654 111.827 116.112C111.513 115.942 112.172 113.561 112.172 113.561Z" fill="#060B31"/>
<path d="M182.31 117.511C182.226 117.757 181.957 119.364 181.593 121.024C181.381 122.002 181.134 123.002 180.872 123.76C175.984 122.953 163.561 120.706 162.017 120.425C160.193 120.095 150.143 117.056 147.144 115.718C144.144 114.384 144.493 109.847 144.508 108.49C144.516 107.725 144.33 104.738 143.401 101.968V101.964C142.684 99.8301 141.527 97.8252 139.669 97.0634C135.403 95.3048 131.762 94.8689 128.728 97.4083C127.974 97.7266 128.687 96.4683 129.718 95.2214C130.803 94.7136 132.062 94.3914 133.548 94.3497C139.802 94.1678 145.229 97.6091 147.371 99.3677C149.514 101.126 157.447 109.544 160.057 110.347C162.666 111.147 182.496 116.969 182.31 117.511Z" fill="#4F97EC"/>
<path d="M134.144 95.7898C131.452 95.4298 124.694 97.2566 123.901 108.001C123.207 117.416 129.666 120.77 133.113 121.232C136.45 121.68 143.416 118.754 143.644 109.4C143.891 99.4699 139.818 96.5478 134.144 95.7898Z" fill="white"/>
<path d="M181.593 121.027C181.38 122.005 181.134 123.006 180.872 123.764C175.984 122.957 163.56 120.709 162.017 120.429C160.193 120.099 150.143 117.059 147.143 115.721C144.144 114.387 144.493 109.851 144.508 108.494C144.515 107.728 144.33 104.742 143.4 101.971C143.461 102.074 145.471 105.378 147.033 111.42C148.402 116.733 174.611 120.197 181.593 121.027Z" fill="#4472C0"/>
<path d="M180.495 244.446C178.955 240.732 176.289 222.566 178.06 211.052C179.827 199.538 183.616 191.556 189.513 190.647C195.41 189.737 195.748 215.134 195.748 215.134C195.748 215.134 189.164 235.532 189.471 235.797C189.771 236.066 180.495 244.446 180.495 244.446Z" fill="#4F48EC"/>
<path d="M270.543 229.1C269.223 232.212 229.818 260.895 227.982 261.096C226.139 261.304 185.034 266.106 182.24 266.072C180.639 266.053 178.068 258.549 176.172 252.163C182.884 252.564 203.507 254.259 212.79 245.144C223.352 234.789 221.869 214.85 221.224 208.358C220.037 196.457 208.679 186.193 202.957 181.581C198.812 178.234 192.733 176.328 187.647 176.669C188.057 174.312 188.88 172.481 190.219 171.837C194.09 169.976 261.851 175.646 262.792 176.226C263.732 176.806 266.975 184.712 268.063 185.875C269.159 187.039 271.34 191.856 272.625 193.277C273.907 194.691 271.863 225.996 270.543 229.1Z" fill="#4F48EC"/>
<path d="M268.802 178.674C268.859 179.925 268.498 182.252 266.193 182.058C263.887 181.865 240.598 181.236 234.591 180.432C228.584 179.629 200.772 176.752 194.768 175.9C191.875 175.486 185.492 174.998 184.397 173.038C183.301 171.079 186.05 155.073 186.987 153.69C187.165 153.421 187.586 153.171 188.196 152.928C193.085 154.232 201.686 155.248 205.133 156.002C210.412 157.162 247.007 162.96 253.667 163.173C259.514 163.358 268.331 160.273 271.877 157.495C271.93 161.213 268.749 177.541 268.802 178.674Z" fill="#060B31"/>
<path d="M212.793 245.143C203.506 254.259 182.887 252.564 176.175 252.163C174.772 247.433 173.736 243.313 173.736 243.313C175.943 242.93 180.301 242.494 184.029 238.356C187.756 234.217 190.248 218.136 190.411 213.519C190.574 208.896 190.991 196.506 188.894 191.014C187.525 187.429 186.858 181.118 187.65 176.669C192.736 176.332 198.815 178.238 202.96 181.581C208.682 186.19 220.04 196.457 221.227 208.357C221.872 214.846 223.351 234.785 212.793 245.143Z" fill="#4F97EC"/>
<path d="M219.488 264.488C219.34 267.296 218.21 275.714 223.25 284.609C228.286 293.504 234.16 298.704 244.024 299.459C253.888 300.213 265.458 291.31 269.504 277.139C273.554 262.968 274.605 252.731 272.44 246.898C270.991 242.991 248.999 252.527 234.213 257.67C226.924 260.205 220.891 259.86 220.891 259.86L219.488 264.488Z" fill="#070208"/>
<path d="M235.599 251.59C235.204 253.686 229.975 270.757 235.329 282.339C240.688 293.921 246.831 294.74 250.426 294.77C256.76 294.827 267.173 287.565 270.344 270.343C273.518 253.122 271.588 248.369 271.588 248.369L235.599 251.59Z" fill="#FED194"/>
<path d="M178.993 266.841C175.686 268.536 190.988 273.724 193.749 273.402C196.509 273.08 247.702 264.746 247.967 263.65C248.236 262.555 248.187 260.023 246.204 259.504C244.22 258.988 231.713 255.426 230.052 255.202C228.391 254.979 179.77 266.443 178.993 266.841Z" fill="#E0D1AF"/>
<path d="M238.391 251.852C238.335 251.988 238.274 252.254 238.217 252.621C237.591 256.555 237.015 272.549 239.237 276.821C241.668 281.49 244.505 285.041 249.461 285.136C254.418 285.234 264.145 277.707 265.677 260.368C267 245.371 266.25 242.562 266.25 242.562L238.334 251.988" fill="#F47204"/>
<path d="M238.823 248.062C238.016 250.442 234.694 276.934 246.04 278.454C257.387 279.974 257.94 249.593 257.94 249.593L238.823 248.062Z" fill="#070208"/>
<path opacity="0.76" d="M242.609 245.739C241.828 248.301 238.767 272.735 247.216 274.766C255.666 276.798 258.95 262.411 258.995 258.681C259.041 254.952 258.282 247.042 258.282 247.042C259.113 246.815 242.609 245.739 242.609 245.739Z" fill="white"/>
<path d="M252.651 255.539C251.926 255.445 250.034 256.692 249.609 259.86C249.185 263.029 250.383 264.435 251.441 264.575C253.246 264.817 254.755 262.869 255.066 260.11C255.377 257.347 254.566 255.793 252.651 255.539Z" fill="#6F634D"/>
<path d="M253.89 256.408C253.166 256.32 251.364 256.87 250.939 260.038C250.515 263.207 251.611 263.912 252.657 264.113C253.708 264.314 255.528 262.976 255.839 260.217C256.158 257.454 254.755 256.51 253.89 256.408Z" fill="#070208"/>
<path d="M241.368 253.072C238.623 253.269 227.098 253.284 225.456 250.347C223.81 247.41 221.993 235.623 222.725 225.083C223.457 214.543 229.631 198.052 238.881 192.386C248.134 186.72 262.055 185.075 272.385 191.662C282.716 198.249 272.837 237.336 272.408 237.165C271.976 236.991 241.368 253.072 241.368 253.072Z" fill="#060B31"/>
<path d="M293.455 247.444C292.587 248.02 258.642 252.042 246.942 252.925C245.255 253.054 244.034 253.114 243.435 253.091C238.702 252.91 230.981 253.914 228.971 251.158C226.692 248.032 224.594 237.329 225.937 223.927C227.279 210.526 232.168 201.505 239.718 195.437C244.667 191.458 250.921 186.182 268.968 190.973C272.286 191.852 275.199 193.137 277.743 194.714C289.048 201.706 293.163 214.494 293.686 223.707C294.327 235.002 294.449 246.789 293.455 247.444Z" fill="#4F97EC"/>
<path d="M179.346 264.2C176.039 265.894 191.341 271.082 194.102 270.76C196.863 270.438 248.055 262.104 248.321 261.008C248.59 259.913 248.541 257.381 246.557 256.862C244.574 256.347 232.067 252.784 230.406 252.56C228.745 252.341 180.124 263.802 179.346 264.2Z" fill="#060B31"/>
<path d="M178.098 263.355C174.791 265.049 190.093 270.237 192.854 269.915C195.615 269.593 247.952 261.016 248.222 259.921C248.491 258.826 248.214 257.283 246.231 256.764C244.247 256.248 230.819 251.939 229.158 251.716C227.497 251.496 178.879 262.957 178.098 263.355Z" fill="#FED194"/>
<path d="M224.784 223.862C224.796 223.904 224.803 223.946 224.815 223.987C225.52 226.985 226.358 230.927 227.117 234.607C228.296 240.319 229.282 245.405 229.282 245.405L220.055 250.029L215.448 237.632L211.671 227.467L207.071 215.085L203.309 204.962C203.309 204.962 209.221 201.729 215.213 205.996C218.781 208.539 222.38 213.735 224.784 223.862Z" fill="#FED194"/>
<path d="M224.784 223.862C219.308 227.038 211.67 227.47 211.67 227.47L207.07 215.088C207.613 212.803 209.054 210.389 211.924 208.02C213.043 207.099 214.143 206.436 215.212 206C218.781 208.539 222.38 213.735 224.784 223.862Z" fill="#F59D4E"/>
<path d="M227.116 234.607C228.296 240.319 229.282 245.405 229.282 245.405L220.055 250.029L215.447 237.632C216.335 237.791 221.864 238.568 227.116 234.607Z" fill="#FFB113"/>
<path d="M231.432 250.571C231.512 250.965 231.633 252.439 231.728 252.743C232.346 254.71 233.105 255.843 222.122 261.043C209.444 267.042 201.371 268.979 196.05 264.177C191.276 259.864 203.82 255.009 218.061 243.756C218.007 243.976 217.359 250.787 229.244 244.636C229.741 244.378 230.01 245.018 230.184 245.549C230.875 247.641 231.038 248.638 231.432 250.571Z" fill="#070208"/>
<path d="M222.121 261.039C209.443 267.038 201.369 268.975 196.049 264.173C196.049 264.173 201.749 267.001 209.785 264.363C216.345 262.206 228.071 255.024 231.731 252.742C232.345 254.706 233.107 255.839 222.121 261.039Z" fill="#FFB113"/>
<path d="M217.408 250.143C217.207 250.271 216.938 250.226 216.798 250.029C215.087 247.675 213.468 247.247 213.453 247.243C213.214 247.182 213.062 246.94 213.123 246.701C213.18 246.459 213.422 246.311 213.661 246.368C213.741 246.387 215.599 246.849 217.526 249.498C217.674 249.699 217.628 249.983 217.427 250.127C217.419 250.131 217.416 250.139 217.408 250.143Z" fill="white"/>
<path d="M214.617 252.068C214.416 252.197 214.147 252.151 214.006 251.954C212.296 249.601 210.677 249.172 210.662 249.169C210.423 249.108 210.271 248.865 210.332 248.627C210.389 248.384 210.631 248.236 210.87 248.293C210.95 248.312 212.808 248.775 214.735 251.424C214.883 251.625 214.837 251.909 214.636 252.053C214.632 252.061 214.625 252.064 214.617 252.068Z" fill="white"/>
<path d="M211.332 254.596C211.131 254.725 210.862 254.679 210.721 254.482C209.011 252.129 207.392 251.7 207.377 251.696C207.138 251.636 206.986 251.393 207.047 251.155C207.103 250.912 207.346 250.764 207.585 250.821C207.665 250.84 209.523 251.302 211.449 253.952C211.597 254.152 211.552 254.437 211.351 254.581C211.347 254.588 211.339 254.592 211.332 254.596Z" fill="white"/>
<path d="M229.841 145.753C213.034 157.15 175.577 172.144 161.189 169.403C156.631 168.535 159.9 162.164 161.735 156.805C162.479 154.637 162.987 152.632 162.649 151.226C158.834 135.373 189.552 130.768 189.552 130.768C194.444 127.334 201.35 125.632 208.365 125.299C227.558 124.385 247.623 133.697 229.841 145.753Z" fill="#59302A"/>
<path d="M229.841 145.754C213.417 156.889 177.276 171.461 162.209 169.563C161.857 169.521 161.519 169.464 161.189 169.403C156.631 168.535 159.9 162.164 161.735 156.805C169.513 154.27 179.119 151.795 184.258 146.925C195.673 136.104 190.803 131.545 190.803 131.545C190.803 131.545 193.712 130.366 198.43 128.676C201.194 127.683 204.581 126.512 208.362 125.303C227.558 124.385 247.623 133.698 229.841 145.754Z" fill="#42211D"/>
<path d="M229.84 145.754C213.416 156.889 177.275 171.461 162.209 169.563C165.637 165.166 152.819 159.121 156.558 158.969C170.59 158.386 209.961 150.957 205.759 137.639C204.584 133.914 198.694 133.989 198.675 133.91C198.22 131.859 198.152 130.131 198.429 128.676C201.193 127.683 204.58 126.512 208.361 125.303C227.557 124.385 247.622 133.698 229.84 145.754Z" fill="#27140E"/>
<path d="M193.124 270.639C192.82 270.605 192.456 270.56 192.039 270.507C182.763 269.298 146.604 263.404 133.968 261.331C131.215 260.88 129.576 260.611 129.576 260.611L99.5187 210.753C97.0423 207.414 95.6619 200.562 97.6718 185.549C99.6817 170.541 107.126 145.39 111.635 138.352C116.144 131.314 121.15 127.008 129.921 127.387C139.209 127.789 157.446 129.639 167.636 132.432C174.549 134.327 182.627 144.795 180.42 153.667C178.998 159.383 175.035 174.846 173.074 181.884C171.113 188.922 170.928 202.987 170.912 206.891C170.905 208.828 172.369 216.764 174.178 225.602C174.178 225.606 174.178 225.606 174.178 225.606C176.017 234.592 178.22 244.511 179.601 249.987C182.79 262.638 187.105 268.126 192.024 270.226C192.392 270.385 192.756 270.522 193.124 270.639Z" fill="#4F97EC"/>
<path d="M192.038 270.507C186.634 269.802 172.102 267.509 158.416 265.307C148.613 263.726 139.242 262.199 133.967 261.335C127.653 252.197 122.495 241.71 119.499 232.64C115.548 220.675 115.354 211.174 121.225 210.469C133.227 209.028 138.427 164.34 138.427 164.34C138.427 164.34 138.423 164.397 138.419 164.503L144.9 134.479C144.547 136.199 138.036 168.255 140.156 183.362C140.156 183.37 140.16 183.374 140.16 183.381C142.09 192.235 146.095 201.494 154.35 204.594C168.784 210.014 174.078 225.432 174.184 225.61C174.184 225.614 174.184 225.614 174.184 225.614C176.027 234.6 178.227 244.522 179.607 249.995C182.796 262.646 187.112 268.134 192.031 270.234C192.031 270.321 192.035 270.412 192.038 270.507Z" fill="#4F48EC"/>
<path d="M158.417 265.303C148.613 263.722 139.243 262.195 133.968 261.331C127.653 252.193 122.496 241.706 119.5 232.637C122.553 221.016 127.718 214.592 127.718 214.592C127.718 214.592 137.658 220.179 148.928 236.419C155.14 245.371 157.525 256.825 158.417 265.303Z" fill="#4F48EC"/>
<path d="M54.0078 234.433C58.4865 233.955 62.5443 234.865 65.5212 235.972C72.6318 238.617 84.2172 242.767 90.338 243.48C96.455 244.192 118.06 245.291 125.375 251.802C132.687 258.314 138.754 273.895 150.594 274.289C150.078 261.657 147.116 239.36 142.869 233.019C138.621 226.678 130.301 210.628 110.964 207.019C91.6236 203.415 61.9489 208.103 54.0078 234.433Z" fill="#7C0B0B"/>
<path d="M118.02 187.084C113.417 185.958 107.394 189.373 106.033 194.986C104.641 200.743 107.338 203.29 110.023 203.669C113.857 204.211 119.674 202.638 121.513 195.248C123.352 187.853 118.02 187.084 118.02 187.084Z" fill="#F7ECD0"/>
<path d="M120.623 251.166C123.657 256.976 125.231 264.014 125.712 270.184C131.909 271.901 145.906 275.024 145.842 273.652C134.002 273.258 127.935 257.677 120.623 251.166Z" fill="#34020B"/>
<path d="M49.25 233.796C49.2728 233.72 49.2993 233.645 49.3221 233.569C49.2841 233.652 49.2576 233.728 49.25 233.796Z" fill="#34020B"/>
<path d="M49.2506 233.796C49.0041 235.631 55.8529 240.421 70.6618 238.867C67.0743 237.658 63.5703 236.381 60.764 235.339C57.787 234.228 53.7293 233.319 49.2506 233.796Z" fill="#34020B"/>
<path d="M125.706 270.184C125.225 264.014 123.651 256.976 120.617 251.166C120.617 251.166 120.617 251.166 120.613 251.162C119.1 249.817 116.976 248.702 114.504 247.774C116.362 249.589 118.16 251.818 119.714 254.516C123.518 261.115 125.896 270.529 124.277 283.669C120.321 315.737 100.533 327.349 88.667 326.33C81.9584 325.754 63.1941 316.131 67.669 281.869C70.1075 263.211 77.0398 252.303 84.503 246.462C86.1944 245.14 87.9161 244.075 89.615 243.237C87.9502 243.082 86.5622 242.957 85.5763 242.843C82.6107 242.498 78.3557 241.342 73.9529 239.944C65.3482 245.905 53.6755 258.215 51.0209 281.001C47.2589 313.319 66.0232 329.638 78.2988 331.78C88.6025 333.58 100.874 332.375 113.078 315.672C125.282 298.97 125.001 284.818 125.668 278.31C125.915 275.968 125.941 273.178 125.706 270.184Z" fill="#070208"/>
<path d="M85.0843 246.538C84.8947 246.515 84.7013 246.493 84.5041 246.462C77.0371 252.307 70.1048 263.211 67.6701 281.869C63.1952 316.131 81.9595 325.75 88.668 326.33C100.534 327.353 120.322 315.737 124.278 283.669C125.897 270.533 123.523 261.115 119.716 254.516C112.048 248.312 91.0951 247.239 85.0843 246.538ZM114.949 285.704C113.208 297.018 104.224 316.752 88.0916 314.596C71.9592 312.439 72.6759 289.331 73.8971 280.213C75.2206 270.317 84.4738 250.275 100.037 252.473C115.597 254.668 116.689 274.391 114.949 285.704Z" fill="#FED194"/>
<path d="M89.6198 243.237C87.9171 244.071 86.1992 245.136 84.5078 246.462C84.705 246.489 84.8984 246.515 85.088 246.538C91.0988 247.239 112.047 248.312 119.719 254.52C118.164 251.821 116.367 249.593 114.509 247.778C108.513 245.526 100.477 244.378 94.1478 243.692C92.4982 243.51 90.9699 243.366 89.6198 243.237Z" fill="#F7ECD0"/>
<path d="M89.6198 243.237C87.9171 244.071 86.1992 245.136 84.5078 246.462C84.705 246.489 84.8984 246.515 85.088 246.538C91.0988 247.239 112.047 248.312 119.719 254.52C118.164 251.821 116.367 249.593 114.509 247.778C108.513 245.526 100.477 244.378 94.1478 243.692C92.4982 243.51 90.9699 243.366 89.6198 243.237Z" fill="#C18A4D"/>
<path d="M100.033 252.474C84.4692 250.279 75.216 270.317 73.8925 280.213C72.6714 289.332 71.9546 312.436 88.0871 314.596C104.219 316.753 113.203 297.018 114.944 285.705C116.689 274.391 115.596 254.668 100.033 252.474ZM105.831 283.578C104.735 290.92 102.388 295.252 99.7711 297.674C96.961 302.388 92.3572 306.641 85.0874 305.254C73.2213 302.987 74.9657 284.208 75.6749 280.452C76.4258 276.461 80.6276 258.705 94.0068 260.266C99.5625 260.914 102.384 264.772 103.689 269.491C105.657 271.92 106.946 276.12 105.831 283.578Z" fill="#F47204"/>
<path d="M92.1022 300.304C89.0304 299.894 80.0655 296.013 82.0147 281.479C83.9602 266.944 94.6961 265.375 97.6465 266.072C99.262 266.455 101.792 267.152 103.688 269.491C102.387 264.772 99.5654 260.914 94.0059 260.266C80.6267 258.701 76.4287 276.461 75.674 280.452C74.9648 284.207 73.2242 302.987 85.0865 305.253C92.3563 306.641 96.9601 302.392 99.7702 297.673C97.1649 300.08 94.2904 300.596 92.1022 300.304Z" fill="#070208"/>
<path opacity="0.76" d="M97.6437 266.072C94.6933 265.375 83.9573 266.94 82.0119 281.479C80.0664 296.013 89.0276 299.894 92.0994 300.304C94.2875 300.595 97.1659 300.08 99.7674 297.673C102.388 295.252 104.732 290.923 105.827 283.578C106.942 276.119 105.649 271.92 103.681 269.491C101.789 267.152 99.2592 266.455 97.6437 266.072ZM96.0092 289.282C93.9652 289.187 92.9034 286.83 93.4077 283.336C93.8173 280.501 95.228 278.196 97.3555 278.484C98.1633 278.594 98.7397 279.125 99.1265 279.864C99.8053 280.705 99.9987 282.327 99.7333 284.298C99.7257 284.34 99.7219 284.385 99.7143 284.427C99.7105 284.454 99.7067 284.48 99.7029 284.503C99.6309 285.022 99.5285 285.56 99.3844 286.076C99.2555 286.538 99.1 286.974 98.9066 287.349C98.3339 288.513 97.4314 289.35 96.0092 289.282Z" fill="white"/>
<path d="M99.7072 284.503C99.711 284.477 99.7148 284.45 99.7186 284.427C99.639 284.988 99.5328 285.553 99.3887 286.08C99.5328 285.56 99.6352 285.026 99.7072 284.503Z" fill="#6F634D"/>
<path d="M96.7636 288.706C94.7613 288.437 94.1811 285.803 94.7879 283.169C95.3302 280.819 96.4603 279.049 98.0758 279.261C98.5043 279.318 98.8532 279.527 99.1224 279.864C98.7356 279.125 98.163 278.594 97.3514 278.484C95.224 278.196 93.8132 280.501 93.4037 283.336C92.8993 286.83 93.9611 289.184 96.0052 289.282C97.4273 289.35 98.3336 288.513 98.9063 287.353C98.4436 288.259 97.7648 288.839 96.7636 288.706Z" fill="#6F634D"/>
<path d="M98.0793 279.261C96.4637 279.049 95.3298 280.819 94.7913 283.169C94.1846 285.803 94.7648 288.437 96.7671 288.706C97.7645 288.839 98.4433 288.263 98.9098 287.353C99.1032 286.978 99.2587 286.542 99.3876 286.08C99.5317 285.553 99.6379 284.992 99.7175 284.427C99.7251 284.386 99.7289 284.34 99.7365 284.298C100.002 282.331 99.8047 280.705 99.1297 279.864C98.8529 279.527 98.504 279.318 98.0793 279.261Z" fill="#070208"/>
<path d="M132.957 224.594C112.904 213.019 98.7166 220.785 95.2807 224.655C90.9765 229.498 89.3041 234.77 94.1468 243.692C92.4972 243.514 90.9689 243.37 89.6189 243.241C87.954 243.085 86.5661 242.96 85.5801 242.843C82.6107 242.498 78.3595 241.342 73.9529 239.947C72.8569 239.599 71.7571 239.239 70.6612 238.867C67.0737 237.658 63.5696 236.381 60.7633 235.339C57.7863 234.228 53.7286 233.322 49.2461 233.796C49.2688 233.72 49.2954 233.644 49.3181 233.569C53.448 220.163 63.2397 212.409 74.4042 208.524C74.4042 208.524 74.4004 208.528 74.3966 208.532C72.398 211.101 70.9684 214.096 72.2274 214.402C75.3029 215.149 85.1857 207.107 98.599 205.45C101.015 205.602 103.351 205.879 105.562 206.265C105.778 206.303 105.99 206.341 106.203 206.379C119.703 208.899 127.834 217.48 132.957 224.594Z" fill="#4F97EC"/>
<path d="M95.2839 224.651C90.9796 229.495 89.3072 234.77 94.1462 243.688C100.476 244.374 108.511 245.523 114.507 247.774C116.98 248.702 119.103 249.817 120.616 251.162C120.616 251.162 120.616 251.162 120.62 251.166C127.932 257.677 133.999 273.254 145.835 273.648C145.319 261.016 142.358 238.72 138.11 232.379C136.828 230.465 135.171 227.664 132.957 224.586C112.907 213.019 98.7159 220.785 95.2839 224.651Z" fill="#950B0B"/>
<path d="M95.2839 224.651C90.9796 229.495 89.3072 234.77 94.1462 243.688C100.476 244.374 108.511 245.523 114.507 247.774C116.98 248.702 119.103 249.817 120.616 251.162C120.616 251.162 120.616 251.162 120.62 251.166C127.932 257.677 133.999 273.254 145.835 273.648C145.319 261.016 142.358 238.72 138.11 232.379C136.828 230.465 135.171 227.664 132.957 224.586C112.907 213.019 98.7159 220.785 95.2839 224.651Z" fill="#4F48EC"/>
<path d="M72.233 214.403C75.3086 215.149 85.1913 207.107 98.6047 205.451C98.8246 205.424 99.0446 205.397 99.2645 205.375C87.3264 203.093 81.7403 203.032 77.948 205.147C76.8445 205.765 75.5399 207.073 74.4136 208.52C72.4075 211.094 70.974 214.096 72.233 214.403Z" fill="white"/>
<path d="M105.567 206.269C105.362 206.284 105.15 206.299 104.926 206.315C86.3967 207.463 82.8357 214.372 75.1526 215.312C67.6248 216.237 74.1324 208.831 74.3979 208.532C72.3993 211.101 70.9697 214.095 72.2287 214.402C75.3042 215.149 85.187 207.107 98.6003 205.45C101.02 205.602 103.356 205.882 105.567 206.269Z" fill="#4472C0"/>
<path d="M134.869 132.296C131.229 134.71 112.927 181.99 110.667 184.913C109.537 186.376 106.192 189.855 104.709 194.111C103.226 198.367 103.606 203.404 108.945 205.394C121.198 209.957 127.349 199.876 128.494 194.71C129.336 190.916 143.937 134.357 143.383 133.433C142.825 132.508 136.36 131.306 134.869 132.296Z" fill="white"/>
<path d="M117.288 188.479C113.462 187.543 108.612 190.419 107.334 195.043C105.817 200.531 108.414 201.941 110.648 202.255C113.834 202.706 118.661 201.399 120.19 195.259C121.718 189.115 117.288 188.479 117.288 188.479Z" fill="#FFB113"/>
<path d="M113.023 190.15L118.587 190.893" stroke="white" stroke-width="4" stroke-miterlimit="10" stroke-linecap="round"/>
<path d="M110.762 191.795L118.327 192.807" stroke="white" stroke-width="4" stroke-miterlimit="10" stroke-linecap="round"/>
<path d="M109.557 193.194L118.108 194.452" stroke="white" stroke-width="4" stroke-miterlimit="10" stroke-linecap="round"/>
<path d="M108.459 194.611L118.361 195.938" stroke="white" stroke-width="4" stroke-miterlimit="10" stroke-linecap="round"/>
<path d="M108.221 196.411L117.675 197.677" stroke="white" stroke-width="4" stroke-miterlimit="10" stroke-linecap="round"/>
<path d="M107.996 198.079L116.104 199.277" stroke="white" stroke-width="4" stroke-miterlimit="10" stroke-linecap="round"/>
<path d="M108.691 199.644L114.478 200.417" stroke="white" stroke-width="4" stroke-miterlimit="10" stroke-linecap="round"/>
<path d="M269.701 174.134C269.8 175.38 269.519 177.719 267.21 177.605C264.9 177.492 241.6 177.639 235.571 177.037C229.541 176.434 201.645 174.49 195.619 173.842C192.714 173.523 186.316 173.25 185.156 171.329C183.995 169.407 186.202 153.319 187.097 151.905C187.268 151.632 187.678 151.367 188.281 151.102C193.211 152.242 201.842 152.97 205.308 153.607C210.625 154.592 247.395 159.159 254.054 159.148C259.902 159.136 268.613 155.756 272.064 152.86C272.242 156.574 269.61 173 269.701 174.134Z" fill="#070208"/>
<path d="M272.195 151.541C268.744 154.437 260.033 157.817 254.186 157.829C247.526 157.84 210.756 153.273 205.44 152.288C201.97 151.651 193.338 150.923 188.412 149.782C192.026 148.21 202.61 146.883 210.18 146.671C219.005 146.428 241.227 149.771 243.317 149.191C245.406 148.608 251.482 146.508 254.834 146.845C258.187 147.179 271.084 150.158 272.036 150.813C272.127 150.878 272.176 151.132 272.195 151.541Z" fill="#070208"/>
<path d="M264.471 141.539C264.433 141.657 264.392 141.774 264.35 141.892C264.346 141.903 264.342 141.915 264.339 141.926C264.301 142.025 264.263 142.127 264.225 142.225C264.213 142.26 264.198 142.294 264.183 142.328C264.141 142.43 264.1 142.529 264.058 142.631C264.005 142.752 263.956 142.873 263.899 142.991C263.853 143.093 263.804 143.196 263.755 143.298C263.743 143.325 263.728 143.355 263.717 143.385C263.667 143.487 263.618 143.59 263.565 143.692C263.557 143.707 263.55 143.722 263.542 143.738C263.485 143.848 263.428 143.957 263.368 144.067C263.243 144.302 263.11 144.541 262.97 144.776C262.901 144.894 262.829 145.011 262.757 145.129C262.594 145.39 262.427 145.652 262.253 145.913C262.12 146.11 261.984 146.307 261.843 146.501C261.836 146.508 261.832 146.52 261.824 146.527C261.76 146.614 261.699 146.701 261.631 146.789C261.449 147.035 261.259 147.281 261.066 147.528C260.888 147.751 260.709 147.975 260.524 148.195C260.448 148.286 260.368 148.377 260.292 148.468C260.258 148.505 260.224 148.547 260.19 148.585C260.114 148.676 260.034 148.763 259.959 148.85C259.769 149.066 259.572 149.286 259.371 149.498C259.272 149.605 259.17 149.711 259.071 149.821C258.969 149.927 258.87 150.033 258.768 150.139C258.665 150.245 258.563 150.351 258.461 150.454C258.358 150.56 258.252 150.662 258.146 150.764C258.04 150.87 257.933 150.973 257.831 151.075C257.3 151.587 256.754 152.091 256.204 152.576C256.106 152.663 256.011 152.747 255.912 152.834C255.673 153.042 255.431 153.251 255.188 153.451C255.082 153.542 254.972 153.633 254.862 153.721C254.756 153.812 254.646 153.899 254.539 153.986C254.422 154.084 254.304 154.179 254.183 154.274C254.069 154.365 253.955 154.456 253.842 154.543C253.72 154.642 253.595 154.736 253.474 154.835C253.371 154.914 253.265 154.994 253.163 155.074C253.102 155.119 253.041 155.165 252.981 155.21C252.825 155.328 252.67 155.445 252.514 155.563C252.495 155.578 252.476 155.593 252.457 155.604C252.351 155.68 252.249 155.76 252.143 155.835C251.907 156.01 251.672 156.18 251.441 156.347C251.339 156.423 251.236 156.495 251.134 156.567C250.91 156.726 250.69 156.881 250.47 157.037C250.36 157.113 250.25 157.188 250.14 157.264C249.882 157.439 249.632 157.613 249.378 157.783C249.223 157.886 249.071 157.988 248.919 158.087C248.893 158.106 248.87 158.121 248.843 158.136C248.741 158.204 248.639 158.272 248.536 158.337C247.706 158.879 246.917 159.375 246.193 159.815C243.629 161.373 221.952 177.067 221.952 177.067C227.17 210.313 226.613 219.038 226.613 219.038C211.55 229.347 205.3 220.433 205.3 220.433L202.71 214.52L199.013 206.084C190.563 183.798 188.076 174.865 189.866 169.593C193.756 158.121 211.258 135.43 217.238 130.033C218.111 129.245 211.516 123.218 211.516 123.218L225.168 127.099L230.659 128.661L261.085 119.974C261.089 119.982 268.211 130.291 264.471 141.539Z" fill="#663E36"/>
<path d="M264.472 141.539C264.434 141.657 264.393 141.774 264.351 141.892C264.347 141.903 264.343 141.915 264.34 141.926C264.302 142.025 264.264 142.127 264.226 142.225C264.214 142.26 264.199 142.294 264.184 142.328C264.142 142.43 264.101 142.529 264.059 142.631C264.006 142.752 263.957 142.873 263.9 142.991C263.854 143.093 263.805 143.196 263.756 143.298C263.744 143.325 263.729 143.355 263.718 143.385C263.668 143.487 263.619 143.59 263.566 143.692C263.558 143.707 263.551 143.722 263.543 143.738C263.486 143.848 263.429 143.957 263.369 144.067C263.244 144.302 263.111 144.541 262.971 144.776C262.902 144.894 262.83 145.011 262.758 145.129C262.595 145.39 262.428 145.652 262.254 145.913C262.121 146.11 261.985 146.307 261.844 146.501C261.837 146.508 261.833 146.52 261.825 146.527C261.761 146.614 261.7 146.701 261.632 146.789C261.45 147.035 261.26 147.281 261.067 147.528C260.889 147.751 260.71 147.975 260.524 148.195C260.449 148.286 260.369 148.377 260.293 148.468C260.259 148.505 260.225 148.547 260.191 148.585C260.115 148.676 260.035 148.763 259.959 148.85C259.77 149.066 259.573 149.286 259.372 149.498C259.273 149.605 259.171 149.711 259.072 149.821C258.97 149.927 258.871 150.033 258.769 150.139C258.666 150.245 258.564 150.351 258.461 150.454C258.359 150.56 258.253 150.662 258.147 150.764C258.041 150.87 257.934 150.973 257.832 151.075C257.301 151.587 256.755 152.091 256.205 152.576C256.106 152.663 256.012 152.747 255.913 152.834C255.674 153.042 255.431 153.251 255.189 153.451C255.083 153.542 254.973 153.633 254.863 153.721C254.756 153.812 254.646 153.899 254.54 153.986C254.423 154.084 254.305 154.179 254.184 154.274C254.07 154.365 253.956 154.456 253.842 154.543C253.721 154.642 253.596 154.736 253.475 154.835C253.372 154.914 253.266 154.994 253.164 155.074C253.103 155.119 253.042 155.165 252.982 155.21C252.826 155.328 252.671 155.445 252.515 155.563C252.496 155.578 252.477 155.593 252.458 155.604C252.352 155.68 252.25 155.76 252.144 155.835C251.908 156.01 251.673 156.18 251.442 156.347C251.34 156.423 251.237 156.495 251.135 156.567C250.911 156.726 250.691 156.881 250.471 157.037C250.361 157.113 250.251 157.188 250.141 157.264C249.883 157.439 249.633 157.613 249.379 157.783C249.223 157.886 249.072 157.988 248.92 158.087C248.894 158.106 248.871 158.121 248.844 158.136C248.742 158.204 248.639 158.272 248.537 158.337C247.707 158.879 246.918 159.375 246.193 159.815C243.63 161.373 221.953 177.067 221.953 177.067C221.957 177.097 221.964 177.128 221.968 177.154C227.171 210.328 226.614 219.038 226.614 219.038C211.551 229.347 205.301 220.433 205.301 220.433L202.711 214.52C207.489 207.232 215.199 193.459 213.246 182.953C210.462 167.979 226.098 161.714 230.474 146.667C234.851 131.621 218.02 133.152 218.02 133.152C218.02 133.152 220.614 130.461 225.169 127.099L230.66 128.661L241.54 125.553L261.086 119.974C261.09 119.982 268.211 130.291 264.472 141.539Z" fill="#59302A"/>
<path d="M264.47 141.539C264.432 141.657 264.391 141.774 264.349 141.892C264.345 141.903 264.341 141.915 264.338 141.926C264.3 142.025 264.262 142.127 264.224 142.225C264.212 142.26 264.197 142.294 264.182 142.328C264.14 142.43 264.099 142.529 264.057 142.631C264.004 142.752 263.955 142.873 263.898 142.991C263.852 143.093 263.803 143.196 263.754 143.298C263.742 143.325 263.727 143.355 263.716 143.385C263.666 143.487 263.617 143.59 263.564 143.692C263.556 143.707 263.549 143.722 263.541 143.738C263.484 143.848 263.427 143.957 263.367 144.067C263.242 144.302 263.109 144.541 262.969 144.776C262.9 144.894 262.828 145.011 262.756 145.129C262.593 145.39 262.426 145.652 262.252 145.913C262.119 146.11 261.983 146.307 261.842 146.501C261.835 146.508 261.831 146.52 261.823 146.527C261.759 146.614 261.698 146.701 261.63 146.789C261.448 147.035 261.258 147.281 261.065 147.528C260.887 147.751 260.708 147.975 260.523 148.195C260.447 148.286 260.367 148.377 260.291 148.468C260.257 148.505 260.223 148.547 260.189 148.585C260.113 148.676 260.033 148.763 259.958 148.85C259.768 149.066 259.571 149.286 259.37 149.498C259.271 149.605 259.169 149.711 259.07 149.821C258.968 149.927 258.869 150.033 258.767 150.139C258.664 150.245 258.562 150.351 258.46 150.454C258.357 150.56 258.251 150.662 258.145 150.764C258.039 150.87 257.932 150.973 257.83 151.075C257.299 151.587 256.753 152.091 256.203 152.576C256.105 152.663 256.01 152.747 255.911 152.834C255.672 153.042 255.43 153.251 255.187 153.451C255.081 153.542 254.971 153.633 254.861 153.721C254.755 153.812 254.645 153.899 254.538 153.986C254.421 154.084 254.303 154.179 254.182 154.274C254.068 154.365 253.954 154.456 253.841 154.543C253.719 154.642 253.594 154.736 253.473 154.835C253.37 154.914 253.264 154.994 253.162 155.074C253.101 155.119 253.04 155.165 252.98 155.21C252.824 155.328 252.669 155.445 252.513 155.563C252.494 155.578 252.475 155.593 252.456 155.604C252.35 155.68 252.248 155.76 252.142 155.835C251.907 156.01 251.671 156.18 251.44 156.347C251.338 156.423 251.235 156.495 251.133 156.567C250.909 156.726 250.689 156.881 250.469 157.037C250.359 157.113 250.249 157.188 250.139 157.264C249.881 157.439 249.631 157.613 249.377 157.783C249.222 157.886 249.07 157.988 248.918 158.087C248.892 158.106 248.869 158.121 248.842 158.136C248.74 158.204 248.638 158.272 248.535 158.337C247.705 158.879 246.916 159.375 246.192 159.815C243.628 161.373 221.951 177.067 221.951 177.067C220.256 165.731 246.703 158.371 246.886 146.008C247.068 133.645 232.278 132.045 232.278 132.045C232.278 132.045 235.236 129.468 241.538 125.553L253.897 122.025L261.084 119.974C261.088 119.982 268.21 130.291 264.47 141.539Z" fill="#42211D"/>
<path d="M264.47 141.539C259.877 133.277 241.234 131.693 241.234 131.693C241.234 131.693 247.173 126.731 253.901 122.032L261.087 119.981C261.087 119.981 268.209 130.29 264.47 141.539Z" fill="#27140E"/>
<path d="M194.747 129.847C194.747 129.847 192.343 136.575 213.731 133.679C235.12 130.784 266.141 131.572 266.141 131.572C266.141 131.572 264.389 121.286 261.347 121.225C258.31 121.161 194.565 122.688 194.747 129.847Z" fill="white"/>
<path d="M111.035 147.607C112.818 142.945 114.835 138.208 118.37 134.679C121.904 131.155 131.787 128.46 132.014 130.813C132.037 133.288 118.457 129.62 110.724 152.492C107.599 161.74 103.511 172.432 100.705 181.945C103.985 170.412 106.723 158.871 111.035 147.607Z" fill="#C5DBFF"/>
<path d="M265.479 126.629C265.479 126.629 255.285 123.271 241.071 127.611C226.858 131.954 202.815 129.847 196.307 126.898C196.307 126.898 194.855 121.334 191.127 111.882C190.19 109.513 189.113 106.894 187.877 104.059C181.718 89.9264 175.783 74.2622 177.903 67.9556C177.903 67.9556 177.649 67.7131 180.599 65.5717C183.554 63.4303 186.86 62.3198 186.86 62.3198C186.86 62.3198 186.989 66.3259 188.044 70.2183C188.84 73.1669 190.171 76.0473 192.378 77.0707C197.502 79.447 200.149 74.0348 201.503 67.7699C202.682 62.3198 211.821 55.7555 214.18 54.141C214.184 54.141 214.184 54.141 214.184 54.141C214.533 53.8984 214.734 53.7695 214.734 53.7695C214.734 53.7695 223.964 54.1296 231.28 56.0208C231.329 56.0322 231.39 56.0473 231.45 56.0663C232.808 56.4226 234.094 56.8319 235.239 57.3056C235.243 57.3056 235.243 57.3056 235.246 57.3056C235.375 57.3587 235.5 57.4118 235.629 57.4686C235.629 57.4686 238.072 80.8266 242.971 84.537C247.871 88.2512 254.561 91.3325 257.185 100.997C259.805 110.662 264.587 121.918 265.479 126.629Z" fill="#100E34"/>
<path d="M265.481 126.629C265.481 126.629 255.287 123.272 241.073 127.611C226.86 131.954 202.817 129.847 196.309 126.899C196.309 126.899 194.857 121.335 191.129 111.882C219.799 107.444 221.604 79.4929 221.661 68.6723C221.714 57.8518 230.19 55.7521 231.286 56.0174C231.335 56.0288 231.396 56.0439 231.456 56.0629C232.294 56.2941 234.099 56.9043 235.245 57.3022C235.248 57.3022 235.248 57.3022 235.252 57.3022C235.381 57.3553 235.506 57.4083 235.635 57.4652C235.635 57.4652 236.985 70.3778 239.693 78.5302C240.626 81.3424 241.722 83.5823 242.977 84.5374C247.877 88.2516 254.566 91.3329 257.191 100.998C258.582 106.122 260.577 111.685 262.28 116.491C263.782 120.751 265.06 124.416 265.481 126.629Z" fill="#1A2752"/>
<path d="M262.271 116.487C250.458 121.551 237.697 122.385 220.92 125.671C200.035 129.764 197.764 127.535 195.902 123.855C194.04 120.175 230.006 98.2157 231.489 94.2892C232.972 90.3627 227.45 79.834 227.45 79.834C227.45 79.834 232.498 79.2125 239.688 78.5303C240.621 81.3425 241.717 83.5824 242.972 84.5375C247.871 88.2517 254.561 91.333 257.185 100.998C258.573 106.118 260.568 111.685 262.271 116.487Z" fill="#2E446C"/>
<path d="M180.938 123.503C181.897 123.571 201.393 130.927 202.072 130.507C202.751 130.09 203.433 125.94 202.762 125.879C202.091 125.815 182.06 119.038 182.06 119.038L180.938 123.503Z" fill="#070208"/>
<path d="M202.55 130.551C203.708 130.505 204.604 129.426 204.552 128.142C204.5 126.857 203.52 125.854 202.363 125.901C201.206 125.947 200.309 127.026 200.361 128.31C200.413 129.594 201.393 130.598 202.55 130.551Z" fill="#070208"/>
<path d="M212.364 117.111C211.742 119.343 207.544 122.398 207.544 122.398C207.544 122.398 206.057 124.482 203.838 125.32C203.254 125.54 201.593 125.953 201.093 125.961C199.307 125.995 197.577 128.045 200.004 130.039C200.004 130.039 199.371 131.301 198.332 131.71C197.278 132.123 195.901 132.275 194.631 131.217C194.631 131.217 192.234 132.354 191.146 131.358C191.146 131.358 189.079 131.585 187.456 129.629C187.456 129.629 185.203 129.44 184.498 127.514C184.153 126.571 185.378 120.075 185.935 119.79C186.47 119.518 188.195 117.422 202.496 115.386C203.107 115.299 203.736 115.212 204.392 115.129C206.599 114.837 208.264 114.765 209.485 114.856C212.064 115.045 212.682 115.97 212.364 117.111Z" fill="#FED194"/>
<path d="M194.623 131.215C194.623 131.215 194.851 127.103 195.821 125.216" stroke="#F59D4E" stroke-width="3" stroke-miterlimit="10"/>
<path d="M191.141 131.355C191.141 131.355 191.603 123.597 192.354 123.298" stroke="#F59D4E" stroke-width="3" stroke-miterlimit="10"/>
<path d="M187.45 129.628C187.45 129.628 186.926 123.162 189.221 121.816" stroke="#F59D4E" stroke-width="3" stroke-miterlimit="10"/>
<path d="M212.365 117.109C211.744 119.341 207.545 122.396 207.545 122.396C207.545 122.396 206.059 124.48 203.84 125.318C203.256 125.538 201.595 125.951 201.095 125.959C201.095 125.959 197.579 128.043 200.006 130.037C200.006 130.037 199.373 131.299 198.334 131.708C198.334 131.708 198.349 129.942 198.349 128.767C198.345 122.502 204.5 123.844 205.528 120.94C206.559 118.037 202.452 115.479 202.452 115.479C202.452 115.479 202.468 115.441 202.494 115.381C203.105 115.293 203.734 115.206 204.39 115.123C206.597 114.831 208.262 114.759 209.483 114.85C209.942 115.111 210.431 115.422 210.947 115.786C211.512 116.188 211.982 116.631 212.365 117.109Z" fill="#F59D4E"/>
<path d="M276.966 97.5901C276.86 98.2155 276.671 98.8105 276.398 99.3866C270.212 112.303 232.964 121.342 226.692 121.698C220.42 122.055 218.88 119.36 218.88 119.36C218.747 119.417 210.359 123.124 208.633 123.332C206.896 123.54 207.548 122.4 207.548 122.4C208.303 115.111 202.448 115.487 202.448 115.487C202.448 115.487 202.266 115.362 202.133 114.748C202.099 114.592 202.069 114.403 202.046 114.179C201.932 113.065 212.422 108.248 212.422 108.248C212.425 105.841 216.237 104.01 221.083 102.036C225.926 100.061 239.722 93.9631 239.722 93.9631C239.722 93.9631 239.711 93.9517 239.684 93.9289C239.381 93.6636 237.314 91.8217 234.743 89.0701C229.221 83.1615 221.383 73.0535 223.764 65.3483C225.001 61.3423 226.802 59.1668 228.626 58.0298C232.085 55.8808 235.634 57.4726 235.634 57.4726C244.508 59.83 279.299 84.162 276.966 97.5901Z" fill="white"/>
<path opacity="0.76" d="M239.679 93.9251C239.376 93.6598 237.309 91.8178 234.738 89.0662C229.216 83.1576 221.377 73.0496 223.759 65.3444C224.995 61.3384 226.796 59.1629 228.621 58.0259C228.621 58.0259 222.769 65.1057 225.792 72.5228C228.814 79.9398 246.224 89.5324 255.087 89.161C261.375 88.8957 248.003 92.0604 239.679 93.9251Z" fill="#D2D7DB"/>
<path d="M260.577 91.6094C249.03 91.0977 239.716 93.9554 239.716 93.9554C239.716 93.9554 237.52 92.0415 234.736 89.0625C240.652 92.0111 250.057 87.9823 256.713 89.396C263.372 90.8097 260.577 91.6094 260.577 91.6094Z" fill="#AEB6B7"/>
<path d="M218.875 119.356C218.875 119.356 216.562 111.098 213.286 109.506C213.286 109.506 212.247 109.131 213.885 111.67C215.523 114.209 212.781 121.922 212.781 121.922L218.875 119.356Z" fill="#AEB6B7"/>
<path d="M208.629 123.332C206.892 123.54 207.544 122.4 207.544 122.4C208.299 115.111 202.444 115.487 202.444 115.487C202.444 115.487 202.262 115.362 202.129 114.748C209.805 113.425 208.629 123.332 208.629 123.332Z" fill="#AEB6B7"/>
<path opacity="0.76" d="M276.966 97.5898C276.859 98.2152 276.67 98.8102 276.397 99.3863C270.211 112.303 232.964 121.342 226.691 121.698C220.419 122.054 218.879 119.36 218.879 119.36C218.879 119.36 225.387 119.625 234.135 114.857C242.391 110.351 261.891 109.585 276.966 97.5898Z" fill="#D2D7DB"/>
<path d="M293.455 247.444C292.586 248.02 258.641 252.041 246.942 252.925C242.107 244.257 242.088 231.011 243.518 222.453C244.936 213.978 248.634 205.572 255.327 200.182C261.577 195.153 269.787 193.546 277.743 194.713C289.048 201.706 293.163 214.494 293.686 223.707C294.327 235.001 294.448 246.788 293.455 247.444Z" fill="#4F48EC"/>
<path d="M180.188 119.75C179.608 119.496 179.149 121.668 179.68 121.854C180.211 122.039 194.246 125.371 194.822 125.856C195.444 126.383 196.942 127.118 197.299 125.647C197.613 124.34 196.574 123.627 195.258 124.059C192.05 123.453 180.92 120.065 180.188 119.75Z" fill="#060B31"/>
<path d="M218.034 53.993C218.034 53.993 209.524 74.4289 204.849 77.9687C200.173 81.5086 188.28 80.4474 188.045 70.2219C188.841 73.1706 190.172 76.051 192.38 77.0743C197.503 79.4506 200.15 74.0385 201.504 67.7736C202.683 62.3235 213.063 55.4294 215.425 53.8111C215.425 53.8073 218.034 53.993 218.034 53.993Z" fill="#100E34"/>
<path d="M209.074 51.8439C209.074 51.8439 199.919 63.0889 193.916 67.5156C193.916 67.5156 201.607 68.5693 205.05 76.0735C205.05 76.0735 205.566 79.0487 207.822 70.0966C210.075 61.1446 217.132 53.4319 217.132 53.4319C217.132 53.4319 210.724 51.5065 209.074 51.8439Z" fill="white"/>
<path d="M193.916 67.5201L188.675 59.3525C188.675 59.3525 184.116 62.7105 183.953 62.9265C182.205 65.2043 184.416 74.4558 185.186 73.3074C185.956 72.159 188.284 66.3224 193.916 67.5201Z" fill="white"/>
<path d="M265.352 131.602C265.367 131.72 265.382 131.837 265.393 131.958C265.382 131.841 265.367 131.72 265.352 131.602C265.352 131.606 265.352 131.602 265.352 131.602Z" fill="#42211D"/>
<path d="M172.965 54.5579C170.932 52.951 169.529 50.6845 168.975 48.1566C167.678 42.2479 165.005 28.7023 166.734 24.6318C168.967 19.3751 171.053 19.1515 177.8 18.4617C184.546 17.7719 191.805 17.6203 195.021 22.8657C198.236 28.1111 194.531 48.9221 203.106 50.1842C211.676 51.4463 212.378 41.0844 212.378 41.0844C212.378 41.0844 204.005 11.7533 198.013 10.3889C192.021 9.02449 184.156 8.01255 179.188 9.47172C174.216 10.9271 166.677 13.8833 165.585 14.8346C164.493 15.7859 158.941 20.1293 159.885 33.2125C160.829 46.2994 162.232 56.8509 171.186 55.4448C171.186 55.4448 172.373 55.2553 173.177 54.7171C173.173 54.7209 173.097 54.664 172.965 54.5579Z" fill="black"/>
<path d="M214.342 41.6984C213.413 45.0677 211.805 46.7429 210.348 47.1333C210.348 47.1333 203.826 49.089 202.79 33.7848C201.755 18.4769 195.687 8.3196 168.91 14.5656C168.91 14.5656 161.652 16.1839 159.922 27.1447C159.922 27.1447 159.763 25.0374 160.393 21.9334V21.9296C160.631 20.7509 160.984 19.4282 161.504 18.0221C161.504 18.0221 161.504 18.0221 161.504 18.0183C161.652 17.6166 161.815 17.2072 161.989 16.7903C163.737 12.6895 166.934 8.06188 172.755 4.28701C186.643 -4.7181 208.972 3.46078 213.253 21.2967C213.401 21.9144 213.542 22.5246 213.67 23.1197C215.578 31.886 215.396 37.8818 214.342 41.6984Z" fill="#100E34"/>
<path d="M214.342 41.6987C213.413 45.068 211.805 46.7432 210.348 47.1336C210.348 47.1336 203.826 49.0892 202.79 33.7851C201.755 18.4771 195.687 8.31985 168.91 14.5658C168.91 14.5658 161.652 16.1842 159.922 27.1449C159.922 27.1449 159.763 25.0377 160.393 21.9336V21.9298C160.631 20.7511 160.984 19.4284 161.504 18.0223C161.504 18.0223 161.504 18.0223 161.504 18.0185C161.511 17.9731 161.591 17.4917 161.989 16.7906C162.876 15.2253 165.341 12.5647 172.058 11.2268C181.933 9.25977 193.738 8.47145 199.339 14.8425C203.909 20.0386 210.026 27.4027 213.67 23.1199C215.578 31.8863 215.396 37.8821 214.342 41.6987Z" fill="#211F34"/>
<path d="M187.021 18.3331C187.021 18.3331 180.119 18.932 177.275 22.9532C174.434 26.9782 165.185 25.4546 165.492 21.7479C165.795 18.1247 169.842 16.3282 187.021 18.3331Z" fill="#72120C"/>
<path d="M214.342 41.6985C213.413 45.0678 211.805 46.743 210.349 47.1334C210.349 47.1334 203.826 49.089 202.791 33.7849C201.755 18.4769 195.688 8.31966 168.91 14.5656C168.91 14.5656 161.652 16.184 159.923 27.1447C159.923 27.1447 158.944 25.6856 160.393 21.9335V21.9297C161.838 18.1775 163.029 13.4627 175.069 11.9922C187.117 10.5217 195.286 10.9007 200.254 18.2533C205.222 25.606 203.31 40.5501 207.433 44.0521C210.258 46.4474 212.939 43.6769 214.342 41.6985Z" fill="white"/>
<path d="M223.514 83.6065L211.445 84.0918L211.573 87.2615L223.642 86.7763L223.514 83.6065Z" fill="white"/>
<path d="M112.21 113.777C111.649 113.736 110.856 114.429 108.691 114.554C106.522 114.679 103.351 115.024 98.4894 114.429C96.817 114.225 94.7123 113.914 94.3634 113.819C94.3596 113.008 92.5204 112.576 92.2359 113.952C91.9515 115.327 93.5898 115.76 94.2838 114.903C94.5265 114.899 97.1697 115.381 98.6449 115.555C103.23 116.101 108.641 115.968 109.578 115.941C110.515 115.919 112.786 115.646 112.665 115.627C112.547 115.608 112.21 113.777 112.21 113.777Z" fill="#060B31"/>
<path d="M247.921 138.469C247.921 138.469 212.239 162.676 212.782 178.905C213.312 194.702 221.682 216.733 221.682 216.733" stroke="white" stroke-width="4" stroke-miterlimit="10" stroke-linecap="round"/>
<path d="M0.592131 122.149C4.44889 146.026 34.9124 153.83 49.7782 134.744C60.8176 120.569 70.651 99.8336 61.1437 76.7258C43.555 33.9894 -5.02046 84.2528 0.42527 121.058C0.478362 121.425 0.535247 121.789 0.592131 122.149Z" fill="#F6F2FF"/>
<path d="M170.146 38.8104C170.627 38.8104 171.018 38.0825 171.018 37.1845C171.018 36.2865 170.627 35.5586 170.146 35.5586C169.664 35.5586 169.273 36.2865 169.273 37.1845C169.273 38.0825 169.664 38.8104 170.146 38.8104Z" fill="#72120C"/>
<path d="M181.675 38.2533C182.157 38.2533 182.547 37.5254 182.547 36.6274C182.547 35.7294 182.157 35.0015 181.675 35.0015C181.193 35.0015 180.803 35.7294 180.803 36.6274C180.803 37.5254 181.193 38.2533 181.675 38.2533Z" fill="#72120C"/>
<path d="M179.902 30.3548C179.807 30.1122 180.08 29.8697 180.315 29.7636C181.066 29.4262 182.985 28.7706 183.861 30.4117C184.582 31.7609 183.857 31.5525 183.729 31.344C183.528 31.0218 183.023 30.351 182.549 30.1501C181.461 29.6878 180.114 30.9081 179.902 30.3548Z" fill="#72120C"/>
<path d="M167.057 32.6517C166.86 32.485 166.977 32.1439 167.133 31.9354C167.626 31.276 168.987 29.7751 170.546 30.787C171.828 31.6208 171.096 31.7876 170.879 31.6663C170.546 31.4806 169.78 31.1395 169.271 31.1926C168.1 31.3139 167.512 33.0307 167.057 32.6517Z" fill="#72120C"/>
<path d="M174.601 36.7111C175.056 37.7041 175.246 38.6781 175.352 39.6522C175.443 40.6262 175.436 41.5851 175.295 42.5705C175.25 42.8244 175.216 43.067 175.14 43.3664C175.128 43.4195 175.087 43.5521 175.049 43.6658L174.999 43.8022C175.037 43.7037 175.049 43.6127 175.06 43.4839C175.06 43.3626 175.049 43.2489 175.011 43.1352C174.984 43.0405 174.935 42.9495 174.897 42.8926C174.867 42.8396 174.814 42.7865 174.795 42.7676C174.764 42.741 174.738 42.7221 174.726 42.7145C174.662 42.6804 174.681 42.7145 174.719 42.7448C174.764 42.7751 174.821 42.8206 174.897 42.8585C175.041 42.9381 175.227 43.0215 175.417 43.0973C176.198 43.4195 177.07 43.7037 178.075 44.0827L178.101 44.2305C177.157 44.4124 176.183 44.4352 175.227 44.2912C174.988 44.2533 174.749 44.2078 174.514 44.1396C174.279 44.0675 174.044 43.988 173.824 43.8174C173.721 43.734 173.596 43.6014 173.604 43.4043C173.604 43.3588 173.619 43.3171 173.63 43.2754L173.653 43.1958C173.668 43.1428 173.683 43.0973 173.691 43.0367C173.737 42.8131 173.771 42.5781 173.801 42.3431C173.941 41.4069 174.048 40.4632 174.15 39.5195C174.245 38.5758 174.351 37.6283 174.457 36.6846L174.601 36.7111Z" fill="#F59D4E"/>
<path d="M175.056 49.5097C177.179 49.4225 180.839 48.8768 183.698 46.3564C183.793 46.273 183.93 46.4019 183.846 46.5004C182.306 48.2704 179.17 50.984 175.006 50.0479C174.695 49.9759 174.741 49.5249 175.056 49.5097Z" fill="#F59D4E"/>
<path d="M184.646 39.8831C184.864 39.8831 185.041 39.7066 185.041 39.4889C185.041 39.2712 184.864 39.0947 184.646 39.0947C184.429 39.0947 184.252 39.2712 184.252 39.4889C184.252 39.7066 184.429 39.8831 184.646 39.8831Z" fill="#F59D4E"/>
<path d="M170.541 41.259C170.759 41.259 170.935 41.0826 170.935 40.8649C170.935 40.6472 170.759 40.4707 170.541 40.4707C170.323 40.4707 170.146 40.6472 170.146 40.8649C170.146 41.0826 170.323 41.259 170.541 41.259Z" fill="#F59D4E"/>
<path d="M186.236 40.2506C186.389 40.2506 186.513 40.1267 186.513 39.9739C186.513 39.8211 186.389 39.6973 186.236 39.6973C186.083 39.6973 185.959 39.8211 185.959 39.9739C185.959 40.1267 186.083 40.2506 186.236 40.2506Z" fill="#F59D4E"/>
<path d="M168.173 40.1559C168.326 40.1559 168.45 40.032 168.45 39.8792C168.45 39.7264 168.326 39.6025 168.173 39.6025C168.02 39.6025 167.896 39.7264 167.896 39.8792C167.896 40.032 168.02 40.1559 168.173 40.1559Z" fill="#F59D4E"/>
<path d="M168.951 43.5895C169.104 43.5895 169.227 43.4656 169.227 43.3128C169.227 43.16 169.104 43.0361 168.951 43.0361C168.798 43.0361 168.674 43.16 168.674 43.3128C168.674 43.4656 168.798 43.5895 168.951 43.5895Z" fill="#F59D4E"/>
<path d="M186.236 38.9015C186.389 38.9015 186.513 38.7776 186.513 38.6248C186.513 38.472 186.389 38.3481 186.236 38.3481C186.083 38.3481 185.959 38.472 185.959 38.6248C185.959 38.7776 186.083 38.9015 186.236 38.9015Z" fill="#F59D4E"/>
<path d="M183.221 41.4861C183.438 41.4861 183.615 41.3096 183.615 41.0919C183.615 40.8742 183.438 40.6978 183.221 40.6978C183.003 40.6978 182.826 40.8742 182.826 41.0919C182.826 41.3096 183.003 41.4861 183.221 41.4861Z" fill="#F59D4E"/>
<path d="M185.387 42.2027C185.664 42.2027 185.888 41.9787 185.888 41.7024C185.888 41.4261 185.664 41.2021 185.387 41.2021C185.111 41.2021 184.887 41.4261 184.887 41.7024C184.887 41.9787 185.111 42.2027 185.387 42.2027Z" fill="#F59D4E"/>
<path d="M168.952 41.9825C169.228 41.9825 169.452 41.7585 169.452 41.4822C169.452 41.2059 169.228 40.9819 168.952 40.9819C168.675 40.9819 168.451 41.2059 168.451 41.4822C168.451 41.7585 168.675 41.9825 168.952 41.9825Z" fill="#F59D4E"/>
<path d="M187.333 41.3648C187.609 41.3648 187.833 41.1408 187.833 40.8645C187.833 40.5882 187.609 40.3643 187.333 40.3643C187.056 40.3643 186.832 40.5882 186.832 40.8645C186.832 41.1408 187.056 41.3648 187.333 41.3648Z" fill="#F59D4E"/>
<path d="M264.748 246.353L284.707 244.363" stroke="#070208" stroke-width="5" stroke-miterlimit="10" stroke-linecap="round"/>
<path d="M264.748 243.882L284.707 241.888" stroke="#070208" stroke-width="5" stroke-miterlimit="10" stroke-linecap="round"/>
<path d="M264.748 241.41L284.707 239.417" stroke="#070208" stroke-width="5" stroke-miterlimit="10" stroke-linecap="round"/>
<path d="M277.081 264.594C277.293 267.437 277.028 270.294 276.554 273.106C276.064 275.919 275.295 278.693 274.229 281.361C273.163 284.025 271.79 286.591 270.069 288.903C269.223 290.071 268.237 291.132 267.221 292.14C266.178 293.125 265.048 294.02 263.842 294.77C264.778 293.694 265.704 292.652 266.523 291.522C266.739 291.249 266.933 290.957 267.137 290.681C267.338 290.4 267.543 290.12 267.725 289.824L268.294 288.956L268.832 288.073C270.255 285.708 271.442 283.218 272.469 280.66C273.493 278.098 274.358 275.464 275.105 272.78C275.86 270.097 276.504 267.376 277.081 264.594Z" fill="#070208"/>
<path d="M47.209 309.79C47.7058 311.571 48.3884 313.391 49.1506 315.134C49.9205 316.885 50.8079 318.583 51.8242 320.205C52.3361 321.012 52.8822 321.801 53.4625 322.562C54.0503 323.317 54.676 324.048 55.3434 324.738C56.0185 325.42 56.7352 326.064 57.5013 326.656C58.2749 327.232 59.0902 327.755 59.9511 328.206C59.0561 327.827 58.1914 327.372 57.3647 326.853C56.5456 326.318 55.7644 325.727 55.0173 325.087C54.2816 324.439 53.58 323.749 52.9164 323.021C52.2565 322.293 51.6346 321.528 51.0392 320.743C49.8636 319.167 48.8055 317.495 47.8688 315.759C46.9321 314.016 46.094 312.254 45.3887 310.347L47.209 309.79Z" fill="#070208"/>
<path d="M44.5605 304.787C44.2875 302.529 44.1813 300.338 44.1472 298.117C44.1168 295.904 44.1661 293.694 44.3216 291.492C44.4695 289.29 44.6933 287.095 45.0346 284.924C45.3417 282.745 45.8044 280.592 46.3012 278.458C45.9599 280.626 45.6565 282.794 45.5048 284.977C45.3228 287.156 45.2583 289.339 45.2697 291.522C45.2735 293.702 45.3797 295.881 45.5693 298.045C45.7589 300.201 46.0243 302.388 46.4301 304.458L44.5605 304.787Z" fill="#070208"/>
</svg>
