<svg xmlns="http://www.w3.org/2000/svg" viewBox="0 0 356.22 566.93"><defs><style>.cls-1{fill-rule:evenodd;}</style></defs><g id="Capa_2" data-name="Capa 2"><g id="Layer_1" data-name="Layer 1"><g id="Page-1"><g id="logo"><path id="Path" class="cls-1" d="M52.84,262.76h9.81a4.54,4.54,0,0,0,4.54-4.54v-7.81q0-15.43-7.54-23.71t-22.26-8.27q-14.72,0-22.25,8.27T7.6,250.41v66.13q0,15.45,7.54,23.71t22.25,8.27q14.72,0,22.26-8.27t7.54-23.71V280.75a4.54,4.54,0,0,0-4.54-4.54H43.76a4.54,4.54,0,0,0-4.54,4.54v9.08a4.54,4.54,0,0,0,4.54,4.54,4.54,4.54,0,0,1,4.54,4.54v19q0,6.94-2.82,9.68a10.34,10.34,0,0,1-7.54,2.74,10.37,10.37,0,0,1-7.54-2.73q-2.82-2.73-2.82-9.65v-68.8q0-6.91,2.82-9.74a10.18,10.18,0,0,1,7.54-2.82,10.18,10.18,0,0,1,7.54,2.82q2.82,2.82,2.82,9.72v9.08A4.55,4.55,0,0,0,52.84,262.76Z"/><path id="Shape" d="M93.54,226.7q-7.82,8.27-7.81,23.71v66.13q0,15.45,7.81,23.71t22.52,8.27q14.72,0,22.53-8.27t7.81-23.71V250.41q0-15.43-7.81-23.71t-22.53-8.27Q101.35,218.43,93.54,226.7Zm32.88,22.43V317.8q0,6.9-2.82,9.72a11.49,11.49,0,0,1-15.08,0c-1.88-1.88-2.82-5.11-2.82-9.72V249.13q0-6.9,2.82-9.72a11.49,11.49,0,0,1,15.08,0Q126.42,242.23,126.42,249.13Z"/><path id="Path-2" data-name="Path" class="cls-1" d="M171.11,219.88a4.54,4.54,0,0,0-4.54,4.54V342.5a4.54,4.54,0,0,0,4.54,4.54H182a4.54,4.54,0,0,0,4.54-4.54V224.43a4.54,4.54,0,0,0-4.54-4.54h-10.9Z"/><path id="Path-3" data-name="Path" class="cls-1" d="M223.79,219.88h-10.9a4.54,4.54,0,0,0-4.54,4.54V342.5a4.54,4.54,0,0,0,4.54,4.54h10.9a4.54,4.54,0,0,0,4.54-4.54V309.12a4.54,4.54,0,0,1,.53-2.13l1-1.82a4.54,4.54,0,0,1,8.25.5l14.75,38.46a4.54,4.54,0,0,0,4.24,2.92H267.8a4.55,4.55,0,0,0,4.23-6.21l-24.61-62.41a4.52,4.52,0,0,1,.15-3.67l23.7-48.34a4.54,4.54,0,0,0-4.08-6.54h-9.81a4.55,4.55,0,0,0-4.11,2.61L228.7,274.92h-.36v-50.5A4.56,4.56,0,0,0,223.79,219.88Z"/><path id="Shape-2" data-name="Shape" d="M295.73,226.7q-7.82,8.27-7.81,23.71v66.13q0,15.45,7.81,23.71t22.52,8.27q14.72,0,22.53-8.27t7.81-23.71V250.41q0-15.43-7.81-23.71t-22.53-8.27Q303.53,218.43,295.73,226.7Zm32.88,22.43V317.8q0,6.9-2.82,9.72a11.49,11.49,0,0,1-15.08,0c-1.88-1.88-2.82-5.11-2.82-9.72V249.13q0-6.9,2.82-9.72a11.49,11.49,0,0,1,15.08,0Q328.61,242.23,328.61,249.13Z"/><path id="Shape-3" data-name="Shape" d="M331.05,374.51H268.82c-14.54,0-26.54,10.63-27.9,24.76,0,.58-.1,1.08-.13,30a12,12,0,0,1-3.7,8.57,13.63,13.63,0,0,1-9.82,3.8h-.49a13.43,13.43,0,0,1-9.53-3.8,12,12,0,0,1-3.7-8.58l-.05-26.68c0-15.22-13.58-28.08-29.58-28.08H171.74a28.16,28.16,0,0,0-28.13,28.1l-.07,65.2a12,12,0,0,1-3.7,8.57,13.93,13.93,0,0,1-10.07,3.8,13.54,13.54,0,0,1-9.76-3.8,12,12,0,0,1-3.7-8.56c0-67.48-.08-67.94-.14-68.58-1.34-13.87-13.68-24.74-28.09-24.74H25.18a25.12,25.12,0,0,0-18.35,8A25.49,25.49,0,0,0,.11,401.64c3.49,48.26,18.83,87.1,45.6,115.43,31.25,33.08,75.81,49.86,132.44,49.86s101.16-16.77,132.41-49.85c26.77-28.33,42.11-67.16,45.6-115.43a25.2,25.2,0,0,0-25.11-27.14ZM296,503.33c-27.33,28.92-67,43.59-117.87,43.59S87.55,532.25,60.22,503.33C36.7,478.45,23.18,443.75,20,400.21a5.38,5.38,0,0,1,1.41-4.08,5,5,0,0,1,3.7-1.61h62.9c4,0,7.61,2.82,8.13,6.35,0,4.51.07,42,.08,67a31.88,31.88,0,0,0,9.68,22.82,34.82,34.82,0,0,0,47.89,0,31.87,31.87,0,0,0,9.68-22.82l.07-65.2a8.13,8.13,0,0,1,8.12-8.11h12.18c4.82,0,9.56,4,9.57,8.11l.05,26.68a31.87,31.87,0,0,0,9.68,22.82A33.1,33.1,0,0,0,227,461.68a33.46,33.46,0,0,0,24.11-9.54,31.87,31.87,0,0,0,9.68-22.82c0-9.85,0-25.7.08-28.41.5-3.59,3.93-6.37,7.94-6.37H331a5.06,5.06,0,0,1,3.71,1.61,5.36,5.36,0,0,1,1.41,4.08C333,443.75,319.5,478.45,296,503.33Z"/><path id="Shape-4" data-name="Shape" d="M25.15,192.43H331a25.13,25.13,0,0,0,18.36-8,25.49,25.49,0,0,0,6.72-19.15c-3.49-48.26-18.83-87.1-45.6-115.42C279.27,16.78,234.71,0,178.09,0S76.92,16.77,45.67,49.86C18.9,78.19,3.55,117,.07,165.29a25.49,25.49,0,0,0,6.72,19.15A25.2,25.2,0,0,0,25.15,192.43ZM60.22,63.6C87.54,34.68,127.2,20,178.09,20S268.65,34.68,296,63.6c23.52,24.89,37,59.58,40.19,103.12a5.38,5.38,0,0,1-1.41,4.08,5,5,0,0,1-3.71,1.61H25.15a5,5,0,0,1-3.7-1.61A5.36,5.36,0,0,1,20,166.72C23.18,123.19,36.7,88.49,60.22,63.6Z"/></g></g></g></g></svg>