<svg xmlns="http://www.w3.org/2000/svg" xmlns:xlink="http://www.w3.org/1999/xlink" viewBox="0 0 11880 9180"><defs><style>.cls-1{fill:none;}.cls-2,.cls-8{fill:#272219;}.cls-3{fill:#b2222b;}.cls-4{fill:#fff;}.cls-5{clip-path:url(#clip-path);}.cls-6{fill:#fef6e7;}.cls-7{fill:#f1d3a6;}.cls-8{fill-rule:evenodd;}</style><clipPath id="clip-path" transform="translate(278.33 311.16)"><path class="cls-1" d="M7.93,6.5A1.79,1.79,0,0,0,6.54,7a1.71,1.71,0,0,0-.6,1.31l.59,355.38a1.74,1.74,0,0,0,1.56,1.75l269.84,34.82a1.71,1.71,0,0,0,1.94-1.3L370.65,55.33a1.79,1.79,0,0,0-.26-1.44,1.85,1.85,0,0,0-1.24-.76L7.93,6.5"/></clipPath></defs><g id="Capa_2" data-name="Capa 2"><g id="Layer_1" data-name="Layer 1"><path class="cls-2" d="M375.93,48.89a1.94,1.94,0,0,1,1.27.82,1.75,1.75,0,0,1,.24,1.48l-93,354.36a1.87,1.87,0,0,1-2,1.34L2.7,370.05a1.82,1.82,0,0,1-1.59-1.81L0,1.84A1.9,1.9,0,0,1,.62.44,1.86,1.86,0,0,1,2.05,0L375.93,48.89" transform="translate(278.33 311.16)"/><path class="cls-3" d="M7.93,6.5A1.79,1.79,0,0,0,6.54,7a1.71,1.71,0,0,0-.6,1.31l.59,355.38a1.74,1.74,0,0,0,1.56,1.75l269.84,34.82a1.71,1.71,0,0,0,1.94-1.3L370.65,55.33a1.79,1.79,0,0,0-.26-1.44,1.85,1.85,0,0,0-1.24-.76L7.93,6.5" transform="translate(278.33 311.16)"/><path class="cls-1" d="M370.39,53.89a1.85,1.85,0,0,0-1.24-.76l-130-16.79c-2.51-2.86-4.65-5-5.9-6.17A110.14,110.14,0,0,0,224.5,23a108.67,108.67,0,0,0-18.93-11.28C203.29,10.68,193.26,6.1,184,4a123.88,123.88,0,0,0-15.69-2.83,134.3,134.3,0,0,0-14.45-.12,106.32,106.32,0,0,0-14.65,2.13c-2.48.57-5.79,1.24-9.95,2.38S121.22,7.9,117.1,9.31c-1.35.47-7.16,2.87-8.42,3.39s-3.53,1.43-5.24,2.11a78,78,0,0,1-9.5,2.8L7.93,6.5A1.79,1.79,0,0,0,6.54,7a1.71,1.71,0,0,0-.6,1.31l.59,355.38a1.74,1.74,0,0,0,1.56,1.75l269.84,34.82a1.71,1.71,0,0,0,1.94-1.3L370.65,55.33a1.79,1.79,0,0,0-.26-1.44" transform="translate(278.33 311.16)"/><path class="cls-2" d="M240,243.35a33.56,33.56,0,0,0-3.57-4.64c-.71-.9-2.35-2.67-2.79-3.12s-.6-1.6.1-3.68a113.48,113.48,0,0,0,4.3-20c.34-2.63,1.7-4.16,3-4.6.72-.25,5.27-1.56,5.52-5.84s-.25-10.41,4.29-18.31c4.4-7.69,10.49-21.6,12.27-31.07,1.88-10.07.21-17-3.33-21.06-1.35-1.56-2.92-3.89-.86-8.11,2.26-4.54,6.92-17.14,5.2-26.09-.39-2-1.14-2.1-1.52-2.38A8.49,8.49,0,0,1,260,88.69a94.45,94.45,0,0,0-12.1-40,80.82,80.82,0,0,0-14.63-18.5A110.14,110.14,0,0,0,224.5,23a108.67,108.67,0,0,0-18.93-11.28C203.29,10.68,193.26,6.1,184,4a123.88,123.88,0,0,0-15.69-2.83,134.3,134.3,0,0,0-14.45-.12,106.32,106.32,0,0,0-14.65,2.13c-2.48.57-5.79,1.24-9.95,2.38S121.22,7.9,117.1,9.31c-1.35.47-7.16,2.87-8.42,3.39s-3.53,1.43-5.24,2.11a105.07,105.07,0,0,1-13,3.64c-4.28,1-7.53,1.81-8.42,1.93s-3.92.95-4.27,2.76A9.71,9.71,0,0,0,78,28a10.83,10.83,0,0,1-1.45,9.23c-2.15,3.42-10.72,13.28-19,18.46-2.39,1.5-4.85,2.34-6.4,3.36s-3.65,4.41-2.12,9.12,4.86,9.09,6.24,13.35S56.78,93,54.27,101c-2.45,7.79-3.11,9.49-4,10.88s-2.7,4-1.18,7.64,5.19,7.72,7.51,10c1.26,1.25,1.84,2.32.56,4.12-2.1,2.92-2.67,10.39-1.65,14.77,1.58,6.66,3.61,13.08,5.72,17.31s6,11.48,8.37,14.27,2.28,6.95,1.87,9.53S69.7,199.42,76.59,205c3.41,2.74,3.82,2.24,5,3.54s1.77,1.92,2.33,5,3.4,14,8.29,22a32.9,32.9,0,0,1,2.34,4.35c.18.38.44.8-.52,2.42-.47.78-1.71,3.43-3.26,7H244.57C243.08,248.25,242,246.55,240,243.35Z" transform="translate(278.33 311.16)"/><path class="cls-1" d="M370.39,53.89a1.85,1.85,0,0,0-1.24-.76l-130-16.79c-2.51-2.86-4.65-5-5.9-6.17A110.14,110.14,0,0,0,224.5,23a108.67,108.67,0,0,0-18.93-11.28C203.29,10.68,193.26,6.1,184,4a123.88,123.88,0,0,0-15.69-2.83,134.3,134.3,0,0,0-14.45-.12,106.32,106.32,0,0,0-14.65,2.13c-2.48.57-5.79,1.24-9.95,2.38S121.22,7.9,117.1,9.31c-1.35.47-7.16,2.87-8.42,3.39s-3.53,1.43-5.24,2.11a78,78,0,0,1-9.5,2.8L7.93,6.5A1.79,1.79,0,0,0,6.54,7a1.71,1.71,0,0,0-.6,1.31l.59,355.38a1.74,1.74,0,0,0,1.56,1.75l269.84,34.82a1.71,1.71,0,0,0,1.94-1.3L370.65,55.33a1.79,1.79,0,0,0-.26-1.44" transform="translate(278.33 311.16)"/><path class="cls-1" d="M370.39,53.89a1.85,1.85,0,0,0-1.24-.76l-130-16.79c-2.51-2.86-4.65-5-5.9-6.17A110.14,110.14,0,0,0,224.5,23a108.67,108.67,0,0,0-18.93-11.28C203.29,10.68,193.26,6.1,184,4a123.88,123.88,0,0,0-15.69-2.83,134.3,134.3,0,0,0-14.45-.12,106.32,106.32,0,0,0-14.65,2.13c-2.48.57-5.79,1.24-9.95,2.38S121.22,7.9,117.1,9.31c-1.35.47-7.16,2.87-8.42,3.39s-3.53,1.43-5.24,2.11a78,78,0,0,1-9.5,2.8L7.93,6.5A1.79,1.79,0,0,0,6.54,7a1.71,1.71,0,0,0-.6,1.31l.59,355.38a1.74,1.74,0,0,0,1.56,1.75l269.84,34.82a1.71,1.71,0,0,0,1.94-1.3L370.65,55.33a1.79,1.79,0,0,0-.26-1.44" transform="translate(278.33 311.16)"/><path class="cls-1" d="M370.39,53.89a1.85,1.85,0,0,0-1.24-.76l-130-16.79c-2.51-2.86-4.65-5-5.9-6.17A110.14,110.14,0,0,0,224.5,23a108.67,108.67,0,0,0-18.93-11.28C203.29,10.68,193.26,6.1,184,4a123.88,123.88,0,0,0-15.69-2.83,134.3,134.3,0,0,0-14.45-.12,106.32,106.32,0,0,0-14.65,2.13c-2.48.57-5.79,1.24-9.95,2.38S121.22,7.9,117.1,9.31c-1.35.47-7.16,2.87-8.42,3.39s-3.53,1.43-5.24,2.11a78,78,0,0,1-9.5,2.8L7.93,6.5A1.79,1.79,0,0,0,6.54,7a1.71,1.71,0,0,0-.6,1.31l.59,355.38a1.74,1.74,0,0,0,1.56,1.75l269.84,34.82a1.71,1.71,0,0,0,1.94-1.3L370.65,55.33a1.79,1.79,0,0,0-.26-1.44" transform="translate(278.33 311.16)"/><path class="cls-1" d="M370.39,53.89a1.85,1.85,0,0,0-1.24-.76l-130-16.79c-2.51-2.86-4.65-5-5.9-6.17A110.14,110.14,0,0,0,224.5,23a108.67,108.67,0,0,0-18.93-11.28C203.29,10.68,193.26,6.1,184,4a123.88,123.88,0,0,0-15.69-2.83,134.3,134.3,0,0,0-14.45-.12,106.32,106.32,0,0,0-14.65,2.13c-2.48.57-5.79,1.24-9.95,2.38S121.22,7.9,117.1,9.31c-1.35.47-7.16,2.87-8.42,3.39s-3.53,1.43-5.24,2.11a78,78,0,0,1-9.5,2.8L7.93,6.5A1.79,1.79,0,0,0,6.54,7a1.71,1.71,0,0,0-.6,1.31l.59,355.38a1.74,1.74,0,0,0,1.56,1.75l269.84,34.82a1.71,1.71,0,0,0,1.94-1.3L370.65,55.33a1.79,1.79,0,0,0-.26-1.44" transform="translate(278.33 311.16)"/><path class="cls-1" d="M370.39,53.89a1.85,1.85,0,0,0-1.24-.76l-130-16.79c-2.51-2.86-4.65-5-5.9-6.17A110.14,110.14,0,0,0,224.5,23a108.67,108.67,0,0,0-18.93-11.28C203.29,10.68,193.26,6.1,184,4a123.88,123.88,0,0,0-15.69-2.83,134.3,134.3,0,0,0-14.45-.12,106.32,106.32,0,0,0-14.65,2.13c-2.48.57-5.79,1.24-9.95,2.38S121.22,7.9,117.1,9.31c-1.35.47-7.16,2.87-8.42,3.39s-3.53,1.43-5.24,2.11a78,78,0,0,1-9.5,2.8L7.93,6.5A1.79,1.79,0,0,0,6.54,7a1.71,1.71,0,0,0-.6,1.31l.59,355.38a1.74,1.74,0,0,0,1.56,1.75l269.84,34.82a1.71,1.71,0,0,0,1.94-1.3L370.65,55.33a1.79,1.79,0,0,0-.26-1.44" transform="translate(278.33 311.16)"/><path class="cls-1" d="M370.39,53.89a1.85,1.85,0,0,0-1.24-.76l-130-16.79c-2.51-2.86-4.65-5-5.9-6.17A110.14,110.14,0,0,0,224.5,23a108.67,108.67,0,0,0-18.93-11.28C203.29,10.68,193.26,6.1,184,4a123.88,123.88,0,0,0-15.69-2.83,134.3,134.3,0,0,0-14.45-.12,106.32,106.32,0,0,0-14.65,2.13c-2.48.57-5.79,1.24-9.95,2.38S121.22,7.9,117.1,9.31c-1.35.47-7.16,2.87-8.42,3.39s-3.53,1.43-5.24,2.11a78,78,0,0,1-9.5,2.8L7.93,6.5A1.79,1.79,0,0,0,6.54,7a1.71,1.71,0,0,0-.6,1.31l.59,355.38a1.74,1.74,0,0,0,1.56,1.75l269.84,34.82a1.71,1.71,0,0,0,1.94-1.3L370.65,55.33a1.79,1.79,0,0,0-.26-1.44" transform="translate(278.33 311.16)"/><path class="cls-1" d="M370.39,53.89a1.85,1.85,0,0,0-1.24-.76l-130-16.79c-2.51-2.86-4.65-5-5.9-6.17A110.14,110.14,0,0,0,224.5,23a108.67,108.67,0,0,0-18.93-11.28C203.29,10.68,193.26,6.1,184,4a123.88,123.88,0,0,0-15.69-2.83,134.3,134.3,0,0,0-14.45-.12,106.32,106.32,0,0,0-14.65,2.13c-2.48.57-5.79,1.24-9.95,2.38S121.22,7.9,117.1,9.31c-1.35.47-7.16,2.87-8.42,3.39s-3.53,1.43-5.24,2.11a78,78,0,0,1-9.5,2.8L7.93,6.5A1.79,1.79,0,0,0,6.54,7a1.71,1.71,0,0,0-.6,1.31l.59,355.38a1.74,1.74,0,0,0,1.56,1.75l269.84,34.82a1.71,1.71,0,0,0,1.94-1.3L370.65,55.33a1.79,1.79,0,0,0-.26-1.44" transform="translate(278.33 311.16)"/><path class="cls-1" d="M370.39,53.89a1.85,1.85,0,0,0-1.24-.76l-130-16.79c-2.51-2.86-4.65-5-5.9-6.17A110.14,110.14,0,0,0,224.5,23a108.67,108.67,0,0,0-18.93-11.28C203.29,10.68,193.26,6.1,184,4a123.88,123.88,0,0,0-15.69-2.83,134.3,134.3,0,0,0-14.45-.12,106.32,106.32,0,0,0-14.65,2.13c-2.48.57-5.79,1.24-9.95,2.38S121.22,7.9,117.1,9.31c-1.35.47-7.16,2.87-8.42,3.39s-3.53,1.43-5.24,2.11a78,78,0,0,1-9.5,2.8L7.93,6.5A1.79,1.79,0,0,0,6.54,7a1.71,1.71,0,0,0-.6,1.31l.59,355.38a1.74,1.74,0,0,0,1.56,1.75l269.84,34.82a1.71,1.71,0,0,0,1.94-1.3L370.65,55.33a1.79,1.79,0,0,0-.26-1.44" transform="translate(278.33 311.16)"/><path class="cls-1" d="M370.39,53.89a1.85,1.85,0,0,0-1.24-.76l-130-16.79c-2.51-2.86-4.65-5-5.9-6.17A110.14,110.14,0,0,0,224.5,23a108.67,108.67,0,0,0-18.93-11.28C203.29,10.68,193.26,6.1,184,4a123.88,123.88,0,0,0-15.69-2.83,134.3,134.3,0,0,0-14.45-.12,106.32,106.32,0,0,0-14.65,2.13c-2.48.57-5.79,1.24-9.95,2.38S121.22,7.9,117.1,9.31c-1.35.47-7.16,2.87-8.42,3.39s-3.53,1.43-5.24,2.11a78,78,0,0,1-9.5,2.8L7.93,6.5A1.79,1.79,0,0,0,6.54,7a1.71,1.71,0,0,0-.6,1.31l.59,355.38a1.74,1.74,0,0,0,1.56,1.75l269.84,34.82a1.71,1.71,0,0,0,1.94-1.3L370.65,55.33a1.79,1.79,0,0,0-.26-1.44" transform="translate(278.33 311.16)"/><path class="cls-1" d="M370.39,53.89a1.85,1.85,0,0,0-1.24-.76l-130-16.79c-2.51-2.86-4.65-5-5.9-6.17A110.14,110.14,0,0,0,224.5,23a108.67,108.67,0,0,0-18.93-11.28C203.29,10.68,193.26,6.1,184,4a123.88,123.88,0,0,0-15.69-2.83,134.3,134.3,0,0,0-14.45-.12,106.32,106.32,0,0,0-14.65,2.13c-2.48.57-5.79,1.24-9.95,2.38S121.22,7.9,117.1,9.31c-1.35.47-7.16,2.87-8.42,3.39s-3.53,1.43-5.24,2.11a78,78,0,0,1-9.5,2.8L7.93,6.5A1.79,1.79,0,0,0,6.54,7a1.71,1.71,0,0,0-.6,1.31l.59,355.38a1.74,1.74,0,0,0,1.56,1.75l269.84,34.82a1.71,1.71,0,0,0,1.94-1.3L370.65,55.33a1.79,1.79,0,0,0-.26-1.44" transform="translate(278.33 311.16)"/><path class="cls-1" d="M370.39,53.89a1.85,1.85,0,0,0-1.24-.76l-130-16.79c-2.51-2.86-4.65-5-5.9-6.17A110.14,110.14,0,0,0,224.5,23a108.67,108.67,0,0,0-18.93-11.28C203.29,10.68,193.26,6.1,184,4a123.88,123.88,0,0,0-15.69-2.83,134.3,134.3,0,0,0-14.45-.12,106.32,106.32,0,0,0-14.65,2.13c-2.48.57-5.79,1.24-9.95,2.38S121.22,7.9,117.1,9.31c-1.35.47-7.16,2.87-8.42,3.39s-3.53,1.43-5.24,2.11a78,78,0,0,1-9.5,2.8L7.93,6.5A1.79,1.79,0,0,0,6.54,7a1.71,1.71,0,0,0-.6,1.31l.59,355.38a1.74,1.74,0,0,0,1.56,1.75l269.84,34.82a1.71,1.71,0,0,0,1.94-1.3L370.65,55.33a1.79,1.79,0,0,0-.26-1.44" transform="translate(278.33 311.16)"/><path class="cls-1" d="M370.39,53.89a1.85,1.85,0,0,0-1.24-.76l-130-16.79c-2.51-2.86-4.65-5-5.9-6.17A110.14,110.14,0,0,0,224.5,23a108.67,108.67,0,0,0-18.93-11.28C203.29,10.68,193.26,6.1,184,4a123.88,123.88,0,0,0-15.69-2.83,134.3,134.3,0,0,0-14.45-.12,106.32,106.32,0,0,0-14.65,2.13c-2.48.57-5.79,1.24-9.95,2.38S121.22,7.9,117.1,9.31c-1.35.47-7.16,2.87-8.42,3.39s-3.53,1.43-5.24,2.11a78,78,0,0,1-9.5,2.8L7.93,6.5A1.79,1.79,0,0,0,6.54,7a1.71,1.71,0,0,0-.6,1.31l.59,355.38a1.74,1.74,0,0,0,1.56,1.75l269.84,34.82a1.71,1.71,0,0,0,1.94-1.3L370.65,55.33a1.79,1.79,0,0,0-.26-1.44" transform="translate(278.33 311.16)"/><path class="cls-1" d="M370.39,53.89a1.85,1.85,0,0,0-1.24-.76l-130-16.79c-2.51-2.86-4.65-5-5.9-6.17A110.14,110.14,0,0,0,224.5,23a108.67,108.67,0,0,0-18.93-11.28C203.29,10.68,193.26,6.1,184,4a123.88,123.88,0,0,0-15.69-2.83,134.3,134.3,0,0,0-14.45-.12,106.32,106.32,0,0,0-14.65,2.13c-2.48.57-5.79,1.24-9.95,2.38S121.22,7.9,117.1,9.31c-1.35.47-7.16,2.87-8.42,3.39s-3.53,1.43-5.24,2.11a78,78,0,0,1-9.5,2.8L7.93,6.5A1.79,1.79,0,0,0,6.54,7a1.71,1.71,0,0,0-.6,1.31l.59,355.38a1.74,1.74,0,0,0,1.56,1.75l269.84,34.82a1.71,1.71,0,0,0,1.94-1.3L370.65,55.33a1.79,1.79,0,0,0-.26-1.44" transform="translate(278.33 311.16)"/><path class="cls-1" d="M370.39,53.89a1.85,1.85,0,0,0-1.24-.76l-130-16.79c-2.51-2.86-4.65-5-5.9-6.17A110.14,110.14,0,0,0,224.5,23a108.67,108.67,0,0,0-18.93-11.28C203.29,10.68,193.26,6.1,184,4a123.88,123.88,0,0,0-15.69-2.83,134.3,134.3,0,0,0-14.45-.12,106.32,106.32,0,0,0-14.65,2.13c-2.48.57-5.79,1.24-9.95,2.38S121.22,7.9,117.1,9.31c-1.35.47-7.16,2.87-8.42,3.39s-3.53,1.43-5.24,2.11a78,78,0,0,1-9.5,2.8L7.93,6.5A1.79,1.79,0,0,0,6.54,7a1.71,1.71,0,0,0-.6,1.31l.59,355.38a1.74,1.74,0,0,0,1.56,1.75l269.84,34.82a1.71,1.71,0,0,0,1.94-1.3L370.65,55.33a1.79,1.79,0,0,0-.26-1.44" transform="translate(278.33 311.16)"/><path class="cls-1" d="M370.39,53.89a1.85,1.85,0,0,0-1.24-.76l-130-16.79c-2.51-2.86-4.65-5-5.9-6.17A110.14,110.14,0,0,0,224.5,23a108.67,108.67,0,0,0-18.93-11.28C203.29,10.68,193.26,6.1,184,4a123.88,123.88,0,0,0-15.69-2.83,134.3,134.3,0,0,0-14.45-.12,106.32,106.32,0,0,0-14.65,2.13c-2.48.57-5.79,1.24-9.95,2.38S121.22,7.9,117.1,9.31c-1.35.47-7.16,2.87-8.42,3.39s-3.53,1.43-5.24,2.11a78,78,0,0,1-9.5,2.8L7.93,6.5A1.79,1.79,0,0,0,6.54,7a1.71,1.71,0,0,0-.6,1.31l.59,355.38a1.74,1.74,0,0,0,1.56,1.75l269.84,34.82a1.71,1.71,0,0,0,1.94-1.3L370.65,55.33a1.79,1.79,0,0,0-.26-1.44" transform="translate(278.33 311.16)"/><path class="cls-1" d="M370.39,53.89a1.85,1.85,0,0,0-1.24-.76l-130-16.79c-2.51-2.86-4.65-5-5.9-6.17A110.14,110.14,0,0,0,224.5,23a108.67,108.67,0,0,0-18.93-11.28C203.29,10.68,193.26,6.1,184,4a123.88,123.88,0,0,0-15.69-2.83,134.3,134.3,0,0,0-14.45-.12,106.32,106.32,0,0,0-14.65,2.13c-2.48.57-5.79,1.24-9.95,2.38S121.22,7.9,117.1,9.31c-1.35.47-7.16,2.87-8.42,3.39s-3.53,1.43-5.24,2.11a78,78,0,0,1-9.5,2.8L7.93,6.5A1.79,1.79,0,0,0,6.54,7a1.71,1.71,0,0,0-.6,1.31l.59,355.38a1.74,1.74,0,0,0,1.56,1.75l269.84,34.82a1.71,1.71,0,0,0,1.94-1.3L370.65,55.33a1.79,1.79,0,0,0-.26-1.44" transform="translate(278.33 311.16)"/><path class="cls-1" d="M370.39,53.89a1.85,1.85,0,0,0-1.24-.76l-130-16.79c-2.51-2.86-4.65-5-5.9-6.17A110.14,110.14,0,0,0,224.5,23a108.67,108.67,0,0,0-18.93-11.28C203.29,10.68,193.26,6.1,184,4a123.88,123.88,0,0,0-15.69-2.83,134.3,134.3,0,0,0-14.45-.12,106.32,106.32,0,0,0-14.65,2.13c-2.48.57-5.79,1.24-9.95,2.38S121.22,7.9,117.1,9.31c-1.35.47-7.16,2.87-8.42,3.39s-3.53,1.43-5.24,2.11a78,78,0,0,1-9.5,2.8L7.93,6.5A1.79,1.79,0,0,0,6.54,7a1.71,1.71,0,0,0-.6,1.31l.59,355.38a1.74,1.74,0,0,0,1.56,1.75l269.84,34.82a1.71,1.71,0,0,0,1.94-1.3L370.65,55.33a1.79,1.79,0,0,0-.26-1.44" transform="translate(278.33 311.16)"/><path class="cls-1" d="M370.39,53.89a1.85,1.85,0,0,0-1.24-.76l-130-16.79c-2.51-2.86-4.65-5-5.9-6.17A110.14,110.14,0,0,0,224.5,23a108.67,108.67,0,0,0-18.93-11.28C203.29,10.68,193.26,6.1,184,4a123.88,123.88,0,0,0-15.69-2.83,134.3,134.3,0,0,0-14.45-.12,106.32,106.32,0,0,0-14.65,2.13c-2.48.57-5.79,1.24-9.95,2.38S121.22,7.9,117.1,9.31c-1.35.47-7.16,2.87-8.42,3.39s-3.53,1.43-5.24,2.11a78,78,0,0,1-9.5,2.8L7.93,6.5A1.79,1.79,0,0,0,6.54,7a1.71,1.71,0,0,0-.6,1.31l.59,355.38a1.74,1.74,0,0,0,1.56,1.75l269.84,34.82a1.71,1.71,0,0,0,1.94-1.3L370.65,55.33a1.79,1.79,0,0,0-.26-1.44" transform="translate(278.33 311.16)"/><path class="cls-1" d="M370.39,53.89a1.85,1.85,0,0,0-1.24-.76l-130-16.79c-2.51-2.86-4.65-5-5.9-6.17A110.14,110.14,0,0,0,224.5,23a108.67,108.67,0,0,0-18.93-11.28C203.29,10.68,193.26,6.1,184,4a123.88,123.88,0,0,0-15.69-2.83,134.3,134.3,0,0,0-14.45-.12,106.32,106.32,0,0,0-14.65,2.13c-2.48.57-5.79,1.24-9.95,2.38S121.22,7.9,117.1,9.31c-1.35.47-7.16,2.87-8.42,3.39s-3.53,1.43-5.24,2.11a78,78,0,0,1-9.5,2.8L7.93,6.5A1.79,1.79,0,0,0,6.54,7a1.71,1.71,0,0,0-.6,1.31l.59,355.38a1.74,1.74,0,0,0,1.56,1.75l269.84,34.82a1.71,1.71,0,0,0,1.94-1.3L370.65,55.33a1.79,1.79,0,0,0-.26-1.44" transform="translate(278.33 311.16)"/><path class="cls-1" d="M370.39,53.89a1.85,1.85,0,0,0-1.24-.76l-130-16.79c-2.51-2.86-4.65-5-5.9-6.17A110.14,110.14,0,0,0,224.5,23a108.67,108.67,0,0,0-18.93-11.28C203.29,10.68,193.26,6.1,184,4a123.88,123.88,0,0,0-15.69-2.83,134.3,134.3,0,0,0-14.45-.12,106.32,106.32,0,0,0-14.65,2.13c-2.48.57-5.79,1.24-9.95,2.38S121.22,7.9,117.1,9.31c-1.35.47-7.16,2.87-8.42,3.39s-3.53,1.43-5.24,2.11a78,78,0,0,1-9.5,2.8L7.93,6.5A1.79,1.79,0,0,0,6.54,7a1.71,1.71,0,0,0-.6,1.31l.59,355.38a1.74,1.74,0,0,0,1.56,1.75l269.84,34.82a1.71,1.71,0,0,0,1.94-1.3L370.65,55.33a1.79,1.79,0,0,0-.26-1.44" transform="translate(278.33 311.16)"/><path class="cls-1" d="M370.39,53.89a1.85,1.85,0,0,0-1.24-.76l-130-16.79c-2.51-2.86-4.65-5-5.9-6.17A110.14,110.14,0,0,0,224.5,23a108.67,108.67,0,0,0-18.93-11.28C203.29,10.68,193.26,6.1,184,4a123.88,123.88,0,0,0-15.69-2.83,134.3,134.3,0,0,0-14.45-.12,106.32,106.32,0,0,0-14.65,2.13c-2.48.57-5.79,1.24-9.95,2.38S121.22,7.9,117.1,9.31c-1.35.47-7.16,2.87-8.42,3.39s-3.53,1.43-5.24,2.11a78,78,0,0,1-9.5,2.8L7.93,6.5A1.79,1.79,0,0,0,6.54,7a1.71,1.71,0,0,0-.6,1.31l.59,355.38a1.74,1.74,0,0,0,1.56,1.75l269.84,34.82a1.71,1.71,0,0,0,1.94-1.3L370.65,55.33a1.79,1.79,0,0,0-.26-1.44" transform="translate(278.33 311.16)"/><path class="cls-1" d="M370.39,53.89a1.85,1.85,0,0,0-1.24-.76l-130-16.79c-2.51-2.86-4.65-5-5.9-6.17A110.14,110.14,0,0,0,224.5,23a108.67,108.67,0,0,0-18.93-11.28C203.29,10.68,193.26,6.1,184,4a123.88,123.88,0,0,0-15.69-2.83,134.3,134.3,0,0,0-14.45-.12,106.32,106.32,0,0,0-14.65,2.13c-2.48.57-5.79,1.24-9.95,2.38S121.22,7.9,117.1,9.31c-1.35.47-7.16,2.87-8.42,3.39s-3.53,1.43-5.24,2.11a78,78,0,0,1-9.5,2.8L7.93,6.5A1.79,1.79,0,0,0,6.54,7a1.71,1.71,0,0,0-.6,1.31l.59,355.38a1.74,1.74,0,0,0,1.56,1.75l269.84,34.82a1.71,1.71,0,0,0,1.94-1.3L370.65,55.33a1.79,1.79,0,0,0-.26-1.44" transform="translate(278.33 311.16)"/><path class="cls-1" d="M370.39,53.89a1.85,1.85,0,0,0-1.24-.76l-130-16.79c-2.51-2.86-4.65-5-5.9-6.17A110.14,110.14,0,0,0,224.5,23a108.67,108.67,0,0,0-18.93-11.28C203.29,10.68,193.26,6.1,184,4a123.88,123.88,0,0,0-15.69-2.83,134.3,134.3,0,0,0-14.45-.12,106.32,106.32,0,0,0-14.65,2.13c-2.48.57-5.79,1.24-9.95,2.38S121.22,7.9,117.1,9.31c-1.35.47-7.16,2.87-8.42,3.39s-3.53,1.43-5.24,2.11a78,78,0,0,1-9.5,2.8L7.93,6.5A1.79,1.79,0,0,0,6.54,7a1.71,1.71,0,0,0-.6,1.31l.59,355.38a1.74,1.74,0,0,0,1.56,1.75l269.84,34.82a1.71,1.71,0,0,0,1.94-1.3L370.65,55.33a1.79,1.79,0,0,0-.26-1.44" transform="translate(278.33 311.16)"/><path class="cls-1" d="M370.39,53.89a1.85,1.85,0,0,0-1.24-.76l-130-16.79c-2.51-2.86-4.65-5-5.9-6.17A110.14,110.14,0,0,0,224.5,23a108.67,108.67,0,0,0-18.93-11.28C203.29,10.68,193.26,6.1,184,4a123.88,123.88,0,0,0-15.69-2.83,134.3,134.3,0,0,0-14.45-.12,106.32,106.32,0,0,0-14.65,2.13c-2.48.57-5.79,1.24-9.95,2.38S121.22,7.9,117.1,9.31c-1.35.47-7.16,2.87-8.42,3.39s-3.53,1.43-5.24,2.11a78,78,0,0,1-9.5,2.8L7.93,6.5A1.79,1.79,0,0,0,6.54,7a1.71,1.71,0,0,0-.6,1.31l.59,355.38a1.74,1.74,0,0,0,1.56,1.75l269.84,34.82a1.71,1.71,0,0,0,1.94-1.3L370.65,55.33a1.79,1.79,0,0,0-.26-1.44" transform="translate(278.33 311.16)"/><path class="cls-1" d="M370.39,53.89a1.85,1.85,0,0,0-1.24-.76l-130-16.79c-2.51-2.86-4.65-5-5.9-6.17A110.14,110.14,0,0,0,224.5,23a108.67,108.67,0,0,0-18.93-11.28C203.29,10.68,193.26,6.1,184,4a123.88,123.88,0,0,0-15.69-2.83,134.3,134.3,0,0,0-14.45-.12,106.32,106.32,0,0,0-14.65,2.13c-2.48.57-5.79,1.24-9.95,2.38S121.22,7.9,117.1,9.31c-1.35.47-7.16,2.87-8.42,3.39s-3.53,1.43-5.24,2.11a78,78,0,0,1-9.5,2.8L7.93,6.5A1.79,1.79,0,0,0,6.54,7a1.71,1.71,0,0,0-.6,1.31l.59,355.38a1.74,1.74,0,0,0,1.56,1.75l269.84,34.82a1.71,1.71,0,0,0,1.94-1.3L370.65,55.33a1.79,1.79,0,0,0-.26-1.44" transform="translate(278.33 311.16)"/><path class="cls-1" d="M370.39,53.89a1.85,1.85,0,0,0-1.24-.76l-130-16.79c-2.51-2.86-4.65-5-5.9-6.17A110.14,110.14,0,0,0,224.5,23a108.67,108.67,0,0,0-18.93-11.28C203.29,10.68,193.26,6.1,184,4a123.88,123.88,0,0,0-15.69-2.83,134.3,134.3,0,0,0-14.45-.12,106.32,106.32,0,0,0-14.65,2.13c-2.48.57-5.79,1.24-9.95,2.38S121.22,7.9,117.1,9.31c-1.35.47-7.16,2.87-8.42,3.39s-3.53,1.43-5.24,2.11a78,78,0,0,1-9.5,2.8L7.93,6.5A1.79,1.79,0,0,0,6.54,7a1.71,1.71,0,0,0-.6,1.31l.59,355.38a1.74,1.74,0,0,0,1.56,1.75l269.84,34.82a1.71,1.71,0,0,0,1.94-1.3L370.65,55.33a1.79,1.79,0,0,0-.26-1.44" transform="translate(278.33 311.16)"/><path class="cls-1" d="M370.39,53.89a1.85,1.85,0,0,0-1.24-.76l-130-16.79c-2.51-2.86-4.65-5-5.9-6.17A110.14,110.14,0,0,0,224.5,23a108.67,108.67,0,0,0-18.93-11.28C203.29,10.68,193.26,6.1,184,4a123.88,123.88,0,0,0-15.69-2.83,134.3,134.3,0,0,0-14.45-.12,106.32,106.32,0,0,0-14.65,2.13c-2.48.57-5.79,1.24-9.95,2.38S121.22,7.9,117.1,9.31c-1.35.47-7.16,2.87-8.42,3.39s-3.53,1.43-5.24,2.11a78,78,0,0,1-9.5,2.8L7.93,6.5A1.79,1.79,0,0,0,6.54,7a1.71,1.71,0,0,0-.6,1.31l.59,355.38a1.74,1.74,0,0,0,1.56,1.75l269.84,34.82a1.71,1.71,0,0,0,1.94-1.3L370.65,55.33a1.79,1.79,0,0,0-.26-1.44" transform="translate(278.33 311.16)"/><path class="cls-1" d="M370.39,53.89a1.85,1.85,0,0,0-1.24-.76l-130-16.79c-2.51-2.86-4.65-5-5.9-6.17A110.14,110.14,0,0,0,224.5,23a108.67,108.67,0,0,0-18.93-11.28C203.29,10.68,193.26,6.1,184,4a123.88,123.88,0,0,0-15.69-2.83,134.3,134.3,0,0,0-14.45-.12,106.32,106.32,0,0,0-14.65,2.13c-2.48.57-5.79,1.24-9.95,2.38S121.22,7.9,117.1,9.31c-1.35.47-7.16,2.87-8.42,3.39s-3.53,1.43-5.24,2.11a78,78,0,0,1-9.5,2.8L7.93,6.5A1.79,1.79,0,0,0,6.54,7a1.71,1.71,0,0,0-.6,1.31l.59,355.38a1.74,1.74,0,0,0,1.56,1.75l269.84,34.82a1.71,1.71,0,0,0,1.94-1.3L370.65,55.33a1.79,1.79,0,0,0-.26-1.44" transform="translate(278.33 311.16)"/><path class="cls-1" d="M370.39,53.89a1.85,1.85,0,0,0-1.24-.76l-130-16.79c-2.51-2.86-4.65-5-5.9-6.17A110.14,110.14,0,0,0,224.5,23a108.67,108.67,0,0,0-18.93-11.28C203.29,10.68,193.26,6.1,184,4a123.88,123.88,0,0,0-15.69-2.83,134.3,134.3,0,0,0-14.45-.12,106.32,106.32,0,0,0-14.65,2.13c-2.48.57-5.79,1.24-9.95,2.38S121.22,7.9,117.1,9.31c-1.35.47-7.16,2.87-8.42,3.39s-3.53,1.43-5.24,2.11a78,78,0,0,1-9.5,2.8L7.93,6.5A1.79,1.79,0,0,0,6.54,7a1.71,1.71,0,0,0-.6,1.31l.59,355.38a1.74,1.74,0,0,0,1.56,1.75l269.84,34.82a1.71,1.71,0,0,0,1.94-1.3L370.65,55.33a1.79,1.79,0,0,0-.26-1.44" transform="translate(278.33 311.16)"/><path class="cls-1" d="M370.39,53.89a1.85,1.85,0,0,0-1.24-.76l-130-16.79c-2.51-2.86-4.65-5-5.9-6.17A110.14,110.14,0,0,0,224.5,23a108.67,108.67,0,0,0-18.93-11.28C203.29,10.68,193.26,6.1,184,4a123.88,123.88,0,0,0-15.69-2.83,134.3,134.3,0,0,0-14.45-.12,106.32,106.32,0,0,0-14.65,2.13c-2.48.57-5.79,1.24-9.95,2.38S121.22,7.9,117.1,9.31c-1.35.47-7.16,2.87-8.42,3.39s-3.53,1.43-5.24,2.11a78,78,0,0,1-9.5,2.8L7.93,6.5A1.79,1.79,0,0,0,6.54,7a1.71,1.71,0,0,0-.6,1.31l.59,355.38a1.74,1.74,0,0,0,1.56,1.75l269.84,34.82a1.71,1.71,0,0,0,1.94-1.3L370.65,55.33a1.79,1.79,0,0,0-.26-1.44" transform="translate(278.33 311.16)"/><path class="cls-1" d="M370.39,53.89a1.85,1.85,0,0,0-1.24-.76l-130-16.79c-2.51-2.86-4.65-5-5.9-6.17A110.14,110.14,0,0,0,224.5,23a108.67,108.67,0,0,0-18.93-11.28C203.29,10.68,193.26,6.1,184,4a123.88,123.88,0,0,0-15.69-2.83,134.3,134.3,0,0,0-14.45-.12,106.32,106.32,0,0,0-14.65,2.13c-2.48.57-5.79,1.24-9.95,2.38S121.22,7.9,117.1,9.31c-1.35.47-7.16,2.87-8.42,3.39s-3.53,1.43-5.24,2.11a78,78,0,0,1-9.5,2.8L7.93,6.5A1.79,1.79,0,0,0,6.54,7a1.71,1.71,0,0,0-.6,1.31l.59,355.38a1.74,1.74,0,0,0,1.56,1.75l269.84,34.82a1.71,1.71,0,0,0,1.94-1.3L370.65,55.33a1.79,1.79,0,0,0-.26-1.44" transform="translate(278.33 311.16)"/><path class="cls-1" d="M370.39,53.89a1.85,1.85,0,0,0-1.24-.76l-130-16.79c-2.51-2.86-4.65-5-5.9-6.17A110.14,110.14,0,0,0,224.5,23a108.67,108.67,0,0,0-18.93-11.28C203.29,10.68,193.26,6.1,184,4a123.88,123.88,0,0,0-15.69-2.83,134.3,134.3,0,0,0-14.45-.12,106.32,106.32,0,0,0-14.65,2.13c-2.48.57-5.79,1.24-9.95,2.38S121.22,7.9,117.1,9.31c-1.35.47-7.16,2.87-8.42,3.39s-3.53,1.43-5.24,2.11a78,78,0,0,1-9.5,2.8L7.93,6.5A1.79,1.79,0,0,0,6.54,7a1.71,1.71,0,0,0-.6,1.31l.59,355.38a1.74,1.74,0,0,0,1.56,1.75l269.84,34.82a1.71,1.71,0,0,0,1.94-1.3L370.65,55.33a1.79,1.79,0,0,0-.26-1.44" transform="translate(278.33 311.16)"/><path class="cls-1" d="M370.39,53.89a1.85,1.85,0,0,0-1.24-.76l-130-16.79c-2.51-2.86-4.65-5-5.9-6.17A110.14,110.14,0,0,0,224.5,23a108.67,108.67,0,0,0-18.93-11.28C203.29,10.68,193.26,6.1,184,4a123.88,123.88,0,0,0-15.69-2.83,134.3,134.3,0,0,0-14.45-.12,106.32,106.32,0,0,0-14.65,2.13c-2.48.57-5.79,1.24-9.95,2.38S121.22,7.9,117.1,9.31c-1.35.47-7.16,2.87-8.42,3.39s-3.53,1.43-5.24,2.11a78,78,0,0,1-9.5,2.8L7.93,6.5A1.79,1.79,0,0,0,6.54,7a1.71,1.71,0,0,0-.6,1.31l.59,355.38a1.74,1.74,0,0,0,1.56,1.75l269.84,34.82a1.71,1.71,0,0,0,1.94-1.3L370.65,55.33a1.79,1.79,0,0,0-.26-1.44" transform="translate(278.33 311.16)"/><path class="cls-1" d="M370.39,53.89a1.85,1.85,0,0,0-1.24-.76l-130-16.79c-2.51-2.86-4.65-5-5.9-6.17A110.14,110.14,0,0,0,224.5,23a108.67,108.67,0,0,0-18.93-11.28C203.29,10.68,193.26,6.1,184,4a123.88,123.88,0,0,0-15.69-2.83,134.3,134.3,0,0,0-14.45-.12,106.32,106.32,0,0,0-14.65,2.13c-2.48.57-5.79,1.24-9.95,2.38S121.22,7.9,117.1,9.31c-1.35.47-7.16,2.87-8.42,3.39s-3.53,1.43-5.24,2.11a78,78,0,0,1-9.5,2.8L7.93,6.5A1.79,1.79,0,0,0,6.54,7a1.71,1.71,0,0,0-.6,1.31l.59,355.38a1.74,1.74,0,0,0,1.56,1.75l269.84,34.82a1.71,1.71,0,0,0,1.94-1.3L370.65,55.33a1.79,1.79,0,0,0-.26-1.44" transform="translate(278.33 311.16)"/><path class="cls-1" d="M370.39,53.89a1.85,1.85,0,0,0-1.24-.76l-130-16.79c-2.51-2.86-4.65-5-5.9-6.17A110.14,110.14,0,0,0,224.5,23a108.67,108.67,0,0,0-18.93-11.28C203.29,10.68,193.26,6.1,184,4a123.88,123.88,0,0,0-15.69-2.83,134.3,134.3,0,0,0-14.45-.12,106.32,106.32,0,0,0-14.65,2.13c-2.48.57-5.79,1.24-9.95,2.38S121.22,7.9,117.1,9.31c-1.35.47-7.16,2.87-8.42,3.39s-3.53,1.43-5.24,2.11a78,78,0,0,1-9.5,2.8L7.93,6.5A1.79,1.79,0,0,0,6.54,7a1.71,1.71,0,0,0-.6,1.31l.59,355.38a1.74,1.74,0,0,0,1.56,1.75l269.84,34.82a1.71,1.71,0,0,0,1.94-1.3L370.65,55.33a1.79,1.79,0,0,0-.26-1.44" transform="translate(278.33 311.16)"/><path class="cls-1" d="M370.39,53.89a1.85,1.85,0,0,0-1.24-.76l-130-16.79c-2.51-2.86-4.65-5-5.9-6.17A110.14,110.14,0,0,0,224.5,23a108.67,108.67,0,0,0-18.93-11.28C203.29,10.68,193.26,6.1,184,4a123.88,123.88,0,0,0-15.69-2.83,134.3,134.3,0,0,0-14.45-.12,106.32,106.32,0,0,0-14.65,2.13c-2.48.57-5.79,1.24-9.95,2.38S121.22,7.9,117.1,9.31c-1.35.47-7.16,2.87-8.42,3.39s-3.53,1.43-5.24,2.11a78,78,0,0,1-9.5,2.8L7.93,6.5A1.79,1.79,0,0,0,6.54,7a1.71,1.71,0,0,0-.6,1.31l.59,355.38a1.74,1.74,0,0,0,1.56,1.75l269.84,34.82a1.71,1.71,0,0,0,1.94-1.3L370.65,55.33a1.79,1.79,0,0,0-.26-1.44" transform="translate(278.33 311.16)"/><path class="cls-1" d="M370.39,53.89a1.85,1.85,0,0,0-1.24-.76l-130-16.79c-2.51-2.86-4.65-5-5.9-6.17A110.14,110.14,0,0,0,224.5,23a108.67,108.67,0,0,0-18.93-11.28C203.29,10.68,193.26,6.1,184,4a123.88,123.88,0,0,0-15.69-2.83,134.3,134.3,0,0,0-14.45-.12,106.32,106.32,0,0,0-14.65,2.13c-2.48.57-5.79,1.24-9.95,2.38S121.22,7.9,117.1,9.31c-1.35.47-7.16,2.87-8.42,3.39s-3.53,1.43-5.24,2.11a78,78,0,0,1-9.5,2.8L7.93,6.5A1.79,1.79,0,0,0,6.54,7a1.71,1.71,0,0,0-.6,1.31l.59,355.38a1.74,1.74,0,0,0,1.56,1.75l269.84,34.82a1.71,1.71,0,0,0,1.94-1.3L370.65,55.33a1.79,1.79,0,0,0-.26-1.44" transform="translate(278.33 311.16)"/><path class="cls-1" d="M370.39,53.89a1.85,1.85,0,0,0-1.24-.76l-130-16.79c-2.51-2.86-4.65-5-5.9-6.17A110.14,110.14,0,0,0,224.5,23a108.67,108.67,0,0,0-18.93-11.28C203.29,10.68,193.26,6.1,184,4a123.88,123.88,0,0,0-15.69-2.83,134.3,134.3,0,0,0-14.45-.12,106.32,106.32,0,0,0-14.65,2.13c-2.48.57-5.79,1.24-9.95,2.38S121.22,7.9,117.1,9.31c-1.35.47-7.16,2.87-8.42,3.39s-3.53,1.43-5.24,2.11a78,78,0,0,1-9.5,2.8L7.93,6.5A1.79,1.79,0,0,0,6.54,7a1.71,1.71,0,0,0-.6,1.31l.59,355.38a1.74,1.74,0,0,0,1.56,1.75l269.84,34.82a1.71,1.71,0,0,0,1.94-1.3L370.65,55.33a1.79,1.79,0,0,0-.26-1.44" transform="translate(278.33 311.16)"/><path class="cls-1" d="M370.39,53.89a1.85,1.85,0,0,0-1.24-.76l-130-16.79c-2.51-2.86-4.65-5-5.9-6.17A110.14,110.14,0,0,0,224.5,23a108.67,108.67,0,0,0-18.93-11.28C203.29,10.68,193.26,6.1,184,4a123.88,123.88,0,0,0-15.69-2.83,134.3,134.3,0,0,0-14.45-.12,106.32,106.32,0,0,0-14.65,2.13c-2.48.57-5.79,1.24-9.95,2.38S121.22,7.9,117.1,9.31c-1.35.47-7.16,2.87-8.42,3.39s-3.53,1.43-5.24,2.11a78,78,0,0,1-9.5,2.8L7.93,6.5A1.79,1.79,0,0,0,6.54,7a1.71,1.71,0,0,0-.6,1.31l.59,355.38a1.74,1.74,0,0,0,1.56,1.75l269.84,34.82a1.71,1.71,0,0,0,1.94-1.3L370.65,55.33a1.79,1.79,0,0,0-.26-1.44" transform="translate(278.33 311.16)"/><path class="cls-1" d="M370.39,53.89a1.85,1.85,0,0,0-1.24-.76l-130-16.79c-2.51-2.86-4.65-5-5.9-6.17A110.14,110.14,0,0,0,224.5,23a108.67,108.67,0,0,0-18.93-11.28C203.29,10.68,193.26,6.1,184,4a123.88,123.88,0,0,0-15.69-2.83,134.3,134.3,0,0,0-14.45-.12,106.32,106.32,0,0,0-14.65,2.13c-2.48.57-5.79,1.24-9.95,2.38S121.22,7.9,117.1,9.31c-1.35.47-7.16,2.87-8.42,3.39s-3.53,1.43-5.24,2.11a78,78,0,0,1-9.5,2.8L7.93,6.5A1.79,1.79,0,0,0,6.54,7a1.71,1.71,0,0,0-.6,1.31l.59,355.38a1.74,1.74,0,0,0,1.56,1.75l269.84,34.82a1.71,1.71,0,0,0,1.94-1.3L370.65,55.33a1.79,1.79,0,0,0-.26-1.44" transform="translate(278.33 311.16)"/><path class="cls-1" d="M370.39,53.89a1.85,1.85,0,0,0-1.24-.76l-130-16.79c-2.51-2.86-4.65-5-5.9-6.17A110.14,110.14,0,0,0,224.5,23a108.67,108.67,0,0,0-18.93-11.28C203.29,10.68,193.26,6.1,184,4a123.88,123.88,0,0,0-15.69-2.83,134.3,134.3,0,0,0-14.45-.12,106.32,106.32,0,0,0-14.65,2.13c-2.48.57-5.79,1.24-9.95,2.38S121.22,7.9,117.1,9.31c-1.35.47-7.16,2.87-8.42,3.39s-3.53,1.43-5.24,2.11a78,78,0,0,1-9.5,2.8L7.93,6.5A1.79,1.79,0,0,0,6.54,7a1.71,1.71,0,0,0-.6,1.31l.59,355.38a1.74,1.74,0,0,0,1.56,1.75l269.84,34.82a1.71,1.71,0,0,0,1.94-1.3L370.65,55.33a1.79,1.79,0,0,0-.26-1.44" transform="translate(278.33 311.16)"/><path class="cls-1" d="M370.39,53.89a1.85,1.85,0,0,0-1.24-.76l-130-16.79c-2.51-2.86-4.65-5-5.9-6.17A110.14,110.14,0,0,0,224.5,23a108.67,108.67,0,0,0-18.93-11.28C203.29,10.68,193.26,6.1,184,4a123.88,123.88,0,0,0-15.69-2.83,134.3,134.3,0,0,0-14.45-.12,106.32,106.32,0,0,0-14.65,2.13c-2.48.57-5.79,1.24-9.95,2.38S121.22,7.9,117.1,9.31c-1.35.47-7.16,2.87-8.42,3.39s-3.53,1.43-5.24,2.11a78,78,0,0,1-9.5,2.8L7.93,6.5A1.79,1.79,0,0,0,6.54,7a1.71,1.71,0,0,0-.6,1.31l.59,355.38a1.74,1.74,0,0,0,1.56,1.75l269.84,34.82a1.71,1.71,0,0,0,1.94-1.3L370.65,55.33a1.79,1.79,0,0,0-.26-1.44" transform="translate(278.33 311.16)"/><path class="cls-1" d="M370.39,53.89a1.85,1.85,0,0,0-1.24-.76l-130-16.79c-2.51-2.86-4.65-5-5.9-6.17A110.14,110.14,0,0,0,224.5,23a108.67,108.67,0,0,0-18.93-11.28C203.29,10.68,193.26,6.1,184,4a123.88,123.88,0,0,0-15.69-2.83,134.3,134.3,0,0,0-14.45-.12,106.32,106.32,0,0,0-14.65,2.13c-2.48.57-5.79,1.24-9.95,2.38S121.22,7.9,117.1,9.31c-1.35.47-7.16,2.87-8.42,3.39s-3.53,1.43-5.24,2.11a78,78,0,0,1-9.5,2.8L7.93,6.5A1.79,1.79,0,0,0,6.54,7a1.71,1.71,0,0,0-.6,1.31l.59,355.38a1.74,1.74,0,0,0,1.56,1.75l269.84,34.82a1.71,1.71,0,0,0,1.94-1.3L370.65,55.33a1.79,1.79,0,0,0-.26-1.44" transform="translate(278.33 311.16)"/><path class="cls-1" d="M370.39,53.89a1.85,1.85,0,0,0-1.24-.76l-130-16.79c-2.51-2.86-4.65-5-5.9-6.17A110.14,110.14,0,0,0,224.5,23a108.67,108.67,0,0,0-18.93-11.28C203.29,10.68,193.26,6.1,184,4a123.88,123.88,0,0,0-15.69-2.83,134.3,134.3,0,0,0-14.45-.12,106.32,106.32,0,0,0-14.65,2.13c-2.48.57-5.79,1.24-9.95,2.38S121.22,7.9,117.1,9.31c-1.35.47-7.16,2.87-8.42,3.39s-3.53,1.43-5.24,2.11a78,78,0,0,1-9.5,2.8L7.93,6.5A1.79,1.79,0,0,0,6.54,7a1.71,1.71,0,0,0-.6,1.31l.59,355.38a1.74,1.74,0,0,0,1.56,1.75l269.84,34.82a1.71,1.71,0,0,0,1.94-1.3L370.65,55.33a1.79,1.79,0,0,0-.26-1.44" transform="translate(278.33 311.16)"/><path class="cls-1" d="M370.39,53.89a1.85,1.85,0,0,0-1.24-.76l-130-16.79c-2.51-2.86-4.65-5-5.9-6.17A110.14,110.14,0,0,0,224.5,23a108.67,108.67,0,0,0-18.93-11.28C203.29,10.68,193.26,6.1,184,4a123.88,123.88,0,0,0-15.69-2.83,134.3,134.3,0,0,0-14.45-.12,106.32,106.32,0,0,0-14.65,2.13c-2.48.57-5.79,1.24-9.95,2.38S121.22,7.9,117.1,9.31c-1.35.47-7.16,2.87-8.42,3.39s-3.53,1.43-5.24,2.11a78,78,0,0,1-9.5,2.8L7.93,6.5A1.79,1.79,0,0,0,6.54,7a1.71,1.71,0,0,0-.6,1.31l.59,355.38a1.74,1.74,0,0,0,1.56,1.75l269.84,34.82a1.71,1.71,0,0,0,1.94-1.3L370.65,55.33a1.79,1.79,0,0,0-.26-1.44" transform="translate(278.33 311.16)"/><path class="cls-1" d="M370.39,53.89a1.85,1.85,0,0,0-1.24-.76l-130-16.79c-2.51-2.86-4.65-5-5.9-6.17A110.14,110.14,0,0,0,224.5,23a108.67,108.67,0,0,0-18.93-11.28C203.29,10.68,193.26,6.1,184,4a123.88,123.88,0,0,0-15.69-2.83,134.3,134.3,0,0,0-14.45-.12,106.32,106.32,0,0,0-14.65,2.13c-2.48.57-5.79,1.24-9.95,2.38S121.22,7.9,117.1,9.31c-1.35.47-7.16,2.87-8.42,3.39s-3.53,1.43-5.24,2.11a78,78,0,0,1-9.5,2.8L7.93,6.5A1.79,1.79,0,0,0,6.54,7a1.71,1.71,0,0,0-.6,1.31l.59,355.38a1.74,1.74,0,0,0,1.56,1.75l269.84,34.82a1.71,1.71,0,0,0,1.94-1.3L370.65,55.33a1.79,1.79,0,0,0-.26-1.44" transform="translate(278.33 311.16)"/><path class="cls-1" d="M370.39,53.89a1.85,1.85,0,0,0-1.24-.76l-130-16.79c-2.51-2.86-4.65-5-5.9-6.17A110.14,110.14,0,0,0,224.5,23a108.67,108.67,0,0,0-18.93-11.28C203.29,10.68,193.26,6.1,184,4a123.88,123.88,0,0,0-15.69-2.83,134.3,134.3,0,0,0-14.45-.12,106.32,106.32,0,0,0-14.65,2.13c-2.48.57-5.79,1.24-9.95,2.38S121.22,7.9,117.1,9.31c-1.35.47-7.16,2.87-8.42,3.39s-3.53,1.43-5.24,2.11a78,78,0,0,1-9.5,2.8L7.93,6.5A1.79,1.79,0,0,0,6.54,7a1.71,1.71,0,0,0-.6,1.31l.59,355.38a1.74,1.74,0,0,0,1.56,1.75l269.84,34.82a1.71,1.71,0,0,0,1.94-1.3L370.65,55.33a1.79,1.79,0,0,0-.26-1.44" transform="translate(278.33 311.16)"/><path class="cls-1" d="M370.39,53.89a1.85,1.85,0,0,0-1.24-.76l-130-16.79c-2.51-2.86-4.65-5-5.9-6.17A110.14,110.14,0,0,0,224.5,23a108.67,108.67,0,0,0-18.93-11.28C203.29,10.68,193.26,6.1,184,4a123.88,123.88,0,0,0-15.69-2.83,134.3,134.3,0,0,0-14.45-.12,106.32,106.32,0,0,0-14.65,2.13c-2.48.57-5.79,1.24-9.95,2.38S121.22,7.9,117.1,9.31c-1.35.47-7.16,2.87-8.42,3.39s-3.53,1.43-5.24,2.11a78,78,0,0,1-9.5,2.8L7.93,6.5A1.79,1.79,0,0,0,6.54,7a1.71,1.71,0,0,0-.6,1.31l.59,355.38a1.74,1.74,0,0,0,1.56,1.75l269.84,34.82a1.71,1.71,0,0,0,1.94-1.3L370.65,55.33a1.79,1.79,0,0,0-.26-1.44" transform="translate(278.33 311.16)"/><path class="cls-1" d="M370.39,53.89a1.85,1.85,0,0,0-1.24-.76l-130-16.79c-2.51-2.86-4.65-5-5.9-6.17A110.14,110.14,0,0,0,224.5,23a108.67,108.67,0,0,0-18.93-11.28C203.29,10.68,193.26,6.1,184,4a123.88,123.88,0,0,0-15.69-2.83,134.3,134.3,0,0,0-14.45-.12,106.32,106.32,0,0,0-14.65,2.13c-2.48.57-5.79,1.24-9.95,2.38S121.22,7.9,117.1,9.31c-1.35.47-7.16,2.87-8.42,3.39s-3.53,1.43-5.24,2.11a78,78,0,0,1-9.5,2.8L7.93,6.5A1.79,1.79,0,0,0,6.54,7a1.71,1.71,0,0,0-.6,1.31l.59,355.38a1.74,1.74,0,0,0,1.56,1.75l269.84,34.82a1.71,1.71,0,0,0,1.94-1.3L370.65,55.33a1.79,1.79,0,0,0-.26-1.44" transform="translate(278.33 311.16)"/><path class="cls-1" d="M370.39,53.89a1.85,1.85,0,0,0-1.24-.76l-130-16.79c-2.51-2.86-4.65-5-5.9-6.17A110.14,110.14,0,0,0,224.5,23a108.67,108.67,0,0,0-18.93-11.28C203.29,10.68,193.26,6.1,184,4a123.88,123.88,0,0,0-15.69-2.83,134.3,134.3,0,0,0-14.45-.12,106.32,106.32,0,0,0-14.65,2.13c-2.48.57-5.79,1.24-9.95,2.38S121.22,7.9,117.1,9.31c-1.35.47-7.16,2.87-8.42,3.39s-3.53,1.43-5.24,2.11a78,78,0,0,1-9.5,2.8L7.93,6.5A1.79,1.79,0,0,0,6.54,7a1.71,1.71,0,0,0-.6,1.31l.59,355.38a1.74,1.74,0,0,0,1.56,1.75l269.84,34.82a1.71,1.71,0,0,0,1.94-1.3L370.65,55.33a1.79,1.79,0,0,0-.26-1.44" transform="translate(278.33 311.16)"/><path class="cls-1" d="M370.39,53.89a1.85,1.85,0,0,0-1.24-.76l-130-16.79c-2.51-2.86-4.65-5-5.9-6.17A110.14,110.14,0,0,0,224.5,23a108.67,108.67,0,0,0-18.93-11.28C203.29,10.68,193.26,6.1,184,4a123.88,123.88,0,0,0-15.69-2.83,134.3,134.3,0,0,0-14.45-.12,106.32,106.32,0,0,0-14.65,2.13c-2.48.57-5.79,1.24-9.95,2.38S121.22,7.9,117.1,9.31c-1.35.47-7.16,2.87-8.42,3.39s-3.53,1.43-5.24,2.11a78,78,0,0,1-9.5,2.8L7.93,6.5A1.79,1.79,0,0,0,6.54,7a1.71,1.71,0,0,0-.6,1.31l.59,355.38a1.74,1.74,0,0,0,1.56,1.75l269.84,34.82a1.71,1.71,0,0,0,1.94-1.3L370.65,55.33a1.79,1.79,0,0,0-.26-1.44" transform="translate(278.33 311.16)"/><path class="cls-1" d="M370.39,53.89a1.85,1.85,0,0,0-1.24-.76l-130-16.79c-2.51-2.86-4.65-5-5.9-6.17A110.14,110.14,0,0,0,224.5,23a108.67,108.67,0,0,0-18.93-11.28C203.29,10.68,193.26,6.1,184,4a123.88,123.88,0,0,0-15.69-2.83,134.3,134.3,0,0,0-14.45-.12,106.32,106.32,0,0,0-14.65,2.13c-2.48.57-5.79,1.24-9.95,2.38S121.22,7.9,117.1,9.31c-1.35.47-7.16,2.87-8.42,3.39s-3.53,1.43-5.24,2.11a78,78,0,0,1-9.5,2.8L7.93,6.5A1.79,1.79,0,0,0,6.54,7a1.71,1.71,0,0,0-.6,1.31l.59,355.38a1.74,1.74,0,0,0,1.56,1.75l269.84,34.82a1.71,1.71,0,0,0,1.94-1.3L370.65,55.33a1.79,1.79,0,0,0-.26-1.44" transform="translate(278.33 311.16)"/><path class="cls-1" d="M370.39,53.89a1.85,1.85,0,0,0-1.24-.76l-130-16.79c-2.51-2.86-4.65-5-5.9-6.17A110.14,110.14,0,0,0,224.5,23a108.67,108.67,0,0,0-18.93-11.28C203.29,10.68,193.26,6.1,184,4a123.88,123.88,0,0,0-15.69-2.83,134.3,134.3,0,0,0-14.45-.12,106.32,106.32,0,0,0-14.65,2.13c-2.48.57-5.79,1.24-9.95,2.38S121.22,7.9,117.1,9.31c-1.35.47-7.16,2.87-8.42,3.39s-3.53,1.43-5.24,2.11a78,78,0,0,1-9.5,2.8L7.93,6.5A1.79,1.79,0,0,0,6.54,7a1.71,1.71,0,0,0-.6,1.31l.59,355.38a1.74,1.74,0,0,0,1.56,1.75l269.84,34.82a1.71,1.71,0,0,0,1.94-1.3L370.65,55.33a1.79,1.79,0,0,0-.26-1.44" transform="translate(278.33 311.16)"/><path class="cls-1" d="M370.39,53.89a1.85,1.85,0,0,0-1.24-.76l-130-16.79c-2.51-2.86-4.65-5-5.9-6.17A110.14,110.14,0,0,0,224.5,23a108.67,108.67,0,0,0-18.93-11.28C203.29,10.68,193.26,6.1,184,4a123.88,123.88,0,0,0-15.69-2.83,134.3,134.3,0,0,0-14.45-.12,106.32,106.32,0,0,0-14.65,2.13c-2.48.57-5.79,1.24-9.95,2.38S121.22,7.9,117.1,9.31c-1.35.47-7.16,2.87-8.42,3.39s-3.53,1.43-5.24,2.11a78,78,0,0,1-9.5,2.8L7.93,6.5A1.79,1.79,0,0,0,6.54,7a1.71,1.71,0,0,0-.6,1.31l.59,355.38a1.74,1.74,0,0,0,1.56,1.75l269.84,34.82a1.71,1.71,0,0,0,1.94-1.3L370.65,55.33a1.79,1.79,0,0,0-.26-1.44" transform="translate(278.33 311.16)"/><path class="cls-1" d="M370.39,53.89a1.85,1.85,0,0,0-1.24-.76l-130-16.79c-2.51-2.86-4.65-5-5.9-6.17A110.14,110.14,0,0,0,224.5,23a108.67,108.67,0,0,0-18.93-11.28C203.29,10.68,193.26,6.1,184,4a123.88,123.88,0,0,0-15.69-2.83,134.3,134.3,0,0,0-14.45-.12,106.32,106.32,0,0,0-14.65,2.13c-2.48.57-5.79,1.24-9.95,2.38S121.22,7.9,117.1,9.31c-1.35.47-7.16,2.87-8.42,3.39s-3.53,1.43-5.24,2.11a78,78,0,0,1-9.5,2.8L7.93,6.5A1.79,1.79,0,0,0,6.54,7a1.71,1.71,0,0,0-.6,1.31l.59,355.38a1.74,1.74,0,0,0,1.56,1.75l269.84,34.82a1.71,1.71,0,0,0,1.94-1.3L370.65,55.33a1.79,1.79,0,0,0-.26-1.44" transform="translate(278.33 311.16)"/><path class="cls-1" d="M370.39,53.89a1.85,1.85,0,0,0-1.24-.76l-130-16.79c-2.51-2.86-4.65-5-5.9-6.17A110.14,110.14,0,0,0,224.5,23a108.67,108.67,0,0,0-18.93-11.28C203.29,10.68,193.26,6.1,184,4a123.88,123.88,0,0,0-15.69-2.83,134.3,134.3,0,0,0-14.45-.12,106.32,106.32,0,0,0-14.65,2.13c-2.48.57-5.79,1.24-9.95,2.38S121.22,7.9,117.1,9.31c-1.35.47-7.16,2.87-8.42,3.39s-3.53,1.43-5.24,2.11a78,78,0,0,1-9.5,2.8L7.93,6.5A1.79,1.79,0,0,0,6.54,7a1.71,1.71,0,0,0-.6,1.31l.59,355.38a1.74,1.74,0,0,0,1.56,1.75l269.84,34.82a1.71,1.71,0,0,0,1.94-1.3L370.65,55.33a1.79,1.79,0,0,0-.26-1.44" transform="translate(278.33 311.16)"/><path class="cls-1" d="M370.39,53.89a1.85,1.85,0,0,0-1.24-.76l-130-16.79c-2.51-2.86-4.65-5-5.9-6.17A110.14,110.14,0,0,0,224.5,23a108.67,108.67,0,0,0-18.93-11.28C203.29,10.68,193.26,6.1,184,4a123.88,123.88,0,0,0-15.69-2.83,134.3,134.3,0,0,0-14.45-.12,106.32,106.32,0,0,0-14.65,2.13c-2.48.57-5.79,1.24-9.95,2.38S121.22,7.9,117.1,9.31c-1.35.47-7.16,2.87-8.42,3.39s-3.53,1.43-5.24,2.11a78,78,0,0,1-9.5,2.8L7.93,6.5A1.79,1.79,0,0,0,6.54,7a1.71,1.71,0,0,0-.6,1.31l.59,355.38a1.74,1.74,0,0,0,1.56,1.75l269.84,34.82a1.71,1.71,0,0,0,1.94-1.3L370.65,55.33a1.79,1.79,0,0,0-.26-1.44" transform="translate(278.33 311.16)"/><path class="cls-1" d="M370.39,53.89a1.85,1.85,0,0,0-1.24-.76l-130-16.79c-2.51-2.86-4.65-5-5.9-6.17A110.14,110.14,0,0,0,224.5,23a108.67,108.67,0,0,0-18.93-11.28C203.29,10.68,193.26,6.1,184,4a123.88,123.88,0,0,0-15.69-2.83,134.3,134.3,0,0,0-14.45-.12,106.32,106.32,0,0,0-14.65,2.13c-2.48.57-5.79,1.24-9.95,2.38S121.22,7.9,117.1,9.31c-1.35.47-7.16,2.87-8.42,3.39s-3.53,1.43-5.24,2.11a78,78,0,0,1-9.5,2.8L7.93,6.5A1.79,1.79,0,0,0,6.54,7a1.71,1.71,0,0,0-.6,1.31l.59,355.38a1.74,1.74,0,0,0,1.56,1.75l269.84,34.82a1.71,1.71,0,0,0,1.94-1.3L370.65,55.33a1.79,1.79,0,0,0-.26-1.44" transform="translate(278.33 311.16)"/><path class="cls-1" d="M370.39,53.89a1.85,1.85,0,0,0-1.24-.76l-130-16.79c-2.51-2.86-4.65-5-5.9-6.17A110.14,110.14,0,0,0,224.5,23a108.67,108.67,0,0,0-18.93-11.28C203.29,10.68,193.26,6.1,184,4a123.88,123.88,0,0,0-15.69-2.83,134.3,134.3,0,0,0-14.45-.12,106.32,106.32,0,0,0-14.65,2.13c-2.48.57-5.79,1.24-9.95,2.38S121.22,7.9,117.1,9.31c-1.35.47-7.16,2.87-8.42,3.39s-3.53,1.43-5.24,2.11a78,78,0,0,1-9.5,2.8L7.93,6.5A1.79,1.79,0,0,0,6.54,7a1.71,1.71,0,0,0-.6,1.31l.59,355.38a1.74,1.74,0,0,0,1.56,1.75l269.84,34.82a1.71,1.71,0,0,0,1.94-1.3L370.65,55.33a1.79,1.79,0,0,0-.26-1.44" transform="translate(278.33 311.16)"/><path class="cls-1" d="M370.39,53.89a1.85,1.85,0,0,0-1.24-.76l-130-16.79c-2.51-2.86-4.65-5-5.9-6.17A110.14,110.14,0,0,0,224.5,23a108.67,108.67,0,0,0-18.93-11.28C203.29,10.68,193.26,6.1,184,4a123.88,123.88,0,0,0-15.69-2.83,134.3,134.3,0,0,0-14.45-.12,106.32,106.32,0,0,0-14.65,2.13c-2.48.57-5.79,1.24-9.95,2.38S121.22,7.9,117.1,9.31c-1.35.47-7.16,2.87-8.42,3.39s-3.53,1.43-5.24,2.11a78,78,0,0,1-9.5,2.8L7.93,6.5A1.79,1.79,0,0,0,6.54,7a1.71,1.71,0,0,0-.6,1.31l.59,355.38a1.74,1.74,0,0,0,1.56,1.75l269.84,34.82a1.71,1.71,0,0,0,1.94-1.3L370.65,55.33a1.79,1.79,0,0,0-.26-1.44" transform="translate(278.33 311.16)"/><path class="cls-1" d="M370.39,53.89a1.85,1.85,0,0,0-1.24-.76l-130-16.79c-2.51-2.86-4.65-5-5.9-6.17A110.14,110.14,0,0,0,224.5,23a108.67,108.67,0,0,0-18.93-11.28C203.29,10.68,193.26,6.1,184,4a123.88,123.88,0,0,0-15.69-2.83,134.3,134.3,0,0,0-14.45-.12,106.32,106.32,0,0,0-14.65,2.13c-2.48.57-5.79,1.24-9.95,2.38S121.22,7.9,117.1,9.31c-1.35.47-7.16,2.87-8.42,3.39s-3.53,1.43-5.24,2.11a78,78,0,0,1-9.5,2.8L7.93,6.5A1.79,1.79,0,0,0,6.54,7a1.71,1.71,0,0,0-.6,1.31l.59,355.38a1.74,1.74,0,0,0,1.56,1.75l269.84,34.82a1.71,1.71,0,0,0,1.94-1.3L370.65,55.33a1.79,1.79,0,0,0-.26-1.44" transform="translate(278.33 311.16)"/><path class="cls-1" d="M370.39,53.89a1.85,1.85,0,0,0-1.24-.76l-130-16.79c-2.51-2.86-4.65-5-5.9-6.17A110.14,110.14,0,0,0,224.5,23a108.67,108.67,0,0,0-18.93-11.28C203.29,10.68,193.26,6.1,184,4a123.88,123.88,0,0,0-15.69-2.83,134.3,134.3,0,0,0-14.45-.12,106.32,106.32,0,0,0-14.65,2.13c-2.48.57-5.79,1.24-9.95,2.38S121.22,7.9,117.1,9.31c-1.35.47-7.16,2.87-8.42,3.39s-3.53,1.43-5.24,2.11a78,78,0,0,1-9.5,2.8L7.93,6.5A1.79,1.79,0,0,0,6.54,7a1.71,1.71,0,0,0-.6,1.31l.59,355.38a1.74,1.74,0,0,0,1.56,1.75l269.84,34.82a1.71,1.71,0,0,0,1.94-1.3L370.65,55.33a1.79,1.79,0,0,0-.26-1.44" transform="translate(278.33 311.16)"/><path class="cls-1" d="M370.39,53.89a1.85,1.85,0,0,0-1.24-.76l-130-16.79c-2.51-2.86-4.65-5-5.9-6.17A110.14,110.14,0,0,0,224.5,23a108.67,108.67,0,0,0-18.93-11.28C203.29,10.68,193.26,6.1,184,4a123.88,123.88,0,0,0-15.69-2.83,134.3,134.3,0,0,0-14.45-.12,106.32,106.32,0,0,0-14.65,2.13c-2.48.57-5.79,1.24-9.95,2.38S121.22,7.9,117.1,9.31c-1.35.47-7.16,2.87-8.42,3.39s-3.53,1.43-5.24,2.11a78,78,0,0,1-9.5,2.8L7.93,6.5A1.79,1.79,0,0,0,6.54,7a1.71,1.71,0,0,0-.6,1.31l.59,355.38a1.74,1.74,0,0,0,1.56,1.75l269.84,34.82a1.71,1.71,0,0,0,1.94-1.3L370.65,55.33a1.79,1.79,0,0,0-.26-1.44" transform="translate(278.33 311.16)"/><path class="cls-1" d="M370.39,53.89a1.85,1.85,0,0,0-1.24-.76l-130-16.79c-2.51-2.86-4.65-5-5.9-6.17A110.14,110.14,0,0,0,224.5,23a108.67,108.67,0,0,0-18.93-11.28C203.29,10.68,193.26,6.1,184,4a123.88,123.88,0,0,0-15.69-2.83,134.3,134.3,0,0,0-14.45-.12,106.32,106.32,0,0,0-14.65,2.13c-2.48.57-5.79,1.24-9.95,2.38S121.22,7.9,117.1,9.31c-1.35.47-7.16,2.87-8.42,3.39s-3.53,1.43-5.24,2.11a78,78,0,0,1-9.5,2.8L7.93,6.5A1.79,1.79,0,0,0,6.54,7a1.71,1.71,0,0,0-.6,1.31l.59,355.38a1.74,1.74,0,0,0,1.56,1.75l269.84,34.82a1.71,1.71,0,0,0,1.94-1.3L370.65,55.33a1.79,1.79,0,0,0-.26-1.44" transform="translate(278.33 311.16)"/><path class="cls-1" d="M370.39,53.89a1.85,1.85,0,0,0-1.24-.76l-130-16.79c-2.51-2.86-4.65-5-5.9-6.17A110.14,110.14,0,0,0,224.5,23a108.67,108.67,0,0,0-18.93-11.28C203.29,10.68,193.26,6.1,184,4a123.88,123.88,0,0,0-15.69-2.83,134.3,134.3,0,0,0-14.45-.12,106.32,106.32,0,0,0-14.65,2.13c-2.48.57-5.79,1.24-9.95,2.38S121.22,7.9,117.1,9.31c-1.35.47-7.16,2.87-8.42,3.39s-3.53,1.43-5.24,2.11a78,78,0,0,1-9.5,2.8L7.93,6.5A1.79,1.79,0,0,0,6.54,7a1.71,1.71,0,0,0-.6,1.31l.59,355.38a1.74,1.74,0,0,0,1.56,1.75l269.84,34.82a1.71,1.71,0,0,0,1.94-1.3L370.65,55.33a1.79,1.79,0,0,0-.26-1.44" transform="translate(278.33 311.16)"/><path class="cls-1" d="M370.39,53.89a1.85,1.85,0,0,0-1.24-.76l-130-16.79c-2.51-2.86-4.65-5-5.9-6.17A110.14,110.14,0,0,0,224.5,23a108.67,108.67,0,0,0-18.93-11.28C203.29,10.68,193.26,6.1,184,4a123.88,123.88,0,0,0-15.69-2.83,134.3,134.3,0,0,0-14.45-.12,106.32,106.32,0,0,0-14.65,2.13c-2.48.57-5.79,1.24-9.95,2.38S121.22,7.9,117.1,9.31c-1.35.47-7.16,2.87-8.42,3.39s-3.53,1.43-5.24,2.11a78,78,0,0,1-9.5,2.8L7.93,6.5A1.79,1.79,0,0,0,6.54,7a1.71,1.71,0,0,0-.6,1.31l.59,355.38a1.74,1.74,0,0,0,1.56,1.75l269.84,34.82a1.71,1.71,0,0,0,1.94-1.3L370.65,55.33a1.79,1.79,0,0,0-.26-1.44" transform="translate(278.33 311.16)"/><path class="cls-1" d="M370.39,53.89a1.85,1.85,0,0,0-1.24-.76l-130-16.79c-2.51-2.86-4.65-5-5.9-6.17A110.14,110.14,0,0,0,224.5,23a108.67,108.67,0,0,0-18.93-11.28C203.29,10.68,193.26,6.1,184,4a123.88,123.88,0,0,0-15.69-2.83,134.3,134.3,0,0,0-14.45-.12,106.32,106.32,0,0,0-14.65,2.13c-2.48.57-5.79,1.24-9.95,2.38S121.22,7.9,117.1,9.31c-1.35.47-7.16,2.87-8.42,3.39s-3.53,1.43-5.24,2.11a78,78,0,0,1-9.5,2.8L7.93,6.5A1.79,1.79,0,0,0,6.54,7a1.71,1.71,0,0,0-.6,1.31l.59,355.38a1.74,1.74,0,0,0,1.56,1.75l269.84,34.82a1.71,1.71,0,0,0,1.94-1.3L370.65,55.33a1.79,1.79,0,0,0-.26-1.44" transform="translate(278.33 311.16)"/><path class="cls-1" d="M370.39,53.89a1.85,1.85,0,0,0-1.24-.76l-130-16.79c-2.51-2.86-4.65-5-5.9-6.17A110.14,110.14,0,0,0,224.5,23a108.67,108.67,0,0,0-18.93-11.28C203.29,10.68,193.26,6.1,184,4a123.88,123.88,0,0,0-15.69-2.83,134.3,134.3,0,0,0-14.45-.12,106.32,106.32,0,0,0-14.65,2.13c-2.48.57-5.79,1.24-9.95,2.38S121.22,7.9,117.1,9.31c-1.35.47-7.16,2.87-8.42,3.39s-3.53,1.43-5.24,2.11a78,78,0,0,1-9.5,2.8L7.93,6.5A1.79,1.79,0,0,0,6.54,7a1.71,1.71,0,0,0-.6,1.31l.59,355.38a1.74,1.74,0,0,0,1.56,1.75l269.84,34.82a1.71,1.71,0,0,0,1.94-1.3L370.65,55.33a1.79,1.79,0,0,0-.26-1.44" transform="translate(278.33 311.16)"/><path class="cls-4" d="M126.49,15.64c7.5-2.85,20.81-5.15,27-5.67,8.1-.69,9.09-.66,14.37-.25a89.2,89.2,0,0,1,10.63,1.54c15.56,2.68,32.88,10.28,45.6,21.33,12,11.55,28.91,30.36,27.32,71a36.27,36.27,0,0,1-1.22,8.75c-.34,1.19-2,3.21-2.86.53a248.73,248.73,0,0,0-13.06-31.7c-.89-1.86-2.19-1.31-2,.49.07.76.82,11.94.7,13.47s-1.33,5.15,3.38,12.74c1.93,3.14,3.65,5.79,4.12,10.08a57.62,57.62,0,0,1,.57,6.52c0,.46.3,1.75-1.71,1.49s-9.48-1.81-12.72-2.16-25.95-1.17-34.52-.53-13.33,2.18-18.19,6.11a12.59,12.59,0,0,1-3.09,1.8,20.1,20.1,0,0,1-3.52-.55,20,20,0,0,0-7.86.22c-2.06.58-3.55,1.21-5.75-.05-3.15-1.78-8.07-8.71-23-10-13.94-1.18-17.35-1.41-32.88-.45a2,2,0,0,1-2.36-2.13,25.45,25.45,0,0,1,.17-5.22,5.32,5.32,0,0,1,1.29-2.65,24.26,24.26,0,0,1,3.51-2.44c1.71-1,1.83-4.35,2.17-6.19,1.08-5.41,2.88-22.62,16.22-37.56,6.81-7.62,13.6-7.38,20.68-7.62a44.59,44.59,0,0,1,18.2,3.64c3,1.43,4.53,2.39,5.72,1.55s4.38-3.61,5.68-4.57.82-2.46-.43-3.44-12.86-12.18-30.24-14.94c-17-2.69-31.65,1.5-35.48,2.26a5.15,5.15,0,0,1-1.61.2c-.43-.08-1.86-.78-1.15-1.77a18.92,18.92,0,0,1,4.27-3.87c1.85-1.24,10.91-7.75,19.35-10.22,1.55-.46,2-.67,3-.91,1.26-.3,2.35-2.92-.3-3.28a27,27,0,0,0-5.35-.2c-1.46.06-2.17-.72-1.11-1.8s3-2.28,6.48-3.6" transform="translate(278.33 311.16)"/><g class="cls-5"><path class="cls-4" d="M75.78,136.56c1-.29,2.29-.83,3-1.06s2.33-.41,2.26,1.91-.26,5.09,1.47,12.27a20.9,20.9,0,0,1,.43,2.19,1.55,1.55,0,0,1-2.49,1.35c-1-.89-4.44-7.2-5.65-13.86-.14-.71-.18-2.47,1-2.8" transform="translate(278.33 311.16)"/><polyline class="cls-1" points="0 0 0 9180 11880 9180 11880 0"/><polyline class="cls-1" points="0 0 0 9180 11880 9180 11880 0"/><polyline class="cls-1" points="0 0 0 9180 11880 9180 11880 0"/><polyline class="cls-1" points="0 0 0 9180 11880 9180 11880 0"/><polyline class="cls-1" points="0 0 0 9180 11880 9180 11880 0"/><polyline class="cls-1" points="0 0 0 9180 11880 9180 11880 0"/><polygon class="cls-3" points="548.85 579.57 582.05 706.11 588.08 726.69 599.19 791.82 294.32 753.15 343.26 594.86 533.28 571.2 548.85 579.57"/><path class="cls-2" d="M411.24,370.27c-.29-.61-25.69-39.72-29.49-45-6.39-8.45-8.15-12.69-16.59-22a95.84,95.84,0,0,0-11.52-10.42c-5.54-3.95,3.17-4.82-2.1-6.8a329.14,329.14,0,0,0-39.3-11.38c-19.28-4.39-35-8.06-37.2-8.6-2-.44-2.46-2.39-4.18-3.56-6.18-4.18-18.25-9-25.7-12.74-.23-.11-.39-.4-.59-.53H90.79c-1.71,3.89-3.78,8.9-5.73,14.09-.69,1.83-1.66,4.22-4.16,5.07s-8.19,3-10.25,3.83A13.51,13.51,0,0,0,65,276c-1.16,1.1-2,1.7-2.71,2.38-.41.39-.61.64-2.63,1.4-1.72.61-27,5.86-54.65,18.06-3.47,1.56-5.9,2.2-10.1,3.75-3.51,1.29-6.66,2.41-10.45,3.57-5.94,1.57-21.7,6.81-26.73,8.58A57.52,57.52,0,0,0-57.22,322c-2.19,1.92-3.18,2.08-8.27,8.76-3.69,4.69-5.4,9.57-5.42,11.49,1.37,1.15,9.95-10.15,14.65-14,5.41-4.54,16.63-8.79,20.25-9.92s9.77-2.39,13.84-3.63c0,0,9.87-2.41,11.65-3L4,307.21s22.91-8,25.82-9a14.11,14.11,0,0,1,8.13,0c2,.83,6.83,2.48,8.39,3.26s2,3.9.75,6.6S30,347.52,25.81,360C19.45,379.15.69,398.08.69,398.08s-8.12,33.53-10,42.16l23,2.89c1.5-10.58,28.57-69,28.57-69s4.88-18.65,7.47-28,14.93-43.63,18.17-51.37c2.32-5.64,3.49-8.19,5.67-8.82.67-.2,1.41-.53,1.86-.65s1.33-.22.85,1.28c-.55,1.79-3.12,9.06-8.71,33.06a277.66,277.66,0,0,0-6.54,40.63c-.26,3.86-.92,9.25,5.25,7.69,7.2-1.81,31.63-7,44.6-9.19,20.86-3.54,59.56-6.75,96.46-7.26,0,0-.44,35.13-.33,40.54l-.33,16.7c0,6.23.48,12.69.54,18.58,0,6.22,0,8.1.13,14.49,0,11.16-.19,19.43.06,23.21l13.34,1.63c-.17-6.65-.44-25.12-1.12-44.29-.19-5.69-.2-11-.41-16.89-.17-2.72.31-3.07.21-5.68l-.27-6.55c-.2-6.21-1.48-41.8-1.48-41.8,1.48,0,2.9,0,4.34,0,3.27,0,6.4,0,9.3.06.59,7.31,1.13,19.33,2.49,36.49l.46,14.51c0,1,.11,9.74.11,13.47,0,3.21.33,10.88.32,13.87-.06,15.65-.57,33.14-.23,38.51l12.6,1.59c.21-3.29.29-15.58,0-27.51-.05-2.07,0-4.77.09-7.32-.15-4.64-.17-10.18-.47-17.28l-.84-21.25c-.56-10.4-3.76-45-3.76-45,5.06.05,9.34.05,13,.05,0,0,3,37.05,3.85,46.32l.43,9.1c.56,8.05,1.56,16.49,1.8,24.18.13,3.92.33,7.77.52,11.45.47,10.69.92,22.14,1,29.24l12.2,1.53c.22-9.19-.23-26.51-1.22-42.11-.31-5-.59-8.7-1-13.8-.2-2.52-.29-7.53-.74-13.11l-.6-5.26c-2.27-17.16-5.27-47.47-5.27-47.47,3.26,0,7.41.08,8.61.17,2.55.22,3.87-1.07,2-1.9a33,33,0,0,0-6.19-1.64c-.6-.1-1.76-.22-2.43-.33-2.49-.37-3.16-1-3.19-4.75-.13-11.06-2.58-38.71-5-53.45-2.38-14.21-2.9-18.32-3.51-21.45-.53-2.68,1.21-2.59,2-2.46,3,.54,7.06,2.71,7.91,5.46,1.93,6.18,13.88,56.82,18.83,75.73,4.57,17.29,10,39.63,14.89,55.09l2.17,8.56c1,4.92,2.16,8.66,2.65,11.49,1,5.77,2.44,13.43,3.31,18.53,2.8,16.36,4.51,34.24,4.51,34.24a11.65,11.65,0,0,0,.54,3.56l13.18,1.29a302,302,0,0,0-3.94-35.24c-.24-1.36-.67-4.83-.91-6.42-.73-4.1-1.4-6.69-2.39-11.75s-2-10.86-2.59-12.67c-2.88-9.7-4.85-17.4-7.2-24.2-2.21-6.35-22.9-76.84-32.85-108.66-.29-.92-.66-2.41-.83-3.25-.43-2.29,2.12-2.25,3.22-2,3.91.89,39.49,8.06,49.16,10.31a189.06,189.06,0,0,1,21.46,6.27c3.09,1.23-5.17,2.56-.2,5.91,18.4,12.28,52.3,67.57,58.28,73.87C411.75,376.33,412.89,373.11,411.24,370.27Z" transform="translate(278.33 311.16)"/><path class="cls-4" d="M134.74,344.31c-6.52.18-34.29,1.23-46.56,2-7.51.49-6.31-3.12-7.27-10-.39-2.88.19-28,3.68-43.29,1.16-5.09,1.59-6.59,2.6-7a23,23,0,0,1,3-1.26c.45-.05,1.75-.23,2.19.94s8.23,24.18,14.14,32.95c5.27,7.83,8.94,13.51,13.68,17.59,2.72,2.35,3.15-1,1.82-2.92a127.82,127.82,0,0,1-10.19-16.7c-6.58-12.64-9.81-30.39-10.57-36s.13-16,1.89-19.48,2.72-2.89,3.68-1.53,9.82,11.87,25.48,21.53c3.29,2.06,5.31,3.09,5.71,3.65s1,1.75-.5,1.9-6-.27-10.9.93-4.23,3-4.33,5.81c-.1,2.56.1,4.42,0,7.81s-.76,6.48.7,8.12,3.62,2.77,9.75,2.42c5.84-.35,7.79-.58,8.46-.54s2.31,0,1.08,1.76-5.79,7.26-7.5,11a41.75,41.75,0,0,0-2.28,5.37c-.21.65.09,2,1.46.71s4.41-6.28,11.19-12.32,9.66-7.14,11.55-7.76,2.06.52,1.21,3.09c-.64,1.9-3.09,8.23-10.74,20.92-3.24,5.42-5.93,10-9,10.2-1.24.09-2.58.13-3.35.14" transform="translate(278.33 311.16)"/><path class="cls-4" d="M249.82,346.2c-.58,0-1.48,0-2.1,0-11.18-.53-39.62-1.49-62-1.64-.39,0-.77,0-1.17,0-1.59,0-2.47-.36-2.38-1.9s-.47-18.3-7.49-31.82c-.67-1.26.67-2,1.74-1.44,3.06,1.62,11.35,6.84,22.77,17.52a57.35,57.35,0,0,1,4.29,4.29c.66.74,2.64,1.2,2.25-.58-.5-2.33-4.13-7.25-13.6-18.71-1.34-1.62-1.3-2.22.32-2.16s5.94.82,8.25,1,7.5.75,7.38-6.1c-.07-5.34,0-10.82.17-12.42s.24-4.73-3.45-5.67-10.12-.86-16,.33c-1.63.34-2.08-.46-.79-1.35s12.06-6,21.8-14.54c10.68-9.46,15.8-16.77,19.09-23.58.57-1.18,1.05-.71,1.55-.35s3.56,3.65,3.85,10.74,1.41,17-6.2,41.72a148,148,0,0,1-9,23.2c-.9,1.82.06,3.06,1.57,1.5,3.54-3.66,9-14.42,14.06-26.92a179.22,179.22,0,0,0,9.79-33.79c.46-2.42,1.71-1.62,2.27-1.29s3.4,1.56,4,8.79,2.61,22.57,3.26,69.22c.1,5.79-.65,5.73-4.18,6" transform="translate(278.33 311.16)"/><path class="cls-4" d="M164.41,333.21c.17,1.14.71,6.64.71,8.71,0,.35,0,2-1.58,2.19-1,.1-5.1.15-5.71.09s-1.08-.72-.77-1.15a30.12,30.12,0,0,0,6-9.77c.38-1,1.11-1.61,1.35-.07" transform="translate(278.33 311.16)"/><path class="cls-4" d="M72.76,126.85c-1.21-3.43-1.66-9.37-1.66-13.17a181.59,181.59,0,0,1,1.83-21.16c1-6.07.33-9.62-1.46-12.84a71.27,71.27,0,0,1-3.34-6.47c-.51-1.32.06-2.1,1.46-2.85.69-.37,2,.06,3,0a40.54,40.54,0,0,0,14.23-4.81c5.38-3.17,14.13-9.53,19.73-11.66s8.11-3.12,14.35-3c1.1,0,2.66.83.63,2s-8.2,2.46-16.48,11.88c-5.09,5.8-6.24,9.39-8,12.05s-3.12,3.34-5.56,5.34a14.91,14.91,0,0,0-4.81,6.23,97.8,97.8,0,0,0-6.4,32.79c-.09,2.12.4,5-1.68,5.76-1.29.43-2.38.84-3.42,1.11s-1.92.3-2.42-1.14" transform="translate(278.33 311.16)"/><path class="cls-4" d="M102.08,130.24c.44-.08,2-.39,3.37-.52,1.54-.2,3.19-.3,4-.35,2.26-.09,2.52,1.67,1,2.58-1,.6-2.59,1.36-4,2.22-2.18,1.35-4.31,2.89-5.92,3.92-2,1.23-4.75,0-3.94-2.63.39-1.3,2.31-4.64,5.5-5.22" transform="translate(278.33 311.16)"/><path class="cls-4" d="M115.72,135c2.76-1.79,8.19-4.13,10.41-4.1,1.6,0,4.42.69,5.91,2.3s2,3.64,0,3.31a17.17,17.17,0,0,0-8.06,0,44.37,44.37,0,0,0-9.39,3.53,12.82,12.82,0,0,1-5,1.18c-.7,0-3.22-.7-1.2-2.33.56-.43,1.71-.66,3.56-1.64,1.33-.74,2.32-1.26,3.85-2.25" transform="translate(278.33 311.16)"/><path class="cls-4" d="M111.16,151.2c1.4-1.53,5.36-7.27,13.59-6.26,3.39.42,6.54,1.14,7.68,1.23s5.19.24,7.77-1,3.36,0,1.8,1.57-2.69,2.39-1.39,4.19a15.66,15.66,0,0,0,2.07,2.58c.42.43,1.09.66,2.07,0a13,13,0,0,0,2.47-1.86c.66-.63,1,.16.74,1.26-.25.81-.59,6.47-7.58,12.51-.8.68-4.62,2.52-6.78,5.91a14.25,14.25,0,0,0-2.47,5.9c-.35,1.27-1.41,1.66-2.63,2a34.86,34.86,0,0,0-9.33,5.27c-3.6,2.92-7.77,2.89-11-.69s-7.31-8.92-8.7-14.89c-.47-1.93.74-2,1.47-1.54a20.25,20.25,0,0,0,5.1,2.94,2.09,2.09,0,0,0,2.85-1.11c.49-1,1.78-2.92-.2-4.05s-7.62-3.76-11-12.61a2.07,2.07,0,0,1,.76-2.48c.47-.28,2.16-1,3-1.41a2.5,2.5,0,0,1,2.75.69c.94.87,2.92,2.77,4.72,2.85a2.18,2.18,0,0,0,2.25-1" transform="translate(278.33 311.16)"/><path class="cls-4" d="M147.34,171.33c.5-1-2.85-2.88-5-.25a8.2,8.2,0,0,0-.16,9.23c2.32,3.42,5.11,2.38,5.24,1.59a5.4,5.4,0,0,0-.5-3.07,9.15,9.15,0,0,1,.43-7.5" transform="translate(278.33 311.16)"/><path class="cls-4" d="M179.3,278.63c-3.1,3.88-6.53,8.09-6.62,13.28-.09.45-.14.78-.55.87-2.79.65-5.35-2.76-7.54-4.68-4.89-4.39-9.38-8.61-12.77-14.12-5.21-8.42-3.91-13.63-.8-23.24a28,28,0,0,0,.42-14.66c-.36-1,.3-1.88,1.69-1s2.51,3.22,3.75,5.28,1.78.76,2.07-.47a17.7,17.7,0,0,0,.12-6.88c-.12-.81-.6-2.72-2.13-3.23-2-.7-4.08-1.19-5.09-2.15-.49-.44-1-1.3-.3-1.78a12.87,12.87,0,0,1,4.49-2.35c2.09-.44,4.16-1.23,6.72-.88,17.13,2.41,22.29-1,29.22-2.79a4.17,4.17,0,0,1,3.22,0c1.06.5,3.92,2,4.49,3.44s0,7,.91,11.28,3.92.39,4.68-1.29a38.16,38.16,0,0,0,1.67-6.81c.18-1,1.07-5.39,2.64-6.67a16,16,0,0,0,4.76-7.28c.51-1.29,1.35-5.39,1.18-11.36s-1.25-6.55-2.68-7.84-3.18-1-6.84-4.35c-3.28-2.94-6-7.72-8.34-10.74a20.9,20.9,0,0,0-10.8-7.3c-4.47-1.09-2.37,3.32-2.12,4.48.18.8.59,3.25-.88,4.42s-10,7-17.06,5.87c-11.31-1.81-15.32-9.94-15.88-13-.62-3.24,2.94-10.29,3.55-15.54.27-2.36.39-6.82.43-9.94a15.38,15.38,0,0,1,3.14-8c.89-.92,3.06-1.48,5.66-1.7s5.38,1.43,5.87,3.63c1.67,7.62,4.4,9.54,5.33,10.17s2.69-.63,3.36-1,2.45-2.2,1.88-3.16a13.25,13.25,0,0,1-1.49-3.17c-.3-1.44,1.52-1.21,1.9-1,5.12,3,7.67,3.85,12.92,4.38s13.83-1.82,14.87-1.71a4.43,4.43,0,0,1,2.84,1.71c.43.81,1.19,2.62,1.94,3a27.29,27.29,0,0,0,3.59.57c1.33.23,3.7.08,3.31,2.49-1,6.49-6.7,9.84-7.21,10.17a1.35,1.35,0,0,0-.67,1.35,15.26,15.26,0,0,0,.63,2.31,1.48,1.48,0,0,0,2.05.84c4.71-2,6.9-4.89,9.3-8.48s5.08-16.16,5.47-18.24a5.49,5.49,0,0,1,2.37-4,51,51,0,0,1,7.4-3.35c.73-.07,1.59,0,2.14,2s.83,14,.93,15.82,1.16,1.85,1.71,1.54a10.21,10.21,0,0,0,3.3-3,4.73,4.73,0,0,0,0-5.14c-.81-1.21-2.11-3.12-1.25-4.74,2-3.67,5.05-3,5.89-2.82s3.73,2.11,3.16,10.59c-.84,12.6-7.65,24.85-9.31,28a69,69,0,0,0-5.61,14.12c-.74,2.28-2.43,1.61-2.86,1.17s-.68-2.31-.92-2.65-1-.23-1.68,1.71a27.44,27.44,0,0,1-3.74,5.89,5.75,5.75,0,0,0-.82,3.45,117.65,117.65,0,0,1-1.56,19.62c-2.82,16.36-9.69,26-14.51,30.84-11.37,11.45-21.1,15.59-22.3,16.22a6.2,6.2,0,0,1-4.59-.05c-.76-.32-1.35-1.26-2.69-2.51s-1.81.64-1.88,1.14.46,2.26.66,4c.34,3.2-1.9,6.76-4.11,9.5" transform="translate(278.33 311.16)"/><path class="cls-4" d="M140.84,205.09c9.91-2.05,24.72-3.65,56.74-.17,6.37.68,6.9-.2,7.66-.64s1.94-1.61,1.93-2a2.6,2.6,0,0,0-1.67-2,12.73,12.73,0,0,1-7.83-5.54c-2.82-4.22-4.27-7.22-7.56-9.83-1.8-1.41-3.11-1-3.58-.61s-5,4-8.13,4.8c-1.15.3-3.29.66-4.39,2.22s-2.92,4.23-6.9,4.23S156.84,194.47,153,192c-3.2-2.09-8-1.16-8.93-.57-2,1.27-5,5.24-6.45,6.3a25.16,25.16,0,0,1-6.16,3.26c-.89.25-1.85.94-1.28,1.86s2.43,3.94,10.66,2.26" transform="translate(278.33 311.16)"/><path class="cls-4" d="M152.68,214.8a11.16,11.16,0,0,0,6.51,2.87c1.53.08,10.7-.54,13.58-.7a56.88,56.88,0,0,0,10.83-2.25c2-.72.4-1.48-.06-1.53l-3.33-.28c-18.24-1.52-23.55.13-26.7.19-1.69,0-1.23,1.32-.83,1.7" transform="translate(278.33 311.16)"/><path class="cls-4" d="M201.07,132.7a11.85,11.85,0,0,1,6.34,3.32,51.64,51.64,0,0,0,6.57,5.64c.93.54,3,1.14,1,2.19-.87.43-3.38-.39-4.29-.91a28.07,28.07,0,0,1-5.56-3.77,9.84,9.84,0,0,0-7.39-1.85c-1.81.27-3.26.57-4.91.94s-1.76-1.06-1.28-1.61a15.24,15.24,0,0,1,6.75-3.91,11.11,11.11,0,0,1,2.82,0" transform="translate(278.33 311.16)"/><path class="cls-4" d="M209.13,131.35a25.81,25.81,0,0,1,4.36,3.38c1.11,1,4.17,3.23,5.15,3.37s1.71.69,2.54-1.24c.74-1.67-.1-3.77-1.58-5-2.06-1.7-4.93-2.1-9.54-2.05-1.3,0-1.79,1.12-.93,1.54" transform="translate(278.33 311.16)"/><path class="cls-4" d="M136.22,249.34c-6.46.18-22.67-7-30-35.49-1.9-7.33,2.11-13.86,5-14.88a14.88,14.88,0,0,1,3.2-.88,3,3,0,0,1,3.45,3.22c-.12,2.64,2.1,24.74,7.94,32.71,1.46,2,2.8,2.07,3.47.32s1.63-3.72,1.95-4.52c.24-.57,2.11-2.17,2.77.26,1.31,5.21,2.89,11.95,4.13,14.74s.48,4.44-1.94,4.52" transform="translate(278.33 311.16)"/><path class="cls-4" d="M85.55,128.3c1.23-.1,5.81-.28,6.23-.25s.84.28.92,1.2.15,1.9.15,2.28,0,1.09-.9,1.12c-.3,0-3.26,0-4.88.06-1,0-2,.26-2-.69a26.58,26.58,0,0,0-.18-2.9.74.74,0,0,1,.67-.82" transform="translate(278.33 311.16)"/><path class="cls-4" d="M226,129.2c.45,0,4.7.2,6.24.22a.93.93,0,0,1,.85,1.07c-.07.53-.25,1.75-.3,2.24s-.69.88-1.3.91-4.63-.17-5.3-.19S225,133,225,132.38s.09-2,.09-2.33,0-.86.88-.85" transform="translate(278.33 311.16)"/><path class="cls-6" d="M233.29,80.1c-.61-.23-1.1.4-1,1.58.07.76.82,11.94.7,13.47s-1.33,5.15,3.38,12.74c1.93,3.14,3.65,5.79,4.12,10.08a57.62,57.62,0,0,1,.57,6.52c0,.46.3,1.75-1.71,1.49s-9.48-1.81-12.72-2.16-25.95-1.17-34.52-.53-13.33,2.18-18.19,6.11a12.59,12.59,0,0,1-3.09,1.8,20.1,20.1,0,0,1-3.52-.55,20,20,0,0,0-7.86.22c-2.06.58-3.55,1.21-5.75-.05-3.15-1.78-8.07-8.71-23-10-13.94-1.18-17.35-1.41-32.88-.45a2,2,0,0,1-2.36-2.13,25.45,25.45,0,0,1,.17-5.22,5.32,5.32,0,0,1,1.29-2.65,24.26,24.26,0,0,1,3.51-2.44c1.71-1,1.83-4.35,2.17-6.19,1.08-5.41,2.88-22.62,16.22-37.56,6.81-7.62,13.6-7.38,20.68-7.62a44.59,44.59,0,0,1,18.2,3.64c3,1.43,4.53,2.39,5.72,1.55s4.38-3.61,5.68-4.57a1.64,1.64,0,0,0,.58-2.22v0c3.43-2.26,11.5-8.36,17.85-7.27S211.77,53.52,221.1,62s11.56,16,12.19,18.06v0" transform="translate(278.33 311.16)"/><path class="cls-6" d="M137.67,167.2c-.15.06-1.14.63-1.52.86a25,25,0,0,1-4.37,1.21c-1.69.27-3.31.55-5.8.8a3,3,0,0,1-3-1.46,4.47,4.47,0,0,1-.45-1.23.8.8,0,0,1,.38-.78c.19-.64.36-.94.5-1a22,22,0,0,0,2.49-.81,12.92,12.92,0,0,0,4.79-3.8,9.94,9.94,0,0,0,2.27-4.89c0-1-.3-1.58-.39-2.94a2.39,2.39,0,0,1,1.75-2.31,23.33,23.33,0,0,0,3.27-.91,14.12,14.12,0,0,0,3-1.71,17.88,17.88,0,0,1,1.47-1.54c1.56-1.57.75-2.84-1.8-1.57s-6.63,1.13-7.77,1-4.29-.81-7.68-1.23c-8.23-1-12.19,4.73-13.59,6.26a2.18,2.18,0,0,1-2.25,1c-1.8-.08-3.78-2-4.72-2.85a2.5,2.5,0,0,0-2.75-.69c-.79.37-2.48,1.13-3,1.41a2.07,2.07,0,0,0-.76,2.48c3.35,8.85,9,11.5,11,12.61s.69,3.08.2,4.05a2.09,2.09,0,0,1-2.85,1.11,20.25,20.25,0,0,1-5.1-2.94c-.73-.51-1.94-.39-1.47,1.54,1.39,6,5.45,11.28,8.7,14.89s7.39,3.61,11,.69a34.86,34.86,0,0,1,9.33-5.27c1.22-.36,2.28-.75,2.63-2a14.25,14.25,0,0,1,2.47-5.9,15,15,0,0,1,4.07-4.08" transform="translate(278.33 311.16)"/><path class="cls-6" d="M255.22,148.25c.57-8.48-2.35-10.33-3.16-10.59s-3.89-.85-5.89,2.82c-.86,1.62.44,3.53,1.25,4.74a4.73,4.73,0,0,1,0,5.14,10.21,10.21,0,0,1-3.3,3c-.55.31-1.57.44-1.71-1.54s-.36-13.82-.93-15.82-1.41-2.05-2.14-2a51,51,0,0,0-7.4,3.35,5.49,5.49,0,0,0-2.37,4c-.39,2.08-3.07,14.65-5.47,18.24s-4.59,6.43-9.3,8.48a2.86,2.86,0,0,1-.35.12c-2.25.72-5.14,1.3-6,.6-1.11-.9-2.39-2.14-2-2.83h0a.92.92,0,0,1,0-.69c.32-1,1.84-2.27,2.15-2.6a17.91,17.91,0,0,0,2.25-3.11,10.1,10.1,0,0,0,1-3.35,5.57,5.57,0,0,0-.94-3.49,1.46,1.46,0,0,1,0-1.85,2,2,0,0,1,1-.48,6.31,6.31,0,0,1,1.12-.06h0c-.77-.38-1.49-2.13-1.9-2.94a4.43,4.43,0,0,0-2.84-1.71c-1-.11-9.63,2.24-14.87,1.71s-7.8-1.38-12.92-4.38c-.38-.24-2.2-.47-1.9,1a13.25,13.25,0,0,0,1.49,3.17c.57,1-1.19,2.71-1.88,3.16s-2.43,1.66-3.36,1-3.66-2.55-5.33-10.17c-.49-2.2-3.26-3.86-5.87-3.63s-4.77.78-5.66,1.7a15.38,15.38,0,0,0-3.14,8c0,3.12-.16,7.58-.43,9.94-.61,5.25-4.17,12.3-3.55,15.54.56,3,4.57,11.15,15.88,13,7.08,1.11,15.59-4.68,17.06-5.87s1.06-3.62.88-4.42c-.25-1.16-2.35-5.57,2.12-4.48a20.9,20.9,0,0,1,10.8,7.3c2.35,3,5.06,7.8,8.34,10.74,3.66,3.32,5.4,3.09,6.84,4.35s2.53,1.93,2.68,7.84-.67,10.07-1.18,11.36a16,16,0,0,1-4.76,7.28c-1.57,1.28-2.46,5.64-2.64,6.67a38.16,38.16,0,0,1-1.67,6.81c-.76,1.68-3.78,5.52-4.68,1.29s-.32-9.84-.91-11.28-3.43-2.94-4.49-3.44a4.17,4.17,0,0,0-3.22,0c-6.93,1.83-12.09,5.2-29.22,2.79-2.56-.35-4.63.44-6.72.88a12.87,12.87,0,0,0-4.49,2.35c-.69.48-.19,1.34.3,1.78,1,1,3.05,1.45,5.09,2.15,1.53.51,2,2.42,2.13,3.23a.45.45,0,0,0,0,.22s1.74,0,2.21.09a34.45,34.45,0,0,0,5.64.09,20.59,20.59,0,0,0,2.58-.47,2.7,2.7,0,0,1,1.44.89c.31.5.59,1.2.45,3.09s.57,2.7,1.44,2.89,1.33-.07,2.13-1.06a7.8,7.8,0,0,0,1.48-3.39,8.36,8.36,0,0,0,.08-1c.07-.19.15-.44,1.6-1.54a1.34,1.34,0,0,1,1.45-.27c.2.07.23.37.2.57a9,9,0,0,0-.36,1.21,34.64,34.64,0,0,0-.7,7.88,25.46,25.46,0,0,0,.39,3.95c0,.26,1.16,2.42,1.5,3.39a52.6,52.6,0,0,1,3,9.38,21.77,21.77,0,0,1,.6,4.82c.11.09.23.17.36.29,1.34,1.25,1.93,2.19,2.69,2.51a6.2,6.2,0,0,0,4.59.05c1.2-.63,10.93-4.77,22.3-16.22,4.82-4.85,11.69-14.48,14.51-30.84a117.65,117.65,0,0,0,1.56-19.62,5.75,5.75,0,0,1,.82-3.45,27.44,27.44,0,0,0,3.74-5.89c.71-1.94,1.44-2,1.68-1.71s.54,2.23.92,2.65,2.12,1.11,2.86-1.17a69,69,0,0,1,5.61-14.12c1.66-3.11,8.47-15.36,9.31-28" transform="translate(278.33 311.16)"/><path class="cls-7" d="M102.08,130.24c.44-.08,2-.39,3.37-.52,1.54-.2,3.19-.3,4-.35,2.26-.09,2.52,1.67,1,2.58-1,.6-2.59,1.36-4,2.22-2.18,1.35-4.31,2.89-5.92,3.92-2,1.23-4.75,0-3.94-2.63.39-1.3,2.31-4.64,5.5-5.22" transform="translate(278.33 311.16)"/><path class="cls-7" d="M115.72,135c2.76-1.79,8.19-4.13,10.41-4.1,1.6,0,4.42.69,5.91,2.3s2,3.64,0,3.31a17.17,17.17,0,0,0-8.06,0,44.37,44.37,0,0,0-9.39,3.53,12.82,12.82,0,0,1-5,1.18c-.7,0-3.22-.7-1.2-2.33.56-.43,1.71-.66,3.56-1.64,1.33-.74,2.32-1.26,3.85-2.25" transform="translate(278.33 311.16)"/><path class="cls-7" d="M147.34,171.33c.5-1-2.85-2.88-5-.25a8.2,8.2,0,0,0-.16,9.23c2.32,3.42,5.11,2.38,5.24,1.59a5.4,5.4,0,0,0-.5-3.07,9.15,9.15,0,0,1,.43-7.5" transform="translate(278.33 311.16)"/><path class="cls-7" d="M201.07,132.7a11.85,11.85,0,0,1,6.34,3.32,51.64,51.64,0,0,0,6.57,5.64c.93.54,3,1.14,1,2.19-.87.43-3.38-.39-4.29-.91a28.07,28.07,0,0,1-5.56-3.77,9.84,9.84,0,0,0-7.39-1.85c-1.81.27-3.26.57-4.91.94s-1.76-1.06-1.28-1.61a15.24,15.24,0,0,1,6.75-3.91,11.11,11.11,0,0,1,2.82,0" transform="translate(278.33 311.16)"/><path class="cls-7" d="M209.13,131.35a25.81,25.81,0,0,1,4.36,3.38c1.11,1,4.17,3.23,5.15,3.37s1.71.69,2.54-1.24c.74-1.67-.1-3.77-1.58-5-2.06-1.7-4.93-2.1-9.54-2.05-1.3,0-1.79,1.12-.93,1.54" transform="translate(278.33 311.16)"/><path class="cls-7" d="M136.22,249.34c-6.46.18-22.67-7-30-35.49-1.9-7.33,2.11-13.86,5-14.88a14.88,14.88,0,0,1,3.2-.88,3,3,0,0,1,3.45,3.22c-.12,2.64,2.1,24.74,7.94,32.71,1.46,2,2.8,2.07,3.47.32s1.63-3.72,1.95-4.52c.24-.57,2.11-2.17,2.77.26,1.31,5.21,2.89,11.95,4.13,14.74s.48,4.44-1.94,4.52" transform="translate(278.33 311.16)"/><path class="cls-7" d="M253.23,308.58c-.87-22.75-2.08-32.34-2.49-37.56-.62-7.23-3.44-8.46-4-8.79a3.58,3.58,0,0,0-.68-.36,1,1,0,0,0-1.18.46,3.13,3.13,0,0,0-.41,1.19c-.19,1-.43,2.26-.7,3.64.94,7.67,1.62,15.26,2,22.13a10.66,10.66,0,0,0-.07,1.72c.18,3,.06,12.58-.59,34.15-.44,7.15-1,14.62-1.5,20.87,1.58.05,3,.12,4.17.17.62,0,1.52,0,2.1,0,2.43-.17,3.54-.17,4-2.06a17.77,17.77,0,0,0,.2-3.9c-.19-12.72-.46-23.1-.77-31.66" transform="translate(278.33 311.16)"/><path class="cls-7" d="M112.65,105.25c3.12-13,7.2-28.09,13.25-37.69,4.65-7.37,3.83-4.84,6.11-8.3a2,2,0,0,0,.35-.69c0-.2,0-1.25,0-1.58a20.42,20.42,0,0,0-13.57,7.22c-13.34,14.94-15.14,32.15-16.22,37.56-.34,1.84-.46,5.18-2.17,6.19a24.26,24.26,0,0,0-3.51,2.44,5.32,5.32,0,0,0-1.29,2.65,25.45,25.45,0,0,0-.17,5.22,2,2,0,0,0,2.36,2.13c5.5-.34,9.46-.56,12.94-.6a108.77,108.77,0,0,0,1.88-14.55" transform="translate(278.33 311.16)"/><path class="cls-7" d="M219.21,198.56a8.69,8.69,0,0,0-.26-6.85,17.55,17.55,0,0,0-4.95-6.15c-2.29-2-7.32-7.8-7.8-8.32s-2.8-3.41-3.36-4a24.15,24.15,0,0,0-4.2-3.52,14.38,14.38,0,0,0-12-2.36,25.71,25.71,0,0,0-2.34,1.52c-1.05.77-.57,2.55-.31,3.19l.08.1c.07-1,.68-1.77,2.83-1.26a20.9,20.9,0,0,1,10.8,7.3c2.35,3,5.06,7.8,8.34,10.74,3.66,3.32,5.4,3.09,6.84,4.35s2.53,1.93,2.68,7.84c0,.68,0,1.31,0,1.93h0a10.84,10.84,0,0,0,3.65-4.52" transform="translate(278.33 311.16)"/><path class="cls-7" d="M148,152.86c.28-1.1-.08-1.89-.74-1.26a13,13,0,0,1-2.47,1.86,1.87,1.87,0,0,1-1.4.39h0s0,.36-.14,1a14.35,14.35,0,0,1-4.1,7.06c-2.11,1.93-5.49,3-7.42,3.66a27.3,27.3,0,0,1-5.11.81h-1.33c-.15,0-.46.06-.92.07s-.9,0-1.16,0a.81.81,0,0,0-.65.9,4.47,4.47,0,0,0,.45,1.23,3,3,0,0,0,3,1.46c2.49-.25,4.11-.53,5.8-.8a25,25,0,0,0,4.37-1.21c.38-.23,1.37-.8,1.52-.86,1.24-.88,2.34-1.48,2.71-1.83,7-6,7.33-11.7,7.58-12.51" transform="translate(278.33 311.16)"/><path class="cls-7" d="M120.52,181s-.94-1.49-2.09-3.4c-.7-1.16-1.45-2.48-2.11-3.75-.48-.91-.8-1.61-1-2.19a9,9,0,0,1-.66-2.22.25.25,0,0,1,0-.09,13.89,13.89,0,0,1-.22-1.82,25.35,25.35,0,0,1-5-1.92c1,1.11,0,2.71-.44,3.57a2.09,2.09,0,0,1-2.85,1.11,20.25,20.25,0,0,1-5.1-2.94c-.73-.51-1.94-.39-1.47,1.54a25.75,25.75,0,0,0,2.39,6.14,36.19,36.19,0,0,0,3.25,5c1,1.37,2.07,2.63,3.06,3.72a9,9,0,0,0,1.12,1,6.84,6.84,0,0,0,5.27,1.73,8.76,8.76,0,0,0,4.6-2.08,32,32,0,0,1,4.41-3,2.74,2.74,0,0,1-3.06-.49" transform="translate(278.33 311.16)"/><path class="cls-7" d="M212.78,167.26a15.26,15.26,0,0,1-.63-2.31,1.3,1.3,0,0,1,.46-1.18,12,12,0,0,1-3.68,1.23,5.09,5.09,0,0,0-2.28.79c-.77.69.6,2.07,1.82,3,.87.7,3.78.12,6-.6a1.5,1.5,0,0,1-1.73-1" transform="translate(278.33 311.16)"/><path class="cls-7" d="M157.8,179.16c-.14-.52-.89-2.39-1.1-3.54a10.38,10.38,0,0,1-.21-3,11.56,11.56,0,0,1,.18-4.14,66,66,0,0,1,2.24-7.13c1-2.8.51-6.22.87-9.32.3-2.35.84-8.23,1.69-14.09a6.56,6.56,0,0,0-3.42,1.38,15.38,15.38,0,0,0-3.14,8c0,3.12-.16,7.58-.43,9.94-.61,5.25-4.17,12.3-3.55,15.54.4,2.19,2.61,7,8,10.2a2.11,2.11,0,0,1-.54-1.47c-.11-.76-.47-1.72-.6-2.29" transform="translate(278.33 311.16)"/><path class="cls-4" d="M143.83,339.23c-.28.43-.55.79-.81,1.15.26-.36.53-.72.81-1.15" transform="translate(278.33 311.16)"/><path class="cls-4" d="M141.37,342.37c-.1.09-.24.2-.33.29.09-.09.23-.2.33-.29" transform="translate(278.33 311.16)"/><path class="cls-4" d="M142.59,341c-.12.12-.23.29-.38.45.15-.16.26-.33.38-.45" transform="translate(278.33 311.16)"/><path class="cls-4" d="M141.79,341.91a4.82,4.82,0,0,1-.37.39,4.82,4.82,0,0,0,.37-.39" transform="translate(278.33 311.16)"/><path class="cls-4" d="M142.19,341.45a5.26,5.26,0,0,1-.35.41,5.26,5.26,0,0,0,.35-.41" transform="translate(278.33 311.16)"/><path class="cls-4" d="M143,340.39a3.64,3.64,0,0,1-.36.49,3.64,3.64,0,0,0,.36-.49" transform="translate(278.33 311.16)"/><path class="cls-4" d="M156.63,310a4.61,4.61,0,0,0-.81.28l.15-.08.66-.2" transform="translate(278.33 311.16)"/><path class="cls-4" d="M141,342.74l-.37.31.37-.31" transform="translate(278.33 311.16)"/><path class="cls-4" d="M138.46,344.14c-.12,0-.24,0-.37,0,.13,0,.25,0,.37,0" transform="translate(278.33 311.16)"/><path class="cls-4" d="M134,344.34h0" transform="translate(278.33 311.16)"/><path class="cls-4" d="M143.85,339.2c1-1.51,2.11-3.31,3.25-5.23-.82,1.44-1.65,2.79-2.44,4-.29.44-.54.86-.81,1.23" transform="translate(278.33 311.16)"/><path class="cls-4" d="M134.41,344.31c-.11,0-.19,0-.25,0a.8.8,0,0,0,.25,0" transform="translate(278.33 311.16)"/><path class="cls-4" d="M140.14,343.39a1.35,1.35,0,0,1-.36.21,1.35,1.35,0,0,0,.36-.21" transform="translate(278.33 311.16)"/><path class="cls-4" d="M138.91,344a.9.9,0,0,1-.36.08.9.9,0,0,0,.36-.08" transform="translate(278.33 311.16)"/><path class="cls-4" d="M140.54,343.08a2.13,2.13,0,0,1-.33.23,2.13,2.13,0,0,0,.33-.23" transform="translate(278.33 311.16)"/><path class="cls-4" d="M139.75,343.64a2.67,2.67,0,0,1-.34.17,2.67,2.67,0,0,0,.34-.17" transform="translate(278.33 311.16)"/><path class="cls-4" d="M139.31,343.84c-.13.07-.25.09-.37.16.12-.07.24-.09.37-.16" transform="translate(278.33 311.16)"/><path class="cls-7" d="M156.63,310l-.66.2-.15.08c-1.64.61-4,1.8-8.22,5.34a.74.74,0,0,0-.32.27,15,15,0,0,1,3.44-.44c.27.11-1.26,1.35-2.25,2.72s-7.83,15.19-13.44,22.35a30.42,30.42,0,0,0-2.29,3.92c.37,0,.73,0,1,0l1,0c.77,0,2.11-.05,3.35-.14.13,0,.25,0,.37,0s.08,0,.09-.06a.9.9,0,0,0,.36-.08h0c.12-.07.24-.09.37-.16a.17.17,0,0,0,.1,0,2.67,2.67,0,0,0,.34-.17s0,0,0,0a1.35,1.35,0,0,0,.36-.21s.06-.05.07-.08a2.13,2.13,0,0,0,.33-.23s0,0,.06,0l.37-.31s0-.06.07-.08.23-.2.33-.29a.3.3,0,0,0,0-.07,4.82,4.82,0,0,0,.37-.39c0-.05,0-.05,0-.05a3,3,0,0,0,.37-.41s.28-.37.4-.49.42-.58.43-.58c.26-.36.53-.72.81-1.15,0,0,0,0,0,0,.27-.37.52-.79.81-1.23.79-1.21,1.62-2.56,2.44-4,7.65-12.69,10.1-19,10.74-20.92.85-2.57.56-3.72-1.21-3.09" transform="translate(278.33 311.16)"/><path class="cls-7" d="M197.61,333.46c1.47.93,5.74.66,7.86-1.79,0,0-.06.05-.08.05a2,2,0,0,1-1.93-.54,57.35,57.35,0,0,0-4.29-4.29c-11.42-10.68-19.71-15.9-22.77-17.52-1.07-.54-2.41.18-1.74,1.44s1.26,2.6,1.81,3.89c3.82,3.89,8.63,9.07,10.85,11.45a52.69,52.69,0,0,0,10.29,7.31" transform="translate(278.33 311.16)"/><path class="cls-7" d="M115.69,304.47c.56,4.11,1,11.11,6.06,12.45,3.86,1,13.08-.27,17.93-.59,1.09-1.49,2-2.72,2.53-3.36,1.23-1.72-.42-1.68-1.08-1.76s-2.62.19-8.46.54c-6.13.35-8.28-.76-9.75-2.42s-.84-4.65-.7-8.12-.07-5.25,0-7.81c0-1.59-.14-2.89.6-3.89a13.83,13.83,0,0,0-3.42.56c-6.18,2.47-3.68,9.66-3.74,14.4" transform="translate(278.33 311.16)"/><path class="cls-7" d="M111.54,276.5c.45.59,5,4.87,5.37,5.18s5.38,4.06,8.47,6.27a11.6,11.6,0,0,1,1.2-.36c4.89-1.2,9.34-.79,10.9-.93s.94-1.32.5-1.9-2.42-1.59-5.71-3.65c-15.66-9.66-24.52-20.14-25.48-21.53s-2-1.89-3.68,1.53a21,21,0,0,0-1.49,5.57,97.2,97.2,0,0,0,7.56,7.54,25.84,25.84,0,0,1,2.36,2.28" transform="translate(278.33 311.16)"/><path class="cls-4" d="M109.26,274.27c.08.06,0,0-.08,0s0,0,.08,0" transform="translate(278.33 311.16)"/><path class="cls-7" d="M94.56,317.31c.18.4,1,1.57,2,3.09s1.85,2.71,2.08,3,2.12,2.95,2.61,3.55,1,1.71,1.44,2.23c1.41,1.67,6.68,7.66,7.19,8.13a22.53,22.53,0,0,0,3.61,3c5,1.36,7.91-1.14,8.55-1.85a2.43,2.43,0,0,0,.63-2.36c-.19,1-1,1.48-2.52.16-4.74-4.08-8.41-9.76-13.68-17.59-5.91-8.77-13.69-31.83-14.14-32.95s-1.74-1-2.19-.94a23,23,0,0,0-3,1.26c-1,.43-1.44,1.93-2.6,7v.06c1,2.85,3.79,11.17,4.83,13.87,1.21,3.18,5,10,5.15,10.34" transform="translate(278.33 311.16)"/><path class="cls-4" d="M-9.26,440.08c1.88-8.64,10-42,10-42S19.45,379.15,25.81,360c4.18-12.49,20-49.26,21.26-51.9s.81-5.88-.75-6.6-6.36-2.43-8.39-3.26a14.11,14.11,0,0,0-8.13,0c-2.93,1-25.82,9-25.82,9l-14.5,4.38c-1.8.62-11.65,3-11.65,3-4.07,1.24-10.22,2.49-13.84,3.63s-14.84,5.38-20.25,9.92c-4.71,3.89-13.28,15.19-14.65,14l-25.27,86.28,86.92,11.59" transform="translate(278.33 311.16)"/><path class="cls-3" d="M221.48,469c-.33-5.36.17-23,.23-38.62,0-3-.28-10.68-.3-13.91,0-3.72,12.88-12.88,12.88-13.92L233.83,388c-1.36-17.16-1.9-29.18-2.49-36.49-2.9,0-6-.06-9.31-.06-1.43,0-2.85,0-4.33,0,0,0,1.28,35.59,1.48,41.8l.27,6.55c.1,2.61-13.4,3.42-13.21,6.13.2,5.87.21,11.22.41,16.89.68,19.16.95,37.65,1.09,44.31L221.48,469" transform="translate(278.33 311.16)"/><path class="cls-3" d="M249.75,472.5c-.14-7.1-.54-18.69-1-29.37-.17-3.66-.4-7.5-.5-11.48-.27-7.7-1.26-16.13-1.8-24.16L259,397.93c-.88-9.27-3.85-46.32-3.85-46.32-3.69,0-8,0-13-.05,0,0,3.2,34.64,3.76,45l-12.18,21.71c.31,7.07.33,12.65.47,17.32-.08,2.53-.14,5.21-.06,7.28.3,11.94.22,24.23,0,27.49l15.65,2.1" transform="translate(278.33 311.16)"/><path class="cls-4" d="M326.47,479.82a298.88,298.88,0,0,0-3.93-35.24c-.24-1.36-.67-4.83-.91-6.42-.73-4.1-1.42-6.72-2.39-11.75s-2-10.86-2.59-12.67c-2.88-9.7-4.85-17.4-7.2-24.2-2.21-6.35-22.9-76.84-32.87-108.66-.28-.92-.64-2.41-.81-3.25-.43-2.29,2.12-2.25,3.22-2,3.91.89,39.49,8.06,49.16,10.31a189.06,189.06,0,0,1,21.46,6.27c3.08,1.23-4.13,2.33.47,6.13C376.77,320.44,446,423.81,446,423.81l-17.43,71.86L326.47,479.82" transform="translate(278.33 311.16)"/><path class="cls-4" d="M109.26,274.27c.08.06,0,0-.08,0s0,0,.08,0" transform="translate(278.33 311.16)"/><path class="cls-7" d="M.69,398.08S19.45,379.15,25.81,360c4.18-12.49,20-49.26,21.26-51.9s.81-5.88-.75-6.6c-1.1-.52-3.77-1.51-6-2.33-4.16,5.06-10.29,23.41-13.32,31.95C22,341.65-19.28,421.66-20,436.82l-.71,3,13.24.94s0-.21.06-.31l-1.92-.23c1.87-8.63,10-42.16,10-42.16" transform="translate(278.33 311.16)"/><path class="cls-4" d="M217.69,351.46s1.29,35.59,1.49,41.8l.27,6.55c.15,3.7-.46,1.88-.21,5.68.21,5.85.21,11.2.41,16.89.68,19.14.95,37.64,1.12,44.29L207.43,465c-.25-3.78-.1-12.05-.06-23.21-.09-6.39-.1-8.27-.15-14.49,0-5.89-.51-12.35-.52-18.58l.33-16.7c-.11-5.41.33-40.54.33-40.54l10.33-.06" transform="translate(278.33 311.16)"/><path class="cls-4" d="M242.1,351.56s3.2,34.64,3.76,45l.84,21.25c.3,7.1.32,12.64.47,17.28-.09,2.55-.15,5.25-.09,7.32.3,11.93.22,24.22,0,27.51l-12.6-1.59c-.34-5.37.17-22.86.23-38.51,0-3-.29-10.66-.32-13.87,0-3.73-.11-12.43-.11-13.47L233.83,388c-1.36-17.16-1.9-29.18-2.49-36.49l10.76,0" transform="translate(278.33 311.16)"/><path class="cls-4" d="M266.17,351.68s3,30.31,5.27,47.47l.61,5.26c.47,5.58.56,10.59.74,13.11.4,5.14.66,8.82,1,13.77,1,15.66,1.42,32.95,1.22,42.14l-12.21-1.53c-.13-7.07-.55-18.55-1-29.24-.17-3.68-.41-7.53-.52-11.45-.25-7.72-1.26-16.13-1.78-24.18l-.43-9.1c-.9-9.27-3.89-46.32-3.89-46.32l11,.07" transform="translate(278.33 311.16)"/><path class="cls-2" d="M196.93,313.51v-.77h3.8v.77h-1.46v3.69h-.9v-3.69Zm5.8-.77,1.13,3.22,1.15-3.22h1.24v4.46h-.81v-3.59l-1.2,3.59h-.71l-1.24-3.59v3.59h-.83v-4.46Z" transform="translate(278.33 311.16)"/><path class="cls-4" d="M237.93,453.49A65.09,65.09,0,0,0,256.49,450l-3.38,14.55a124,124,0,0,1-24.46,2.64c-29.27.15-41.86-14.89-41.93-30.51-.06-20.91,22.41-41.76,58.59-41.27a72.38,72.38,0,0,1,19.9,3.1l-4.78,17.16H258c-3-3.92-7.53-6.87-16.52-6.87-18.31,0-29.67,10-29.62,23.43,0,12.09,10.47,21.33,26.07,21.25" transform="translate(278.33 311.16)"/><path class="cls-4" d="M132.13,396.11,131,400.66s6.93.75,4.8,7.65L120,465.67l31.54.05,1.18-4.94s-5.88-1.39-4.35-6.86c.11-.47,4.61-17,4.61-17l14.48-.05c7.19.05,9.55,3.78,9.55,3.78l4.2-17H156.9l3.61-13.38h21.17c3.88,0,6.63,2.6,6.63,4.52h2.38l4.67-18.64H132.13" transform="translate(278.33 311.16)"/><path class="cls-4" d="M108.24,455.42c-1.88-2-18.12-27.28-18.12-27.28l29.68-23.77c5-4.18,8.55-3.71,8.55-3.71l1.17-4.58-36.91,0-1.16,4.55c2.52.15,6,2.39,3.15,5.06-.36.33-29.66,22.72-29.66,22.72l6.32-22.87c1.31-4.43,6-4.91,6-4.91l1.16-4.56H43.21l-1.14,4.55c1.68.42,6.5,1.35,4.83,7.68C35.13,450.83,36.49,446.64,35.71,449c-3.22,12.25-8.41,11.64-10.29,11.78l-1.21,4.93H61.06l1.25-5s-5.87-1.18-4.74-5.42,5.74-20.91,5.74-20.91c6.38,10.29,7.86,11.54,15.57,22.11s15.92,9.23,37.71,9.23l1.22-4.94c-4.65,0-7.71-3.38-9.57-5.36" transform="translate(278.33 311.16)"/><polyline class="cls-1" points="0 0 0 9180 11880 9180 11880 0"/></g><path class="cls-4" d="M238,464.5c9,0,18.36-2.85,22-4.07a11,11,0,0,1-14.22-12.92l-3.38,14.56a11,11,0,0,1,8.61-8.32,113,113,0,0,1-22.36,2.44c-11.78.08-20.76-2.65-26-7.86a16.24,16.24,0,0,1-4.9-11.68c0-5.81,2.8-11.8,7.91-16.86,8.81-8.71,23.22-13.58,39.53-13.34A61.19,61.19,0,0,1,261.84,409a11,11,0,0,1-7.24-13.43l-4.79,17.13a11,11,0,0,1,10.62-8H258a11,11,0,0,1,8.74,4.31c-5.73-7.53-14-11.18-25.26-11.18-12.74,0-23.85,4.09-31.25,11.52a32.09,32.09,0,0,0-9.38,22.95A30.59,30.59,0,0,0,209.93,454c6.87,6.82,16.84,10.56,28.07,10.5m-15.13-32.31a10.13,10.13,0,0,1,2.95-7.34c3.26-3.23,8.8-5,15.66-5,5.82,0,7,1.59,7.76,2.53a11,11,0,0,0,8.76,4.32h2.43a11,11,0,0,0,10.6-8l4.79-17.15A11,11,0,0,0,268.59,388a82.47,82.47,0,0,0-23.12-3.6c-22.51-.31-42.15,6.69-55.32,19.71-9.36,9.26-14.47,20.82-14.43,32.58A38.22,38.22,0,0,0,187.12,464c6.62,6.58,19.2,14.36,41.6,14.24a138.43,138.43,0,0,0,26.51-2.83,11.07,11.07,0,0,0,8.6-8.33l3.39-14.56A11,11,0,0,0,253,439.55a53.74,53.74,0,0,1-15.13,2.93c-5.3,0-9.72-1.44-12.42-4.11a8.42,8.42,0,0,1-2.58-6.18" transform="translate(278.33 311.16)"/><path class="cls-4" d="M121.45,393.45,120.33,398a11,11,0,0,0,9.48,13.64,4.82,4.82,0,0,1-3.53-2.34,5.68,5.68,0,0,1-1-4.2c-.11.33-15.88,57.67-15.88,57.67A11,11,0,0,0,120,476.66l31.55,0a11,11,0,0,0,10.72-8.42l1.19-4.93a11.07,11.07,0,0,0-1.32-8.32,10.9,10.9,0,0,0-6.83-5,4.28,4.28,0,0,1,2.93,2.3,6.15,6.15,0,0,1,.74,4.51c.06-.2,4.66-17.09,4.66-17.09a11,11,0,0,1-10.6,8.11l14.47,0a4.79,4.79,0,0,1,1.65.22c-.08,0-.62-.31-1.42-1.57a11,11,0,0,0,20-3.26l4.21-17a11,11,0,0,0-10.7-13.65H156.9a11,11,0,0,1,10.62,13.87l3.61-13.36a11,11,0,0,1-10.62,8.14l21.17,0c-2.08,0-4.38-2.77-4.38-6.49a11,11,0,0,0,11,11h2.38a11,11,0,0,0,10.68-8.33l4.68-18.62a11,11,0,0,0-10.69-13.69H132.13a11,11,0,0,0-10.68,8.34m63.23,0L180,412.07a11,11,0,0,1,10.68-8.33h-2.38a11,11,0,0,1,11,11c0-8.42-8.07-15.55-17.63-15.55l-21.18,0a11,11,0,0,0-10.62,8.15l-3.62,13.38a11,11,0,0,0,10.64,13.87h24.34A11,11,0,0,1,170.56,421l-4.2,17a11,11,0,0,1,20-3.27c-2.7-4.26-9.06-8.82-18.78-8.88l-14.58.05A11,11,0,0,0,142.39,434l-4.67,17.18a16,16,0,0,0,1.54,12.37,17.92,17.92,0,0,0,10.93,7.93,11,11,0,0,1-8.14-13.28l-1.19,4.92a11,11,0,0,1,10.73-8.43l-31.55,0a11,11,0,0,1,10.61,13.92l15.78-57.34a16.66,16.66,0,0,0-1.77-14.11,17.48,17.48,0,0,0-12.48-7.4,11,11,0,0,1,9.49,13.61l1.14-4.54a11,11,0,0,1-10.68,8.32h63.23a11,11,0,0,1-10.68-13.67" transform="translate(278.33 311.16)"/><path class="cls-4" d="M116.25,447.9a3,3,0,0,1,.34.37c-1.53-1.93-9.94-14.77-17.2-26.07A11,11,0,0,1,97,436.73L126.69,413a7,7,0,0,1,2.13-1.36,6.13,6.13,0,0,1-1.89,0A11.05,11.05,0,0,0,139,403.37l1.15-4.57a11,11,0,0,0-10.68-13.72l-36.92,0a11,11,0,0,0-10.66,8.32L80.77,398a11.19,11.19,0,0,0,1.8,9.21,11,11,0,0,0,8.24,4.47c-2.91-.17-4.83-2.72-5.61-4.86a8.86,8.86,0,0,1,1.91-9.15L58.26,419.68a11,11,0,0,1,17.3,11.69l6.31-22.86a4.11,4.11,0,0,1-3.43,3.1A11,11,0,0,0,88,403.34l1.16-4.55a11,11,0,0,0-10.68-13.7l-35.24,0a11,11,0,0,0-10.68,8.34L31.39,398a11,11,0,0,0,8,13.37l.6.15c-2.33-.71-4.15-4.11-3.75-6,0-.06-10.17,37.08-10.17,37.08-.6,2.22-.6,2.22-.75,2.67-1.23,4.5-2.1,5.58-2.12,5.58a4.13,4.13,0,0,1,2.38-1.08c-4.77.36-9.73,3.78-10.87,8.39L13.53,463a11,11,0,0,0,10.68,13.63H61.06a11,11,0,0,0,10.68-8.31l1.25-5a11,11,0,0,0-8.54-13.49c1.46.29,2.6,2,2.82,2.35a7.68,7.68,0,0,1,1,5.85s5.7-20.79,5.7-20.79a11,11,0,0,1-20,2.86,171,171,0,0,0,10.68,15.6L70,463c10.14,14,22,13.91,39.94,13.76l6.66,0a11.06,11.06,0,0,0,10.7-8.39l1.2-4.91a11,11,0,0,0-10.75-13.64,1.36,1.36,0,0,1,.63.13,15.7,15.7,0,0,1-2.12-2m-9.14,10.27-1.21,4.92a11.06,11.06,0,0,1,10.69-8.38l-6.82,0c-17.45.13-18.85-.41-22-4.7l-5.54-7.48a156.49,156.49,0,0,1-9.6-14,11,11,0,0,0-20,2.86l-5.76,21a14.29,14.29,0,0,0,1.67,11.45c3.49,5.61,9.74,7.22,11.56,7.59A11,11,0,0,1,51.64,458l-1.24,5a11,11,0,0,1,10.66-8.32H24.21a11,11,0,0,1,10.68,13.65l1.21-4.92a10.94,10.94,0,0,1-9.85,8.32c10-.41,16.72-7.15,20.1-20a30.58,30.58,0,0,0,1-3.48l10.16-37c1.69-6.41.13-10.92-1.46-13.61-3.45-5.77-9.27-7.2-11.2-7.66a10.74,10.74,0,0,1,6.73,5,10.89,10.89,0,0,1,1.17,8.35l1.14-4.54a11,11,0,0,1-10.66,8.32H78.46a11,11,0,0,1-10.69-13.69L66.63,398a11,11,0,0,1,9.55-8.26A18.13,18.13,0,0,0,60.7,402.48c-.06.16-6.35,23-6.35,23a11,11,0,0,0,17.29,11.69c29.71-22.71,29.94-22.93,30.44-23.39a13.36,13.36,0,0,0,3.86-14.43c-2.25-6.27-8.55-9.39-13.82-9.69a11,11,0,0,1,10,13.66l1.16-4.52a11,11,0,0,1-10.67,8.3l36.9,0a11,11,0,0,1-10.66-13.71l-1.19,4.57a11,11,0,0,1,12.11-8.2c-2-.25-9-.56-17,6.17.15-.14-29.52,23.63-29.52,23.63a11,11,0,0,0-2.39,14.54c16.79,26.16,18.65,28.14,19.35,28.89,2.59,2.76,8.31,8.87,17.64,8.83a11,11,0,0,1-10.74-13.63" transform="translate(278.33 311.16)"/><path class="cls-2" d="M237.93,453.49A65.09,65.09,0,0,0,256.49,450l-3.38,14.55a124,124,0,0,1-24.46,2.64c-29.27.15-41.86-14.89-41.93-30.51-.06-20.91,22.41-41.76,58.59-41.27a72.38,72.38,0,0,1,19.9,3.1l-4.78,17.16H258c-3-3.92-7.53-6.87-16.52-6.87-18.31,0-29.67,10-29.62,23.43,0,12.09,10.47,21.33,26.07,21.25" transform="translate(278.33 311.16)"/><path class="cls-2" d="M132.13,396.11,131,400.66s6.93.75,4.8,7.65L120,465.67l31.54.05,1.18-4.94s-5.88-1.39-4.35-6.86c.11-.47,4.61-17,4.61-17l14.48-.05c7.19.05,9.55,3.78,9.55,3.78l4.2-17H156.9l3.61-13.38h21.17c3.88,0,6.63,2.6,6.63,4.52h2.38l4.67-18.64H132.13" transform="translate(278.33 311.16)"/><path class="cls-2" d="M108.24,455.42c-1.88-2-18.12-27.28-18.12-27.28l29.68-23.77c5-4.18,8.55-3.71,8.55-3.71l1.17-4.58-36.91,0-1.16,4.55c2.52.15,6,2.39,3.15,5.06-.36.33-29.66,22.72-29.66,22.72l6.32-22.87c1.31-4.43,6-4.91,6-4.91l1.16-4.56H43.21l-1.14,4.55c1.68.42,6.5,1.35,4.83,7.68C35.13,450.83,36.49,446.64,35.71,449c-3.22,12.25-8.41,11.64-10.29,11.78l-1.21,4.93H61.06l1.25-5s-5.87-1.18-4.74-5.42,5.74-20.91,5.74-20.91c6.38,10.29,7.86,11.54,15.57,22.11s15.92,9.23,37.71,9.23l1.22-4.94c-4.65,0-7.71-3.38-9.57-5.36" transform="translate(278.33 311.16)"/><path class="cls-8" d="M268.18,396.74a2.84,2.84,0,0,0,0,4,2.68,2.68,0,0,0,2,.88,2.75,2.75,0,0,0,2-.88,2.86,2.86,0,0,0,0-4,2.86,2.86,0,0,0-2-.87,2.82,2.82,0,0,0-2,.87m4.35,4.33a3.23,3.23,0,0,1-2.35,1,3.15,3.15,0,0,1-2.33-1,3.32,3.32,0,0,1,0-4.66,3.14,3.14,0,0,1,2.32-1,3.26,3.26,0,0,1,2.35,1,3.31,3.31,0,0,1,0,4.66m-1.73-3.58a1.59,1.59,0,0,0-.76-.12h-.55v1.29h.58a1.4,1.4,0,0,0,.6-.08A.54.54,0,0,0,271,398a.56.56,0,0,0-.24-.54m-.68-.57a2.59,2.59,0,0,1,1,.14.86.86,0,0,1,.56.89.74.74,0,0,1-.36.71,1,1,0,0,1-.53.19.89.89,0,0,1,.62.35,1.06,1.06,0,0,1,.21.55V400a1.06,1.06,0,0,0,0,.26c0,.11,0,.18,0,.22l0,0h-.6l0,0v-.46a1,1,0,0,0-.34-.86,1.75,1.75,0,0,0-.71-.11h-.5v1.45h-.64v-3.62Z" transform="translate(278.33 311.16)"/></g></g></svg>