<svg xmlns="http://www.w3.org/2000/svg" viewBox="0 0 580 463.98"><defs><style>.cls-1{fill:#fdc20b;}</style></defs><g id="Capa_2" data-name="Capa 2"><g id="Layer_1" data-name="Layer 1"><path class="cls-1" d="M381.15,33.15C426.91,33.15,464,226,464,464h66.29c0-256.25-66.78-464-149.13-464-46.86,0-88.67,62.43-116,160.05C237.82,62.43,196,0,149.15,0,66.79,0,0,207.73,0,464H66.3C66.3,226,103.4,33.15,149.15,33.15S232,211.2,232,430.85h66.28c0-219.65,37.1-397.7,82.86-397.7"/><path class="cls-1" d="M563.47,430.85a16.56,16.56,0,1,1-16.62,16.48,16.42,16.42,0,0,1,16.62-16.48m0,30.71c7.62,0,13.53-6.12,13.53-14.22,0-7.95-5.92-14.07-13.53-14.07s-13.62,6.12-13.62,14.07S555.76,461.56,563.47,461.56ZM557,437.71h7.47c4.57,0,6.72,1.82,6.72,5.53,0,3.5-2.18,5-5.05,5.27l5.5,8.56h-3.23l-5.23-8.33H560v8.33h-3V437.71Zm3,8.61h3.13c2.63,0,5.06-.14,5.06-3.21,0-2.57-2.2-3-4.23-3h-4v6.18Z"/></g></g></svg>