<svg xmlns="http://www.w3.org/2000/svg" viewBox="0 0 970.63 187.44"><defs><style>.cls-1{fill:#fec905;}.cls-2{fill:#009945;fill-rule:evenodd;}</style></defs><g id="Capa_2" data-name="Capa 2"><g id="Layer_1" data-name="Layer 1"><path class="cls-1" d="M96.43,55l58.72-.07V18.27H90c-.91-.06-1.82-.1-2.75-.1A41.74,41.74,0,0,0,70.4,98.11L112.2,119c9.84,4.91,8.25,13.84-2.88,13.84H49.63V114.38L24.82,132.64,0,150.91l24.82,18.26,24.81,18.27V169l71,.85a41.73,41.73,0,0,0,41.73-41.73c0-11.75-2.34-24.46-13-31.95L95.28,68c-4.35-2.27-3.76-13,1.15-13ZM294.19,18.8v97.44q0,25.8-17.49,41.23T230.18,172.9q-29,0-44.29-15t-15.35-43.11v-96h45.13V119.56a16.74,16.74,0,0,0,16.7,16.7h0a16.75,16.75,0,0,0,16.7-16.7V18.8Zm96.6,150.29a41.74,41.74,0,0,0,20.1-78.31,39.56,39.56,0,0,0-20.1-71.71v-.42H307V169.09Zm-39.08-62.21h21.65A15.73,15.73,0,0,1,389,122.56h0a14.67,14.67,0,0,1-14.63,14.63h-22.7V106.88Zm0-55h18.12A13.15,13.15,0,0,1,382.94,65h0A12.27,12.27,0,0,1,370.7,77.2h-19V51.84Z"/><path class="cls-2" d="M899.39,54.62V85.55A40.65,40.65,0,0,1,861,126v44H812.49V125.88a40.64,40.64,0,0,1-36.8-40.33V18.44h44.38v60a14.27,14.27,0,0,0,14.22,14.23h6.5A14.27,14.27,0,0,0,855,78.43V46.58h.16V46a27.52,27.52,0,0,1,27.52-27.52H921V0l24.81,18.27,24.82,18.26L945.81,54.79,921,73.06V54.62ZM685.2,169.38H639.86V73.82q0-27.66,17.19-43t48.37-15.32q30.08,0,44.45,13.89t14.38,42.88v97.1H718.91V125.44H685.2v43.94ZM718.91,93V67.76a16.9,16.9,0,0,0-16.86-16.85h0A16.9,16.9,0,0,0,685.2,67.76V93ZM628.8,19.11V127.32c0,13.56-4.76,24.56-14.3,33.08s-21.87,12.81-37,12.81c-1,0-1.9,0-2.82,0-8.18.56-25.78.8-38.93-11.14-12.7,12.87-30.31,11.53-36.85,11.27-2.35-.09-4.82-.15-7.41-.15q-23.76,0-36.43-12.81t-12.62-36.79V19.11h44.72V121.73a13.34,13.34,0,0,0,13.3,13.3h0a13.35,13.35,0,0,0,13.3-13.3V19.11h42.67V121.73a13.35,13.35,0,0,0,13.3,13.3h0a13.35,13.35,0,0,0,13.3-13.3V19.11ZM881.93,147.46a11.51,11.51,0,0,1,5.53,1.45,10.42,10.42,0,0,1,4.2,4.15,11.51,11.51,0,0,1,1.5,5.64,11.35,11.35,0,0,1-1.48,5.58,10.43,10.43,0,0,1-4.16,4.17,11.3,11.3,0,0,1-11.18,0,10.5,10.5,0,0,1-4.16-4.17,11.24,11.24,0,0,1,0-11.22,10.42,10.42,0,0,1,4.2-4.15,11.51,11.51,0,0,1,5.53-1.45Zm0,1.86a9.54,9.54,0,0,0-4.61,1.21,8.81,8.81,0,0,0-3.51,3.47,9.52,9.52,0,0,0-1.26,4.7,9.37,9.37,0,0,0,1.24,4.65,8.74,8.74,0,0,0,3.48,3.47,9.31,9.31,0,0,0,9.32,0,8.65,8.65,0,0,0,3.47-3.47,9.37,9.37,0,0,0,1.24-4.65A9.52,9.52,0,0,0,890,154a8.68,8.68,0,0,0-3.51-3.47,9.56,9.56,0,0,0-4.6-1.21ZM877,164.9V152.82h4.16a10.19,10.19,0,0,1,3.08.34,3,3,0,0,1,1.53,1.17,3.12,3.12,0,0,1,.56,1.77,3.21,3.21,0,0,1-1,2.3,3.77,3.77,0,0,1-2.52,1.1,3.19,3.19,0,0,1,1,.64,13.36,13.36,0,0,1,1.79,2.4l1.47,2.36h-2.37l-1.07-1.9a9.85,9.85,0,0,0-2.05-2.82,2.48,2.48,0,0,0-1.56-.4H879v5.12Zm2-6.8h2.37a3.92,3.92,0,0,0,2.32-.5,1.72,1.72,0,0,0,.32-2.29,1.76,1.76,0,0,0-.83-.63,6.06,6.06,0,0,0-2-.21H879v3.63Z"/></g></g></svg>