<svg width="99" height="57" viewBox="0 0 99 57" fill="none" xmlns="http://www.w3.org/2000/svg">
<path d="M11.1291 6.19797C6.34666 10.3037 -0.278263 9.22326 0.512179 17.2812C1.30262 25.3392 24.6008 50.3093 49.7186 54.1592C73.9266 57.8782 91.0776 57.7986 91.7088 37.9636C92.34 18.1286 61.6037 24.9127 52.3288 20.7672C43.0539 16.6216 26.4091 -6.91545 11.1291 6.19797Z" fill="#EDBC68"/>
<path d="M39.0163 35.5794C60.7609 43.1604 97.3283 51.3233 98.2284 35.8901C98.8608 24.9592 67.1127 34.7207 44.1719 25.5862C21.2311 16.4517 15.1811 -3.33696 7.26263 1.34046C-0.655858 6.01788 17.0098 27.908 39.0163 35.5794Z" fill="#BA4E27"/>
<path d="M13.9619 5.52496C12.4678 7.96972 10.2947 12.9407 13.5544 13.2667C17.629 13.6741 25.3706 6.33988 24.9632 12.4518C24.5557 18.5637 24.9632 27.9352 33.5198 25.4905C42.0765 23.0457 39.2243 25.083 44.5212 32.0098C50.6693 40.0496 53.4853 33.6396 57.9674 31.1949C62.4494 28.7501 67.7464 42.6037 75.4881 39.7515C81.6815 37.4698 84.0448 33.6396 84.4522 32.0098" stroke="#E13C26" stroke-width="4.07459" stroke-linecap="round" stroke-linejoin="round"/>
<path d="M14.3011 10.6214C14.3011 10.6214 20.3133 7.07683 19.7569 9.83562C19.2006 12.5944 16.5947 20.7577 20.5461 20.5768C24.4974 20.3959 36.9248 13.6233 33.6774 19.8475C30.4301 26.0718 32.6499 32.9179 35.2784 30.5039C37.907 28.09 42.1592 23.3469 42.6588 26.6314C43.1584 29.916 42.3408 36.0724 46.2979 34.9643C50.2549 33.8563 48.353 29.9216 52.5428 30.2778C56.7326 30.6339 55.0748 38.3393 57.9248 38.5033C60.7748 38.6672 61.9556 32.7256 66.4406 32.8217C70.9256 32.9179 70.5509 40.171 74.6669 40.5498C78.7828 40.9285 75.3765 34.7382 81.9394 33.3927" stroke="#F9D12E" stroke-width="3.28412" stroke-miterlimit="10" stroke-linecap="round"/>
</svg>
