<svg width="77" height="68" viewBox="0 0 77 68" fill="none" xmlns="http://www.w3.org/2000/svg">
<g clip-path="url(#clip0_304_2041)">
<path d="M76.6438 48.1963C76.6438 61.5039 67.8182 65.7904 55.0485 67.1431V60.7297C65.129 58.7902 71.7543 54.023 71.7543 42.4919C71.7543 33.0225 67.2885 20.8232 60.101 11.1909C70.1244 21.2551 76.6438 36.7304 76.6438 48.1963Z" fill="#EEEEEE"/>
<path d="M22.4518 61.8217V67.1432C13.015 66.1245 5.74593 63.5412 2.5759 56.8752C7.31057 60.1756 14.2863 61.3817 22.4518 61.8217Z" fill="#EEEEEE"/>
<path d="M71.7543 42.4918C71.7543 54.0229 65.129 58.7902 55.0485 60.7297C49.0018 61.895 41.7083 62.0498 33.8606 62.0498C29.8838 62.0498 26.0537 62.0498 22.4518 61.8217C14.3026 61.3816 7.31057 60.1918 2.5759 56.8751C1.36195 54.1468 0.774412 51.1813 0.85642 48.1962C0.85642 29.7465 17.823 0.930969 38.7501 0.930969C46.6711 0.930969 54.0298 5.06261 60.101 11.1908C67.2886 20.8231 71.7543 33.0225 71.7543 42.4918Z" fill="#F9F9F9"/>
<path d="M55.0485 60.7297V67.7543H22.4518V61.8217C26.0537 62.0091 29.8838 62.0498 33.8606 62.0498C41.7083 62.0498 49.0018 61.895 55.0485 60.7297Z" fill="#082D19"/>
<path d="M55.0485 32.9329V60.7297C49.0018 61.8951 41.7083 62.0499 33.8606 62.0499C29.8838 62.0499 26.0537 62.0499 22.4518 61.8217V32.9329C22.4518 31.7939 22.9042 30.7015 23.7096 29.8961C24.515 29.0907 25.6074 28.6382 26.7464 28.6382H50.7539C51.8929 28.6382 52.9852 29.0907 53.7906 29.8961C54.596 30.7015 55.0485 31.7939 55.0485 32.9329V32.9329Z" fill="#0B3F25"/>
</g>
<defs>
<clipPath id="clip0_304_2041">
<rect width="75.7874" height="66.8233" fill="white" transform="translate(0.856415 0.930969)"/>
</clipPath>
</defs>
</svg>
