<svg width="91" height="103" viewBox="0 0 91 103" fill="none" xmlns="http://www.w3.org/2000/svg">
<path d="M70.597 90.7498L74.784 37.3015L56.997 78.1173C57.3972 78.0623 57.8047 78.1149 58.1778 78.2695C58.5509 78.4242 58.8761 78.6754 59.1199 78.9974C59.3638 79.3193 59.5175 79.7004 59.5653 80.1014C59.6131 80.5024 59.5532 80.909 59.3919 81.2792C59.2305 81.6495 58.9735 81.9701 58.6472 82.2081C58.3209 82.4461 57.9372 82.5929 57.5353 82.6335C57.1335 82.6741 56.7281 82.6069 56.3608 82.4389C55.9936 82.2709 55.6776 82.0082 55.4455 81.6777L49.4236 95.496L50.0097 95.494C61.3442 95.6411 70.5583 93.5241 70.597 90.7498ZM61.7606 75.2429C61.4675 75.3032 61.1632 75.2753 60.886 75.1626C60.6089 75.05 60.3714 74.8577 60.2035 74.6101C60.0356 74.3625 59.9449 74.0706 59.9429 73.7714C59.9409 73.4722 60.0276 73.1792 60.1921 72.9293C60.3567 72.6794 60.5917 72.484 60.8673 72.3676C61.1429 72.2513 61.4468 72.2192 61.7406 72.2756C62.0344 72.332 62.3049 72.4742 62.5179 72.6843C62.7309 72.8945 62.8768 73.163 62.9372 73.456C62.9788 73.6507 62.9812 73.8517 62.9444 74.0473C62.9076 74.243 62.8322 74.4293 62.7227 74.5956C62.6132 74.7619 62.4718 74.9048 62.3067 75.0159C62.1415 75.127 61.9558 75.2042 61.7606 75.2429V75.2429ZM58.7406 90.0008C58.4784 90.4024 58.103 90.7172 57.6618 90.9053C57.2207 91.0935 56.7336 91.1466 56.2623 91.0579C55.7909 90.9692 55.3565 90.7427 55.0139 90.4071C54.6713 90.0715 54.4359 89.6418 54.3375 89.1724C54.2391 88.7029 54.2822 88.2148 54.4612 87.7699C54.6403 87.325 54.9473 86.9431 55.3434 86.6727C55.7395 86.4022 56.2068 86.2553 56.6864 86.2506C57.166 86.2458 57.6363 86.3834 58.0377 86.6459C58.5675 87.0024 58.9357 87.553 59.0626 88.1789C59.1896 88.8047 59.0651 89.4554 58.7161 89.9901L58.7406 90.0008ZM65.4104 79.449C64.969 79.5423 64.5099 79.5025 64.0912 79.3347C63.6724 79.1669 63.3129 78.8786 63.0581 78.5064C62.8032 78.1341 62.6645 77.6947 62.6596 77.2436C62.6546 76.7925 62.7836 76.3501 63.0301 75.9723C63.2767 75.5945 63.6298 75.2985 64.0448 75.1215C64.4597 74.9445 64.9178 74.8946 65.3612 74.978C65.8045 75.0615 66.2131 75.2747 66.5352 75.5905C66.8573 75.9063 67.0786 76.3106 67.1708 76.7521C67.2309 77.0453 67.2324 77.3475 67.1751 77.6413C67.1179 77.9351 67.0031 78.2146 66.8374 78.4638C66.6717 78.713 66.4583 78.927 66.2095 79.0934C65.9608 79.2598 65.6815 79.3753 65.3879 79.4334L65.4104 79.449ZM65.6698 87.6488C65.563 87.8152 65.4242 87.9588 65.2616 88.0712C65.0989 88.1837 64.9156 88.2628 64.7222 88.304C64.5288 88.3452 64.3292 88.3477 64.1348 88.3112C63.9405 88.2748 63.7553 88.2003 63.5899 88.0919C63.4245 87.9835 63.2823 87.8434 63.1714 87.6797C63.0605 87.516 62.9831 87.3319 62.9437 87.1382C62.9044 86.9444 62.9038 86.7447 62.942 86.5507C62.9803 86.3567 63.0566 86.1722 63.1666 86.0079C63.386 85.6801 63.7259 85.4521 64.1125 85.3736C64.499 85.295 64.901 85.3723 65.2309 85.5886C65.5608 85.8048 65.7919 86.1426 65.8741 86.5284C65.9563 86.9142 65.8829 87.3169 65.6698 87.6488ZM67.9796 83.3422C67.6472 83.4116 67.3017 83.3809 66.9868 83.254C66.6719 83.127 66.4016 82.9095 66.2103 82.629C66.0191 82.3485 65.9153 82.0175 65.9121 81.678C65.9089 81.3385 66.0065 81.0056 66.1925 80.7216C66.3785 80.4375 66.6446 80.215 66.9571 80.0822C67.2696 79.9494 67.6144 79.9122 67.948 79.9753C68.2816 80.0385 68.589 80.1993 68.8313 80.4371C69.0735 80.675 69.2398 80.9795 69.3091 81.3119C69.3952 81.7581 69.3014 82.2204 69.0482 82.5978C68.7949 82.9752 68.4027 83.2372 67.9571 83.3266L67.9796 83.3422Z" fill="#DDAD77"/>
<path d="M57.8047 82.5888C57.3684 82.6787 56.9154 82.6387 56.5015 82.474C56.0877 82.3092 55.7312 82.0269 55.4761 81.6618L49.4542 95.4802C38.435 95.254 29.5974 92.8948 29.6337 90.1663L24.7094 26.1118L24.4568 22.8244L54.2512 23.257L56.5064 23.2918L57.896 23.3123L61.0379 23.3532L75.8714 23.5681L75.6012 26.8735L74.7912 37.2989L57.0042 78.1147C57.5852 78.0432 58.1714 78.1978 58.6414 78.5466C59.1115 78.8954 59.4294 79.4116 59.5292 79.9884C59.6291 80.5651 59.5033 81.1582 59.1779 81.6447C58.8525 82.1313 58.3525 82.4741 57.7814 82.602L57.8047 82.5888Z" fill="#F2C58B"/>
<path d="M59.9933 74.075C59.9328 73.7832 59.9602 73.4799 60.0719 73.2036C60.1837 72.9274 60.3749 72.6904 60.6213 72.5228C60.8677 72.3551 61.1583 72.2643 61.4563 72.2617C61.7543 72.2591 62.0464 72.345 62.2957 72.5084C62.5449 72.6718 62.7401 72.9054 62.8566 73.1797C62.9731 73.454 63.0057 73.7567 62.9503 74.0495C62.8948 74.3423 62.7538 74.6122 62.545 74.8249C62.3363 75.0376 62.0692 75.1836 61.7774 75.2445C61.3859 75.3248 60.9784 75.2469 60.6441 75.0278C60.3098 74.8086 60.0758 74.4661 59.9933 74.075V74.075Z" fill="#F2C58B"/>
<path d="M58.7527 90.0003C58.4911 90.4008 58.1167 90.7148 57.6767 90.9025C57.2367 91.0903 56.751 91.1434 56.2808 91.0552C55.8107 90.9669 55.3772 90.7413 55.0353 90.4068C54.6934 90.0722 54.4583 89.6438 54.3598 89.1757C54.2612 88.7076 54.3037 88.2208 54.4817 87.7768C54.6598 87.3328 54.9655 86.9516 55.3602 86.6814C55.7549 86.4111 56.2208 86.2638 56.6991 86.2583C57.1775 86.2528 57.6467 86.3892 58.0475 86.6503C58.314 86.8238 58.5436 87.0481 58.7232 87.3105C58.9029 87.5728 59.029 87.868 59.0945 88.1791C59.16 88.4902 59.1635 88.8112 59.1049 89.1237C59.0462 89.4362 58.9265 89.7341 58.7527 90.0003V90.0003Z" fill="#F2C58B"/>
<path d="M65.4271 79.4506C64.9857 79.5439 64.5266 79.5041 64.1078 79.3362C63.6891 79.1684 63.3296 78.8802 63.0747 78.508C62.8199 78.1357 62.6812 77.6962 62.6762 77.2452C62.6713 76.7941 62.8002 76.3516 63.0468 75.9739C63.2934 75.5961 63.6465 75.3 64.0615 75.123C64.4764 74.9461 64.9345 74.8961 65.3778 74.9796C65.8211 75.0631 66.2297 75.2763 66.5519 75.5921C66.874 75.9079 67.0952 76.3121 67.1875 76.7537C67.2494 77.0464 67.2529 77.3484 67.1979 77.6425C67.1429 77.9366 67.0304 78.2169 66.8668 78.4674C66.7033 78.7179 66.4919 78.9337 66.2449 79.1025C65.9978 79.2712 65.7199 79.3895 65.4271 79.4506V79.4506Z" fill="#F2C58B"/>
<path d="M65.7134 87.6561C65.4962 87.989 65.1556 88.222 64.7666 88.3038C64.3776 88.3855 63.9721 88.3095 63.6392 88.0922C63.3063 87.875 63.0734 87.5344 62.9916 87.1454C62.9098 86.7565 62.9859 86.3509 63.2031 86.018C63.4204 85.6851 63.761 85.4522 64.1499 85.3704C64.3426 85.3299 64.5413 85.3278 64.7347 85.364C64.9282 85.4003 65.1125 85.4744 65.2773 85.5819C65.4422 85.6895 65.5842 85.8285 65.6953 85.9909C65.8064 86.1534 65.8845 86.3361 65.925 86.5287C65.9654 86.7213 65.9676 86.9201 65.9313 87.1135C65.895 87.3069 65.821 87.4913 65.7134 87.6561V87.6561Z" fill="#F2C58B"/>
<path d="M67.9937 83.3367C67.6613 83.4061 67.3157 83.3754 67.0008 83.2484C66.6859 83.1214 66.4158 82.904 66.2245 82.6234C66.0332 82.3429 65.9294 82.0119 65.9262 81.6724C65.923 81.3329 66.0206 81.0001 66.2066 80.716C66.3926 80.4319 66.6587 80.2094 66.9712 80.0766C67.2837 79.9438 67.6285 79.9066 67.9621 79.9698C68.2957 80.033 68.6031 80.1937 68.8454 80.4316C69.0876 80.6695 69.2539 80.9739 69.3231 81.3063C69.4145 81.7517 69.3259 82.2151 69.0769 82.5955C68.8278 82.9759 68.4384 83.2423 67.9937 83.3367Z" fill="#F2C58B"/>
<path d="M50.1783 31.4002C65.005 31.6168 77.0762 28.2431 77.1402 23.8649C77.2041 19.4867 65.2366 15.7618 50.4099 15.5452C35.5833 15.3287 23.512 18.7023 23.448 23.0806C23.3841 27.4588 35.3516 31.1836 50.1783 31.4002Z" fill="#42331D"/>
<path d="M34.8169 82.8638C36.0418 83.3976 37.4675 82.8373 38.0013 81.6125C38.5351 80.3876 37.9748 78.962 36.7499 78.4282C35.5251 77.8944 34.0994 78.4546 33.5656 79.6795C33.0318 80.9043 33.5921 82.33 34.8169 82.8638Z" fill="#42331D"/>
<path d="M42.4407 88.7199C43.6656 89.2537 45.0913 88.6934 45.6251 87.4686C46.1589 86.2437 45.5986 84.818 44.3737 84.2842C43.1489 83.7505 41.7232 84.3107 41.1894 85.5356C40.6556 86.7604 41.2159 88.1861 42.4407 88.7199Z" fill="#42331D"/>
<path d="M45.3741 80.0683C46.599 80.6021 48.0246 80.0418 48.5584 78.817C49.0922 77.5921 48.532 76.1664 47.3071 75.6326C46.0822 75.0989 44.6565 75.6591 44.1228 76.884C43.589 78.1088 44.1492 79.5345 45.3741 80.0683Z" fill="#42331D"/>
<path d="M38.99 75.0743C39.7477 75.4045 40.6297 75.0579 40.9599 74.3002C41.2901 73.5424 40.9435 72.6605 40.1858 72.3302C39.4281 72 38.5461 72.3466 38.2159 73.1044C37.8857 73.8621 38.2323 74.744 38.99 75.0743Z" fill="#42331D"/>
<path d="M58.7527 90.0003C58.4911 90.4008 58.1167 90.7148 57.6767 90.9025C57.2367 91.0903 56.751 91.1434 56.2808 91.0552C55.8107 90.9669 55.3772 90.7413 55.0353 90.4068C54.6934 90.0722 54.4583 89.6438 54.3598 89.1757C54.2612 88.7076 54.3037 88.2208 54.4817 87.7768C54.6598 87.3328 54.9655 86.9516 55.3602 86.6814C55.7549 86.4111 56.2208 86.2638 56.6991 86.2583C57.1775 86.2528 57.6467 86.3892 58.0475 86.6503C58.314 86.8238 58.5436 87.0481 58.7232 87.3105C58.9029 87.5728 59.029 87.868 59.0945 88.1791C59.16 88.4902 59.1635 88.8112 59.1049 89.1237C59.0462 89.4362 58.9265 89.7341 58.7527 90.0003V90.0003Z" fill="#42331D"/>
<path d="M65.7134 87.6561C65.4962 87.989 65.1556 88.222 64.7666 88.3038C64.3776 88.3855 63.9721 88.3095 63.6392 88.0922C63.3063 87.875 63.0734 87.5344 62.9916 87.1454C62.9098 86.7565 62.9859 86.3509 63.2031 86.018C63.4204 85.6851 63.761 85.4522 64.1499 85.3704C64.3426 85.3299 64.5413 85.3278 64.7347 85.364C64.9282 85.4003 65.1125 85.4744 65.2773 85.5819C65.4422 85.6895 65.5842 85.8285 65.6953 85.9909C65.8064 86.1534 65.8845 86.3361 65.925 86.5287C65.9654 86.7213 65.9676 86.9201 65.9313 87.1135C65.895 87.3069 65.821 87.4913 65.7134 87.6561V87.6561Z" fill="#42331D"/>
<path d="M35.6839 90.2869C36.4416 90.6171 37.3236 90.2705 37.6538 89.5128C37.984 88.755 37.6374 87.8731 36.8797 87.5429C36.122 87.2126 35.24 87.5592 34.9098 88.3169C34.5796 89.0747 34.9262 89.9567 35.6839 90.2869Z" fill="#42331D"/>
<path d="M41.6526 82.3257C42.4103 82.6559 43.2923 82.3093 43.6225 81.5516C43.9527 80.7939 43.6061 79.9119 42.8484 79.5817C42.0907 79.2515 41.2087 79.5981 40.8785 80.3558C40.5483 81.1136 40.8949 81.9955 41.6526 82.3257Z" fill="#42331D"/>
<path d="M57.8045 82.5887C57.3682 82.6786 56.9152 82.6387 56.5014 82.4739C56.0875 82.3092 55.731 82.0268 55.4759 81.6617C55.2957 81.4114 55.1709 81.1257 55.1098 80.8234C55.0479 80.5307 55.0444 80.2287 55.0994 79.9346C55.1544 79.6406 55.2669 79.3602 55.4304 79.1097C55.594 78.8592 55.8053 78.6434 56.0523 78.4746C56.2994 78.3059 56.5773 78.1877 56.8702 78.1265C56.9197 78.1116 56.9709 78.1024 57.0225 78.0993C57.6034 78.0277 58.1896 78.1824 58.6597 78.5312C59.1297 78.88 59.4476 79.3962 59.5475 79.9729C59.6474 80.5497 59.5216 81.1427 59.1962 81.6293C58.8708 82.1158 58.3707 82.4586 57.7996 82.5866L57.8045 82.5887Z" fill="#42331D"/>
<path d="M50.0683 85.5838C51.2932 86.1176 52.7189 85.5573 53.2527 84.3325C53.7864 83.1076 53.2262 81.6819 52.0013 81.1481C50.7765 80.6144 49.3508 81.1746 48.817 82.3995C48.2832 83.6243 48.8435 85.05 50.0683 85.5838Z" fill="#42331D"/>
<path d="M48.4945 92.9025C49.4152 93.3038 50.4868 92.8826 50.888 91.962C51.2892 91.0413 50.8681 89.9696 49.9474 89.5684C49.0267 89.1672 47.9551 89.5883 47.5539 90.509C47.1527 91.4297 47.5738 92.5013 48.4945 92.9025Z" fill="#42331D"/>
<path d="M52.9972 76.9301C54.2221 77.4639 55.6478 76.9037 56.1816 75.6788C56.7154 74.4539 56.1551 73.0283 54.9302 72.4945C53.7054 71.9607 52.2797 72.5209 51.7459 73.7458C51.2121 74.9707 51.7724 76.3964 52.9972 76.9301Z" fill="#42331D"/>
<path d="M46.5783 73.5186C47.0808 73.7376 47.6655 73.5078 47.8845 73.0053C48.1035 72.5029 47.8737 71.9181 47.3712 71.6991C46.8688 71.4802 46.284 71.71 46.065 72.2124C45.8461 72.7149 46.0759 73.2997 46.5783 73.5186Z" fill="#42331D"/>
<path d="M61.7627 75.2381C61.4698 75.2993 61.1653 75.2722 60.8878 75.1603C60.6102 75.0484 60.3722 74.8567 60.2036 74.6095C60.035 74.3623 59.9435 74.0706 59.9408 73.7714C59.938 73.4722 60.024 73.1789 60.1879 72.9285C60.3519 72.6782 60.5863 72.4821 60.8617 72.3651C61.1371 72.2481 61.4411 72.2154 61.7351 72.2711C62.0291 72.3268 62.2999 72.4684 62.5134 72.6781C62.7269 72.8878 62.8734 73.1561 62.9344 73.4491C62.9756 73.6435 62.9779 73.8442 62.9412 74.0395C62.9045 74.2349 62.8296 74.421 62.7207 74.5873C62.6118 74.7536 62.4711 74.8967 62.3067 75.0084C62.1423 75.1201 61.9574 75.1981 61.7627 75.2381Z" fill="#42331D"/>
<path d="M54.1058 69.9411C54.9179 70.295 55.8631 69.9236 56.217 69.1115C56.5708 68.2994 56.1994 67.3543 55.3874 67.0004C54.5753 66.6465 53.6301 67.0179 53.2763 67.83C52.9224 68.642 53.2938 69.5872 54.1058 69.9411Z" fill="#42331D"/>
<path d="M65.4271 79.4506C64.9857 79.5439 64.5266 79.5041 64.1078 79.3362C63.6891 79.1684 63.3296 78.8802 63.0747 78.508C62.8199 78.1357 62.6812 77.6962 62.6762 77.2452C62.6713 76.7941 62.8002 76.3516 63.0468 75.9739C63.2934 75.5961 63.6465 75.3 64.0615 75.123C64.4764 74.9461 64.9345 74.8961 65.3778 74.9796C65.8211 75.0631 66.2297 75.2763 66.5519 75.5921C66.874 75.9079 67.0952 76.3121 67.1875 76.7537C67.2494 77.0464 67.2529 77.3484 67.1979 77.6425C67.1429 77.9366 67.0304 78.2169 66.8668 78.4674C66.7033 78.7179 66.4919 78.9337 66.2449 79.1025C65.9978 79.2712 65.7199 79.3895 65.4271 79.4506V79.4506Z" fill="#42331D"/>
<path d="M67.9937 83.3367C67.6613 83.4061 67.3157 83.3754 67.0008 83.2484C66.6859 83.1214 66.4158 82.904 66.2245 82.6234C66.0332 82.3429 65.9294 82.0119 65.9262 81.6724C65.923 81.3329 66.0206 81.0001 66.2066 80.716C66.3926 80.4319 66.6587 80.2094 66.9712 80.0766C67.2837 79.9438 67.6285 79.9066 67.9621 79.9698C68.2957 80.033 68.6031 80.1937 68.8454 80.4316C69.0876 80.6695 69.2539 80.9739 69.3231 81.3063C69.4145 81.7517 69.3259 82.2151 69.0769 82.5955C68.8278 82.9759 68.4384 83.2423 67.9937 83.3367Z" fill="#42331D"/>
<path d="M62.1641 1.99844L55.3931 1.64276L54.2143 24.0826L60.9854 24.4383L62.1641 1.99844Z" fill="#BE9BC8"/>
<path d="M58.7234 2.79625C60.5932 2.89447 62.1319 2.53759 62.1602 1.99914C62.1885 1.4607 60.6956 0.944571 58.8259 0.846354C56.9561 0.748137 55.4174 1.10502 55.3892 1.64347C55.3609 2.18192 56.8537 2.69804 58.7234 2.79625Z" fill="#A580B2"/>
<path d="M57.5457 25.2374C59.4154 25.3356 60.9541 24.9787 60.9824 24.4402C61.0106 23.9018 59.5179 23.3857 57.6481 23.2875C55.7783 23.1892 54.2396 23.5461 54.2113 24.0846C54.183 24.623 55.6759 25.1391 57.5457 25.2374Z" fill="#BE9BC8"/>
<path d="M55.4561 81.6532L57.0077 78.0929C57.4093 78.0361 57.8187 78.0875 58.1938 78.2417C58.569 78.3959 58.8961 78.6474 59.1416 78.9702C59.3871 79.2931 59.5421 79.6756 59.5904 80.0783C59.6388 80.4809 59.5789 80.8892 59.4169 81.261C59.2548 81.6328 58.9966 81.9547 58.6687 82.1934C58.3408 82.4321 57.9551 82.579 57.5515 82.6189C57.1479 82.6589 56.741 82.5905 56.3727 82.4207C56.0043 82.251 55.6879 81.986 55.4561 81.6532V81.6532Z" fill="#42331D"/>
<path d="M59.9933 74.075C59.9328 73.7832 59.9602 73.4799 60.0719 73.2036C60.1837 72.9274 60.3749 72.6904 60.6213 72.5228C60.8677 72.3551 61.1583 72.2643 61.4563 72.2617C61.7543 72.2591 62.0464 72.345 62.2957 72.5084C62.5449 72.6718 62.7401 72.9054 62.8566 73.1797C62.9731 73.454 63.0057 73.7567 62.9503 74.0495C62.8948 74.3423 62.7538 74.6122 62.545 74.8249C62.3363 75.0376 62.0692 75.1836 61.7774 75.2445C61.3859 75.3248 60.9784 75.2469 60.6441 75.0278C60.3098 74.8086 60.0758 74.4661 59.9933 74.075V74.075Z" fill="#42331D"/>
<path d="M58.0476 86.6502C58.4482 86.9123 58.7621 87.2873 58.9494 87.7279C59.1368 88.1684 59.1893 88.6546 59.1002 89.125C59.0111 89.5954 58.7844 90.0288 58.4489 90.3702C58.1134 90.7117 57.6841 90.946 57.2154 91.0434C56.7467 91.1408 56.2596 91.097 55.8158 90.9174C55.372 90.7379 54.9915 90.4307 54.7224 90.0348C54.4533 89.6389 54.3076 89.172 54.3039 88.6932C54.3003 88.2145 54.4387 87.7455 54.7018 87.3455C55.0537 86.8102 55.6037 86.4364 56.2309 86.3061C56.8582 86.1757 57.5115 86.2995 58.0476 86.6502V86.6502Z" fill="#42331D"/>
<path d="M67.1926 76.7559C67.2845 77.196 67.2439 77.6535 67.0759 78.0705C66.9079 78.4876 66.6201 78.8454 66.2489 79.099C65.8776 79.3525 65.4395 79.4904 64.9899 79.495C64.5403 79.4997 64.0994 79.3711 63.7229 79.1253C63.3465 78.8796 63.0513 78.5278 62.8747 78.1143C62.698 77.7009 62.6479 77.2443 62.7306 76.8024C62.8133 76.3605 63.0251 75.953 63.3393 75.6314C63.6534 75.3098 64.0559 75.0885 64.4957 74.9955C65.0866 74.8735 65.7018 74.9901 66.207 75.3199C66.7123 75.6496 67.0666 76.1659 67.1926 76.7559V76.7559Z" fill="#42331D"/>
<path d="M65.2506 85.5762C65.4157 85.6829 65.5581 85.8211 65.6695 85.983C65.781 86.145 65.8593 86.3273 65.9 86.5196C65.9408 86.7119 65.9431 86.9104 65.9068 87.1036C65.8706 87.2968 65.7965 87.4809 65.6888 87.6454C65.4716 87.9783 65.1311 88.2113 64.7421 88.2931C64.3531 88.3748 63.9475 88.2987 63.6146 88.0815C63.2817 87.8643 63.0488 87.5237 62.967 87.1347C62.8852 86.7457 62.9613 86.3402 63.1785 86.0073C63.2858 85.8424 63.4246 85.7003 63.587 85.5893C63.7494 85.4783 63.9322 85.4005 64.1248 85.3604C64.3174 85.3203 64.5161 85.3188 64.7093 85.3558C64.9025 85.3928 65.0865 85.4677 65.2506 85.5762V85.5762Z" fill="#42331D"/>
<path d="M65.9581 82.005C65.8894 81.6728 65.9206 81.3277 66.0478 81.0133C66.175 80.6988 66.3926 80.4291 66.673 80.2382C66.9534 80.0473 67.2841 79.9437 67.6233 79.9406C67.9625 79.9375 68.295 80.0349 68.5789 80.2207C68.8627 80.4064 69.0852 80.6721 69.2182 80.9842C69.3512 81.2962 69.3888 81.6407 69.3261 81.9741C69.2635 82.3075 69.1035 82.6148 68.8663 82.8573C68.6291 83.0999 68.3254 83.2667 67.9935 83.3367C67.7723 83.3833 67.5442 83.3858 67.3221 83.3441C67.1 83.3024 66.8884 83.2172 66.6993 83.0935C66.5102 82.9698 66.3474 82.8099 66.2202 82.6231C66.093 82.4363 66.0039 82.2263 65.9581 82.005Z" fill="#42331D"/>
</svg>
