<svg width="89" height="52" viewBox="0 0 89 52" fill="none" xmlns="http://www.w3.org/2000/svg">
<path d="M87.7104 35.7103C83.9333 29.4642 65.9902 24.7316 44.4239 24.7316C22.8576 24.7316 4.88893 29.4642 1.13744 35.7103H0.399963V38.1664C0.399963 45.586 20.1129 51.6333 44.4239 51.6333C68.7349 51.6333 88.4479 45.6181 88.4479 38.1664V35.7103H87.7104Z" fill="#BEBFBE"/>
<path d="M44.4239 49.1452C68.7377 49.1452 88.4479 43.1302 88.4479 35.7104C88.4479 28.2905 68.7377 22.2755 44.4239 22.2755C20.1102 22.2755 0.399963 28.2905 0.399963 35.7104C0.399963 43.1302 20.1102 49.1452 44.4239 49.1452Z" fill="#D3D3D3"/>
<path d="M74.7886 34.5881C74.7886 37.9869 61.5526 40.7444 45.2255 40.7444C28.8985 40.7444 15.6561 38.0189 15.6561 34.5881C15.6561 31.1572 29.4693 28.4318 45.7963 28.4318C62.1233 28.4318 74.7886 31.1829 74.7886 34.5881Z" fill="#BFC1C0"/>
<path d="M71.518 32.8887C71.518 35.7552 59.7441 38.0766 45.2255 38.0766C30.7068 38.0766 18.9329 35.7552 18.9329 32.8887C18.9329 30.0221 31.1814 27.6879 45.7321 27.6879C60.2827 27.6879 71.518 30.0157 71.518 32.8887Z" fill="#FFF7AD"/>
<path d="M23.7554 5.30713H65.2976L71.518 32.8758H18.9265L23.7554 5.30713Z" fill="#FFF7AD"/>
<path d="M65.2976 4.47993C65.2976 2.10719 55.999 0.18335 44.5265 0.18335C33.0539 0.18335 23.7554 2.10719 23.7554 4.47993V5.3136C23.7554 7.68634 33.0539 9.61018 44.5265 9.61018C55.999 9.61018 65.2976 7.68634 65.2976 5.3136V4.47993Z" fill="#6A514D"/>
<path d="M44.5265 8.17371C55.998 8.17371 65.2976 6.38501 65.2976 4.17853C65.2976 1.97205 55.998 0.18335 44.5265 0.18335C33.0549 0.18335 23.7554 1.97205 23.7554 4.17853C23.7554 6.38501 33.0549 8.17371 44.5265 8.17371Z" fill="#3A120D"/>
</svg>
