<svg width="87" height="76" viewBox="0 0 87 76" fill="none" xmlns="http://www.w3.org/2000/svg">
<path d="M3.79904 58.8067C0.0475157 61.828 4.42959 64.0282 6.26401 65.4201C14.8207 69.4947 31.119 73.6213 44.5651 73.5693C56.789 73.522 74.3681 70.47 79.6066 67.05C82.6024 63.6249 81.0506 62.6491 81.0506 62.6491C81.0506 62.6491 40.182 72.2301 3.79904 58.8067Z" fill="#BE8B40"/>
<path d="M5.94032 51.7607C5.42668 51.5306 -0.300943 54.8431 3.30554 59.8546C4.31853 62.4227 38.9194 69.9459 47.452 68.6467C55.9845 67.3474 80.7465 65.4372 81.1582 62.7543C81.57 60.0713 81.6012 53.7365 81.6012 53.7365C81.6012 53.7365 38.2245 66.2719 5.94032 51.7607Z" fill="#59361F"/>
<path d="M5.15611 44.4422C0.184939 44.9686 0.983657 50.1696 2.21826 51.1518C3.45287 52.134 9.24098 51.942 7.93085 55.9534C6.62073 59.9649 7.72539 64.8182 10.1812 62.3791C12.6369 59.94 17.3827 57.9659 17.6372 60.2497C17.8918 62.5335 22.3915 66.1211 23.483 64.1223C24.5745 62.1235 27.8837 67.7195 30.3066 66.3872C32.7294 65.0549 35.5132 62.0986 36.1057 63.6212C36.6982 65.1439 47.23 73.4597 48.1566 67.0377C49.0833 60.6156 54.9404 65.2936 58.8875 64.7649C62.8346 64.2362 68.0967 66.1923 68.6079 63.5886C69.1191 60.985 74.1324 63.1496 75.6653 65.1772C77.1982 67.2048 79.1743 67.7181 80.0984 65.0816C81.0225 62.4451 78.3429 59.5197 78.3429 59.5197C78.3429 59.5197 82.8464 63.6632 83.8229 61.0249C84.7993 58.3866 84.0496 55.1952 83.7355 54.3752C83.4213 53.5551 83.1668 51.2714 84.2586 50.9716C85.3503 50.6718 83.5674 46.1791 81.384 46.8036C79.2006 47.4281 5.15611 44.4422 5.15611 44.4422Z" fill="#86B240"/>
<path d="M15.2775 16.6916C15.2775 16.6916 28.2306 54.1587 34.5348 63.6688C38.1045 69.0561 39.4868 64.5486 43.6913 61.7373C47.8959 58.926 58.8963 54.4264 59.3621 51.1622C59.828 47.898 24.5162 16.5188 24.5162 16.5188L15.2775 16.6916Z" fill="#FEEA59"/>
<path d="M25.0647 49.0949C21.7529 48.946 7.74097 45.503 6.42569 46.2914C5.11041 47.0798 3.97316 49.1927 7.21391 51.6553C10.7823 54.3753 28.8929 58.9834 30.5281 57.3532C32.1633 55.7231 35.844 49.5628 25.0647 49.0949Z" fill="#E56627"/>
<path d="M51.4767 50.1518C48.3094 50.6851 34.4926 50.1838 33.342 51.2227C32.1914 52.2616 31.4279 54.5678 34.8557 56.3181C38.6396 58.2436 56.514 59.0431 57.8096 57.1185C59.1053 55.1939 61.7925 48.418 51.4767 50.1518Z" fill="#E56627"/>
<path d="M73.1253 48.161C70.7515 49.0232 60.0174 50.0155 59.2747 51.1341C58.5319 52.2527 58.275 54.604 61.1762 55.9413C64.3751 57.4184 78.2909 56.2859 79.0157 54.2684C79.7405 52.2509 80.8385 45.3669 73.1253 48.161Z" fill="#E56627"/>
<path d="M6.68438 35.882C6.17631 35.6183 3.50052 44.018 4.51598 46.9378C5.53144 49.8577 39.6876 56.6772 48.2134 55.2421C56.7391 53.8069 81.5059 51.753 81.9151 48.7094C82.3243 45.6658 82.3554 38.4748 82.3554 38.4748C82.3554 38.4748 38.9834 52.5036 6.68438 35.882Z" fill="#59361F"/>
<path d="M5.90565 28.5689C0.92867 29.0954 1.72735 34.2902 2.96199 35.2786C4.19664 36.267 9.98467 36.0625 8.6804 40.0801C7.37614 44.0976 8.4749 48.9386 10.9249 46.4997C13.3748 44.0608 18.1264 42.0865 18.3868 44.3701C18.6472 46.6537 23.141 50.2415 24.2325 48.2427C25.324 46.2439 28.6333 51.8399 31.0561 50.5076C33.4789 49.1753 36.2975 46.2116 36.8552 47.7354C37.4128 49.2592 47.9794 57.5739 48.9119 51.1516C49.8444 44.7294 55.6899 49.4078 59.6372 48.9103C63.5845 48.4128 68.8521 50.3312 69.3575 47.7278C69.8629 45.1244 74.8879 47.2885 76.4208 49.3224C77.9537 51.3562 79.9298 51.8632 80.848 49.2207C81.7663 46.5782 79.0983 43.6587 79.0983 43.6587C79.0983 43.6587 83.6019 47.8021 84.5783 45.1638C85.5548 42.5255 84.8051 39.3342 84.4852 38.5206C84.1653 37.707 83.9165 35.4167 85.0082 35.1107C86.0999 34.8047 84.3229 30.3181 82.1337 30.9427C79.9445 31.5674 5.90565 28.5689 5.90565 28.5689Z" fill="#86B240"/>
<path d="M9.63474 32.6265C9.63474 32.6265 61.4074 50.7612 63.627 56.9505C65.8465 63.1399 68.3254 54.8656 70.5613 50.1228C72.7973 45.38 80.0409 35.3559 78.8328 32.3489C77.6247 29.3419 31.6798 23.2947 31.6798 23.2947L9.63474 32.6265Z" fill="#FEEA59"/>
<path d="M78.3331 28.2994C78.3331 28.2994 24.4174 40.5842 21.3691 46.4855C18.3209 52.3868 16.9987 43.893 15.4511 38.9424C13.9035 33.9919 8.12016 23.2459 9.74101 20.3981C11.3619 17.5503 57.7522 16.5798 57.7522 16.5798L78.3331 28.2994Z" fill="#FEEA59"/>
<path d="M25.8088 33.2155C22.4971 33.0728 8.48508 29.6236 7.1698 30.412C5.85452 31.2004 4.71727 33.3133 7.95225 35.7823C11.5264 38.4959 29.637 43.104 31.2664 41.474C32.8958 39.844 36.5882 33.7021 25.8088 33.2155Z" fill="#E56627"/>
<path d="M52.2209 34.2725C49.0536 34.8057 35.2426 34.3043 34.0862 35.3434C32.9298 36.3824 32.1721 38.6884 35.5999 40.4387C39.3838 42.3643 57.2582 43.1638 58.5597 41.239C59.8611 39.3142 62.5367 32.5386 52.2209 34.2725Z" fill="#E56627"/>
<path d="M74.6281 33.4672C72.2544 34.3231 61.5203 35.3155 60.7776 36.4403C60.0349 37.5652 59.7778 39.9102 62.6791 41.2476C65.878 42.7246 79.7939 41.5983 80.5187 39.5808C81.2435 37.5633 82.353 30.6665 74.6281 33.4672Z" fill="#E56627"/>
<path d="M83.8928 28.7149C83.1729 38.8904 64.8133 40.2563 42.9561 39.0435C21.099 37.8307 4.01569 34.5117 4.73562 24.3363C4.76481 23.9328 4.82427 23.5318 4.9134 23.1371C5.56027 32.4037 22.1358 35.5089 43.1315 36.67C64.1271 37.8311 81.8883 36.5919 83.896 27.5092C83.9203 27.9101 83.9193 28.3129 83.8928 28.7149V28.7149Z" fill="#AA7833"/>
<path d="M83.3704 27.3343C83.335 27.4788 83.2995 27.6232 83.2524 27.7679C82.2203 17.6711 65.8923 3.88506 45.2422 2.48639C24.5921 1.08772 7.06341 12.57 4.50169 22.4204C4.48243 22.2801 4.47131 22.1385 4.4684 21.9963C6.57097 12.0435 24.328 0.15026 45.3271 1.57255C66.3261 2.99485 82.8329 17.1955 83.3704 27.3343Z" fill="#D1A065"/>
<path d="M83.9176 27.9914C81.3602 36.6798 63.4223 38.8152 42.7722 37.4165C22.122 36.0178 4.72569 32.6593 4.50158 22.4204C7.0633 12.57 24.6094 1.08736 45.2595 2.48603C65.9097 3.8847 82.8855 17.8883 83.9176 27.9914Z" fill="#BE8B40"/>
<path d="M15.1417 20.1469C16.158 19.492 16.7778 18.586 16.5261 18.1232C16.2744 17.6604 15.2465 17.8161 14.2303 18.471C13.214 19.1259 12.5942 20.0319 12.8459 20.4947C13.0975 20.9575 14.1254 20.8018 15.1417 20.1469Z" fill="#CCA36C"/>
<path d="M22.3601 12.6099C23.3763 11.9551 23.9962 11.049 23.7445 10.5862C23.4928 10.1234 22.4649 10.2791 21.4486 10.934C20.4324 11.5889 19.8126 12.4949 20.0642 12.9577C20.3159 13.4205 21.3438 13.2648 22.3601 12.6099Z" fill="#CCA36C"/>
<path d="M30.1559 16.6622C31.0269 15.755 31.4598 14.7165 31.1229 14.3428C30.7859 13.969 29.8067 14.4014 28.9357 15.3086C28.0647 16.2159 27.6318 17.2543 27.9688 17.6281C28.3057 18.0019 29.2849 17.5694 30.1559 16.6622Z" fill="#CCA36C"/>
<path d="M36.2918 8.49905C37.1028 7.85112 37.561 7.03373 37.3151 6.67335C37.0693 6.31297 36.2125 6.54608 35.4015 7.19401C34.5905 7.84194 34.1324 8.65933 34.3783 9.01971C34.6241 9.38009 35.4808 9.14698 36.2918 8.49905Z" fill="#CCA36C"/>
<path d="M42.3648 20.7017C42.8788 19.4612 42.9463 18.2961 42.5156 18.0994C42.0849 17.9026 41.319 18.7487 40.805 19.9892C40.291 21.2296 40.2235 22.3947 40.6542 22.5915C41.0849 22.7883 41.8508 21.9422 42.3648 20.7017Z" fill="#CCA36C"/>
<path d="M58.317 9.20523C58.5094 8.78278 57.9604 8.08418 57.0908 7.64486C56.2211 7.20553 55.3602 7.19185 55.1679 7.6143C54.9755 8.03675 55.5245 8.73536 56.3941 9.17468C57.2638 9.614 58.1247 9.62768 58.317 9.20523Z" fill="#CCA36C"/>
<path d="M52.8721 12.4168C53.1878 12.1148 52.9081 11.2204 52.2474 10.419C51.5867 9.61769 50.7953 9.21287 50.4796 9.51483C50.164 9.81679 50.4437 10.7112 51.1044 11.5125C51.765 12.3139 52.5565 12.7187 52.8721 12.4168Z" fill="#CCA36C"/>
<path d="M43.2027 8.84111C43.9782 8.13338 44.3913 7.28492 44.1254 6.94603C43.8595 6.60714 43.0153 6.90614 42.2398 7.61387C41.4643 8.3216 41.0512 9.17004 41.3171 9.50894C41.583 9.84783 42.4272 9.54884 43.2027 8.84111Z" fill="#CCA36C"/>
<path d="M55.4206 21.1117C55.7945 20.754 55.4631 19.6944 54.6804 18.7451C53.8977 17.7957 52.9601 17.3161 52.5862 17.6738C52.2123 18.0315 52.5437 19.0911 53.3264 20.0404C54.1091 20.9898 55.0467 21.4694 55.4206 21.1117Z" fill="#CCA36C"/>
<path d="M66.9707 27.2124C67.3446 26.8547 67.0132 25.7951 66.2305 24.8457C65.4478 23.8963 64.5102 23.4167 64.1363 23.7744C63.7624 24.1321 64.0938 25.1917 64.8765 26.1411C65.6592 27.0905 66.5968 27.5701 66.9707 27.2124Z" fill="#CCA36C"/>
<path d="M47.3454 31.3615C47.8083 31.2935 48.069 30.1464 47.9277 28.7994C47.7863 27.4524 47.2965 26.4155 46.8335 26.4835C46.3706 26.5515 46.1099 27.6985 46.2512 29.0456C46.3926 30.3926 46.8825 31.4295 47.3454 31.3615Z" fill="#CCA36C"/>
<path d="M29.9324 26.9995C30.7823 26.0554 31.188 24.9964 30.8386 24.6342C30.4893 24.272 29.5172 24.7438 28.6673 25.6879C27.8175 26.632 27.4117 27.6909 27.7611 28.0531C28.1104 28.4153 29.0826 27.9436 29.9324 26.9995Z" fill="#CCA36C"/>
<path d="M75.4925 20.8208C75.8511 20.4404 75.4733 19.4044 74.6485 18.5067C73.8238 17.609 72.8644 17.1897 72.5058 17.5701C72.1472 17.9504 72.525 18.9865 73.3498 19.8842C74.1745 20.7818 75.1338 21.2012 75.4925 20.8208Z" fill="#CCA36C"/>
<path d="M66.0495 17.0991C66.4082 16.7187 66.0303 15.6826 65.2056 14.785C64.3808 13.8873 63.4215 13.4679 63.0628 13.8483C62.7042 14.2287 63.0821 15.2648 63.9068 16.1624C64.7316 17.0601 65.6909 17.4794 66.0495 17.0991Z" fill="#CCA36C"/>
</svg>
