<svg width="111" height="67" viewBox="0 0 111 67" fill="none" xmlns="http://www.w3.org/2000/svg">
<path d="M3.38285 30.625C-3.65875 41.5325 17.0813 64.8131 31.2195 66.2972C36.6671 66.8591 46.4386 62.6329 57.8163 61.1183C66.8474 59.8065 75.6164 57.0841 83.8025 53.0507C97.049 46.6992 108.842 44.4029 109.783 40.9767C111.053 36.2192 110.393 22.0017 99.1621 16.2487C91.864 12.5172 88.0164 5.96415 81.9459 6.47716C75.1364 7.05734 61.4684 6.32448 47.4646 11.2225C37.9985 14.5264 30.6026 17.977 22.2969 19.2717C12.3482 20.8413 5.73413 26.9912 3.38285 30.625Z" fill="#C6C6C6"/>
<path d="M2.14298 26.0201C-4.80701 37.6238 15.6643 62.3336 29.6254 63.8848C35.0058 64.4955 44.6491 59.9945 55.8864 58.3883C64.4364 57.1669 73.1025 54.1866 81.5366 49.8382C94.6182 43.1203 106.283 40.6774 107.187 37.0131C108.445 31.9563 107.798 16.8593 96.7008 10.7521C89.5004 6.78247 85.7078 -0.173633 79.7044 0.369908C72.9865 0.980628 59.4957 0.211121 45.669 5.41446C36.3433 8.91999 29.0147 12.5843 20.8188 13.9645C10.9679 15.6074 4.46372 22.1543 2.14298 26.0201Z" fill="#FFE2A9"/>
<path d="M104.188 28.7256C104.188 28.7256 106.204 35.4069 99.9681 37.9719C93.7327 40.537 40.0076 59.28 34.9875 59.3472C29.9674 59.4143 28.0436 57.6738 28.0436 57.6738C31.1549 58.3388 34.3778 58.2761 37.4609 57.4906C42.4627 56.1775 91.5402 39.9873 95.4793 38.0574C104.567 33.6053 103.956 33.6175 104.188 28.7256Z" fill="#EBCD94"/>
<path d="M3.87749 32.7747C2.80873 33.4465 18.6142 55.1637 21.5395 56.0126C24.4649 56.8615 25.5947 56.7393 26.1016 56.1225C26.6085 55.5057 22.7243 56.4584 20.8128 54.3758C18.9012 52.2933 4.94625 32.0968 3.87749 32.7747Z" fill="#EBCD94"/>
<path d="M77.2616 8.00391C77.2616 9.5246 75.0752 10.7521 72.3759 10.7521C69.6765 10.7521 67.4901 9.53071 67.4901 8.00391C67.4808 7.90234 67.4808 7.80012 67.4901 7.69855C67.7588 9.07267 69.8291 10.1414 72.3759 10.1414C74.9226 10.1414 76.9624 9.07267 77.2311 7.69855C77.2506 7.79918 77.2608 7.9014 77.2616 8.00391V8.00391Z" fill="#BC883D"/>
<path d="M72.3758 9.45131C74.7233 9.45131 76.6264 8.49431 76.6264 7.31379C76.6264 6.13327 74.7233 5.17627 72.3758 5.17627C70.0282 5.17627 68.1252 6.13327 68.1252 7.31379C68.1252 8.49431 70.0282 9.45131 72.3758 9.45131Z" fill="#DD5324"/>
<path d="M79.7044 20.2183C79.7044 21.739 77.518 22.9666 74.8186 22.9666C72.1192 22.9666 69.9329 21.7451 69.9329 20.2183C69.9235 20.1168 69.9235 20.0145 69.9329 19.913C70.2016 21.2871 72.2719 22.3558 74.8186 22.3558C77.3653 22.3558 79.4051 21.2871 79.7044 19.913C79.7137 20.0145 79.7137 20.1168 79.7044 20.2183Z" fill="#BC883D"/>
<path d="M74.8187 21.6657C77.1663 21.6657 79.0693 20.7087 79.0693 19.5282C79.0693 18.3477 77.1663 17.3907 74.8187 17.3907C72.4712 17.3907 70.5681 18.3477 70.5681 19.5282C70.5681 20.7087 72.4712 21.6657 74.8187 21.6657Z" fill="#DD5324"/>
<path d="M95.5832 28.7684C95.5832 30.2891 93.3968 31.5166 90.6974 31.5166C87.998 31.5166 85.8116 30.2952 85.8116 28.7684C85.8124 28.6659 85.8226 28.5636 85.8422 28.463C86.1109 29.8371 88.1812 30.9059 90.6974 30.9059C93.2136 30.9059 95.2839 29.8371 95.5832 28.463C95.5925 28.5646 95.5925 28.6668 95.5832 28.7684V28.7684Z" fill="#BC883D"/>
<path d="M90.6974 30.2158C93.045 30.2158 94.948 29.2588 94.948 28.0783C94.948 26.8978 93.045 25.9408 90.6974 25.9408C88.3499 25.9408 86.4468 26.8978 86.4468 28.0783C86.4468 29.2588 88.3499 30.2158 90.6974 30.2158Z" fill="#FFBD1A"/>
<path d="M76.6508 7.0573C76.6571 7.14472 76.6571 7.23248 76.6508 7.31991C76.4127 6.09847 74.6049 5.18239 72.3758 5.18239C70.1467 5.18239 68.3634 6.1229 68.1008 7.31991C68.0913 7.23263 68.0913 7.14458 68.1008 7.0573C68.1008 5.72593 70.0123 4.65106 72.3758 4.65106C74.7393 4.65106 76.6508 5.71982 76.6508 7.0573Z" fill="#DD5324"/>
<path d="M61.9936 17.7754C61.9936 19.2961 59.8072 20.5236 57.1078 20.5236C54.4084 20.5236 52.2221 19.3022 52.2221 17.7754C52.2127 17.6738 52.2127 17.5716 52.2221 17.47C52.4908 18.8442 54.5611 19.9129 57.1078 19.9129C59.6545 19.9129 61.6943 18.8442 61.963 17.47C61.9826 17.5707 61.9928 17.6729 61.9936 17.7754V17.7754Z" fill="#BC883D"/>
<path d="M57.1077 19.2229C59.4552 19.2229 61.3583 18.2659 61.3583 17.0853C61.3583 15.9048 59.4552 14.9478 57.1077 14.9478C54.7601 14.9478 52.857 15.9048 52.857 17.0853C52.857 18.2659 54.7601 19.2229 57.1077 19.2229Z" fill="#FFBD1A"/>
<path d="M70.5437 33.0435C70.5437 34.5642 68.3573 35.7917 65.6579 35.7917C62.9586 35.7917 60.7722 34.5703 60.7722 33.0435C60.7628 32.9419 60.7628 32.8397 60.7722 32.7381C61.0409 34.1122 63.1112 35.181 65.6579 35.181C68.2046 35.181 70.2444 34.1122 70.5132 32.7381C70.5327 32.8387 70.5429 32.9409 70.5437 33.0435V33.0435Z" fill="#BC883D"/>
<path d="M65.6578 34.4908C68.0053 34.4908 69.9084 33.5338 69.9084 32.3533C69.9084 31.1728 68.0053 30.2158 65.6578 30.2158C63.3102 30.2158 61.4072 31.1728 61.4072 32.3533C61.4072 33.5338 63.3102 34.4908 65.6578 34.4908Z" fill="#DD5324"/>
<path d="M41.2291 19.6076C41.2291 21.1283 39.0427 22.3558 36.3433 22.3558C33.6439 22.3558 31.4575 21.1344 31.4575 19.6076C31.4583 19.5051 31.4685 19.4029 31.4881 19.3022C31.7568 20.6764 33.8271 21.7451 36.3433 21.7451C38.8595 21.7451 40.9298 20.6764 41.1985 19.3022C41.2181 19.4029 41.2283 19.5051 41.2291 19.6076V19.6076Z" fill="#BC883D"/>
<path d="M36.3432 21.055C38.6908 21.055 40.5938 20.098 40.5938 18.9175C40.5938 17.737 38.6908 16.78 36.3432 16.78C33.9957 16.78 32.0926 17.737 32.0926 18.9175C32.0926 20.098 33.9957 21.055 36.3432 21.055Z" fill="#DD5324"/>
<path d="M44.2827 31.822C44.2827 33.3427 42.0963 34.5703 39.3969 34.5703C36.6975 34.5703 34.5111 33.3488 34.5111 31.822C34.5119 31.7195 34.5221 31.6173 34.5417 31.5167C34.8104 32.8908 36.8807 33.9595 39.3969 33.9595C41.9131 33.9595 43.9834 32.8908 44.2521 31.5167C44.2717 31.6173 44.2819 31.7195 44.2827 31.822Z" fill="#BC883D"/>
<path d="M39.3968 33.2694C41.7444 33.2694 43.6474 32.3124 43.6474 31.1318C43.6474 29.9513 41.7444 28.9943 39.3968 28.9943C37.0493 28.9943 35.1462 29.9513 35.1462 31.1318C35.1462 32.3124 37.0493 33.2694 39.3968 33.2694Z" fill="#FFBD1A"/>
<path d="M40.6184 18.661C40.6246 18.7484 40.6246 18.8362 40.6184 18.9236C40.3802 17.7022 38.5725 16.7861 36.3433 16.7861C34.1142 16.7861 32.3309 17.7266 32.0988 18.9236C32.0792 18.8374 32.0689 18.7494 32.0683 18.661C32.0683 17.3296 33.9798 16.2548 36.3433 16.2548C38.7068 16.2548 40.6184 17.3235 40.6184 18.661Z" fill="#DD5324"/>
<path d="M58.94 43.4257C58.94 44.9464 56.7536 46.1739 54.0542 46.1739C51.3548 46.1739 49.1684 44.9525 49.1684 43.4257C49.1591 43.3241 49.1591 43.2219 49.1684 43.1203C49.4372 44.4944 51.5075 45.5632 54.0542 45.5632C56.6009 45.5632 58.6407 44.4944 58.9094 43.1203C58.929 43.2209 58.9392 43.3232 58.94 43.4257Z" fill="#BC883D"/>
<path d="M54.0542 44.8731C56.4017 44.8731 58.3048 43.9161 58.3048 42.7355C58.3048 41.555 56.4017 40.598 54.0542 40.598C51.7067 40.598 49.8036 41.555 49.8036 42.7355C49.8036 43.9161 51.7067 44.8731 54.0542 44.8731Z" fill="#FFBD1A"/>
<path d="M32.0683 40.3721C32.0683 41.8928 29.882 43.1203 27.1826 43.1203C24.4832 43.1203 22.2968 41.8989 22.2968 40.3721C22.2976 40.2696 22.3078 40.1673 22.3274 40.0667C22.5961 41.4408 24.6664 42.5096 27.1826 42.5096C29.6988 42.5096 31.7691 41.4408 32.0683 40.0667C32.0777 40.1683 32.0777 40.2705 32.0683 40.3721V40.3721Z" fill="#BC883D"/>
<path d="M27.1823 41.8195C29.5299 41.8195 31.433 40.8625 31.433 39.682C31.433 38.5014 29.5299 37.5444 27.1823 37.5444C24.8348 37.5444 22.9317 38.5014 22.9317 39.682C22.9317 40.8625 24.8348 41.8195 27.1823 41.8195Z" fill="#DD5324"/>
<path d="M19.8539 28.7684C19.8539 30.2891 17.6675 31.5166 14.9681 31.5166C12.2687 31.5166 10.0823 30.2952 10.0823 28.7684C10.0831 28.6659 10.0933 28.5636 10.1129 28.463C10.3816 29.8371 12.4519 30.9059 14.9986 30.9059C17.5453 30.9059 19.5851 29.8371 19.8844 28.463C19.8836 28.5655 19.8734 28.6677 19.8539 28.7684V28.7684Z" fill="#BC883D"/>
<path d="M14.968 30.2158C17.3156 30.2158 19.2186 29.2588 19.2186 28.0783C19.2186 26.8978 17.3156 25.9408 14.968 25.9408C12.6205 25.9408 10.7174 26.8978 10.7174 28.0783C10.7174 29.2588 12.6205 30.2158 14.968 30.2158Z" fill="#DD5324"/>
<path d="M58.3292 42.4791C58.3355 42.5665 58.3355 42.6542 58.3292 42.7417C58.091 41.5202 56.2833 40.6041 54.0541 40.6041C51.825 40.6041 50.0417 41.5447 49.7791 42.7417C49.7697 42.6544 49.7697 42.5663 49.7791 42.4791C49.7791 41.1477 51.6907 40.0728 54.0541 40.0728C56.4176 40.0728 58.3292 41.1416 58.3292 42.4791Z" fill="#FFBD1A"/>
<path d="M75.3377 6.26333C75.2645 6.59312 74.5377 6.08012 73.5483 5.86026C72.559 5.6404 71.7162 5.78697 71.7589 5.45718C71.8017 5.1274 72.6933 5.04189 73.6827 5.26175C74.6721 5.48161 75.411 5.93355 75.3377 6.26333Z" fill="#E8AF62"/>
<path d="M77.7806 19.0885C77.7073 19.4183 76.9806 18.9053 75.9912 18.6854C75.0018 18.4655 74.159 18.6121 74.2018 18.2823C74.2445 17.9525 75.1362 17.867 76.1256 18.0869C77.1149 18.3067 77.8539 18.7587 77.7806 19.0885Z" fill="#E8AF62"/>
<path d="M68.6198 31.9136C68.5465 32.2434 67.8198 31.7304 66.8304 31.5105C65.841 31.2907 64.9983 31.4372 65.041 31.1075C65.0838 30.7777 65.9754 30.6922 66.9648 30.912C67.9541 31.1319 68.6931 31.5838 68.6198 31.9136Z" fill="#E8AF62"/>
<path d="M39.3053 17.867C39.232 18.1968 38.5052 17.6838 37.5159 17.464C36.5265 17.2441 35.6532 17.3907 35.7265 17.0609C35.7997 16.7311 36.6609 16.6456 37.6502 16.8655C38.6396 17.0853 39.3786 17.5372 39.3053 17.867Z" fill="#E8AF62"/>
<path d="M17.9301 27.6385C17.8568 27.9683 17.13 27.4553 16.1407 27.2354C15.1513 27.0156 14.278 27.1622 14.3513 26.8324C14.4245 26.5026 15.2857 26.4171 16.275 26.6369C17.2644 26.8568 18.0034 27.3087 17.9301 27.6385Z" fill="#E8AF62"/>
<path d="M30.1446 39.2423C30.0713 39.5721 29.3445 39.0591 28.3552 38.8392C27.3658 38.6193 26.4925 38.7659 26.5658 38.4361C26.6391 38.1063 27.5002 38.0208 28.4895 38.2407C29.4789 38.4606 30.2179 38.9125 30.1446 39.2423Z" fill="#E8AF62"/>
<path d="M93.6594 27.6385C93.5861 27.9683 92.8593 27.4553 91.87 27.2354C90.8806 27.0156 90.0073 27.1622 90.0806 26.8324C90.1539 26.5026 91.015 26.4171 92.0043 26.6369C92.9937 26.8568 93.7327 27.3087 93.6594 27.6385Z" fill="#EAD096"/>
<path d="M59.459 16.6456C59.3857 16.9754 58.6589 16.4624 57.6695 16.2425C56.6802 16.0227 55.8374 16.1692 55.8801 15.8394C55.9229 15.5097 56.8145 15.4242 57.8039 15.644C58.7933 15.8639 59.5322 16.3158 59.459 16.6456Z" fill="#EAD096"/>
<path d="M57.0161 41.6851C56.9428 42.0149 56.216 41.5019 55.2267 41.2821C54.2373 41.0622 53.3945 41.2088 53.4373 40.879C53.48 40.5492 54.3717 40.4637 55.361 40.6836C56.3504 40.9034 57.0894 41.3554 57.0161 41.6851Z" fill="#EAD096"/>
<path d="M42.3589 30.6922C42.2856 31.022 41.5589 30.509 40.5695 30.2891C39.5801 30.0692 38.7373 30.2158 38.7801 29.886C38.8228 29.5562 39.7145 29.4707 40.7039 29.6906C41.6932 29.9104 42.4322 30.3624 42.3589 30.6922Z" fill="#EAD096"/>
<path d="M62.6165 4.19303C62.9402 2.97159 60.3386 7.82071 60.7844 8.52304C61.2302 9.22536 62.5433 4.46175 62.6165 4.19303Z" fill="#1B6815"/>
<path d="M60.6438 8.27868C59.6606 9.06041 64.6257 6.70303 64.6746 5.8358C64.7234 4.96858 60.8576 8.09547 60.6438 8.27868Z" fill="#1B6815"/>
<path d="M60.1736 26.1789C60.4973 24.9575 57.8956 29.8066 58.3414 30.5089C58.7873 31.2113 60.1003 26.4476 60.1736 26.1789Z" fill="#1B6815"/>
<path d="M58.2009 30.2646C57.2176 31.0464 62.1828 28.689 62.2316 27.8523C62.2805 27.0156 58.4146 30.0814 58.2009 30.2646Z" fill="#1B6815"/>
<path d="M42.4628 21.9039C42.7865 20.6825 40.1848 25.5316 40.6306 26.2339C41.0764 26.9362 42.3895 22.1726 42.4628 21.9039Z" fill="#1B6815"/>
<path d="M40.4901 25.9896C39.5068 26.7713 44.472 24.414 44.5208 23.5773C44.5697 22.7406 40.7038 25.8064 40.4901 25.9896Z" fill="#1B6815"/>
<path d="M57.0039 13.3294C56.6131 12.4072 57.7001 16.6029 58.1704 16.8899C58.6407 17.177 57.0894 13.5371 57.0039 13.3294Z" fill="#1B6815"/>
<path d="M57.5903 17.4395C56.607 18.2212 61.5722 15.8638 61.621 15.0272C61.6699 14.1905 57.804 17.2563 57.5903 17.4395Z" fill="#1B6815"/>
<path d="M41.4366 44.1463C41.1313 42.9249 41.2107 48.4214 41.9496 48.8183C42.6886 49.2153 41.4977 44.415 41.4366 44.1463Z" fill="#1B6815"/>
<path d="M28.4895 29.0798C27.268 29.0798 24.8251 32.9335 25.674 32.8419C26.5229 32.7503 29.0147 29.0737 28.4895 29.0798Z" fill="#1B6815"/>
<path d="M44.9788 44.3478C43.7268 44.3478 41.3145 48.2015 42.1634 48.1099C43.0123 48.0183 45.504 44.3417 44.9788 44.3478Z" fill="#1B6815"/>
<path d="M82.2328 7.09394C80.9808 7.09394 78.5685 10.9476 79.4174 10.856C80.2663 10.7644 82.758 7.08783 82.2328 7.09394Z" fill="#1B6815"/>
<path d="M65.1327 38.2406C63.8807 38.2406 61.4683 42.0943 62.3173 42.0026C63.1662 41.911 65.6579 38.2345 65.1327 38.2406Z" fill="#1B6815"/>
<path d="M45.4796 32.7992C46.5056 33.5137 50.6769 31.7365 49.944 31.3396C49.2111 30.9426 45.046 32.4999 45.4796 32.7992Z" fill="#1B6815"/>
<path d="M18.1683 17.9098C18.6874 16.7739 15.3407 21.1283 15.6766 21.8917C16.0125 22.6551 18.0584 18.1602 18.1683 17.9098Z" fill="#1B6815"/>
<path d="M20.825 20.2672C19.8417 19.4977 15.5728 21.0306 16.2812 21.4886C16.9897 21.9467 21.2403 20.5909 20.825 20.2672Z" fill="#1B6815"/>
<path d="M89.0118 15.4669C89.5309 14.3309 86.1842 18.6854 86.5201 19.4488C86.856 20.2122 88.9019 15.7173 89.0118 15.4669Z" fill="#1B6815"/>
<path d="M91.6685 17.8243C90.6852 17.0548 86.4163 18.5877 87.1247 19.0458C87.8332 19.5038 92.0838 18.148 91.6685 17.8243Z" fill="#1B6815"/>
<path d="M80.4617 33.1778C80.9808 32.0419 77.6341 36.3963 77.9699 37.1597C78.3058 37.9231 80.3518 33.4282 80.4617 33.1778Z" fill="#1B6815"/>
<path d="M83.1184 35.5352C82.1351 34.7657 77.8662 36.2986 78.5746 36.7566C79.2831 37.2147 83.5337 35.8589 83.1184 35.5352Z" fill="#1B6815"/>
<path d="M79.7043 2.17154C76.04 1.86618 71.765 2.57462 69.9328 2.83112C68.1007 3.08762 78.886 2.86777 80.5166 3.66781C82.1472 4.46785 85.8115 6.2023 85.8115 5.79922C85.8115 5.39615 85.2008 2.63569 79.7043 2.17154Z" fill="#EBCD94"/>
</svg>
