<svg width="98" height="74" viewBox="0 0 98 74" fill="none" xmlns="http://www.w3.org/2000/svg">
<path d="M72.2527 0.511635C88.2733 4.35657 90.0419 13.1166 92.3361 18.8199C94.4892 24.1772 99.2954 33.309 97.5908 38.9097C94.4508 49.2078 80.6411 55.5199 67.9528 60.6208C58.161 64.5555 42.2365 73.1169 36.1423 73.4373C28.76 73.7961 6.22229 76.039 1.12134 50.5215C-2.7236 31.2968 3.68463 26.1702 15.1233 21.1589C23.1464 17.6024 62.0764 -1.9299 72.2527 0.511635Z" fill="#FFF7D7"/>
<path d="M5.60695 41.5243C-0.128411 42.9534 3.1526 51.566 4.70339 51.3353C6.25419 51.1046 2.22982 57.7436 4.23559 58.9163C6.24137 60.089 10.4388 60.294 11.5474 60.8387C12.656 61.3834 9.67618 63.998 10.8425 66.2152C12.0088 68.4325 16.4561 67.3111 16.4561 67.3111C16.4561 67.3111 22.4926 66.2665 18.2119 59.0188C13.9312 51.7711 14.6938 53.4436 12.0729 49.0861C9.45189 44.7285 8.17025 40.8835 5.60695 41.5243Z" fill="#58A31D"/>
<path d="M20.2307 53.6615C20.2307 53.6615 17.6674 51.4058 15.0144 52.2837C12.3613 53.1617 8.60612 58.3908 11.2719 61.7038C13.9378 65.0169 20.6536 67.8814 25.6905 65.0682C28.4909 63.5046 20.2307 53.6615 20.2307 53.6615Z" fill="#CB7329"/>
<path d="M27.9205 58.7881C27.9205 58.7881 25.3572 56.5324 22.7042 57.4103C20.0512 58.2883 16.296 63.5174 18.9618 66.8304C21.6276 70.1435 28.3435 73.008 33.3803 70.1947C36.1807 68.6311 27.9205 58.7881 27.9205 58.7881Z" fill="#CB7329"/>
<path d="M12.3293 50.2267C14.9759 48.4965 18.0967 48.9451 19.3207 51.2841C20.5446 53.6231 23.8064 58.974 21.1342 60.7683C18.462 62.5626 10.9771 59.9929 9.73394 57.6539C8.49075 55.3149 9.65064 52.0082 12.2972 50.246L12.3293 50.2267Z" fill="#563722"/>
<path d="M6.70289 37.532C8.86887 37.4423 10.6568 38.9226 10.7016 40.8387C10.7465 42.7547 11.0797 47.3366 8.90091 47.4327C6.72211 47.5288 2.87717 43.1008 2.83872 41.1847C2.80028 39.2686 4.51127 37.6345 6.68366 37.5384L6.70289 37.532Z" fill="#664328"/>
<path d="M6.22869 44.2543C8.39467 44.1581 10.1826 45.6384 10.2274 47.5545C10.2723 49.4706 10.6055 54.0525 8.42671 54.1294C6.24791 54.2063 2.40298 49.7974 2.36453 47.8813C2.32608 45.9653 4.03707 44.3312 6.20946 44.235L6.22869 44.2543Z" fill="#664328"/>
<path d="M12.656 29.9895C5.67108 31.4186 7.81783 41.3129 9.69545 41.0822C11.5731 40.8515 6.68999 47.4904 9.13152 48.6631C11.5731 49.8358 16.6868 50.0409 18.039 50.5856C19.3911 51.1303 15.7576 53.7448 17.1803 55.9621C18.6029 58.1793 24.0242 57.0579 24.0242 57.0579C24.0242 57.0579 31.4001 56.0133 26.1646 48.7656C20.9291 41.5179 21.8775 43.1905 18.6798 38.8329C15.4821 34.4753 15.7769 29.3487 12.656 29.9895Z" fill="#58A31D"/>
<path d="M23.909 57.2181C25.5431 55.7954 27.8629 55.8339 29.0933 57.3142C30.3236 58.7945 33.4444 62.1588 31.7911 63.5878C30.1378 65.0169 24.3832 63.9531 23.1592 62.46C21.9353 60.9669 22.2557 58.6151 23.8898 57.2181H23.909Z" fill="#664328"/>
<path d="M27.7219 62.7676C29.356 61.345 31.6821 61.3834 32.9125 62.8573C34.1429 64.3312 37.2573 67.7019 35.6104 69.1374C33.9635 70.5728 28.1961 69.509 26.9721 68.0287C25.7481 66.5484 26.0685 64.1838 27.7026 62.7868L27.7219 62.7676Z" fill="#664328"/>
<path d="M16.1998 40.0632C16.1998 40.0632 13.4571 36.3785 10.8169 37.6025C8.17672 38.8264 4.5753 46.8239 7.45259 52.2068C10.3299 57.5897 18.0134 52.2068 21.147 51.0277C24.2806 49.8486 16.1998 40.0632 16.1998 40.0632Z" fill="#CB7329"/>
<path d="M15.7128 27.58C15.7128 27.58 13.8288 26.1318 12.6753 27.125C11.5218 28.1183 10.8938 32.6233 13.0983 34.9046C15.3027 37.186 18.3658 33.4115 19.7436 32.3413C21.1214 31.2712 15.7128 27.58 15.7128 27.58Z" fill="#CB7329"/>
<path d="M17.5584 40.1402C20.6279 40.0056 23.1656 42.1075 23.2233 44.8246C23.2809 47.5417 23.7616 54.0268 20.66 54.1614C17.5584 54.2959 12.1755 48.0287 12.0858 45.3052C11.996 42.5817 14.4632 40.2811 17.5263 40.1466L17.5584 40.1402Z" fill="#664328"/>
<path d="M27.049 48.3619C27.049 48.3619 24.4409 46.0229 21.7494 46.9392C19.058 47.8556 15.2771 53.2962 18.007 56.7502C20.7369 60.2043 24.5691 60.4093 27.7091 59.4866C30.8491 58.5638 27.049 48.3619 27.049 48.3619Z" fill="#C9632B"/>
<path d="M14.0595 34.9879C16.2255 34.8918 18.0134 36.3721 18.0583 38.2881C18.1031 40.2042 18.4364 44.7861 16.2576 44.8822C14.0788 44.9783 10.2338 40.5502 10.1954 38.6342C10.1569 36.7181 11.8679 35.084 14.0403 34.9879H14.0595Z" fill="#563722"/>
<path d="M20.3459 37.0385C14.6105 38.4676 17.8915 47.0802 19.4423 46.8495C20.9931 46.6188 16.9688 53.2578 18.9745 54.4305C20.9803 55.6032 25.1777 55.8082 26.2863 56.3529C27.3949 56.8976 24.4151 59.5122 25.5814 61.7295C26.7477 63.9467 31.195 62.8253 31.195 62.8253C31.195 62.8253 37.9237 61.3578 34.444 53.6999C31.2399 46.6509 32.5792 47.8044 29.9582 43.4468C27.3373 39.0892 22.9092 36.3977 20.3459 37.0385Z" fill="#86B240"/>
<path d="M20.8459 32.8348C20.8459 32.8348 17.0009 30.3548 14.9439 32.4503C12.8868 34.5457 12.3806 43.2866 16.9881 47.2853C21.5956 51.284 26.8696 43.5685 29.3496 41.3128C31.8296 39.0571 20.8459 32.8348 20.8459 32.8348Z" fill="#C9632B"/>
<path d="M36.4691 43.5365C36.4691 43.5365 35.2451 39.1212 32.3422 39.2943C29.4393 39.4673 23.1784 45.6256 23.9154 51.675C24.6523 57.7243 33.7392 55.5199 37.0779 55.5199C40.4166 55.5199 36.4691 43.5365 36.4691 43.5365Z" fill="#CB7329"/>
<path d="M21.6405 32.604C24.5434 30.6816 28.0936 30.9187 29.5611 33.2064C31.0286 35.4942 36.7255 40.1978 33.8033 42.1779C30.8812 44.1581 20.5062 42.5945 19.0131 40.3003C17.52 38.0062 18.7055 34.5778 21.5764 32.6105L21.6405 32.604Z" fill="#664328"/>
<path d="M15.0143 29.7331C16.328 28.0029 18.6094 27.5736 20.1409 28.7655C21.6725 29.9574 25.3829 32.6104 24.0564 34.3663C22.7298 36.1221 16.8535 36.2311 15.3796 35.0327C13.9057 33.8344 13.7135 31.4762 15.0272 29.7524L15.0143 29.7331Z" fill="#664328"/>
<path d="M32.8229 42.6521C34.9504 42.2484 36.937 43.4532 37.2574 45.3436C37.5778 47.234 38.5775 51.7198 36.4307 52.1299C34.2839 52.54 29.8494 48.7143 29.529 46.8239C29.2086 44.9335 30.6697 43.0687 32.7972 42.6586L32.8229 42.6521Z" fill="#563722"/>
<path d="M31.7077 53.9434C34.4632 53.6102 36.8855 55.3148 37.129 57.7884C37.3726 60.262 38.2505 66.0294 35.4821 66.3626C32.7138 66.6958 27.3885 61.4411 27.1514 58.9995C26.9143 56.558 28.9393 54.3151 31.6885 53.9755L31.7077 53.9434Z" fill="#664328"/>
<path d="M12.6882 26.3369C11.7974 27.6698 28.4845 30.3356 33.4188 39.6019C38.116 48.4132 36.3666 69.6501 37.9879 70.0089C39.6091 70.3678 39.7629 47.2725 35.5143 39.0059C31.2656 30.7393 13.5789 25.0039 12.6882 26.3369Z" fill="#DAD2B3"/>
</svg>
