<svg width="103" height="90" viewBox="0 0 103 90" fill="none" xmlns="http://www.w3.org/2000/svg">
<path d="M45.5194 12.8349C45.5194 12.8349 5.04364 18.3446 3.41118 59.1641C1.77871 99.9835 93.9796 62.997 96.4082 50.3438C98.8368 37.6906 87.2512 3.64607 45.5194 12.8349Z" fill="#EED776"/>
<path d="M66.0861 11.6261C63.8257 13.1418 52.848 10.5441 52.6712 12.5895C52.4944 14.6348 40.6067 8.61527 42.5386 13.3025C44.4705 17.9897 35.7254 13.5306 34.4627 13.0425C33.2 12.5543 32.9111 14.6702 31.6449 16.7635C30.3788 18.8568 28.431 23.743 25.9891 22.9944C23.5472 22.2458 13.5394 21.8983 16.8092 26.8956C20.0789 31.893 7.18665 28.908 8.9537 34.8271C10.7207 40.7462 4.75821 38.9622 6.60389 42.8456C8.44957 46.7291 0.235834 52.8229 4.42611 54.8599C8.61638 56.8969 0.602958 62.5159 4.57187 63.7367C8.54079 64.9575 7.49534 74.5585 9.97163 71.3446C12.4479 68.1308 7.01064 61.6977 9.42687 58.379C11.8431 55.0602 7.70721 43.2897 11.1249 44.2429C14.5425 45.1962 24.4613 50.4678 22.7069 43.7296C20.9526 36.9915 17.4663 32.8885 22.6805 32.8966C27.8946 32.9047 30.5237 30.8912 30.4603 28.4262C30.397 25.9611 32.4201 24.0887 34.7889 24.7876C37.1576 25.4865 38.5026 24.9768 39.4248 21.7488C40.3469 18.5208 38.8798 19.2193 44.0576 18.7324C49.2354 18.2455 48.2956 13.9817 54.2301 15.762C60.1647 17.5422 62.8465 21.737 65.278 17.5368C67.7096 13.3367 73.63 25.1465 76.7295 23.2814C79.8289 21.4163 82.6965 24.3079 85.9793 26.9929C89.262 29.6779 92.7274 34.6616 91.9966 30.5398C91.2657 26.418 87.4964 21.5761 84.4824 21.2696C81.4684 20.9631 78.684 18.9832 77.7105 16.5046C76.7369 14.0261 77.1161 4.25049 66.0861 11.6261Z" fill="#86B240"/>
<path d="M34.9426 33.6484C34.9426 33.6484 40.2754 27.5737 38.0712 25.5176C35.867 23.4614 23.1514 25.8008 15.2404 33.4228C7.32945 41.0447 5.42211 52.7418 7.64547 55.3363C9.86883 57.9308 34.9426 33.6484 34.9426 33.6484Z" fill="#E35325"/>
<path d="M52.5996 30.2034C52.5996 30.2034 57.4969 28.3623 56.8126 25.4266C56.1282 22.4908 48.0298 17.0752 41.1849 18.6899C34.3401 20.3046 29.7872 28.6438 30.3213 32.0211C30.8553 35.3984 52.5996 30.2034 52.5996 30.2034Z" fill="#E35325"/>
<path d="M85.8607 29.4108C85.8607 29.4108 88.7792 25.0649 86.5205 23.0756C84.2617 21.0862 74.5153 21.3835 69.8739 26.6786C65.2325 31.9738 66.3811 41.4066 68.7796 43.8422C71.1781 46.2778 85.8607 29.4108 85.8607 29.4108Z" fill="#E35325"/>
<path d="M57.6003 24.7796C57.3997 26.278 56.6122 27.6354 55.4108 28.5532C54.2095 29.4709 52.6928 29.8739 51.1943 29.6733C48.0754 29.256 40.565 28.6042 40.9861 25.4574C41.4072 22.3105 49.5787 17.938 52.6976 18.3554C53.4421 18.4535 54.1598 18.6978 54.8096 19.0741C55.4595 19.4505 56.0285 19.9516 56.4841 20.5485C56.9397 21.1455 57.2728 21.8266 57.4643 22.5527C57.6559 23.2788 57.7021 24.0356 57.6003 24.7796V24.7796Z" fill="#664328"/>
<path d="M42.1427 32.1041C41.9422 33.6025 41.1547 34.9599 39.9533 35.8777C38.752 36.7954 37.2353 37.1984 35.7368 36.9978C32.6123 36.5797 25.1074 35.9288 25.5286 32.7819C25.9497 29.635 34.1275 25.2577 37.252 25.6758C37.9958 25.7753 38.7127 26.0208 39.3614 26.398C40.0102 26.7753 40.578 27.2769 41.0324 27.8742C41.4868 28.4714 41.8188 29.1526 42.0094 29.8784C42.1999 30.6043 42.2452 31.3607 42.1427 32.1041V32.1041Z" fill="#664328"/>
<path d="M27.0976 37.5402C27.2129 38.2801 27.1813 39.0356 27.0045 39.7634C26.8278 40.4911 26.5093 41.1769 26.0674 41.7815C25.6255 42.3862 25.0688 42.8978 24.4291 43.2871C23.7894 43.6765 23.0791 43.936 22.3391 44.0508C19.2306 44.5354 11.8486 46.0325 11.3641 42.9241C10.8795 39.8156 17.4785 33.2662 20.5956 32.76C21.3365 32.6461 22.0925 32.6795 22.8205 32.8582C23.5485 33.0369 24.2341 33.3574 24.8381 33.8014C25.442 34.2454 25.9525 34.8042 26.3402 35.4458C26.7279 36.0873 26.9853 36.799 27.0976 37.5402V37.5402Z" fill="#664328"/>
<path d="M4.92702 54.1403C4.77654 53.4068 4.77204 52.6509 4.91375 51.9157C5.05546 51.1805 5.34063 50.4805 5.75296 49.8555C6.16529 49.2306 6.6967 48.6929 7.31684 48.2734C7.93698 47.8538 8.63369 47.5606 9.36719 47.4104C12.4552 46.7806 19.7597 44.9253 20.3895 48.0134C21.0193 51.1014 14.7394 57.9499 11.657 58.5804C10.1758 58.8828 8.63527 58.585 7.37348 57.7526C6.11169 56.9201 5.2318 55.6209 4.92702 54.1403V54.1403Z" fill="#664328"/>
<path d="M75.0113 22.4472C74.8072 23.9393 74.0208 25.2898 72.8242 26.204C71.6275 27.1182 70.1177 27.5217 68.6245 27.3264C65.5056 26.909 57.9951 26.2573 58.4162 23.1105C58.8373 19.9636 67.0208 15.587 70.1396 16.0044C70.8832 16.1061 71.5993 16.3537 72.247 16.7329C72.8946 17.1121 73.461 17.6154 73.9136 18.214C74.3662 18.8126 74.6962 19.4947 74.8846 20.2212C75.073 20.9476 75.116 21.7041 75.0113 22.4472V22.4472Z" fill="#664328"/>
<path d="M93.0271 34.1658C92.9278 34.9078 92.6833 35.6229 92.3077 36.2704C91.932 36.9179 91.4325 37.485 90.8377 37.9394C90.2428 38.3939 89.5643 38.7266 88.8408 38.9188C88.1174 39.111 87.3631 39.1589 86.6212 39.0596C83.5023 38.6422 75.9981 37.9856 76.4185 34.8443C76.8389 31.7031 85.0175 27.3202 88.1364 27.7375C88.8805 27.8364 89.5977 28.0813 90.2469 28.4584C90.896 28.8354 91.4642 29.3371 91.9187 29.9345C92.3732 30.5319 92.7051 31.2133 92.8953 31.9395C93.0856 32.6657 93.1303 33.4223 93.0271 34.1658V34.1658Z" fill="#664328"/>
<path d="M68.7807 29.7356C68.7807 29.7356 73.6781 27.8945 72.9985 24.9651C72.319 22.0357 64.2165 16.6082 57.3717 18.2228C50.5268 19.8375 45.9675 28.1816 46.5024 31.5533C47.0372 34.925 68.7807 29.7356 68.7807 29.7356Z" fill="#E35325"/>
<path d="M45.0568 24.2979C45.0568 24.2979 5.28054 31.651 7.47346 66.3308C9.66638 101.011 97.973 63.5657 99.2125 52.6855C100.452 41.8053 85.7164 13.7515 45.0568 24.2979Z" fill="#FEE784"/>
<path d="M24.6201 59.4603C25.0839 59.5224 25.5103 59.1967 25.5724 58.7328C25.6344 58.2689 25.3087 57.8426 24.8449 57.7805C24.381 57.7184 23.9546 58.0441 23.8925 58.508C23.8305 58.9719 24.1562 59.3982 24.6201 59.4603Z" fill="#D3BD61"/>
<path d="M23.4326 74.7648C23.8964 74.8268 24.3228 74.5011 24.3849 74.0373C24.4469 73.5734 24.1212 73.147 23.6574 73.0849C23.1935 73.0229 22.7671 73.3486 22.705 73.8124C22.643 74.2763 22.9687 74.7027 23.4326 74.7648Z" fill="#D3BD61"/>
<path d="M32.1193 62.8805C32.5831 62.9426 33.0095 62.6169 33.0716 62.153C33.1337 61.6892 32.8079 61.2628 32.3441 61.2007C31.8802 61.1386 31.4538 61.4644 31.3917 61.9282C31.3297 62.3921 31.6554 62.8185 32.1193 62.8805Z" fill="#D3BD61"/>
<path d="M36.8343 55.3724C37.2982 55.4344 37.7246 55.1087 37.7867 54.6449C37.8487 54.181 37.523 53.7546 37.0592 53.6925C36.5953 53.6305 36.1689 53.9562 36.1068 54.4201C36.0448 54.8839 36.3705 55.3103 36.8343 55.3724Z" fill="#D3BD61"/>
<path d="M22.4257 50.2181C22.8895 50.2802 23.3159 49.9545 23.378 49.4906C23.4401 49.0267 23.1143 48.6004 22.6505 48.5383C22.1866 48.4762 21.7602 48.8019 21.6981 49.2658C21.6361 49.7297 21.9618 50.1561 22.4257 50.2181Z" fill="#D3BD61"/>
<path d="M16.3896 57.2874C16.8535 57.3495 17.2798 57.0238 17.3419 56.5599C17.404 56.096 17.0783 55.6697 16.6144 55.6076C16.1505 55.5455 15.7242 55.8712 15.6621 56.3351C15.6 56.799 15.9257 57.2253 16.3896 57.2874Z" fill="#D3BD61"/>
<path d="M17.6963 67.2429C18.1602 67.305 18.5866 66.9793 18.6487 66.5154C18.7107 66.0515 18.385 65.6252 17.9212 65.5631C17.4573 65.501 17.0309 65.8267 16.9688 66.2906C16.9068 66.7545 17.2325 67.1808 17.6963 67.2429Z" fill="#D3BD61"/>
<path d="M33.9282 73.6387C34.3921 73.7007 34.8185 73.375 34.8805 72.9112C34.9426 72.4473 34.6169 72.0209 34.153 71.9588C33.6892 71.8968 33.2628 72.2225 33.2007 72.6864C33.1386 73.1502 33.4643 73.5766 33.9282 73.6387Z" fill="#D3BD61"/>
<path d="M27.0164 68.2565C27.4802 68.3186 27.9066 67.9929 27.9687 67.529C28.0308 67.0651 27.705 66.6388 27.2412 66.5767C26.7773 66.5146 26.3509 66.8403 26.2888 67.3042C26.2268 67.7681 26.5525 68.1944 27.0164 68.2565Z" fill="#D3BD61"/>
<path d="M44.7858 66.3996C45.2497 66.4617 45.6761 66.136 45.7381 65.6721C45.8002 65.2082 45.4745 64.7818 45.0106 64.7198C44.5468 64.6577 44.1204 64.9834 44.0583 65.4473C43.9962 65.9111 44.322 66.3375 44.7858 66.3996Z" fill="#D3BD61"/>
<path d="M47.7816 72.1241C48.2454 72.1862 48.6718 71.8604 48.7339 71.3966C48.7959 70.9327 48.4702 70.5063 48.0064 70.4442C47.5425 70.3822 47.1161 70.7079 47.054 71.1718C46.992 71.6356 47.3177 72.062 47.7816 72.1241Z" fill="#D3BD61"/>
<path d="M65.5257 60.0669C65.9896 60.129 66.4159 59.8033 66.478 59.3394C66.5401 58.8756 66.2144 58.4492 65.7505 58.3871C65.2866 58.325 64.8603 58.6508 64.7982 59.1146C64.7361 59.5785 65.0618 60.0049 65.5257 60.0669Z" fill="#D3BD61"/>
<path d="M63.8576 48.9345C64.3215 48.9966 64.7478 48.6709 64.8099 48.207C64.872 47.7431 64.5463 47.3168 64.0824 47.2547C63.6185 47.1926 63.1922 47.5183 63.1301 47.9822C63.068 48.4461 63.3937 48.8724 63.8576 48.9345Z" fill="#D3BD61"/>
<path d="M47.9054 43.0892C48.3693 43.1512 48.7956 42.8255 48.8577 42.3617C48.9198 41.8978 48.5941 41.4714 48.1302 41.4093C47.6663 41.3473 47.24 41.673 47.1779 42.1369C47.1158 42.6007 47.4415 43.0271 47.9054 43.0892Z" fill="#D3BD61"/>
<path d="M37.0421 42.4904C37.5059 42.5524 37.9323 42.2267 37.9944 41.7628C38.0564 41.299 37.7307 40.8726 37.2669 40.8105C36.803 40.7484 36.3766 41.0742 36.3145 41.538C36.2525 42.0019 36.5782 42.4283 37.0421 42.4904Z" fill="#D3BD61"/>
<path d="M55.4473 29.1539C55.9112 29.2159 56.3376 28.8902 56.3996 28.4264C56.4617 27.9625 56.136 27.5361 55.6721 27.474C55.2083 27.412 54.7819 27.7377 54.7198 28.2015C54.6577 28.6654 54.9835 29.0918 55.4473 29.1539Z" fill="#D3BD61"/>
<path d="M54.9291 62.8837C55.3929 62.9458 55.8193 62.6201 55.8814 62.1562C55.9435 61.6923 55.6178 61.266 55.1539 61.2039C54.69 61.1418 54.2636 61.4675 54.2016 61.9314C54.1395 62.3953 54.4652 62.8216 54.9291 62.8837Z" fill="#D3BD61"/>
<path d="M62.9052 31.0069C63.369 31.069 63.7954 30.7433 63.8575 30.2794C63.9195 29.8155 63.5938 29.3891 63.13 29.3271C62.6661 29.265 62.2397 29.5907 62.1776 30.0546C62.1156 30.5184 62.4413 30.9448 62.9052 31.0069Z" fill="#D3BD61"/>
<path d="M50.4186 52.4197C50.8825 52.4817 51.3089 52.156 51.371 51.6922C51.433 51.2283 51.1073 50.8019 50.6434 50.7398C50.1796 50.6778 49.7532 51.0035 49.6911 51.4674C49.629 51.9312 49.9548 52.3576 50.4186 52.4197Z" fill="#D3BD61"/>
<path d="M59.4444 53.9297C59.9083 53.9918 60.3346 53.666 60.3967 53.2022C60.4588 52.7383 60.1331 52.3119 59.6692 52.2499C59.2053 52.1878 58.779 52.5135 58.7169 52.9774C58.6548 53.4412 58.9805 53.8676 59.4444 53.9297Z" fill="#D3BD61"/>
<path d="M68.6119 53.572C69.0757 53.634 69.5021 53.3083 69.5642 52.8444C69.6263 52.3806 69.3006 51.9542 68.8367 51.8921C68.3728 51.83 67.9464 52.1558 67.8844 52.6196C67.8223 53.0835 68.148 53.5099 68.6119 53.572Z" fill="#D3BD61"/>
<path d="M76.0697 55.425C76.5336 55.4871 76.9599 55.1613 77.022 54.6975C77.0841 54.2336 76.7584 53.8072 76.2945 53.7452C75.8306 53.6831 75.4043 54.0088 75.3422 54.4727C75.2801 54.9365 75.6058 55.3629 76.0697 55.425Z" fill="#D3BD61"/>
<path d="M70.4761 31.1651C70.9399 31.2272 71.3663 30.9015 71.4284 30.4376C71.4905 29.9737 71.1647 29.5473 70.7009 29.4853C70.237 29.4232 69.8106 29.7489 69.7486 30.2128C69.6865 30.6767 70.0122 31.103 70.4761 31.1651Z" fill="#D3BD61"/>
<path d="M77.9286 33.0174C78.3925 33.0795 78.8188 32.7537 78.8809 32.2899C78.943 31.826 78.6173 31.3996 78.1534 31.3376C77.6895 31.2755 77.2632 31.6012 77.2011 32.0651C77.139 32.5289 77.4647 32.9553 77.9286 33.0174Z" fill="#D3BD61"/>
<path d="M49.697 35.4519C50.1609 35.514 50.5873 35.1883 50.6493 34.7244C50.7114 34.2605 50.3857 33.8341 49.9218 33.7721C49.458 33.71 49.0316 34.0357 48.9695 34.4996C48.9074 34.9635 49.2331 35.3898 49.697 35.4519Z" fill="#D3BD61"/>
<path d="M57.1496 37.3042C57.6135 37.3663 58.0398 37.0406 58.1019 36.5767C58.164 36.1128 57.8383 35.6864 57.3744 35.6244C56.9105 35.5623 56.4842 35.888 56.4221 36.3519C56.36 36.8157 56.6857 37.2421 57.1496 37.3042Z" fill="#D3BD61"/>
<path d="M66.9846 38.3867C67.4485 38.4488 67.8749 38.1231 67.9369 37.6592C67.999 37.1953 67.6733 36.769 67.2094 36.7069C66.7455 36.6448 66.3192 36.9705 66.2571 37.4344C66.195 37.8983 66.5207 38.3246 66.9846 38.3867Z" fill="#D3BD61"/>
<path d="M25.9419 45.0688C26.4058 45.1309 26.8321 44.8051 26.8942 44.3413C26.9563 43.8774 26.6306 43.451 26.1667 43.389C25.7028 43.3269 25.2765 43.6526 25.2144 44.1165C25.1523 44.5803 25.478 45.0067 25.9419 45.0688Z" fill="#D3BD61"/>
<path d="M33.3942 46.921C33.858 46.9831 34.2844 46.6574 34.3465 46.1935C34.4086 45.7296 34.0828 45.3033 33.619 45.2412C33.1551 45.1791 32.7287 45.5048 32.6667 45.9687C32.6046 46.4326 32.9303 46.8589 33.3942 46.921Z" fill="#D3BD61"/>
<path d="M44.5632 55.244C45.0271 55.306 45.4535 54.9803 45.5155 54.5164C45.5776 54.0526 45.2519 53.6262 44.788 53.5641C44.3242 53.502 43.8978 53.8278 43.8357 54.2916C43.7736 54.7555 44.0994 55.1819 44.5632 55.244Z" fill="#D3BD61"/>
<path d="M86.6672 48.9376C87.1311 48.9997 87.5575 48.674 87.6196 48.2101C87.6816 47.7462 87.3559 47.3199 86.892 47.2578C86.4282 47.1957 86.0018 47.5214 85.9397 47.9853C85.8776 48.4492 86.2034 48.8755 86.6672 48.9376Z" fill="#D3BD61"/>
<path d="M70.7152 43.0923C71.1791 43.1544 71.6054 42.8287 71.6675 42.3648C71.7296 41.901 71.4039 41.4746 70.94 41.4125C70.4761 41.3504 70.0498 41.6762 69.9877 42.14C69.9256 42.6039 70.2513 43.0303 70.7152 43.0923Z" fill="#D3BD61"/>
<path d="M29.9817 35.2815C30.4456 35.3436 30.872 35.0179 30.9341 34.554C30.9961 34.0902 30.6704 33.6638 30.2066 33.6017C29.7427 33.5396 29.3163 33.8654 29.2542 34.3292C29.1922 34.7931 29.5179 35.2195 29.9817 35.2815Z" fill="#D3BD61"/>
<path d="M39.8107 36.3689C40.2745 36.431 40.7009 36.1053 40.763 35.6414C40.8251 35.1775 40.4993 34.7511 40.0355 34.6891C39.5716 34.627 39.1452 34.9527 39.0832 35.4166C39.0211 35.8804 39.3468 36.3068 39.8107 36.3689Z" fill="#D3BD61"/>
<path d="M43.5476 41.0696C44.0115 41.1317 44.4378 40.806 44.4999 40.3421C44.562 39.8783 44.2363 39.4519 43.7724 39.3898C43.3085 39.3277 42.8822 39.6534 42.8201 40.1173C42.758 40.5812 43.0837 41.0076 43.5476 41.0696Z" fill="#D3BD61"/>
<path d="M59.852 42.4935C60.3159 42.5556 60.7423 42.2299 60.8044 41.766C60.8664 41.3021 60.5407 40.8758 60.0769 40.8137C59.613 40.7516 59.1866 41.0773 59.1245 41.5412C59.0625 42.0051 59.3882 42.4314 59.852 42.4935Z" fill="#D3BD61"/>
<path d="M83.6105 36.7701C84.0744 36.8322 84.5008 36.5065 84.5628 36.0426C84.6249 35.5788 84.2992 35.1524 83.8353 35.0903C83.3715 35.0282 82.9451 35.3539 82.883 35.8178C82.8209 36.2817 83.1467 36.7081 83.6105 36.7701Z" fill="#D3BD61"/>
<path d="M75.6559 38.9258C76.1198 38.9879 76.5462 38.6622 76.6083 38.1983C76.6703 37.7345 76.3446 37.3081 75.8807 37.246C75.4169 37.1839 74.9905 37.5096 74.9284 37.9735C74.8664 38.4374 75.1921 38.8638 75.6559 38.9258Z" fill="#D3BD61"/>
<path d="M76.823 47.7115C77.2869 47.7736 77.7132 47.4478 77.7753 46.984C77.8374 46.5201 77.5117 46.0937 77.0478 46.0317C76.5839 45.9696 76.1576 46.2953 76.0955 46.7592C76.0334 47.223 76.3591 47.6494 76.823 47.7115Z" fill="#D3BD61"/>
<path d="M91.2013 42.4882C91.6652 42.5503 92.0915 42.2246 92.1536 41.7607C92.2157 41.2968 91.89 40.8705 91.4261 40.8084C90.9622 40.7463 90.5359 41.072 90.4738 41.5359C90.4117 41.9998 90.7374 42.4261 91.2013 42.4882Z" fill="#D3BD61"/>
<path d="M60.1205 69.9166C60.5844 69.9786 61.0107 69.6529 61.0728 69.189C61.1349 68.7252 60.8092 68.2988 60.3453 68.2367C59.8814 68.1747 59.455 68.5004 59.393 68.9642C59.3309 69.4281 59.6566 69.8545 60.1205 69.9166Z" fill="#D3BD61"/>
<path d="M76.1392 64.2346C76.6031 64.2966 77.0295 63.9709 77.0915 63.507C77.1536 63.0432 76.8279 62.6168 76.364 62.5547C75.9002 62.4926 75.4738 62.8184 75.4117 63.2822C75.3496 63.7461 75.6753 64.1725 76.1392 64.2346Z" fill="#D3BD61"/>
<path d="M84.8824 57.7614C85.3463 57.8235 85.7727 57.4978 85.8348 57.0339C85.8968 56.57 85.5711 56.1437 85.1072 56.0816C84.6434 56.0195 84.217 56.3452 84.1549 56.8091C84.0929 57.273 84.4186 57.6993 84.8824 57.7614Z" fill="#D3BD61"/>
</svg>
