<svg width="103" height="68" viewBox="0 0 103 68" fill="none" xmlns="http://www.w3.org/2000/svg">
<g opacity="0.4">
<ellipse cx="46.567" cy="32.3021" rx="9.94134" ry="8.45014" transform="rotate(-7.11307 46.567 32.3021)" fill="#B38651"/>
<ellipse cx="46.6921" cy="21.2661" rx="9.44428" ry="7.45601" transform="rotate(-7.11307 46.6921 21.2661)" fill="#B38651"/>
<ellipse cx="57.1446" cy="12.6985" rx="8.45014" ry="6.71041" transform="rotate(-7.11307 57.1446 12.6985)" fill="#B38651"/>
<ellipse cx="71.7257" cy="11.1294" rx="8.69867" ry="6.95894" transform="rotate(-7.11307 71.7257 11.1294)" fill="#B38651"/>
<ellipse cx="60.4063" cy="38.8403" rx="10.9355" ry="10.1899" transform="rotate(-7.11307 60.4063 38.8403)" fill="#B38651"/>
<ellipse cx="78.9646" cy="37.0254" rx="11.184" ry="9.69281" transform="rotate(-7.11307 78.9646 37.0254)" fill="#B38651"/>
<ellipse cx="90.3113" cy="25.591" rx="9.94134" ry="8.20161" transform="rotate(-7.11307 90.3113 25.591)" fill="#B38651"/>
<ellipse cx="83.0692" cy="15.7249" rx="8.45014" ry="7.45601" transform="rotate(-7.11307 83.0692 15.7249)" fill="#B38651"/>
<path fill-rule="evenodd" clip-rule="evenodd" d="M72.1028 14.1539C72.8855 14.0562 73.6334 13.8782 74.3348 13.6321C75.0168 16.4521 77.4856 18.5613 80.556 19.151C80.0384 20.2963 79.8124 21.5412 79.9469 22.8126C77.3987 21.9787 75.4255 20.0518 74.8272 17.578C74.1258 17.8242 73.3778 18.0021 72.5951 18.0998C69.3669 18.5027 66.3756 17.4361 64.633 15.5211C63.3638 17.5287 60.9256 19.0551 57.9833 19.4223C57.2893 19.5089 56.6066 19.5261 55.9459 19.4804C56.0005 19.7031 56.0425 19.9303 56.0714 20.1618C56.2599 21.6722 55.8618 23.1485 55.0237 24.4421C54.4641 23.4685 53.6869 22.6161 52.75 21.9227C54.7314 20.3081 55.8329 18.2479 55.5712 16.1508C55.5451 15.9416 55.5059 15.7361 55.4543 15.5345C56.1147 15.5802 56.7971 15.563 57.4909 15.4764C60.4332 15.1092 62.8714 13.5828 64.1406 11.5751C65.8832 13.4901 68.8745 14.5567 72.1028 14.1539ZM91.1875 13.5105C91.0443 13.4998 90.9002 13.4917 90.7553 13.4863C90.8198 13.2634 90.873 13.0372 90.9144 12.8083C91.0181 13.0362 91.1094 13.2704 91.1875 13.5105ZM99.6458 22.4884C99.0188 26.1632 95.4657 29.2716 90.8422 29.8486C90.2682 29.9202 89.7006 29.95 89.1438 29.9406C89.3521 30.5209 89.4991 31.1288 89.5778 31.7596C90.2407 37.0716 85.8094 41.9979 79.6801 42.7627C75.6976 43.2597 71.9781 41.8774 69.6794 39.391C68.0802 42.3738 64.9715 44.5982 61.1839 45.0708C55.2191 45.8152 49.8187 41.9347 49.0809 36.3923C48.4571 36.5819 47.8044 36.722 47.1286 36.8063C42.4799 37.3864 38.2411 35.1396 36.7382 31.5909C36.6377 32.246 36.625 32.9186 36.7098 33.5982C37.2877 38.2292 42.1728 41.4322 47.621 40.7523C48.2966 40.668 48.9491 40.5279 49.5728 40.3384C50.3107 45.8808 55.711 49.7611 61.6757 49.0168C65.4635 48.5441 68.5723 46.3196 70.1714 43.3366C72.4701 45.8233 76.1897 47.2057 80.1725 46.7087C86.3017 45.9438 90.7331 41.0176 90.0702 35.7056C89.9915 35.0747 89.8444 34.4668 89.6362 33.8866C90.193 33.8959 90.7606 33.8662 91.3346 33.7945C96.7828 33.1147 100.745 28.9198 100.184 24.425C100.099 23.7446 99.9153 23.0963 99.6458 22.4884Z" fill="#B38651"/>
</g>
<ellipse cx="43.5655" cy="26.2814" rx="9.94134" ry="8.45014" fill="#E45151"/>
<ellipse cx="45.0565" cy="15.346" rx="9.44428" ry="7.45601" fill="#E45151"/>
<ellipse cx="56.4893" cy="8.13851" rx="8.45014" ry="6.71041" fill="#E45151"/>
<ellipse cx="71.1529" cy="8.38704" rx="8.69867" ry="6.95894" fill="#E45151"/>
<ellipse cx="56.4892" cy="34.483" rx="10.9355" ry="10.1899" fill="#E45151"/>
<ellipse cx="75.1291" cy="34.9802" rx="11.184" ry="9.69281" fill="#E45151"/>
<ellipse cx="87.8047" cy="25.0388" rx="9.94134" ry="8.20161" fill="#E45151"/>
<ellipse cx="81.8394" cy="14.3518" rx="8.45014" ry="7.45601" fill="#E45151"/>
<path fill-rule="evenodd" clip-rule="evenodd" d="M56.4889 10.938C59.4542 10.938 62.0627 9.72508 63.5707 7.88995C65.0628 10.0061 67.8991 11.435 71.1525 11.435C71.9413 11.435 72.7055 11.3511 73.432 11.1937C73.7846 14.2963 76.2928 16.8381 79.6155 17.6359C79.1198 18.6954 78.8571 19.879 78.8571 21.1279C78.8571 21.218 78.8585 21.3077 78.8612 21.3971C75.9183 20.4189 73.7572 18.0333 73.4319 15.1702C72.7054 15.3276 71.9412 15.4115 71.1524 15.4115C67.8991 15.4115 65.063 13.9828 63.5709 11.8668C62.0628 13.7017 59.4544 14.9145 56.4893 14.9145C55.7901 14.9145 55.1106 14.847 54.4607 14.7199C54.4873 14.9476 54.5009 15.1783 54.5009 15.4116C54.5009 17.6103 53.2954 19.5867 51.3777 20.9513C50.9822 19.6007 50.5325 18.3728 49.9282 17.3347C52.7048 15.9744 54.5008 13.8087 54.5008 11.3695C54.5008 11.1587 54.4874 10.9499 54.4611 10.7435C55.1107 10.8706 55.7899 10.938 56.4889 10.938ZM51.4491 21.1985C51.4764 21.2943 51.5035 21.3906 51.5304 21.4876C51.5708 21.4684 51.6113 21.4494 51.652 21.4307C51.5859 21.3523 51.5183 21.2749 51.4491 21.1985ZM78.6653 21.8708C78.7421 21.893 78.8186 21.9159 78.8947 21.9395C78.8814 21.7976 78.8716 21.6547 78.8654 21.5108C78.7953 21.6293 78.7286 21.7493 78.6653 21.8708ZM33.9007 24.3595C33.7199 24.9969 33.6241 25.6624 33.6241 26.347C33.6241 31.0139 38.075 34.7972 43.5655 34.7972C44.2466 34.7972 44.9116 34.7389 45.5542 34.6281C45.6 40.2192 50.4783 44.7385 56.4893 44.7385C60.3064 44.7385 63.6666 42.9162 65.6228 40.1544C67.5959 42.9063 71.1157 44.7385 75.1291 44.7385C81.3059 44.7385 86.3132 40.3989 86.3132 35.0457C86.3132 34.41 86.2425 33.7886 86.1077 33.1871C86.659 33.2653 87.2258 33.306 87.8042 33.306C93.2946 33.306 97.7455 29.634 97.7455 25.1044C97.7455 24.4188 97.6435 23.7529 97.4514 23.1164C96.3741 26.6851 92.4635 29.3295 87.8043 29.3295C87.2144 29.3295 86.648 29.2871 86.1068 29.2058C86.2423 29.8088 86.3133 30.4318 86.3133 31.0692C86.3133 36.4224 81.306 40.762 75.1292 40.762C71.1156 40.762 67.5957 38.9296 65.6227 36.1775C63.6665 38.9395 60.3061 40.762 56.4889 40.762C50.4729 40.762 45.5915 36.2351 45.5537 30.6375C44.9371 30.7575 44.2743 30.8207 43.5651 30.8207C38.8806 30.8207 34.9529 28.0666 33.9007 24.3595ZM90.17 13.1599C90.1223 12.912 90.0607 12.6683 89.986 12.4293C89.9165 12.6513 89.8357 12.8691 89.7442 13.0823C89.8873 13.1057 90.0292 13.1315 90.17 13.1599Z" fill="#EBB87D"/>
<g opacity="0.4">
<ellipse cx="18.2339" cy="48.2083" rx="9.94134" ry="8.45014" transform="rotate(-7.11307 18.2339 48.2083)" fill="#B38651"/>
<ellipse cx="18.3591" cy="37.1723" rx="9.44428" ry="7.45601" transform="rotate(-7.11307 18.3591 37.1723)" fill="#B38651"/>
<ellipse cx="28.8116" cy="28.6046" rx="8.45014" ry="6.71041" transform="rotate(-7.11307 28.8116 28.6046)" fill="#B38651"/>
<ellipse cx="43.3927" cy="27.0355" rx="8.69867" ry="6.95894" transform="rotate(-7.11307 43.3927 27.0355)" fill="#B38651"/>
<ellipse cx="32.0732" cy="54.7464" rx="10.9355" ry="10.1899" transform="rotate(-7.11307 32.0732 54.7464)" fill="#B38651"/>
<ellipse cx="50.6315" cy="52.9316" rx="11.184" ry="9.69281" transform="rotate(-7.11307 50.6315 52.9316)" fill="#B38651"/>
<ellipse cx="61.9783" cy="41.4972" rx="9.94134" ry="8.20161" transform="rotate(-7.11307 61.9783 41.4972)" fill="#B38651"/>
<ellipse cx="54.7362" cy="31.6311" rx="8.45014" ry="7.45601" transform="rotate(-7.11307 54.7362 31.6311)" fill="#B38651"/>
<path fill-rule="evenodd" clip-rule="evenodd" d="M43.7703 30.06C44.553 29.9623 45.301 29.7844 46.0024 29.5382C46.6844 32.3582 49.1532 34.4674 52.2236 35.0572C51.706 36.2025 51.48 37.4474 51.6145 38.7188C49.0661 37.8849 47.0927 35.958 46.4944 33.4841C45.793 33.7302 45.045 33.9082 44.2624 34.0059C41.0341 34.4087 38.0428 33.3422 36.3002 31.4272C35.031 33.4348 32.5928 34.9612 29.6505 35.3284C28.9565 35.415 28.2738 35.4322 27.6131 35.3864C27.6677 35.6092 27.7097 35.8364 27.7386 36.0679C27.9271 37.5782 27.5291 39.0543 26.6911 40.3479C26.1315 39.3745 25.3544 38.5222 24.4175 37.8288C26.399 36.2143 27.5005 34.154 27.2388 32.0569C27.2127 31.8477 27.1736 31.6422 27.1219 31.4406C27.7823 31.4863 28.4647 31.4691 29.1585 31.3825C32.1008 31.0154 34.5389 29.4889 35.8081 27.4814C37.5507 29.3963 40.542 30.4629 43.7703 30.06ZM62.8547 29.4166C62.7116 29.406 62.5677 29.3979 62.4229 29.3924C62.4873 29.1697 62.5405 28.9437 62.5819 28.715C62.6855 28.9427 62.7767 29.1768 62.8547 29.4166ZM71.3133 38.3951C70.6861 42.0697 67.133 45.1778 62.5098 45.7547C61.9358 45.8264 61.3682 45.8561 60.8114 45.8468C61.0197 46.427 61.1667 47.0349 61.2455 47.6658C61.9083 52.9777 57.477 57.904 51.3478 58.6688C47.3652 59.1658 43.6457 57.7836 41.347 55.2971C39.7478 58.28 36.6391 60.5043 32.8515 60.977C26.8867 61.7213 21.4863 57.8409 20.7485 52.2985C20.1247 52.488 19.472 52.6281 18.7962 52.7125C14.1472 53.2926 9.90817 51.0454 8.40554 47.4963C8.30488 48.1517 8.29217 48.8245 8.377 49.5043C8.95489 54.1353 13.84 57.3382 19.2882 56.6584C19.9638 56.5741 20.6163 56.434 21.24 56.2445C21.9779 61.7869 27.3782 65.6672 33.3429 64.9229C37.1307 64.4502 40.2395 62.2257 41.8386 59.2427C44.1373 61.7294 47.857 63.1118 51.8397 62.6148C57.9689 61.8499 62.4003 56.9237 61.7374 51.6117C61.6587 50.9808 61.5117 50.3729 61.3034 49.7926C61.8602 49.802 62.4278 49.7722 63.0018 49.7006C68.45 49.0207 72.412 44.8259 71.8511 40.3311C71.7662 39.6509 71.5826 39.0029 71.3133 38.3951Z" fill="#B38651"/>
</g>
<ellipse cx="13.7601" cy="48.2084" rx="9.94134" ry="8.45014" transform="rotate(-7.11307 13.7601 48.2084)" fill="#F2B873"/>
<ellipse cx="13.8852" cy="37.1723" rx="9.44428" ry="7.45601" transform="rotate(-7.11307 13.8852 37.1723)" fill="#F2B873"/>
<ellipse cx="24.3377" cy="28.6047" rx="8.45014" ry="6.71041" transform="rotate(-7.11307 24.3377 28.6047)" fill="#F2B873"/>
<ellipse cx="38.9189" cy="27.0356" rx="8.69867" ry="6.95894" transform="rotate(-7.11307 38.9189 27.0356)" fill="#F2B873"/>
<ellipse cx="27.5993" cy="54.7465" rx="10.9355" ry="10.1899" transform="rotate(-7.11307 27.5993 54.7465)" fill="#F2B873"/>
<ellipse cx="46.1577" cy="52.9316" rx="11.184" ry="9.69281" transform="rotate(-7.11307 46.1577 52.9316)" fill="#F2B873"/>
<ellipse cx="57.5044" cy="41.4972" rx="9.94134" ry="8.20161" transform="rotate(-7.11307 57.5044 41.4972)" fill="#F2B873"/>
<ellipse cx="50.2623" cy="31.6311" rx="8.45014" ry="7.45601" transform="rotate(-7.11307 50.2623 31.6311)" fill="#F2B873"/>
<path fill-rule="evenodd" clip-rule="evenodd" d="M24.6844 31.3825C27.6269 31.0154 30.0652 29.4888 31.3344 27.481C33.0769 29.3962 36.0684 30.4629 39.2969 30.06C40.0794 29.9624 40.8272 29.7845 41.5285 29.5384C42.2105 32.3584 44.6792 34.4675 47.7496 35.0572C47.2321 36.2025 47.0061 37.4473 47.1406 38.7186C44.5925 37.8847 42.6193 35.9579 42.0211 33.4842C41.3197 33.7303 40.5717 33.9083 39.789 34.0059C36.5607 34.4088 33.5695 33.3422 31.8269 31.4273C30.5576 33.4349 28.1195 34.9613 25.1772 35.3284C24.4832 35.4151 23.8005 35.4322 23.1398 35.3865C23.1944 35.6092 23.2364 35.8365 23.2653 36.0679C23.4538 37.5785 23.0557 39.0548 22.2174 40.3485C21.6578 39.3749 20.8805 38.5223 19.9435 37.8289C21.9249 36.2143 23.0265 34.1541 22.7648 32.0569C22.7387 31.8477 22.6995 31.6422 22.6479 31.4406C23.3083 31.4863 23.9907 31.4691 24.6844 31.3825ZM3.93203 47.4976C3.83153 48.1525 3.81889 48.8249 3.90368 49.5043C4.48157 54.1353 9.36667 57.3383 14.8149 56.6584C15.4905 56.5741 16.143 56.4341 16.7667 56.2446C17.5046 61.7869 22.9049 65.6673 28.8696 64.9229C32.6574 64.4503 35.7662 62.2258 37.3653 59.2428C39.664 61.7294 43.3836 63.1118 47.3664 62.6148C53.4956 61.85 57.927 56.9237 57.2641 51.6117C57.1854 50.9809 57.0383 50.373 56.8301 49.7927C57.3869 49.802 57.9545 49.7723 58.5285 49.7007C63.9767 49.0208 67.9387 44.8259 67.3778 40.3312C67.2928 39.6506 67.1091 39.0022 66.8395 38.3942C66.2128 42.0692 62.6595 45.1778 58.0359 45.7547C57.4618 45.8264 56.8942 45.8561 56.3374 45.8468C56.5457 46.427 56.6927 47.035 56.7714 47.6658C57.4343 52.9778 53.003 57.9041 46.8737 58.6689C42.8912 59.1659 39.1717 57.7837 36.873 55.2973C35.2739 58.2801 32.1651 60.5044 28.3775 60.977C22.4128 61.7214 17.0124 57.8409 16.2746 52.2985C15.6507 52.4881 14.998 52.6282 14.3222 52.7125C9.6737 53.2926 5.4351 51.046 3.93203 47.4976ZM58.3814 29.4167C58.3033 29.1764 58.2119 28.942 58.1081 28.714C58.0666 28.943 58.0134 29.1694 57.9489 29.3924C58.0939 29.3979 58.2381 29.406 58.3814 29.4167Z" fill="#E2AF73"/>
</svg>
