<svg width="135" height="60" viewBox="0 0 135 60" fill="none" xmlns="http://www.w3.org/2000/svg">
<path d="M68.0646 56.5838C104.296 55.1197 133.121 42.59 132.447 28.5981C131.774 14.6062 101.857 4.4505 65.6253 5.91467C29.394 7.37885 0.568743 19.9085 1.24235 33.9004C1.91595 47.8923 31.8333 58.048 68.0646 56.5838Z" fill="#ABABAB"/>
<path d="M68.9383 54.2386C105.302 52.6791 134.199 40.0308 133.481 25.9878C132.764 11.9449 102.704 1.82503 66.3401 3.38453C29.9767 4.94403 1.07986 17.5923 1.79732 31.6353C2.51478 45.6782 32.5748 55.7981 68.9383 54.2386Z" fill="#F2F1F1"/>
<path d="M69.2096 50.7787C100.497 49.4369 125.36 38.5533 124.742 26.4695C124.125 14.3858 98.2611 5.6777 66.9739 7.0195C35.6867 8.36129 10.8239 19.2449 11.4412 31.3286C12.0586 43.4124 37.9223 52.1205 69.2096 50.7787Z" fill="#D59037"/>
<path d="M68.6703 49.0068C99.3661 47.6904 123.759 37.0124 123.153 25.157C122.548 13.3015 97.1727 4.7579 66.4769 6.07433C35.7811 7.39077 11.3882 18.0687 11.9939 29.9242C12.5996 41.7797 37.9745 50.3233 68.6703 49.0068Z" fill="#F5AB3F"/>
<path d="M68.8738 46.8245C96.8754 45.6236 119.127 35.8833 118.575 25.0689C118.022 14.2544 94.8746 6.46114 66.873 7.66202C38.8714 8.86291 16.6195 18.6033 17.172 29.4177C17.7245 40.2321 40.8722 48.0254 68.8738 46.8245Z" fill="#DD653A"/>
<path d="M33.4719 30.9825C37.8445 30.795 41.3145 29.1808 41.2223 27.3771C41.1302 25.5735 37.5108 24.2633 33.1382 24.4509C28.7656 24.6384 25.2956 26.2526 25.3877 28.0562C25.4799 29.8599 29.0993 31.17 33.4719 30.9825Z" fill="white"/>
<path d="M50.7925 19.4326C55.1651 19.245 58.6351 17.6309 58.543 15.8272C58.4508 14.0235 54.8314 12.7134 50.4588 12.9009C46.0862 13.0885 42.6162 14.7026 42.7084 16.5063C42.8005 18.31 46.4199 19.6201 50.7925 19.4326Z" fill="white"/>
<path d="M74.995 17.4731C79.3676 17.2856 82.8376 15.6714 82.7455 13.8677C82.6533 12.0641 79.0339 10.7539 74.6613 10.9415C70.2887 11.129 66.8188 12.7432 66.9109 14.5468C67.0031 16.3505 70.6225 17.6606 74.995 17.4731Z" fill="white"/>
<path d="M73.4478 39.6673C77.8204 39.4798 81.2904 37.8656 81.1982 36.0619C81.1061 34.2583 77.4867 32.9482 73.1141 33.1357C68.7415 33.3232 65.2715 34.9374 65.3637 36.741C65.4558 38.5447 69.0752 39.8548 73.4478 39.6673Z" fill="white"/>
<path d="M104.396 28.2255C108.769 28.038 112.239 26.4238 112.147 24.6202C112.055 22.8165 108.435 21.5064 104.063 21.6939C99.69 21.8814 96.22 23.4956 96.3122 25.2993C96.4043 27.1029 100.024 28.4131 104.396 28.2255Z" fill="white"/>
<path d="M85.1304 26.6464C89.4871 26.4704 92.9488 24.8708 92.8623 23.0737C92.7758 21.2766 89.1738 19.9625 84.8171 20.1385C80.4604 20.3146 76.9987 21.9142 77.0853 23.7113C77.1718 25.5084 80.7737 26.8225 85.1304 26.6464Z" fill="white"/>
<path d="M52.3047 38.4385C56.6773 38.251 60.1473 36.6368 60.0551 34.8331C59.963 33.0295 56.3436 31.7193 51.971 31.9069C47.5984 32.0944 44.1284 33.7086 44.2206 35.5122C44.3127 37.3159 47.9321 38.626 52.3047 38.4385Z" fill="white"/>
<path d="M59.6991 27.2883C62.3468 27.1748 64.4479 26.1981 64.3922 25.1069C64.3364 24.0157 62.1449 23.2231 59.4972 23.3366C56.8496 23.4502 54.7484 24.4269 54.8042 25.5181C54.8599 26.6093 57.0515 27.4019 59.6991 27.2883Z" fill="white"/>
<path d="M76.1797 31.7517C78.8273 31.6381 80.9285 30.6615 80.8727 29.5703C80.817 28.479 78.6255 27.6865 75.9778 27.8C73.3301 27.9136 71.229 28.8902 71.2847 29.9815C71.3405 31.0727 73.532 31.8652 76.1797 31.7517Z" fill="white"/>
<path d="M94.4423 34.9333C97.09 34.8197 99.1911 33.8431 99.1354 32.7518C99.0796 31.6606 96.8881 30.868 94.2404 30.9816C91.5928 31.0951 89.4916 32.0718 89.5474 33.163C89.6031 34.2543 91.7947 35.0468 94.4423 34.9333Z" fill="white"/>
<path d="M97.4229 19.3316C100.071 19.218 102.172 18.2414 102.116 17.1502C102.06 16.0589 99.8686 15.2664 97.221 15.3799C94.5733 15.4935 92.4722 16.4701 92.5279 17.5613C92.5837 18.6526 94.7752 19.4451 97.4229 19.3316Z" fill="white"/>
<path d="M53.2778 19.8149C53.2778 19.8149 49.4841 22.579 44.6399 22.769C39.7956 22.9591 35.7322 20.5493 35.7322 20.5493C35.7322 20.5493 39.5306 17.7864 44.3752 17.5776C49.2199 17.3688 53.2778 19.8149 53.2778 19.8149Z" fill="#385C2B"/>
<path d="M59.0967 32.438C59.0967 32.438 56.2053 35.965 51.5708 37.3175C46.9363 38.6701 42.3405 37.2547 42.3405 37.2547C42.3405 37.2547 45.2423 33.6926 49.8704 32.362C54.4984 31.0314 59.0967 32.438 59.0967 32.438Z" fill="#385C2B"/>
<path d="M95.2315 33.3391C95.2315 33.3391 91.4379 36.1032 86.5885 36.3108C81.739 36.5184 77.6808 34.091 77.6808 34.091C77.6808 34.091 81.461 31.3378 86.3095 31.1158C91.158 30.8938 95.2315 33.3391 95.2315 33.3391Z" fill="#385C2B"/>
<path d="M106.632 23.3098C106.632 23.3098 102.837 26.0783 97.9892 26.2816C93.1411 26.4848 89.0815 24.0618 89.0815 24.0618C89.0815 24.0618 92.88 21.2989 97.7246 21.0901C102.569 20.8813 106.632 23.3098 106.632 23.3098Z" fill="#385C2B"/>
<path d="M56.8968 25.2368C55.7295 26.6867 54.1414 27.8072 52.3132 28.4707C50.4406 29.0223 48.4366 29.0816 46.529 28.6419C47.6944 27.1903 49.2831 26.0693 51.1126 25.4079C52.9852 24.8564 54.9892 24.7971 56.8968 25.2368Z" fill="#385C2B"/>
<path d="M37.6324 28.5809C36.4659 30.0315 34.8776 31.1522 33.0489 31.8149C31.1845 32.3642 29.1895 32.424 27.2899 31.9875C28.4089 30.5004 30.0083 29.3721 31.8635 28.761C33.7187 28.15 35.7362 28.087 37.6324 28.5809V28.5809Z" fill="#385C2B"/>
<path d="M78.2931 30.6965C78.2931 30.6965 74.7179 31.7301 71.2987 30.5611C67.8794 29.3922 65.8998 26.463 65.8998 26.463C65.8998 26.463 69.4674 25.4558 72.8882 26.6016C76.3091 27.7474 78.2931 30.6965 78.2931 30.6965Z" fill="#385C2B"/>
<path d="M76.3683 22.5037C75.1941 23.9536 73.5994 25.0724 71.7655 25.7329C69.8931 26.2845 67.8892 26.3423 65.9826 25.8997C67.1609 24.4474 68.7631 23.3296 70.6045 22.6752C72.4705 22.1254 74.4673 22.066 76.3683 22.5037V22.5037Z" fill="#385C2B"/>
<path d="M68.9858 11.8883C67.8193 13.3389 66.2309 14.4595 64.4022 15.1222C62.5293 15.6711 60.5262 15.7289 58.6193 15.289C59.7875 13.84 61.3754 12.7197 63.2029 12.055C65.0753 11.5035 67.0793 11.4457 68.9858 11.8883V11.8883Z" fill="#385C2B"/>
<path d="M81.9995 15.7044C80.8342 17.1561 79.2455 18.277 77.416 18.9384C75.5481 19.4886 73.5495 19.5491 71.6461 19.1131C72.8115 17.6615 74.4002 16.5405 76.2297 15.8791C78.0975 15.3289 80.0961 15.2684 81.9995 15.7044Z" fill="#385C2B"/>
<path d="M69.3971 15.9812C67.7009 16.9136 65.7454 17.374 63.7687 17.3063C61.7957 17.1061 59.9287 16.3844 58.3954 15.2292C60.0629 14.2352 62.0404 13.77 64.0243 13.905C66.0082 14.04 67.889 14.7677 69.3779 15.9765L69.3971 15.9812Z" fill="#385C2B"/>
<path d="M92.4054 15.2604C91.2389 16.7109 89.6506 17.8316 87.8219 18.4943C85.9543 19.0445 83.9557 19.1035 82.0533 18.6646C83.2215 17.2156 84.8094 16.0953 86.6369 15.4307C88.5045 14.8804 90.5031 14.8214 92.4054 15.2604V15.2604Z" fill="#385C2B"/>
</svg>
