<svg width="118" height="96" viewBox="0 0 118 96" fill="none" xmlns="http://www.w3.org/2000/svg">
<path d="M72.9973 37.489L5.63494 66.0009L115.08 60.2207L72.9973 37.489Z" fill="#FFFCF0" stroke="#A07D36" stroke-width="0.766023" stroke-linecap="round" stroke-linejoin="round"/>
<path d="M115.069 60.2325L5.62616 66.0065L5.93779 71.9132L115.381 66.1392L115.069 60.2325Z" fill="#A07D34" stroke="#A07D36" stroke-width="0.766023" stroke-linecap="round" stroke-linejoin="round"/>
<path d="M8.38549 61.0039C4.00924 61.304 0.654039 67.3086 1.81445 67.3226C2.97487 67.3367 6.51473 65.9219 8.69999 66.9556C10.8852 67.9894 23.1995 73.6697 23.9384 70.608C24.6773 67.5463 33.608 66.6504 33.608 66.6504C33.608 66.6504 34.2084 71.9046 37.439 70.7097C40.6696 69.5147 42.3491 67.0484 43.9916 66.4582C45.6341 65.868 51.18 71.7605 53.7404 68.8958C56.3009 66.0311 66.3014 60.9689 69.3261 64.4745C72.3508 67.98 73.4739 67.1342 74.5931 65.3036C75.7122 63.4731 81.4024 69.5439 82.6125 69.1987C83.8226 68.8536 86.3479 64.1866 86.3479 64.1866C86.3479 64.1866 86.0479 70.6722 90.909 69.8443C95.7701 69.0164 98.0897 66.4422 98.3865 64.7697C98.6834 63.0971 108.098 70.0844 110.043 66.8861C111.989 63.6878 118.004 64.8105 116.656 61.2827C115.307 57.7549 114.707 57.4311 109.983 57.248C105.259 57.0648 8.38549 61.0039 8.38549 61.0039Z" fill="#648E21"/>
<path d="M108.867 51.9295L9.28925 57.183C7.75118 57.2641 6.57012 58.5768 6.65126 60.1148L6.7419 61.8329C6.82305 63.371 8.13568 64.5521 9.67375 64.471L109.252 59.2174C110.79 59.1363 111.971 57.8237 111.89 56.2856L111.799 54.5675C111.718 53.0294 110.405 51.8483 108.867 51.9295Z" fill="#E1B186"/>
<path d="M109.827 50.3427L8.17119 55.7058C7.20679 55.7567 6.46624 56.5797 6.51711 57.5441L6.62405 59.5711C6.67493 60.5354 7.49798 61.276 8.46238 61.2251L110.118 55.862C111.082 55.8111 111.823 54.9881 111.772 54.0237L111.665 51.9968C111.614 51.0324 110.791 50.2918 109.827 50.3427Z" fill="#FFCF23"/>
<path d="M11.6789 48.7023C11.6789 48.7023 3.73671 50.1017 4.18549 53.0975C4.63427 56.0932 15.9477 62.1632 26.8416 61.1531C37.7354 60.1429 46.4796 52.2528 46.3703 48.859C46.261 45.4652 11.6789 48.7023 11.6789 48.7023Z" fill="#E25123"/>
<path d="M42.4547 44.8761C42.4547 44.8761 34.5126 46.2755 34.9559 49.2698C35.3993 52.2642 46.7284 58.2976 57.6001 57.3048C68.4718 56.312 77.2436 48.406 77.1303 45.0053C77.017 41.6046 42.4547 44.8761 42.4547 44.8761Z" fill="#E25123"/>
<path d="M75.5986 45.6601C75.5986 45.6601 67.6564 47.0595 68.0998 50.0538C68.5431 53.0482 79.8689 59.1156 90.7613 58.1109C101.654 57.1062 110.399 49.2106 110.286 45.8099C110.173 42.4092 75.5986 45.6601 75.5986 45.6601Z" fill="#E25123"/>
<path d="M7.57482 46.5957C3.20401 46.8972 -0.162065 52.8989 0.99835 52.9129C2.15876 52.927 5.70405 51.5137 7.88931 52.5474C10.0746 53.5812 22.3888 59.2615 23.1277 56.1998C23.8666 53.1381 32.7988 52.2368 32.7988 52.2368C32.7988 52.2368 33.3991 57.491 36.6298 56.296C39.8604 55.1011 41.5345 52.6333 43.1824 52.0446C44.8303 51.4558 50.3708 57.3469 52.9312 54.4822C55.4917 51.6175 65.4922 46.5553 68.5169 50.0608C71.5416 53.5664 72.6592 52.7191 73.7911 50.8628C74.923 49.0066 80.6005 55.1031 81.8052 54.7565C83.0098 54.4099 85.546 49.7458 85.546 49.7458C85.546 49.7458 85.2459 56.2314 90.1233 55.4079C95.0008 54.5843 97.3041 52.0058 97.6009 50.3332C97.8977 48.6607 107.307 55.6464 109.258 52.4496C111.209 49.2528 117.223 50.3755 115.875 46.8477C114.527 43.3199 113.927 42.9961 109.203 42.813C104.479 42.6299 7.57482 46.5957 7.57482 46.5957Z" fill="#648E21"/>
<path d="M71.4743 15.8229L4.11194 44.3348L113.557 38.5546L71.4743 15.8229Z" fill="#FFF8DA" stroke="#A07D36" stroke-width="0.766023" stroke-linecap="round" stroke-linejoin="round"/>
<path d="M113.552 38.5657L4.10919 44.3397L4.42082 50.2464L113.864 44.4724L113.552 38.5657Z" fill="#A07D34" stroke="#A07D36" stroke-width="0.766023" stroke-linecap="round" stroke-linejoin="round"/>
</svg>
