<svg width="55" height="62" viewBox="0 0 55 62" fill="none" xmlns="http://www.w3.org/2000/svg">
<path d="M54.4381 17.6917C54.4381 29.9281 55.1792 61.087 27.5648 61.087C0.111431 61.1111 0.111432 29.8314 0.111432 17.6917C0.105495 16.8546 0.175597 16.0188 0.320876 15.1945C0.448309 14.1186 0.859316 13.0959 1.51183 12.2311C2.16434 11.3663 3.03493 10.6903 4.03449 10.2725C5.82222 9.61273 7.72035 9.30366 9.62504 9.36223C5.07365 12.0608 2.25421 15.7503 2.20588 19.8345C4.7031 26.6172 14.9739 31.6922 27.2748 31.6922C41.3962 31.6922 52.8431 25.0061 52.9237 16.7331C51.8845 13.9056 49.4839 11.3842 46.157 9.3864C47.6491 9.42862 49.123 9.72558 50.515 10.2645C53.0123 11.3358 54.4381 13.5189 54.4381 17.6917Z" fill="#261B0B"/>
<path d="M27.3714 0.694458C13.2017 0.694458 1.57753 7.05835 0.320863 15.1945C0.249205 15.6771 0.214198 16.1645 0.216141 16.6525C0.277562 19.2578 1.26907 21.7552 3.01142 23.6931V23.6931C7.45003 28.9533 16.7059 32.5542 27.3714 32.5542C39.7045 32.5542 50.1203 27.7208 53.4311 21.1233C53.9359 20.1324 54.276 19.0658 54.4381 17.9656C54.5023 17.52 54.5346 17.0704 54.5348 16.6203C54.5348 7.83168 42.3709 0.694458 27.3714 0.694458ZM27.2748 31.6842C14.9739 31.6842 4.7192 26.6092 2.20586 19.8264C2.2542 15.7342 5.07364 12.0447 9.62503 9.35418C14.1764 6.66363 20.7256 4.88335 27.8548 4.88335C34.9839 4.88335 41.5009 6.59918 46.157 9.37835C49.4839 11.3761 51.8845 13.8975 52.9236 16.725C52.8431 24.9981 41.3961 31.6842 27.2748 31.6842V31.6842Z" fill="#261B0B"/>
<path d="M52.9236 16.6364V16.725C51.8845 13.8975 49.4839 11.3761 46.157 9.37834C41.5009 6.59918 35.0161 4.88334 27.8547 4.88334C20.6934 4.88334 14.2731 6.59112 9.62502 9.34612C4.97697 12.1011 2.25419 15.7342 2.20586 19.8183C1.82141 18.7876 1.62497 17.6962 1.62586 16.5961C1.67115 14.2543 2.52497 12.0002 4.04252 10.2161C8.16697 5.13307 17.0281 1.58057 27.2747 1.58057C37.5214 1.58057 46.4228 5.13307 50.515 10.2564C52.0297 12.0416 52.8806 14.2956 52.9236 16.6364Z" fill="#3A2E20"/>
<path d="M52.9237 16.725C52.8431 24.9981 41.3962 31.6842 27.2748 31.6842C14.9739 31.6842 4.71921 26.6092 2.20587 19.8264C2.2542 15.7342 5.07365 12.0448 9.62504 9.3542C14.1764 6.66364 20.7256 4.88336 27.8548 4.88336C34.9839 4.88336 41.5009 6.5992 46.157 9.37836C49.4839 11.3761 51.8845 13.8975 52.9237 16.725Z" fill="#235E17"/>
<path d="M48.7589 18.8275C48.1547 23.105 41.0336 27.2778 40.0831 25.3847C39.5836 24.3214 46.1892 22.8311 46.8336 18.5536C47.4781 14.2761 40.8403 10.8444 42.2903 9.90999C43.2972 9.23333 49.355 14.5581 48.7589 18.8275Z" fill="#6F9B65"/>
</svg>
