<svg width="32" height="32" viewBox="0 0 42 42" fill="none" xmlns="http://www.w3.org/2000/svg">
<g clip-path="url(#clip0_1169_68363)">
<path d="M15.75 31.5H0V15.75C0 12.635 0.923721 9.58985 2.65435 6.99978C4.38499 4.4097 6.8448 2.39098 9.72274 1.1989C12.6007 0.00682425 15.7675 -0.305078 18.8227 0.302639C21.8779 0.910356 24.6843 2.4104 26.8869 4.61308C29.0896 6.81575 30.5897 9.62213 31.1974 12.6773C31.8051 15.7325 31.4932 18.8993 30.3011 21.7773C29.109 24.6552 27.0903 27.115 24.5002 28.8457C21.9102 30.5763 18.8651 31.5 15.75 31.5ZM35 15.89C34.9597 20.9458 32.9334 25.7832 29.3583 29.3583C25.7832 32.9335 20.9458 34.9597 15.89 35C17.1175 37.1262 18.8826 38.8921 21.0081 40.1208C23.1337 41.3494 25.5449 41.9975 28 42H42V28C41.9975 25.5449 41.3494 23.1337 40.1208 21.0081C38.8921 18.8826 37.1262 17.1175 35 15.89Z" fill="#100E34"/>
</g>
<defs>
<clipPath id="clip0_1169_68363">
<rect width="42" height="42" fill="white"/>
</clipPath>
</defs>
</svg>
