<svg width="24" height="24" viewBox="0 0 24 24" fill="none" xmlns="http://www.w3.org/2000/svg">
<g clip-path="url(#clip0_883_69753)">
<path d="M9.87775 12.5463C10.4413 13.1076 11.2043 13.4228 11.9998 13.4228C12.7952 13.4228 13.5582 13.1076 14.1217 12.5463L23.7808 2.88631C23.5584 2.33028 23.1747 1.85353 22.6791 1.51742C22.1835 1.1813 21.5986 1.0012 20.9998 1.00031H2.99975C2.40091 1.0012 1.81604 1.1813 1.32042 1.51742C0.824805 1.85353 0.441119 2.33028 0.21875 2.88631L9.87775 12.5463Z" fill="#100E34"/>
<path d="M15.536 13.9603C14.5974 14.8966 13.3257 15.4223 12 15.4223C10.6743 15.4223 9.40263 14.8966 8.464 13.9603L0 5.50031V23.0003H24V5.50031L15.536 13.9603Z" fill="#100E34"/>
</g>
<defs>
<clipPath id="clip0_883_69753">
<rect width="24" height="24" fill="white"/>
</clipPath>
</defs>
</svg>
