<svg width="64" height="64" viewBox="0 0 64 64" fill="none" xmlns="http://www.w3.org/2000/svg">
<g clip-path="url(#clip0_763_238)">
<path d="M52.7732 32.2132C50.7199 24.5652 47.6452 16.1785 46.1066 12.1225C47.4132 11.5912 48.7486 11.1336 50.1066 10.7519C50.477 10.6554 50.8647 10.6459 51.2394 10.724C51.6141 10.8022 51.9656 10.966 52.2666 11.2025C52.599 11.4558 52.8684 11.7826 53.0534 12.1573C53.2385 12.5321 53.3343 12.9446 53.3332 13.3625H58.6665C58.6704 12.1271 58.3881 10.9075 57.8417 9.79946C57.2953 8.6914 56.4997 7.72494 55.5172 6.97585C54.5701 6.23805 53.4648 5.72982 52.2882 5.49108C51.1116 5.25233 49.8957 5.28956 48.7359 5.59985C46.2903 6.31516 43.8963 7.19631 41.5706 8.23718L39.2426 9.28518L40.1892 11.6585C40.2159 11.7252 41.5386 15.0425 43.1786 19.6345L32.0532 28.2852L22.4373 18.6665H26.6666V13.3332H10.6666V18.6665H14.8959L27.8106 31.5839L22.5119 35.7065C20.1289 33.4612 16.9974 32.18 13.7239 32.1109C10.4504 32.0419 7.26779 33.19 4.79221 35.3329C2.31663 37.4758 0.72424 40.461 0.323375 43.7106C-0.0774902 46.9602 0.741685 50.243 2.62229 52.9232C4.50289 55.6035 7.31113 57.4906 10.5033 58.2192C13.6954 58.9478 17.0443 58.466 19.9016 56.8671C22.7589 55.2682 24.9212 52.6659 25.97 49.5642C27.0187 46.4625 26.8793 43.082 25.5786 40.0772L45.0132 24.9598C45.8132 27.4105 46.6132 29.9759 47.3226 32.4772C44.1305 33.3092 41.3601 35.295 39.547 38.0508C37.7339 40.8066 37.0066 44.1367 37.5059 47.3974C38.0052 50.6582 39.6955 53.6181 42.2501 55.7051C44.8048 57.7921 48.0424 58.858 51.3372 58.6968C54.632 58.5356 57.7501 57.1588 60.0888 54.8324C62.4275 52.506 63.8208 49.3952 63.9994 46.1013C64.178 42.8074 63.1292 39.5642 61.0557 36.9985C58.9822 34.4329 56.0313 32.727 52.7732 32.2105V32.2132ZM13.3333 53.3332C11.751 53.3332 10.2043 52.864 8.88871 51.9849C7.57311 51.1059 6.54773 49.8565 5.94223 48.3946C5.33673 46.9328 5.17831 45.3243 5.48699 43.7725C5.79567 42.2206 6.5576 40.7951 7.67641 39.6763C8.79523 38.5575 10.2207 37.7956 11.7725 37.4869C13.3244 37.1782 14.9329 37.3366 16.3947 37.9421C17.8565 38.5476 19.106 39.573 19.985 40.8886C20.8641 42.2042 21.3333 43.7509 21.3333 45.3332C21.3333 47.4549 20.4904 49.4897 18.9901 50.99C17.4898 52.4903 15.455 53.3332 13.3333 53.3332ZM50.6666 53.3332C49.0843 53.3332 47.5376 52.864 46.222 51.9849C44.9064 51.1059 43.881 49.8565 43.2755 48.3946C42.67 46.9328 42.5116 45.3243 42.8203 43.7725C43.129 42.2206 43.8909 40.7951 45.0097 39.6763C46.1285 38.5575 47.554 37.7956 49.1058 37.4869C50.6577 37.1782 52.2662 37.3366 53.728 37.9421C55.1898 38.5476 56.4393 39.573 57.3183 40.8886C58.1974 42.2042 58.6665 43.7509 58.6665 45.3332C58.6665 47.4549 57.8237 49.4897 56.3234 50.99C54.8231 52.4903 52.7883 53.3332 50.6666 53.3332Z" fill="#4F48EC"/>
</g>
<defs>
<clipPath id="clip0_763_238">
<rect width="64" height="64" fill="white"/>
</clipPath>
</defs>
</svg>
